<?xml version="1.0" encoding="UTF-8" standalone="no"?>
<!-- Created with Inkscape (http://www.inkscape.org/) -->

<svg
   xmlns:dc="http://purl.org/dc/elements/1.1/"
   xmlns:cc="http://creativecommons.org/ns#"
   xmlns:rdf="http://www.w3.org/1999/02/22-rdf-syntax-ns#"
   xmlns:svg="http://www.w3.org/2000/svg"
   xmlns="http://www.w3.org/2000/svg"
   xmlns:sodipodi="http://sodipodi.sourceforge.net/DTD/sodipodi-0.dtd"
   xmlns:inkscape="http://www.inkscape.org/namespaces/inkscape"
   width="32"
   height="32"
   id="svg2"
   version="1.1"
   inkscape:version="0.48.4 r9939"
   sodipodi:docname="media-optical.svgz">
  <defs
     id="defs4" />
  <sodipodi:namedview
     id="base"
     pagecolor="#212121"
     bordercolor="#ff5b00"
     borderopacity="1"
     inkscape:pageopacity="0.79215686"
     inkscape:pageshadow="2"
     inkscape:zoom="11.313708"
     inkscape:cx="15.094279"
     inkscape:cy="13.524541"
     inkscape:document-units="px"
     inkscape:current-layer="layer1"
     showgrid="true"
     inkscape:window-width="1366"
     inkscape:window-height="713"
     inkscape:window-x="0"
     inkscape:window-y="-3"
     inkscape:window-maximized="1"
     showguides="true"
     inkscape:guide-bbox="true">
    <inkscape:grid
       type="xygrid"
       id="grid2985"
       empspacing="5"
       visible="true"
       enabled="true"
       snapvisiblegridlinesonly="true" />
  </sodipodi:namedview>
  <metadata
     id="metadata7">
    <rdf:RDF>
      <cc:Work
         rdf:about="">
        <dc:format>image/svg+xml</dc:format>
        <dc:type
           rdf:resource="http://purl.org/dc/dcmitype/StillImage" />
        <dc:title />
      </cc:Work>
    </rdf:RDF>
  </metadata>
  <g
     inkscape:label="Capa 1"
     inkscape:groupmode="layer"
     id="layer1"
     transform="translate(0,-1020.3622)">
    <path
       sodipodi:type="arc"
       style="fill:#000000;fill-opacity:0.39215686;stroke:none"
       id="path3028"
       sodipodi:cx="-77.5"
       sodipodi:cy="-5.5"
       sodipodi:rx="17.5"
       sodipodi:ry="17.5"
       d="m -60,-5.5 a 17.5,17.5 0 1 1 -35,0 17.5,17.5 0 1 1 35,0 z"
       transform="matrix(0.79689447,0,0,0.79689447,77.866906,1040.8034)" />
    <path
       id="path2987"
       style="fill:#f2f2f2;fill-opacity:1;stroke:none"
       d="m 16.153472,1031.0957 c 2.936718,0 5.296085,2.3966 5.296085,5.3332 0,2.9367 -2.359367,5.2962 -5.296085,5.2962 -2.936717,0 -5.33338,-2.3595 -5.33338,-5.2962 0,-2.9366 2.396663,-5.3332 5.33338,-5.3332 z m -0.06435,-6.6615 c -6.6343802,0 -12.021195,5.3568 -12.021195,11.9911 0,6.6344 5.3868148,12.0212 12.021195,12.0212 6.634381,0 11.991142,-5.3868 11.991142,-12.0212 0,-6.6343 -5.356761,-11.9911 -11.991142,-11.9911 z"
       inkscape:connector-curvature="0" />
    <path
       inkscape:connector-curvature="0"
       style="fill:#f2f2f2;fill-opacity:1;stroke:none"
       d="m 16.10713,1032.5483 c -2.125656,0 -3.851603,1.7159 -3.851603,3.8416 0,2.1265 1.725947,3.852 3.851603,3.852 2.125657,0 3.841962,-1.7255 3.841962,-3.852 0,-2.1257 -1.716305,-3.8416 -3.841962,-3.8416 z m 0,2.4645 c 0.758176,0 1.367316,0.6198 1.367316,1.3771 0,0.7588 -0.60914,1.3674 -1.367316,1.3674 -0.758186,0 -1.376958,-0.6086 -1.376958,-1.3674 0,-0.7573 0.618772,-1.3771 1.376958,-1.3771 z"
       id="path2987-6" />
  </g>
</svg>
