<?xml version="1.0" encoding="UTF-8" standalone="no"?>
<svg
   version="1.1"
   viewBox="0 0 32 32"
   id="svg7"
   sodipodi:docname="system-lock-screen.svg"
   inkscape:version="1.2.1 (9c6d41e410, 2022-07-14, custom)"
   xmlns:inkscape="http://www.inkscape.org/namespaces/inkscape"
   xmlns:sodipodi="http://sodipodi.sourceforge.net/DTD/sodipodi-0.dtd"
   xmlns="http://www.w3.org/2000/svg"
   xmlns:svg="http://www.w3.org/2000/svg">
  <sodipodi:namedview
     id="namedview9"
     pagecolor="#505050"
     bordercolor="#ffffff"
     borderopacity="1"
     inkscape:pageshadow="0"
     inkscape:pageopacity="0"
     inkscape:pagecheckerboard="1"
     showgrid="false"
     inkscape:zoom="10.0625"
     inkscape:cx="9.689441"
     inkscape:cy="15.204969"
     inkscape:window-width="1440"
     inkscape:window-height="874"
     inkscape:window-x="1600"
     inkscape:window-y="150"
     inkscape:window-maximized="1"
     inkscape:current-layer="svg7"
     inkscape:showpageshadow="2"
     inkscape:deskcolor="#505050" />
  <defs
     id="defs3">
    <style
       type="text/css"
       id="current-color-scheme">
            .ColorScheme-Text {
                color:#eff0f1;
            }
        </style>
  </defs>
  <g
     id="dark-lock"
     transform="matrix(4.3194604,0,0,-4.3194598,-80.492034,1123.7401)">
    <rect
       transform="matrix(0,1,1,0,0,0)"
       y="15.610413"
       x="254.93123"
       height="3.7041664"
       width="3.7041669"
       id="rect2183-7-2"
       style="opacity:1;fill:none;fill-opacity:1;stroke:none;stroke-width:0.0374177;stroke-linecap:square;stroke-linejoin:miter;stroke-miterlimit:4;stroke-dasharray:none;stroke-dashoffset:0;stroke-opacity:1" />
    <path
       d="m 17.473692,258.37146 c -0.390877,0 -0.705555,-0.33041 -0.705555,-0.74083 v -0.74083 h -0.352778 v -1.48167 h 2.116666 v 1.48167 h -0.352777 v 0.74083 c 0,0.41042 -0.314678,0.74083 -0.705556,0.74083 z m 0,-0.1852 c 0.293159,0 0.529167,-0.28912 0.529167,-0.64823 v -0.64823 h -1.058333 v 0.64823 c 0,0.35911 0.236008,0.64823 0.529166,0.64823 z"
       fill="currentColor"
       id="path3121"
       sodipodi:nodetypes="ssccccccssssccss"
       style="fill:#202020;fill-opacity:1;stroke-width:0.180745" />
  </g>
  <g
     id="light-lock"
     transform="matrix(4.3194604,0,0,-4.3194598,-53.037938,1125.0602)">
    <rect
       transform="matrix(0,1,1,0,0,0)"
       y="15.610413"
       x="254.93123"
       height="3.7041664"
       width="3.7041669"
       id="rect3123"
       style="opacity:1;fill:none;fill-opacity:1;stroke:none;stroke-width:0.0374177;stroke-linecap:square;stroke-linejoin:miter;stroke-miterlimit:4;stroke-dasharray:none;stroke-dashoffset:0;stroke-opacity:1" />
    <path
       d="m 17.473692,258.37146 c -0.390877,0 -0.705555,-0.33041 -0.705555,-0.74083 v -0.74083 h -0.352778 v -1.48167 h 2.116666 v 1.48167 h -0.352777 v 0.74083 c 0,0.41042 -0.314678,0.74083 -0.705556,0.74083 z m 0,-0.1852 c 0.293159,0 0.529167,-0.28912 0.529167,-0.64823 v -0.64823 h -1.058333 v 0.64823 c 0,0.35911 0.236008,0.64823 0.529166,0.64823 z"
       fill="currentColor"
       id="path3125"
       sodipodi:nodetypes="ssccccccssssccss"
       class="ColorScheme-Text" />
  </g>
</svg>
