<?xml version="1.0" encoding="UTF-8" standalone="no"?>
<svg
   xmlns:dc="http://purl.org/dc/elements/1.1/"
   xmlns:cc="http://creativecommons.org/ns#"
   xmlns:rdf="http://www.w3.org/1999/02/22-rdf-syntax-ns#"
   xmlns:svg="http://www.w3.org/2000/svg"
   xmlns="http://www.w3.org/2000/svg"
   xmlns:sodipodi="http://sodipodi.sourceforge.net/DTD/sodipodi-0.dtd"
   xmlns:inkscape="http://www.inkscape.org/namespaces/inkscape"
   width="22"
   height="22"
   viewBox="5 -10 22 29.7"
   version="1.1"
   id="svg2"
   inkscape:version="0.91 r13725"
   sodipodi:docname="battery.svgz"
   shape-rendering="crispEdges">
  <metadata
     id="metadata21">
    <rdf:RDF>
      <cc:Work
         rdf:about="">
        <dc:format>image/svg+xml</dc:format>
        <dc:type
           rdf:resource="http://purl.org/dc/dcmitype/StillImage" />
        <dc:title>Artboard 1</dc:title>
      </cc:Work>
    </rdf:RDF>
  </metadata>
  <sodipodi:namedview
     pagecolor="#4c6b8a"
     bordercolor="#666666"
     borderopacity="1"
     objecttolerance="10"
     gridtolerance="10"
     guidetolerance="10"
     inkscape:pageopacity="1"
     inkscape:pageshadow="2"
     inkscape:window-width="1366"
     inkscape:window-height="697"
     id="namedview19"
     showgrid="true"
     inkscape:zoom="1.4142136"
     inkscape:cx="-74.259019"
     inkscape:cy="-21.279849"
     inkscape:window-x="-4"
     inkscape:window-y="0"
     inkscape:window-maximized="1"
     inkscape:current-layer="svg2"
     fit-margin-top="0"
     fit-margin-left="0"
     fit-margin-right="0"
     fit-margin-bottom="0"
     inkscape:snap-bbox="true"
     inkscape:bbox-paths="true"
     inkscape:bbox-nodes="true"
     inkscape:object-paths="true"
     inkscape:snap-bbox-edge-midpoints="true"
     inkscape:object-nodes="true"
     inkscape:snap-nodes="true">
    <inkscape:grid
       type="xygrid"
       id="grid3002"
       empspacing="5"
       visible="true"
       enabled="true"
       snapvisiblegridlinesonly="true"
       originx="-424.99999"
       originy="26.999999" />
  </sodipodi:namedview>
  <title
     id="title4">Artboard 1</title>
  <description
     id="description6">Created with Sketch (http://www.bohemiancoding.com/sketch)</description>
  <defs
     id="defs8" />
  <g
     id="Fill100"
     transform="translate(-434.69997,2.8610229e-6)">
    <path
       sodipodi:nodetypes="ccccccccccccccccc"
       inkscape:connector-curvature="0"
       id="rect4251"
       d="m 7.8999696,-7.3000026 0,1.35 -4.05,0 -2e-7,21.6000006 13.5000006,0 0,-21.6000006 -4.05,0 0,-1.35 z m 5.4000004,2.6973632 2.7,0 0,18.9026374 -10.8000006,0 2e-7,-18.9000007 2.7,0 5.4000004,0 z"
       style="fill:#f7f7f7;fill-opacity:1;stroke:none" />
    <rect
       y="11.599998"
       x="20.049971"
       height="2.6999984"
       width="8.1000004"
       id="rect4300"
       style="fill:#f7f7f7;fill-opacity:1;stroke:none" />
    <rect
       style="fill:#f7f7f7;fill-opacity:1;stroke:none"
       id="rect4302"
       width="8.1000004"
       height="2.6999984"
       x="20.049971"
       y="7.5499959" />
    <rect
       y="3.4999962"
       x="20.049971"
       height="2.6999984"
       width="8.1000004"
       id="rect4304"
       style="fill:#f7f7f7;fill-opacity:1;stroke:none" />
    <rect
       style="fill:#f7f7f7;fill-opacity:1;stroke:none"
       id="rect4306"
       width="8.1000004"
       height="2.6999984"
       x="20.049971"
       y="-0.55000246" />
    <rect
       y="-4.6000023"
       x="20.049971"
       height="2.6999984"
       width="8.1000004"
       id="rect4308"
       style="fill:#f7f7f7;fill-opacity:1;stroke:none" />
    <g
       transform="translate(-27.675044,-24.975002)"
       id="g4312">
      <path
         class="ColorScheme-Text"
         style="fill:#f7f7f7;fill-opacity:1;fill-rule:evenodd;stroke:none"
         d="m 39.502299,23.075 -4.909005,7.363575 2.454435,0 0,6.136425 4.909005,-7.36371 -2.454435,0 z"
         id="path4314"
         inkscape:connector-curvature="0"
         sodipodi:nodetypes="ccccccc" />
      <g
         id="g4316"
         transform="translate(27,24.3)" />
    </g>
    <rect
       ry="0"
       y="-10.000003"
       x="1.1499695"
       height="29.700001"
       width="29.700001"
       id="rect4335"
       style="fill:#f7f7f7;fill-opacity:0;stroke:none" />
  </g>
  <g
     transform="translate(-396.89997,2.8610229e-6)"
     id="Fill90">
    <path
       style="fill:#f7f7f7;fill-opacity:1;stroke:none"
       d="m 7.8999696,-7.3000026 0,1.35 -4.05,0 -2e-7,21.6000006 13.5000006,0 0,-21.6000006 -4.05,0 0,-1.35 z m 5.4000004,2.6973632 2.7,0 0,18.9026374 -10.8000006,0 2e-7,-18.9000007 2.7,0 5.4000004,0 z"
       id="path4360"
       inkscape:connector-curvature="0"
       sodipodi:nodetypes="ccccccccccccccccc" />
    <rect
       style="fill:#f7f7f7;fill-opacity:1;stroke:none"
       id="rect4362"
       width="8.1000004"
       height="2.6999984"
       x="20.049971"
       y="11.599998" />
    <rect
       y="7.5499959"
       x="20.049971"
       height="2.6999984"
       width="8.1000004"
       id="rect4364"
       style="fill:#f7f7f7;fill-opacity:1;stroke:none" />
    <rect
       style="fill:#f7f7f7;fill-opacity:1;stroke:none"
       id="rect4366"
       width="8.1000004"
       height="2.6999984"
       x="20.049971"
       y="3.4999962" />
    <rect
       y="-0.55000246"
       x="20.049971"
       height="2.6999984"
       width="8.1000004"
       id="rect4368"
       style="fill:#f7f7f7;fill-opacity:1;stroke:none" />
    <rect
       style="opacity:1;fill:#f7f7f7;fill-opacity:0.58823529;stroke:none"
       id="rect4370"
       width="8.1000004"
       height="2.6999984"
       x="20.049971"
       y="-4.6000023" />
    <g
       id="g4372"
       transform="translate(-27.675044,-24.975002)">
      <path
         sodipodi:nodetypes="ccccccc"
         inkscape:connector-curvature="0"
         id="path4374"
         d="m 39.502299,23.075 -4.909005,7.363575 2.454435,0 0,6.136425 4.909005,-7.36371 -2.454435,0 z"
         style="fill:#f7f7f7;fill-opacity:1;fill-rule:evenodd;stroke:none"
         class="ColorScheme-Text" />
      <g
         transform="translate(27,24.3)"
         id="g4376" />
    </g>
    <rect
       style="fill:#f7f7f7;fill-opacity:0;stroke:none"
       id="rect4378"
       width="29.700001"
       height="29.700001"
       x="1.1499695"
       y="-10.000003"
       ry="0" />
  </g>
  <g
     id="Fill80"
     transform="translate(-359.09997,2.8610229e-6)">
    <path
       sodipodi:nodetypes="ccccccccccccccccc"
       inkscape:connector-curvature="0"
       id="path4402"
       d="m 7.8999696,-7.3000026 0,1.35 -4.05,0 -2e-7,21.6000006 13.5000006,0 0,-21.6000006 -4.05,0 0,-1.35 z m 5.4000004,2.6973632 2.7,0 0,18.9026374 -10.8000006,0 2e-7,-18.9000007 2.7,0 5.4000004,0 z"
       style="fill:#f7f7f7;fill-opacity:1;stroke:none" />
    <rect
       y="11.599998"
       x="20.049971"
       height="2.6999984"
       width="8.1000004"
       id="rect4404"
       style="fill:#f7f7f7;fill-opacity:1;stroke:none" />
    <rect
       style="fill:#f7f7f7;fill-opacity:1;stroke:none"
       id="rect4406"
       width="8.1000004"
       height="2.6999984"
       x="20.049971"
       y="7.5499959" />
    <rect
       y="3.4999962"
       x="20.049971"
       height="2.6999984"
       width="8.1000004"
       id="rect4408"
       style="fill:#f7f7f7;fill-opacity:1;stroke:none" />
    <rect
       style="fill:#f7f7f7;fill-opacity:1;stroke:none"
       id="rect4410"
       width="8.1000004"
       height="2.6999984"
       x="20.049971"
       y="-0.55000246" />
    <g
       transform="translate(-27.675044,-24.975002)"
       id="g4414">
      <path
         class="ColorScheme-Text"
         style="fill:#f7f7f7;fill-opacity:1;fill-rule:evenodd;stroke:none"
         d="m 39.502299,23.075 -4.909005,7.363575 2.454435,0 0,6.136425 4.909005,-7.36371 -2.454435,0 z"
         id="path4416"
         inkscape:connector-curvature="0"
         sodipodi:nodetypes="ccccccc" />
      <g
         id="g4418"
         transform="translate(27,24.3)" />
    </g>
    <rect
       ry="0"
       y="-10.000003"
       x="1.1499695"
       height="29.700001"
       width="29.700001"
       id="rect4420"
       style="fill:#f7f7f7;fill-opacity:0;stroke:none" />
  </g>
  <g
     transform="translate(-321.29997,2.8610229e-6)"
     id="Fill70">
    <path
       style="fill:#f7f7f7;fill-opacity:1;stroke:none"
       d="m 7.8999696,-7.3000026 0,1.35 -4.05,0 -2e-7,21.6000006 13.5000006,0 0,-21.6000006 -4.05,0 0,-1.35 z m 5.4000004,2.6973632 2.7,0 0,18.9026374 -10.8000006,0 2e-7,-18.9000007 2.7,0 5.4000004,0 z"
       id="path4424"
       inkscape:connector-curvature="0"
       sodipodi:nodetypes="ccccccccccccccccc" />
    <rect
       style="fill:#f7f7f7;fill-opacity:1;stroke:none"
       id="rect4426"
       width="8.1000004"
       height="2.6999984"
       x="20.049971"
       y="11.599998" />
    <rect
       y="7.5499959"
       x="20.049971"
       height="2.6999984"
       width="8.1000004"
       id="rect4428"
       style="fill:#f7f7f7;fill-opacity:1;stroke:none" />
    <rect
       style="fill:#f7f7f7;fill-opacity:1;stroke:none"
       id="rect4430"
       width="8.1000004"
       height="2.6999984"
       x="20.049971"
       y="3.4999962" />
    <rect
       y="-0.55000246"
       x="20.049971"
       height="2.6999984"
       width="8.1000004"
       id="rect4432"
       style="fill:#f7f7f7;fill-opacity:0.58823529;stroke:none" />
    <g
       id="g4434"
       transform="translate(-27.675044,-24.975002)">
      <path
         sodipodi:nodetypes="ccccccc"
         inkscape:connector-curvature="0"
         id="path4436"
         d="m 39.502299,23.075 -4.909005,7.363575 2.454435,0 0,6.136425 4.909005,-7.36371 -2.454435,0 z"
         style="fill:#f7f7f7;fill-opacity:1;fill-rule:evenodd;stroke:none"
         class="ColorScheme-Text" />
      <g
         transform="translate(27,24.3)"
         id="g4438" />
    </g>
    <rect
       style="fill:#f7f7f7;fill-opacity:0;stroke:none"
       id="rect4440"
       width="29.700001"
       height="29.700001"
       x="1.1499695"
       y="-10.000003"
       ry="0" />
  </g>
  <g
     id="Fill60"
     transform="translate(-283.49997,2.8610229e-6)">
    <path
       sodipodi:nodetypes="ccccccccccccccccc"
       inkscape:connector-curvature="0"
       id="path4444"
       d="m 7.8999696,-7.3000026 0,1.35 -4.05,0 -2e-7,21.6000006 13.5000006,0 0,-21.6000006 -4.05,0 0,-1.35 z m 5.4000004,2.6973632 2.7,0 0,18.9026374 -10.8000006,0 2e-7,-18.9000007 2.7,0 5.4000004,0 z"
       style="fill:#f7f7f7;fill-opacity:1;stroke:none" />
    <rect
       y="11.599998"
       x="20.049971"
       height="2.6999984"
       width="8.1000004"
       id="rect4446"
       style="fill:#f7f7f7;fill-opacity:1;stroke:none" />
    <rect
       style="fill:#f7f7f7;fill-opacity:1;stroke:none"
       id="rect4448"
       width="8.1000004"
       height="2.6999984"
       x="20.049971"
       y="7.5499959" />
    <rect
       y="3.4999962"
       x="20.049971"
       height="2.6999984"
       width="8.1000004"
       id="rect4450"
       style="fill:#f7f7f7;fill-opacity:1;stroke:none" />
    <g
       transform="translate(-27.675044,-24.975002)"
       id="g4454">
      <path
         class="ColorScheme-Text"
         style="fill:#f7f7f7;fill-opacity:1;fill-rule:evenodd;stroke:none"
         d="m 39.502299,23.075 -4.909005,7.363575 2.454435,0 0,6.136425 4.909005,-7.36371 -2.454435,0 z"
         id="path4456"
         inkscape:connector-curvature="0"
         sodipodi:nodetypes="ccccccc" />
      <g
         id="g4458"
         transform="translate(27,24.3)" />
    </g>
    <rect
       ry="0"
       y="-10.000003"
       x="1.1499695"
       height="29.700001"
       width="29.700001"
       id="rect4460"
       style="fill:#f7f7f7;fill-opacity:0;stroke:none" />
  </g>
  <g
     transform="translate(-245.69997,2.8610229e-6)"
     id="Fill50">
    <path
       style="fill:#f7f7f7;fill-opacity:1;stroke:none"
       d="m 7.8999696,-7.3000026 0,1.35 -4.05,0 -2e-7,21.6000006 13.5000006,0 0,-21.6000006 -4.05,0 0,-1.35 z m 5.4000004,2.6973632 2.7,0 0,18.9026374 -10.8000006,0 2e-7,-18.9000007 2.7,0 5.4000004,0 z"
       id="path4464"
       inkscape:connector-curvature="0"
       sodipodi:nodetypes="ccccccccccccccccc" />
    <rect
       style="fill:#f7f7f7;fill-opacity:1;stroke:none"
       id="rect4466"
       width="8.1000004"
       height="2.6999984"
       x="20.049971"
       y="11.599998" />
    <rect
       y="7.5499959"
       x="20.049971"
       height="2.6999984"
       width="8.1000004"
       id="rect4468"
       style="fill:#f7f7f7;fill-opacity:1;stroke:none" />
    <rect
       style="fill:#f7f7f7;fill-opacity:0.58823529;stroke:none"
       id="rect4470"
       width="8.1000004"
       height="2.6999984"
       x="20.049971"
       y="3.4999962" />
    <g
       id="g4472"
       transform="translate(-27.675044,-24.975002)">
      <path
         sodipodi:nodetypes="ccccccc"
         inkscape:connector-curvature="0"
         id="path4474"
         d="m 39.502299,23.075 -4.909005,7.363575 2.454435,0 0,6.136425 4.909005,-7.36371 -2.454435,0 z"
         style="fill:#f7f7f7;fill-opacity:1;fill-rule:evenodd;stroke:none"
         class="ColorScheme-Text" />
      <g
         transform="translate(27,24.3)"
         id="g4476" />
    </g>
    <rect
       style="fill:#f7f7f7;fill-opacity:0;stroke:none"
       id="rect4478"
       width="29.700001"
       height="29.700001"
       x="1.1499695"
       y="-10.000003"
       ry="0" />
  </g>
  <g
     id="Fill40"
     transform="translate(-205.19997,2.8610229e-6)">
    <path
       sodipodi:nodetypes="ccccccccccccccccc"
       inkscape:connector-curvature="0"
       id="path4482"
       d="m 7.8999696,-7.3000026 0,1.35 -4.05,0 -2e-7,21.6000006 13.5000006,0 0,-21.6000006 -4.05,0 0,-1.35 z m 5.4000004,2.6973632 2.7,0 0,18.9026374 -10.8000006,0 2e-7,-18.9000007 2.7,0 5.4000004,0 z"
       style="fill:#f7f7f7;fill-opacity:1;stroke:none" />
    <rect
       y="11.599998"
       x="20.049971"
       height="2.6999984"
       width="8.1000004"
       id="rect4484"
       style="fill:#f7f7f7;fill-opacity:1;stroke:none" />
    <rect
       style="fill:#f7f7f7;fill-opacity:1;stroke:none"
       id="rect4486"
       width="8.1000004"
       height="2.6999984"
       x="20.049971"
       y="7.5499959" />
    <g
       transform="translate(-27.675044,-24.975002)"
       id="g4490">
      <path
         class="ColorScheme-Text"
         style="fill:#f7f7f7;fill-opacity:1;fill-rule:evenodd;stroke:none"
         d="m 39.502299,23.075 -4.909005,7.363575 2.454435,0 0,6.136425 4.909005,-7.36371 -2.454435,0 z"
         id="path4492"
         inkscape:connector-curvature="0"
         sodipodi:nodetypes="ccccccc" />
      <g
         id="g4494"
         transform="translate(27,24.3)" />
    </g>
    <rect
       ry="0"
       y="-10.000003"
       x="1.1499695"
       height="29.700001"
       width="29.700001"
       id="rect4496"
       style="fill:#f7f7f7;fill-opacity:0;stroke:none" />
  </g>
  <g
     transform="translate(-164.69997,2.8610229e-6)"
     id="Fill30">
    <path
       style="fill:#f7f7f7;fill-opacity:1;stroke:none"
       d="m 7.8999696,-7.3000026 0,1.35 -4.05,0 -2e-7,21.6000006 13.5000006,0 0,-21.6000006 -4.05,0 0,-1.35 z m 5.4000004,2.6973632 2.7,0 0,18.9026374 -10.8000006,0 2e-7,-18.9000007 2.7,0 5.4000004,0 z"
       id="path4500"
       inkscape:connector-curvature="0"
       sodipodi:nodetypes="ccccccccccccccccc" />
    <rect
       style="fill:#f7f7f7;fill-opacity:1;stroke:none"
       id="rect4502"
       width="8.1000004"
       height="2.6999984"
       x="20.049971"
       y="11.599998" />
    <rect
       y="7.5499959"
       x="20.049971"
       height="2.6999984"
       width="8.1000004"
       id="rect4504"
       style="fill:#f7f7f7;fill-opacity:0.58823529;stroke:none" />
    <g
       id="g4506"
       transform="translate(-27.675044,-24.975002)">
      <path
         sodipodi:nodetypes="ccccccc"
         inkscape:connector-curvature="0"
         id="path4508"
         d="m 39.502299,23.075 -4.909005,7.363575 2.454435,0 0,6.136425 4.909005,-7.36371 -2.454435,0 z"
         style="fill:#f7f7f7;fill-opacity:1;fill-rule:evenodd;stroke:none"
         class="ColorScheme-Text" />
      <g
         transform="translate(27,24.3)"
         id="g4510" />
    </g>
    <rect
       style="fill:#f7f7f7;fill-opacity:0;stroke:none"
       id="rect4512"
       width="29.700001"
       height="29.700001"
       x="1.1499695"
       y="-10.000003"
       ry="0" />
  </g>
  <g
     id="Fill20"
     transform="translate(-124.19997,2.8610229e-6)">
    <path
       sodipodi:nodetypes="ccccccccccccccccc"
       inkscape:connector-curvature="0"
       id="path4516"
       d="m 7.8999696,-7.3000026 0,1.35 -4.05,0 -2e-7,21.6000006 13.5000006,0 0,-21.6000006 -4.05,0 0,-1.35 z m 5.4000004,2.6973632 2.7,0 0,18.9026374 -10.8000006,0 2e-7,-18.9000007 2.7,0 5.4000004,0 z"
       style="fill:#e74c3c;fill-opacity:1;stroke:none" />
    <rect
       y="11.599998"
       x="20.049971"
       height="2.6999984"
       width="8.1000004"
       id="rect4518"
       style="fill:#e74c3c;fill-opacity:1;stroke:none" />
    <g
       transform="translate(-27.675044,-24.975002)"
       id="g4522">
      <path
         class="ColorScheme-Text"
         style="fill:#e74c3c;fill-opacity:1;fill-rule:evenodd;stroke:none"
         d="m 39.502299,23.075 -4.909005,7.363575 2.454435,0 0,6.136425 4.909005,-7.36371 -2.454435,0 z"
         id="path4524"
         inkscape:connector-curvature="0"
         sodipodi:nodetypes="ccccccc" />
      <g
         id="g4526"
         transform="translate(27,24.3)" />
    </g>
    <rect
       ry="0"
       y="-10.000003"
       x="1.1499695"
       height="29.700001"
       width="29.700001"
       id="rect4528"
       style="fill:#f7f7f7;fill-opacity:0;stroke:none" />
  </g>
  <g
     transform="translate(-80.99997,2.8610229e-6)"
     id="Fill10">
    <path
       style="fill:#e74c3c;fill-opacity:1;stroke:none"
       d="m 7.8999696,-7.3000026 0,1.35 -4.05,0 -2e-7,21.6000006 13.5000006,0 0,-21.6000006 -4.05,0 0,-1.35 z m 5.4000004,2.6973632 2.7,0 0,18.9026374 -10.8000006,0 2e-7,-18.9000007 2.7,0 5.4000004,0 z"
       id="path4532"
       inkscape:connector-curvature="0"
       sodipodi:nodetypes="ccccccccccccccccc" />
    <rect
       style="fill:#e74c3c;fill-opacity:0.58823529;stroke:none"
       id="rect4534"
       width="8.1000004"
       height="2.6999984"
       x="20.049971"
       y="11.599998" />
    <g
       id="g4536"
       transform="translate(-27.675044,-24.975002)">
      <path
         sodipodi:nodetypes="ccccccc"
         inkscape:connector-curvature="0"
         id="path4538"
         d="m 39.502299,23.075 -4.909005,7.363575 2.454435,0 0,6.136425 4.909005,-7.36371 -2.454435,0 z"
         style="fill:#e74c3c;fill-opacity:1;fill-rule:evenodd;stroke:none"
         class="ColorScheme-Text" />
      <g
         transform="translate(27,24.3)"
         id="g4540" />
    </g>
    <rect
       style="fill:#f7f7f7;fill-opacity:0;stroke:none"
       id="rect4542"
       width="29.700001"
       height="29.700001"
       x="1.1499695"
       y="-10.000003"
       ry="0" />
  </g>
  <g
     id="Fill0"
     transform="translate(-40.49997,2.8610229e-6)">
    <path
       sodipodi:nodetypes="ccccccccccccccccc"
       inkscape:connector-curvature="0"
       id="path4546"
       d="m 7.8999696,-7.3000026 0,1.35 -4.05,0 -2e-7,21.6000006 13.5000006,0 0,-21.6000006 -4.05,0 0,-1.35 z m 5.4000004,2.6973632 2.7,0 0,18.9026374 -10.8000006,0 2e-7,-18.9000007 2.7,0 5.4000004,0 z"
       style="fill:#e74c3c;fill-opacity:1;stroke:none" />
    <g
       transform="translate(-27.675044,-24.975002)"
       id="g4550">
      <path
         class="ColorScheme-Text"
         style="fill:#e74c3c;fill-opacity:1;fill-rule:evenodd;stroke:none"
         d="m 39.502299,23.075 -4.909005,7.363575 2.454435,0 0,6.136425 4.909005,-7.36371 -2.454435,0 z"
         id="path4552"
         inkscape:connector-curvature="0"
         sodipodi:nodetypes="ccccccc" />
      <g
         id="g4554"
         transform="translate(27,24.3)" />
    </g>
    <rect
       ry="0"
       y="-10.000003"
       x="1.1499695"
       height="29.700001"
       width="29.700001"
       id="rect4556"
       style="fill:#f7f7f7;fill-opacity:0;stroke:none" />
  </g>
  <g
     id="AcAdapter"
     transform="translate(2.9611487e-5,43.200003)">
    <g
       transform="translate(-27.675044,-24.975002)"
       id="g4357">
      <path
         class="ColorScheme-Text"
         style="fill:#1abc9c;fill-opacity:1;fill-rule:evenodd;stroke:none"
         d="m 39.502299,23.075 -4.909005,7.363575 2.454435,0 0,6.136425 4.909005,-7.36371 -2.454435,0 z"
         id="path4359"
         inkscape:connector-curvature="0"
         sodipodi:nodetypes="ccccccc" />
      <g
         id="g4361"
         transform="translate(27,24.3)" />
    </g>
    <rect
       ry="0"
       y="-10.000003"
       x="1.1499695"
       height="29.700001"
       width="29.700001"
       id="rect4363"
       style="fill:#f7f7f7;fill-opacity:0;stroke:none" />
  </g>
  <g
     id="22-22-battery-discharging"
     transform="translate(48.60003,2.8610229e-6)">
    <path
       sodipodi:nodetypes="ccccccccccccccccc"
       inkscape:connector-curvature="0"
       id="path4367"
       d="m 7.8999696,-7.3000026 0,1.35 -4.05,0 -2e-7,21.6000006 13.5000006,0 0,-21.6000006 -4.05,0 0,-1.35 z m 5.4000004,2.6973632 2.7,0 0,18.9026374 -10.8000006,0 2e-7,-18.9000007 2.7,0 5.4000004,0 z"
       style="fill:#f7f7f7;fill-opacity:1;stroke:none" />
    <g
       transform="translate(-27.675044,-24.975002)"
       id="g4369">
      <path
         class="ColorScheme-Text"
         style="fill:#f7f7f7;fill-opacity:1;fill-rule:evenodd;stroke:none"
         d="m 39.502299,23.075 -4.909005,7.363575 2.454435,0 0,6.136425 4.909005,-7.36371 -2.454435,0 z"
         id="path4371"
         inkscape:connector-curvature="0"
         sodipodi:nodetypes="ccccccc" />
      <g
         id="g4373"
         transform="translate(27,24.3)" />
    </g>
    <rect
       ry="0"
       y="-10.000003"
       x="1.1499695"
       height="29.700001"
       width="29.700001"
       id="rect4375"
       style="fill:#f7f7f7;fill-opacity:0;stroke:none" />
  </g>
  <g
     transform="translate(48.6,43.200002)"
     id="Unavailable">
    <path
       style="color:#000000;font-style:normal;font-variant:normal;font-weight:normal;font-stretch:normal;font-size:medium;line-height:normal;font-family:Sans;-inkscape-font-specification:Sans;text-indent:0;text-align:start;text-decoration:none;text-decoration-line:none;letter-spacing:normal;word-spacing:normal;text-transform:none;direction:ltr;block-progression:tb;writing-mode:lr-tb;baseline-shift:baseline;text-anchor:start;display:inline;overflow:visible;visibility:visible;fill:#e74c3c;fill-opacity:1;stroke:none;stroke-width:1px;marker:none;enable-background:accumulate"
       d="M 20.438125,0.3359375 19.51,1.2640625 23.095938,4.85 19.51,8.4359375 20.438125,9.3640625 24.024063,5.778125 27.61,9.3640625 28.538126,8.4359375 24.952188,4.85 28.538126,1.2640625 27.61,0.3359375 24.024063,3.921875 20.438125,0.3359375 Z"
       id="path4379"
       inkscape:connector-curvature="0" />
    <rect
       style="fill:#e74c3c;fill-opacity:0;stroke:none"
       id="rect4381"
       width="22"
       height="22"
       x="0"
       y="-5.6514034e-07"
       transform="matrix(1.35,0,0,1.35,1.15,-10)"
       ry="0" />
  </g>
  <g
     id="battery-ups"
     transform="translate(0,83.7)">
    <g
       id="g4558"
       transform="translate(2.9757619e-5,2.9663742e-6)">
      <path
         sodipodi:nodetypes="ccccccccccccccccc"
         inkscape:connector-curvature="0"
         id="path4560"
         d="m 7.8999696,-7.3000026 0,1.35 -4.05,0 -2e-7,21.6000006 13.5000006,0 0,-21.6000006 -4.05,0 0,-1.35 z m 5.4000004,2.6973632 2.7,0 0,18.9026374 -10.8000006,0 2e-7,-18.9000007 2.7,0 5.4000004,0 z"
         style="fill:#f7f7f7;fill-opacity:1;stroke:none" />
      <g
         transform="translate(-27.675044,-24.975002)"
         id="g4562">
        <path
           class="ColorScheme-Text"
           style="fill:#f7f7f7;fill-opacity:1;fill-rule:evenodd;stroke:none"
           d="m 39.502299,23.075 -4.909005,7.363575 2.454435,0 0,6.136425 4.909005,-7.36371 -2.454435,0 z"
           id="path4564"
           inkscape:connector-curvature="0"
           sodipodi:nodetypes="ccccccc" />
        <g
           id="g4566"
           transform="translate(27,24.3)" />
      </g>
      <rect
         ry="0"
         y="-10.000003"
         x="1.1499695"
         height="29.700001"
         width="29.700001"
         id="rect4568"
         style="fill:#f7f7f7;fill-opacity:0;stroke:none" />
    </g>
    <g
       transform="translate(13.500001,-1.4343743)"
       id="g4406">
      <path
         inkscape:connector-curvature="0"
         id="path4391"
         d="m 10.600013,2.1500015 -4.0500004,2.7 0,3.459375 4.0500004,-2.7 4.05,2.7 0,-3.459375 -4.05,-2.7 z"
         style="fill:#1abc9c;fill-opacity:1" />
      <path
         style="fill:#1abc9c;fill-opacity:1"
         d="m 6.5500126,10.334376 -5e-7,4.05 8.0999999,0 10e-7,-4.05 -4.05,-2.6999995 z"
         id="path4393"
         inkscape:connector-curvature="0"
         sodipodi:nodetypes="cccccc" />
    </g>
  </g>
  <g
     transform="translate(48.60003,83.700003)"
     id="22-22-battery-charging">
    <path
       style="fill:#1abc9c;fill-opacity:1;stroke:none"
       d="m 7.8999696,-7.3000026 0,1.35 -4.05,0 -2e-7,21.6000006 13.5000006,0 0,-21.6000006 -4.05,0 0,-1.35 z m 5.4000004,2.6973632 2.7,0 0,18.9026374 -10.8000006,0 2e-7,-18.9000007 2.7,0 5.4000004,0 z"
       id="path4437"
       inkscape:connector-curvature="0"
       sodipodi:nodetypes="ccccccccccccccccc" />
    <g
       id="g4439"
       transform="translate(-27.675044,-24.975002)">
      <path
         sodipodi:nodetypes="ccccccc"
         inkscape:connector-curvature="0"
         id="path4441"
         d="m 39.502299,23.075 -4.909005,7.363575 2.454435,0 0,6.136425 4.909005,-7.36371 -2.454435,0 z"
         style="fill:#1abc9c;fill-opacity:1;fill-rule:evenodd;stroke:none"
         class="ColorScheme-Text" />
      <g
         transform="translate(27,24.3)"
         id="g4443" />
    </g>
    <rect
       style="fill:#f7f7f7;fill-opacity:0;stroke:none"
       id="rect4445"
       width="29.700001"
       height="29.700001"
       x="1.1499695"
       y="-10.000003"
       ry="0" />
  </g>
  <g
     id="22-22-battery-missing"
     transform="translate(0,132.3)">
    <g
       transform="translate(2.9757619e-5,2.9663742e-6)"
       id="g4410">
      <path
         style="fill:#e67e22;fill-opacity:1;stroke:none"
         d="m 7.8999696,-7.3000026 0,1.35 -4.05,0 -2e-7,21.6000006 13.5000006,0 0,-21.6000006 -4.05,0 0,-1.35 z m 5.4000004,2.6973632 2.7,0 0,18.9026374 -10.8000006,0 2e-7,-18.9000007 2.7,0 5.4000004,0 z"
         id="path4412"
         inkscape:connector-curvature="0"
         sodipodi:nodetypes="ccccccccccccccccc" />
      <g
         id="g4415"
         transform="translate(-27.675044,-24.975002)">
        <path
           sodipodi:nodetypes="ccccccc"
           inkscape:connector-curvature="0"
           id="path4417"
           d="m 39.502299,23.075 -4.909005,7.363575 2.454435,0 0,6.136425 4.909005,-7.36371 -2.454435,0 z"
           style="fill:#e67e22;fill-opacity:1;fill-rule:evenodd;stroke:none"
           class="ColorScheme-Text" />
        <g
           transform="translate(27,24.3)"
           id="g4419" />
      </g>
      <rect
         style="fill:#f7f7f7;fill-opacity:0;stroke:none"
         id="rect4421"
         width="29.700001"
         height="29.700001"
         x="1.1499695"
         y="-10.000003"
         ry="0" />
    </g>
    <path
       inkscape:connector-curvature="0"
       id="path4449"
       d="m 24.050013,-1.5499205 c -1.06,-0.0085 -2.101344,0.321376 -2.9,1.20000013 -0.834347,0.909536 -1.04991,1.69259687 -1.1,3.06666687 l 2.1,0 c 0.01323,-0.909824 0.190346,-1.8000969 1.5,-2.0666669 0.747925,-0.14801097 1.474239,0.06165 1.9,0.466667 0.481066,0.4814929 0.468394,1.5710609 -0.300001,2.0999989 l -1.199999,0.8 c -0.713547,0.451041 -0.954496,0.956438 -0.966667,1.700001 l 0,2.499999 2.166666,0 0,-1.699999 c 0.01216,-0.450145 0.211158,-0.86111 0.766667,-1.233334 0.573813,-0.367872 2.134208,-1.128725 2.133334,-3.1 6.4e-4,-1.97650087 -1.643254,-3.33425 -3.033334,-3.633333 -0.34752,-0.06912 -0.713323,-0.09717 -1.066666,-0.09995 z m -0.966667,10.6 0,2.2000015 2.166666,0 0,-2.2000015 -2.166666,0 z"
       style="fill:#e67e22;fill-opacity:1" />
  </g>
  <g
     transform="translate(2.9757619e-5,2.9663742e-6)"
     id="Battery">
    <path
       style="fill:#f7f7f7;fill-opacity:1;stroke:none"
       d="m 7.8999696,-7.3000026 0,1.35 -4.05,0 -2e-7,21.6000006 13.5000006,0 0,-21.6000006 -4.05,0 0,-1.35 z m 5.4000004,2.6973632 2.7,0 0,18.9026374 -10.8000006,0 2e-7,-18.9000007 2.7,0 5.4000004,0 z"
       id="path4477"
       inkscape:connector-curvature="0"
       sodipodi:nodetypes="ccccccccccccccccc" />
    <g
       id="g4479"
       transform="translate(-27.675044,-24.975002)">
      <path
         sodipodi:nodetypes="ccccccc"
         inkscape:connector-curvature="0"
         id="path4481"
         d="m 39.502299,23.075 -4.909005,7.363575 2.454435,0 0,6.136425 4.909005,-7.36371 -2.454435,0 z"
         style="fill:#f7f7f7;fill-opacity:1;fill-rule:evenodd;stroke:none"
         class="ColorScheme-Text" />
      <g
         transform="translate(27,24.3)"
         id="g4483" />
    </g>
    <rect
       style="fill:#f7f7f7;fill-opacity:0;stroke:none"
       id="rect4485"
       width="29.700001"
       height="29.700001"
       x="1.1499695"
       y="-10.000003"
       ry="0" />
  </g>
  <g
     transform="matrix(1.4545455,0,0,1.4545455,-100.42268,112.54546)"
     id="battery-discharging">
    <path
       style="fill:#f7f7f7;fill-opacity:1;stroke:none"
       d="m 7.8999696,-7.3000026 0,1.35 -4.05,0 -2e-7,21.6000006 13.5000006,0 0,-21.6000006 -4.05,0 0,-1.35 z m 5.4000004,2.6973632 2.7,0 0,18.9026374 -10.8000006,0 2e-7,-18.9000007 2.7,0 5.4000004,0 z"
       id="path4489"
       inkscape:connector-curvature="0"
       sodipodi:nodetypes="ccccccccccccccccc" />
    <g
       id="g4491"
       transform="translate(-27.675044,-24.975002)">
      <path
         sodipodi:nodetypes="ccccccc"
         inkscape:connector-curvature="0"
         id="path4493"
         d="m 39.502299,23.075 -4.909005,7.363575 2.454435,0 0,6.136425 4.909005,-7.36371 -2.454435,0 z"
         style="fill:#f7f7f7;fill-opacity:1;fill-rule:evenodd;stroke:none"
         class="ColorScheme-Text" />
      <g
         transform="translate(27,24.3)"
         id="g4495" />
    </g>
    <rect
       style="fill:#f7f7f7;fill-opacity:0;stroke:none"
       id="rect4497"
       width="29.700001"
       height="29.700001"
       x="1.1499695"
       y="-10.000003"
       ry="0" />
  </g>
  <g
     transform="matrix(1.4545455,0,0,1.4545455,-192.22273,112.54545)"
     id="battery-missing">
    <g
       id="g4501"
       transform="translate(2.9757619e-5,2.9663742e-6)">
      <path
         sodipodi:nodetypes="ccccccccccccccccc"
         inkscape:connector-curvature="0"
         id="path4503"
         d="m 7.8999696,-7.3000026 0,1.35 -4.05,0 -2e-7,21.6000006 13.5000006,0 0,-21.6000006 -4.05,0 0,-1.35 z m 5.4000004,2.6973632 2.7,0 0,18.9026374 -10.8000006,0 2e-7,-18.9000007 2.7,0 5.4000004,0 z"
         style="fill:#e67e22;fill-opacity:1;stroke:none" />
      <g
         transform="translate(-27.675044,-24.975002)"
         id="g4505">
        <path
           class="ColorScheme-Text"
           style="fill:#e67e22;fill-opacity:1;fill-rule:evenodd;stroke:none"
           d="m 39.502299,23.075 -4.909005,7.363575 2.454435,0 0,6.136425 4.909005,-7.36371 -2.454435,0 z"
           id="path4507"
           inkscape:connector-curvature="0"
           sodipodi:nodetypes="ccccccc" />
        <g
           id="g4509"
           transform="translate(27,24.3)" />
      </g>
      <rect
         ry="0"
         y="-10.000003"
         x="1.1499695"
         height="29.700001"
         width="29.700001"
         id="rect4511"
         style="fill:#f7f7f7;fill-opacity:0;stroke:none" />
    </g>
    <path
       style="fill:#e67e22;fill-opacity:1"
       d="m 24.050013,-1.5499205 c -1.06,-0.0085 -2.101344,0.321376 -2.9,1.20000013 -0.834347,0.909536 -1.04991,1.69259687 -1.1,3.06666687 l 2.1,0 c 0.01323,-0.909824 0.190346,-1.8000969 1.5,-2.0666669 0.747925,-0.14801097 1.474239,0.06165 1.9,0.466667 0.481066,0.4814929 0.468394,1.5710609 -0.300001,2.0999989 l -1.199999,0.8 c -0.713547,0.451041 -0.954496,0.956438 -0.966667,1.700001 l 0,2.499999 2.166666,0 0,-1.699999 c 0.01216,-0.450145 0.211158,-0.86111 0.766667,-1.233334 0.573813,-0.367872 2.134208,-1.128725 2.133334,-3.1 6.4e-4,-1.97650087 -1.643254,-3.33425 -3.033334,-3.633333 -0.34752,-0.06912 -0.713323,-0.09717 -1.066666,-0.09995 z m -0.966667,10.6 0,2.2000015 2.166666,0 0,-2.2000015 -2.166666,0 z"
       id="path4513"
       inkscape:connector-curvature="0" />
  </g>
  <g
     id="battery-charging"
     transform="matrix(1.4545455,0,0,1.4545455,-284.02268,112.54546)">
    <path
       sodipodi:nodetypes="ccccccccccccccccc"
       inkscape:connector-curvature="0"
       id="path4517"
       d="m 7.8999696,-7.3000026 0,1.35 -4.05,0 -2e-7,21.6000006 13.5000006,0 0,-21.6000006 -4.05,0 0,-1.35 z m 5.4000004,2.6973632 2.7,0 0,18.9026374 -10.8000006,0 2e-7,-18.9000007 2.7,0 5.4000004,0 z"
       style="fill:#1abc9c;fill-opacity:1;stroke:none" />
    <g
       transform="translate(-27.675044,-24.975002)"
       id="g4519">
      <path
         class="ColorScheme-Text"
         style="fill:#1abc9c;fill-opacity:1;fill-rule:evenodd;stroke:none"
         d="m 39.502299,23.075 -4.909005,7.363575 2.454435,0 0,6.136425 4.909005,-7.36371 -2.454435,0 z"
         id="path4521"
         inkscape:connector-curvature="0"
         sodipodi:nodetypes="ccccccc" />
      <g
         id="g4523"
         transform="translate(27,24.3)" />
    </g>
    <rect
       ry="0"
       y="-10.000003"
       x="1.1499695"
       height="29.700001"
       width="29.700001"
       id="rect4525"
       style="fill:#f7f7f7;fill-opacity:0;stroke:none" />
  </g>
  <g
     transform="matrix(1.4545455,0,0,1.4545455,-373.12268,112.54546)"
     id="battery-100">
    <path
       style="fill:#f7f7f7;fill-opacity:1;stroke:none"
       d="m 7.8999696,-7.3000026 0,1.35 -4.05,0 -2e-7,21.6000006 13.5000006,0 0,-21.6000006 -4.05,0 0,-1.35 z m 5.4000004,2.6973632 2.7,0 0,18.9026374 -10.8000006,0 2e-7,-18.9000007 2.7,0 5.4000004,0 z"
       id="path4529"
       inkscape:connector-curvature="0"
       sodipodi:nodetypes="ccccccccccccccccc" />
    <rect
       style="fill:#f7f7f7;fill-opacity:1;stroke:none"
       id="rect4531"
       width="8.1000004"
       height="2.6999984"
       x="20.049971"
       y="11.599998" />
    <rect
       y="7.5499959"
       x="20.049971"
       height="2.6999984"
       width="8.1000004"
       id="rect4533"
       style="fill:#f7f7f7;fill-opacity:1;stroke:none" />
    <rect
       style="fill:#f7f7f7;fill-opacity:1;stroke:none"
       id="rect4535"
       width="8.1000004"
       height="2.6999984"
       x="20.049971"
       y="3.4999962" />
    <rect
       y="-0.55000246"
       x="20.049971"
       height="2.6999984"
       width="8.1000004"
       id="rect4537"
       style="fill:#f7f7f7;fill-opacity:1;stroke:none" />
    <rect
       style="fill:#f7f7f7;fill-opacity:1;stroke:none"
       id="rect4539"
       width="8.1000004"
       height="2.6999984"
       x="20.049971"
       y="-4.6000023" />
    <g
       id="g4541"
       transform="translate(-27.675044,-24.975002)">
      <path
         sodipodi:nodetypes="ccccccc"
         inkscape:connector-curvature="0"
         id="path4543"
         d="m 39.502299,23.075 -4.909005,7.363575 2.454435,0 0,6.136425 4.909005,-7.36371 -2.454435,0 z"
         style="fill:#f7f7f7;fill-opacity:1;fill-rule:evenodd;stroke:none"
         class="ColorScheme-Text" />
      <g
         transform="translate(27,24.3)"
         id="g4545" />
    </g>
    <rect
       style="fill:#f7f7f7;fill-opacity:0;stroke:none"
       id="rect4547"
       width="29.700001"
       height="29.700001"
       x="1.1499695"
       y="-10.000003"
       ry="0" />
  </g>
  <g
     transform="translate(-40.49997,51.300003)"
     id="22-22-battery-100">
    <path
       style="fill:#f7f7f7;fill-opacity:1;stroke:none"
       d="m 7.8999696,-7.3000026 0,1.35 -4.05,0 -2e-7,21.6000006 13.5000006,0 0,-21.6000006 -4.05,0 0,-1.35 z m 5.4000004,2.6973632 2.7,0 0,18.9026374 -10.8000006,0 2e-7,-18.9000007 2.7,0 5.4000004,0 z"
       id="path4573"
       inkscape:connector-curvature="0"
       sodipodi:nodetypes="ccccccccccccccccc" />
    <rect
       style="fill:#f7f7f7;fill-opacity:1;stroke:none"
       id="rect4575"
       width="8.1000004"
       height="2.6999984"
       x="20.049971"
       y="11.599998" />
    <rect
       y="7.5499959"
       x="20.049971"
       height="2.6999984"
       width="8.1000004"
       id="rect4577"
       style="fill:#f7f7f7;fill-opacity:1;stroke:none" />
    <rect
       style="fill:#f7f7f7;fill-opacity:1;stroke:none"
       id="rect4579"
       width="8.1000004"
       height="2.6999984"
       x="20.049971"
       y="3.4999962" />
    <rect
       y="-0.55000246"
       x="20.049971"
       height="2.6999984"
       width="8.1000004"
       id="rect4581"
       style="fill:#f7f7f7;fill-opacity:1;stroke:none" />
    <rect
       style="fill:#f7f7f7;fill-opacity:1;stroke:none"
       id="rect4583"
       width="8.1000004"
       height="2.6999984"
       x="20.049971"
       y="-4.6000023" />
    <g
       id="g4585"
       transform="translate(-27.675044,-24.975002)">
      <path
         sodipodi:nodetypes="ccccccc"
         inkscape:connector-curvature="0"
         id="path4587"
         d="m 39.502299,23.075 -4.909005,7.363575 2.454435,0 0,6.136425 4.909005,-7.36371 -2.454435,0 z"
         style="fill:#f7f7f7;fill-opacity:1;fill-rule:evenodd;stroke:none"
         class="ColorScheme-Text" />
      <g
         transform="translate(27,24.3)"
         id="g4589" />
    </g>
    <rect
       style="fill:#f7f7f7;fill-opacity:0;stroke:none"
       id="rect4591"
       width="29.700001"
       height="29.700001"
       x="1.1499695"
       y="-10.000003"
       ry="0" />
  </g>
</svg>
