<?xml version="1.0" encoding="UTF-8" standalone="no"?>
<!-- Created with Inkscape (http://www.inkscape.org/) -->

<svg
   xmlns:dc="http://purl.org/dc/elements/1.1/"
   xmlns:cc="http://creativecommons.org/ns#"
   xmlns:rdf="http://www.w3.org/1999/02/22-rdf-syntax-ns#"
   xmlns:svg="http://www.w3.org/2000/svg"
   xmlns="http://www.w3.org/2000/svg"
   xmlns:sodipodi="http://sodipodi.sourceforge.net/DTD/sodipodi-0.dtd"
   xmlns:inkscape="http://www.inkscape.org/namespaces/inkscape"
   id="svg3738"
   height="24"
   width="24"
   version="1.1"
   inkscape:version="0.91 r13725"
   sodipodi:docname="choqok_offline.svgz">
  <defs
     id="defs8" />
  <sodipodi:namedview
     pagecolor="#969696"
     bordercolor="#666666"
     borderopacity="1"
     objecttolerance="10"
     gridtolerance="10"
     guidetolerance="10"
     inkscape:pageopacity="0.58823529"
     inkscape:pageshadow="2"
     inkscape:window-width="1546"
     inkscape:window-height="841"
     id="namedview6"
     showgrid="false"
     inkscape:zoom="10.727272"
     inkscape:cx="-7.0682672"
     inkscape:cy="7.7483764"
     inkscape:window-x="54"
     inkscape:window-y="30"
     inkscape:window-maximized="1"
     inkscape:current-layer="svg3738">
    <inkscape:grid
       type="xygrid"
       id="grid2985"
       empspacing="5"
       visible="true"
       enabled="true"
       snapvisiblegridlinesonly="true" />
  </sodipodi:namedview>
  <metadata
     id="metadata13">
    <rdf:RDF>
      <cc:Work
         rdf:about="">
        <dc:format>image/svg+xml</dc:format>
        <dc:type
           rdf:resource="http://purl.org/dc/dcmitype/StillImage" />
        <dc:title />
      </cc:Work>
    </rdf:RDF>
  </metadata>
  <g
     id="choqok_offline">
    <rect
       y="0"
       x="0"
       height="24"
       width="24"
       id="rect2991"
       style="opacity:0.01000001;fill:#000000;fill-opacity:0.00392157;stroke:none" />
    <path
       inkscape:connector-curvature="0"
       d="M 12.3125,10 14.5,12.25 16.75,10.0312 18,11.3125 15.75,13.5 17.969,15.75 16.688,17 14.5,14.75 12.25,16.969 11,15.688 13.25,13.5 11.0312,11.25 12.3125,10 z M 8.5,8.5 c 0.5525,-10e-5 1,0.4478 1,1 0,0.5524 -0.4477,1 -1,1 -0.5522,0 -1,-0.4478 -1,-1 0,-0.5522 0.4479,-1 1,-1 z M 12,5.5 C 10.1404,5.5 8.436,6.1905 7.125,7.3125 6.5043,7.0122 5.1491,6.46 3.5,6.5 3.5,6.5 4.7426,8.9851 5.1875,9.875 5.0702,10.1291 4.9637,10.3878 4.875,10.656 3.9851,10.879 1.5,11.5 1.5,11.5 c 0,0 1.4673,2 3,2 0,0 0.02455,-0.0042 0.03125,0 0.2543,3.9103 3.4945,7 7.4688,7 1.9648,0 3.7561,-0.76222 5.0938,-2 h 5.406 l -3.344,-3.344 c 0.208,-0.687 0.344,-1.401 0.344,-2.156 0,-4.14 -3.36,-7.5 -7.5,-7.5 z"
       style="opacity:0.3;fill:#000000;fill-opacity:1;fill-rule:evenodd"
       id="path2396-79-5" />
    <path
       inkscape:connector-curvature="0"
       d="M 12.3125,9 14.5,11.25 16.75,9.0312 18,10.3125 15.75,12.5 17.969,14.75 16.688,16 14.5,13.75 12.25,15.969 11,14.688 13.25,12.5 11.0312,10.25 12.3125,9 z M 8.5,7.5 c 0.5525,-10e-5 1,0.4478 1,1 0,0.5524 -0.4477,1 -1,1 -0.5522,0 -1,-0.4478 -1,-1 0,-0.5522 0.4479,-1 1,-1 z M 12,4.5 C 10.1404,4.5 8.436,5.1905 7.125,6.3125 6.5043,6.0122 5.1491,5.46 3.5,5.5 3.5,5.5 4.7426,7.9851 5.1875,8.875 5.0702,9.1291 4.9637,9.3878 4.875,9.656 3.9851,9.879 1.5,10.5 1.5,10.5 c 0,0 1.4673,2 3,2 0,0 0.02455,-0.0042 0.03125,0 0.2543,3.9103 3.4945,7 7.4688,7 1.9648,0 3.7561,-0.76222 5.0938,-2 h 5.406 l -3.344,-3.344 c 0.208,-0.687 0.344,-1.401 0.344,-2.156 0,-4.14 -3.36,-7.5 -7.5,-7.5 z"
       style="fill:#ebebeb;fill-rule:evenodd;fill-opacity:1"
       id="path2396-79" />
  </g>
</svg>
