<?xml version="1.0" encoding="UTF-8" standalone="no"?>
<!-- Created with Inkscape (http://www.inkscape.org/) -->

<svg
   xmlns:dc="http://purl.org/dc/elements/1.1/"
   xmlns:cc="http://creativecommons.org/ns#"
   xmlns:rdf="http://www.w3.org/1999/02/22-rdf-syntax-ns#"
   xmlns:svg="http://www.w3.org/2000/svg"
   xmlns="http://www.w3.org/2000/svg"
   xmlns:sodipodi="http://sodipodi.sourceforge.net/DTD/sodipodi-0.dtd"
   xmlns:inkscape="http://www.inkscape.org/namespaces/inkscape"
   id="svg3738"
   height="24"
   width="24"
   version="1.1"
   inkscape:version="0.91 r13725"
   sodipodi:docname="document.svgz">
  <defs
     id="defs8" />
  <sodipodi:namedview
     pagecolor="#969696"
     bordercolor="#666666"
     borderopacity="1"
     objecttolerance="10"
     gridtolerance="10"
     guidetolerance="10"
     inkscape:pageopacity="0.58823529"
     inkscape:pageshadow="2"
     inkscape:window-width="1542"
     inkscape:window-height="843"
     id="namedview6"
     showgrid="false"
     inkscape:zoom="11.313709"
     inkscape:cx="18.301202"
     inkscape:cy="19.025899"
     inkscape:window-x="58"
     inkscape:window-y="28"
     inkscape:window-maximized="1"
     inkscape:current-layer="svg3738"
     inkscape:snap-grids="true"
     inkscape:snap-to-guides="true"
     showguides="true"
     inkscape:guide-bbox="true"
     inkscape:snap-bbox="true"
     inkscape:bbox-paths="true"
     inkscape:snap-intersection-paths="true"
     inkscape:object-paths="true"
     inkscape:object-nodes="true"
     inkscape:snap-smooth-nodes="true">
    <inkscape:grid
       type="xygrid"
       id="grid2985"
       empspacing="5"
       visible="true"
       enabled="true"
       snapvisiblegridlinesonly="true" />
  </sodipodi:namedview>
  <metadata
     id="metadata13">
    <rdf:RDF>
      <cc:Work
         rdf:about="">
        <dc:format>image/svg+xml</dc:format>
        <dc:type
           rdf:resource="http://purl.org/dc/dcmitype/StillImage" />
        <dc:title />
      </cc:Work>
    </rdf:RDF>
  </metadata>
  <g
     id="document-encrypt"
     transform="translate(-40,104)">
    <rect
       y="-104"
       x="70"
       height="24"
       width="24"
       id="rect2991-6-4-2"
       style="opacity:0.01000001;fill:#000000;fill-opacity:0.00392157;stroke:none" />
    <path
       inkscape:connector-curvature="0"
       id="rect2822-9-6-0-6"
       d="m 81,-100 c -3,0 -4,2.001276 -4,4.987292 l 0,2.001955 -1,0 c -0.554,0 -1,0.446436 -1,1.000978 l 0,9.008797 C 75,-82.446436 75.446,-82 76,-82 l 12,0 c 0.554,0 1,-0.446436 1,-1.000978 l 0,-9.008797 c 0,-0.554542 -0.446,-1.000978 -1,-1.000978 l -1,0 0,-2.001955 C 87,-97.998724 86,-100 83,-100 l -2,0 z m 0,2.001955 2,0 c 2,0 2,1.876254 2,2.985337 l 0,2.001955 -4,0.0176 c -1.108,0 -1.277,-0.0036 -2,-0.0078 l 0,-2.011731 c 0,-1.109083 0,-2.985337 2,-2.985337 z m 4,4.997068 0,0.0078 -2,0 c 1.108,0 1.277,-0.0036 2,-0.0078 z"
       style="opacity:0.3;fill:#000000;fill-opacity:1;fill-rule:evenodd" />
    <path
       inkscape:connector-curvature="0"
       id="rect2822-9-6-9"
       d="m 81,-101 c -3,0 -4,2.001276 -4,4.987292 l 0,2.001955 -1,0 c -0.554,0 -1,0.446436 -1,1.000978 l 0,9.008797 C 75,-83.446436 75.446,-83 76,-83 l 12,0 c 0.554,0 1,-0.446436 1,-1.000978 l 0,-9.008797 c 0,-0.554542 -0.446,-1.000978 -1,-1.000978 l -1,0 0,-2.001955 C 87,-98.998724 86,-101 83,-101 l -2,0 z m 0,2.001955 2,0 c 2,0 2,1.876254 2,2.985337 l 0,2.001955 -4,0.0176 c -1.108,0 -1.277,-0.0036 -2,-0.0078 l 0,-2.011731 c 0,-1.109083 0,-2.985337 2,-2.985337 z m 4,4.997068 0,0.0078 -2,0 c 1.108,0 1.277,-0.0036 2,-0.0078 z"
       style="fill:#ebebeb;fill-opacity:1;fill-rule:evenodd" />
  </g>
  <g
     id="document-decrypt"
     transform="translate(24,0)">
    <rect
       y="0"
       x="36"
       height="24"
       width="24"
       id="rect2991-6"
       style="opacity:0.01000001;fill:#000000;fill-opacity:0.00392157;stroke:none" />
    <g
       id="g4264">
      <path
         inkscape:connector-curvature="0"
         style="opacity:0.3;fill:#000000;fill-opacity:1;fill-rule:evenodd;stroke:#000000;stroke-width:0;stroke-miterlimit:4;stroke-dasharray:none;stroke-opacity:1"
         d="m 47,1.999995 c -3,0 -4,2.0003121 -4,4.9863281 l 0,1.0136719 2,0 0,-1.0117188 c 0,-1.109083 0,-2.9863281 2,-2.9863281 l 2,0 c 2,0 2,1.875292 2,2.984375 l 0,4.0019529 -4,0.01758 c -1.108,0 -1.277,-0.0017 -2,-0.0059 l -2,0 0,-0.01172 -1,0 c -0.554,0 -1,0.447411 -1,1.001953 l 0,9.007813 c 0,0.554582 0.446,1.001993 1,1.001993 l 12,0 c 0.554,0 1,-0.447411 1,-1.001953 l 0,-9.007813 c 0,-0.554542 -0.446,-1.001953 -1,-1.001953 l -1,0 0,-4.0019529 C 53,4.0003071 52,1.999995 49,1.999995 l -2,0 z m 4,8.994141 0,0.0039 c -0.413041,0.0024 -0.812783,0.0025 -1.142578,0.0039 0.372906,0.0019 1.142578,0.0039 1.142578,0.0039 l -2,0 c 0.475013,0 0.609934,-0.0028 0.857422,-0.0039 -0.279838,-0.0014 -2e-6,-0.002 -0.857422,-0.002 1.5,0 1.375,-0.0032 2,-0.0059 z"
         id="rect4217-1" />
      <path
         style="opacity:1;fill:#ebebeb;fill-opacity:1;fill-rule:evenodd;stroke:#000000;stroke-width:0;stroke-miterlimit:4;stroke-dasharray:none;stroke-opacity:1"
         d="M 47,1 C 44,1 43,3.0003121 43,5.9863281 L 43,7 45,7 45,5.9882812 c 0,-1.109083 0,-2.9863281 2,-2.9863281 l 2,0 c 2,0 2,1.875292 2,2.984375 l 0,4.0019531 -4,0.017578 c -1.108,0 -1.277,-0.0017 -2,-0.0059 l -2,0 0,-0.011719 -1,0 c -0.554,0 -1,0.4474108 -1,1.0019528 l 0,9.007813 C 41,20.552589 41.446,21 42,21 l 12,0 c 0.554,0 1,-0.447411 1,-1.001953 l 0,-9.007813 C 55,10.435692 54.554,9.9882812 54,9.9882812 l -1,0 0,-4.0019531 C 53,3.0003121 52,1 49,1 l -2,0 z m 4,8.9941406 0,0.00391 c -0.413041,0.0024 -0.812783,0.00246 -1.142578,0.00391 0.372906,0.0019 1.142578,0.0039 1.142578,0.0039 l -2,0 c 0.475013,0 0.609934,-0.0028 0.857422,-0.0039 C 49.577584,10.000525 49.85742,10 49,10 c 1.5,0 1.375,-0.00317 2,-0.00586 z"
         id="rect4217"
         inkscape:connector-curvature="0" />
    </g>
  </g>
  <g
     id="document-open-recent">
    <rect
       y="0"
       x="0"
       height="24"
       width="24"
       id="rect2991"
       style="opacity:0.01000001;fill:#000000;fill-opacity:0.00392157;stroke:none" />
    <path
       inkscape:connector-curvature="0"
       id="path3032-6"
       d="m 14,4 5,5 -5,0 z"
       style="opacity:0.3;fill:#000000;fill-opacity:1;fill-rule:evenodd;stroke:none" />
    <path
       inkscape:connector-curvature="0"
       id="path3032"
       d="m 14,3 5,5 -5,0 z"
       style="fill:#ebebeb;fill-opacity:1;fill-rule:evenodd;stroke:none" />
    <path
       sodipodi:nodetypes="sssssscsscs"
       inkscape:connector-curvature="0"
       id="path2922-6-3-1"
       d="M 9.2148308,4.4998792 C 5.5031538,4.4165881 5.5012723,5.4443373 5.5012723,10.166626 l 0,5.666747 c 0,4.722291 9.285e-4,5.666748 3.7135585,5.666748 l 5.5703362,0 c 3.712621,0 3.71356,-0.944457 3.71356,-5.666748 L 18.467477,9.604126 14,9.604126 C 13.485672,9.604126 12,9.5232296 12,9 l 0,-4.4376208 z"
       style="color:#000000;opacity:0.3;fill:none;fill-opacity:1;fill-rule:evenodd;stroke:#000000;stroke-width:0.99975783;stroke-miterlimit:4;stroke-dasharray:none;stroke-opacity:1" />
    <path
       inkscape:connector-curvature="0"
       d="m 12.000278,10 c -2.761444,0 -5,2.238556 -5,5 0,2.761444 2.238556,5 5,5 2.761445,0 5,-2.238556 5,-5 0,-2.761444 -2.238555,-5 -5,-5 z m 0,1.111111 c 2.147778,0 3.888889,1.741112 3.888889,3.888889 0,2.147778 -1.741111,3.888889 -3.888889,3.888889 -2.147778,0 -3.888889,-1.741111 -3.888889,-3.888889 0,-2.147777 1.741111,-3.888889 3.888889,-3.888889 z m -0.961805,1.126737 0,3.399305 2.064236,1.875 L 13.875,16.771111 12,15 l 0,-2.777777 -0.961806,0.01563 z M 9,3 C 5.00102,3 5,4 5,9 l 0,6 c 0,5 0.001,6 4,6 l 6,0 c 3.99899,0 4,-1 4,-6 L 19,9 14,9 C 13.446,9 13,8.554 13,8 L 13,3 9,3 Z"
       style="color:#000000;fill:#ebebeb;fill-opacity:1;fill-rule:evenodd"
       id="path2922-6-3" />
  </g>
</svg>
