<?xml version="1.0" encoding="UTF-8" standalone="no"?>
<!-- Created with Inkscape (http://www.inkscape.org/) -->

<svg
   xmlns:dc="http://purl.org/dc/elements/1.1/"
   xmlns:cc="http://creativecommons.org/ns#"
   xmlns:rdf="http://www.w3.org/1999/02/22-rdf-syntax-ns#"
   xmlns:svg="http://www.w3.org/2000/svg"
   xmlns="http://www.w3.org/2000/svg"
   xmlns:sodipodi="http://sodipodi.sourceforge.net/DTD/sodipodi-0.dtd"
   xmlns:inkscape="http://www.inkscape.org/namespaces/inkscape"
   id="svg3738"
   height="24"
   width="24"
   version="1.1"
   inkscape:version="0.91 r13725"
   sodipodi:docname="drive.svgz">
  <defs
     id="defs8" />
  <sodipodi:namedview
     pagecolor="#969696"
     bordercolor="#666666"
     borderopacity="1"
     objecttolerance="10"
     gridtolerance="10"
     guidetolerance="10"
     inkscape:pageopacity="0.58823529"
     inkscape:pageshadow="2"
     inkscape:window-width="1546"
     inkscape:window-height="841"
     id="namedview6"
     showgrid="false"
     inkscape:zoom="16"
     inkscape:cx="6.3417335"
     inkscape:cy="10.285343"
     inkscape:window-x="54"
     inkscape:window-y="30"
     inkscape:window-maximized="1"
     inkscape:current-layer="svg3738"
     inkscape:snap-grids="true"
     inkscape:snap-to-guides="true"
     showguides="true"
     inkscape:guide-bbox="true"
     inkscape:object-nodes="true"
     inkscape:snap-bbox="true"
     inkscape:object-paths="true"
     inkscape:bbox-paths="true"
     inkscape:bbox-nodes="true"
     inkscape:snap-object-midpoints="true"
     inkscape:snap-intersection-paths="true"
     inkscape:snap-smooth-nodes="true">
    <inkscape:grid
       type="xygrid"
       id="grid2985"
       empspacing="5"
       visible="true"
       enabled="true"
       snapvisiblegridlinesonly="true" />
  </sodipodi:namedview>
  <metadata
     id="metadata13">
    <rdf:RDF>
      <cc:Work
         rdf:about="">
        <dc:format>image/svg+xml</dc:format>
        <dc:type
           rdf:resource="http://purl.org/dc/dcmitype/StillImage" />
        <dc:title />
      </cc:Work>
    </rdf:RDF>
  </metadata>
  <g
     id="drive-harddisk">
    <rect
       style="opacity:0.01000001;fill:#000000;fill-opacity:0.00392157;stroke:none"
       id="rect3028"
       width="24"
       height="24"
       x="1.8530274e-07"
       y="3.3378601e-06" />
    <rect
       ry="1.5002322"
       rx="1.5588386"
       y="3.4997678"
       x="4.4997668"
       height="19.000465"
       width="15.000466"
       id="rect4265-4"
       style="opacity:0.3;fill:#f0f0f0;fill-opacity:0;stroke:#000000;stroke-width:0.99953371;stroke-miterlimit:4;stroke-dasharray:none;stroke-opacity:1" />
    <path
       inkscape:connector-curvature="0"
       d="m 5.6627132,2.000004 12.6745738,0 c 0.92114,0 1.662708,0.704302 1.662708,1.579152 l 0,16.841686 c 0,0.87485 -0.741568,1.579152 -1.662708,1.579152 l -12.6745738,0 c -0.9211405,0 -1.6627084,-0.704302 -1.6627084,-1.579152 l 0,-16.841686 c 0,-0.87485 0.7415679,-1.579152 1.6627084,-1.579152 z M 15.499997,6.000006 17.499992,8.000001 15.500001,9.999992 13.500006,7.999997 Z M 7.8333411,9.333334 9.833334,7.333342 10.499993,8 8.4999998,9.999993 Z M 6.5000065,8 8.4999994,6.000007 9.166658,6.666666 7.1666651,8.666658 Z m 3.9999955,9.000011 2.999996,0 0,0.999991 -2.999996,0 z m 0,-2.000006 2.999996,0 0,0.99999 -2.999996,0 z M 14,11.5 a 2,2 0 0 1 -2,2 2,2 0 0 1 -2,-2 2,2 0 0 1 2,-2 2,2 0 0 1 2,2 z"
       style="opacity:1;fill:#ebebeb;fill-opacity:1;fill-rule:evenodd;stroke:#ebebeb;stroke-width:0;stroke-miterlimit:4;stroke-dasharray:none;stroke-opacity:1"
       id="rect4265" />
  </g>
</svg>
