<?xml version="1.0" encoding="UTF-8" standalone="no"?>
<!-- Created with Inkscape (http://www.inkscape.org/) -->

<svg
   xmlns:dc="http://purl.org/dc/elements/1.1/"
   xmlns:cc="http://creativecommons.org/ns#"
   xmlns:rdf="http://www.w3.org/1999/02/22-rdf-syntax-ns#"
   xmlns:svg="http://www.w3.org/2000/svg"
   xmlns="http://www.w3.org/2000/svg"
   xmlns:sodipodi="http://sodipodi.sourceforge.net/DTD/sodipodi-0.dtd"
   xmlns:inkscape="http://www.inkscape.org/namespaces/inkscape"
   id="svg3738"
   height="24"
   width="24"
   version="1.1"
   inkscape:version="0.91 r13725"
   sodipodi:docname="input.svgz">
  <defs
     id="defs8" />
  <sodipodi:namedview
     pagecolor="#969696"
     bordercolor="#666666"
     borderopacity="1"
     objecttolerance="10"
     gridtolerance="10"
     guidetolerance="10"
     inkscape:pageopacity="0.58823529"
     inkscape:pageshadow="2"
     inkscape:window-width="1546"
     inkscape:window-height="841"
     id="namedview6"
     showgrid="false"
     inkscape:zoom="7.5853275"
     inkscape:cx="-5.030816"
     inkscape:cy="8.543488"
     inkscape:window-x="54"
     inkscape:window-y="30"
     inkscape:window-maximized="1"
     inkscape:current-layer="svg3738"
     inkscape:snap-grids="true"
     inkscape:snap-to-guides="true"
     showguides="true"
     inkscape:guide-bbox="true">
    <inkscape:grid
       type="xygrid"
       id="grid2985"
       empspacing="5"
       visible="true"
       enabled="true"
       snapvisiblegridlinesonly="true" />
  </sodipodi:namedview>
  <metadata
     id="metadata13">
    <rdf:RDF>
      <cc:Work
         rdf:about="">
        <dc:format>image/svg+xml</dc:format>
        <dc:type
           rdf:resource="http://purl.org/dc/dcmitype/StillImage" />
        <dc:title />
      </cc:Work>
    </rdf:RDF>
  </metadata>
  <g
     id="input-keyboard-battery"
     transform="translate(30,-30)">
    <rect
       transform="matrix(0,1,-1,0,0,0)"
       y="6"
       x="30"
       height="24"
       width="24"
       id="rect2991-6-6"
       style="opacity:0.01000001;fill:#000000;fill-opacity:0.00392157;stroke:none" />
    <path
       inkscape:connector-curvature="0"
       id="rect2397-1-8-0"
       style="opacity:0.3;fill-rule:evenodd"
       d="m -11,47 c 0,-0.554 -0.446,-1 -1,-1 l -13,0 c -0.554,0 -1,0.446 -1,1 l 0,5 c 0,0.554 0.446,1 1,1 l 13,0 c 0.554,0 1,-0.446 1,-1 l 0,-5 z m -3,0 0,1 -1,0 0,-1 1,0 z m 0,2 0,1 -1,0 0,-1 1,0 z m -1,2 0,1 -7,0 0,-1 7,0 z m -1,-4 0,1 -1,0 0,-1 1,0 z m 0,2 0,1 -1,0 0,-1 1,0 z m -2,-2 0,1 -1,0 0,-1 1,0 z m 0,2 0,1 -1,0 0,-1 1,0 z m -2,-2 0,1 -1,0 0,-1 1,0 z m 0,2 0,1 -1,0 0,-1 1,0 z m -2,-2 0,1 -1,0 0,-1 1,0 z m 0,2 0,1 -1,0 0,-1 1,0 z" />
    <path
       inkscape:connector-curvature="0"
       id="rect2397-7-4"
       style="fill:#ebebeb;fill-opacity:1;fill-rule:evenodd"
       d="m -11,46 c 0,-0.554 -0.446,-1 -1,-1 l -13,0 c -0.554,0 -1,0.446 -1,1 l 0,5 c 0,0.554 0.446,1 1,1 l 13,0 c 0.554,0 1,-0.446 1,-1 l 0,-5 z m -3,0 0,1 -1,0 0,-1 1,0 z m 0,2 0,1 -1,0 0,-1 1,0 z m -1,2 0,1 -7,0 0,-1 7,0 z m -1,-4 0,1 -1,0 0,-1 1,0 z m 0,2 0,1 -1,0 0,-1 1,0 z m -2,-2 0,1 -1,0 0,-1 1,0 z m 0,2 0,1 -1,0 0,-1 1,0 z m -2,-2 0,1 -1,0 0,-1 1,0 z m 0,2 0,1 -1,0 0,-1 1,0 z m -2,-2 0,1 -1,0 0,-1 1,0 z m 0,2 0,1 -1,0 0,-1 1,0 z" />
    <path
       style="opacity:0.3;fill-rule:evenodd"
       d="m -10,42 -9,-8 0,5 -7,-3 10,8 0,-3.75 6,1.75 z"
       id="path3172-1-0-0"
       inkscape:connector-curvature="0" />
    <path
       style="fill:#ebebeb;fill-opacity:1;fill-rule:evenodd"
       d="m -10,41 -9,-8 0,5 -7,-3 10,8 0,-3.75 6,1.75 z"
       id="path3172-3-2"
       inkscape:connector-curvature="0" />
  </g>
  <g
     id="input-keyboard-brightness"
     transform="translate(30,-30)">
    <rect
       transform="matrix(0,1,-1,0,0,0)"
       y="-24"
       x="30"
       height="24"
       width="24"
       id="rect2991-6"
       style="opacity:0.01000001;fill:#000000;fill-opacity:0.00392157;stroke:none" />
    <path
       inkscape:connector-curvature="0"
       id="rect2397-1-8"
       style="opacity:0.3;fill-rule:evenodd"
       d="m 19,47 c 0,-0.554 -0.446,-1 -1,-1 L 5,46 c -0.554,0 -1,0.446 -1,1 l 0,5 c 0,0.554 0.446,1 1,1 l 13,0 c 0.554,0 1,-0.446 1,-1 l 0,-5 z m -3,0 0,1 -1,0 0,-1 1,0 z m 0,2 0,1 -1,0 0,-1 1,0 z m -1,2 0,1 -7,0 0,-1 7,0 z m -1,-4 0,1 -1,0 0,-1 1,0 z m 0,2 0,1 -1,0 0,-1 1,0 z m -2,-2 0,1 -1,0 0,-1 1,0 z m 0,2 0,1 -1,0 0,-1 1,0 z m -2,-2 0,1 -1,0 0,-1 1,0 z m 0,2 0,1 -1,0 0,-1 1,0 z m -2,-2 0,1 -1,0 0,-1 1,0 z m 0,2 0,1 -1,0 0,-1 1,0 z" />
    <path
       inkscape:connector-curvature="0"
       id="rect2397-7"
       style="fill:#ebebeb;fill-opacity:1;fill-rule:evenodd"
       d="m 19,46 c 0,-0.554 -0.446,-1 -1,-1 L 5,45 c -0.554,0 -1,0.446 -1,1 l 0,5 c 0,0.554 0.446,1 1,1 l 13,0 c 0.554,0 1,-0.446 1,-1 l 0,-5 z m -3,0 0,1 -1,0 0,-1 1,0 z m 0,2 0,1 -1,0 0,-1 1,0 z m -1,2 0,1 -7,0 0,-1 7,0 z m -1,-4 0,1 -1,0 0,-1 1,0 z m 0,2 0,1 -1,0 0,-1 1,0 z m -2,-2 0,1 -1,0 0,-1 1,0 z m 0,2 0,1 -1,0 0,-1 1,0 z m -2,-2 0,1 -1,0 0,-1 1,0 z m 0,2 0,1 -1,0 0,-1 1,0 z m -2,-2 0,1 -1,0 0,-1 1,0 z m 0,2 0,1 -1,0 0,-1 1,0 z" />
    <path
       id="path4-7-7"
       d="m 12.0003,32 -0.75,2.25 1.5,0 -0.75,-2.25 z m -4.24215,1.75785 1.05465,2.1093 1.05465,-1.05465 -2.1093,-1.05465 z m 8.484,0 -2.109,1.05465 1.0545,1.05465 1.0545,-2.1093 z M 12,35 c -1.656826,0 -3,1.343176 -3,3 0,1.656824 1.343174,3 3,3 1.656824,0 3,-1.343176 3,-3 0,-1.656824 -1.34325,-3 -3,-3 z m 0,1.125 c 1.035524,0 1.875,0.839474 1.875,1.875 0,1.035524 -0.839476,1.875 -1.875,1.875 -1.035524,0 -1.875,-0.839476 -1.875,-1.875 0,-1.035526 0.839476,-1.875 1.875,-1.875 z M 8.25,37.25 6,38 l 2.25,0.75 0,-1.5 z m 7.5,0 0,1.5 L 18,38 15.75,37.25 Z M 8.81235,40.133 7.7577,42.242 9.867,41.1875 8.81235,40.133 Z m 6.375,0 -1.05465,1.05465 2.109376,1.05465 -1.054502,-2.109 z m -3.9375,1.617 0.75,2.25 0.75,-2.25 -1.5,0 z"
       style="opacity:0.3;fill:#000000;fill-opacity:1"
       inkscape:connector-curvature="0" />
    <path
       id="path4-7"
       d="m 12.0003,31 -0.75,2.25 1.5,0 -0.75,-2.25 z m -4.24215,1.75785 1.05465,2.1093 1.05465,-1.05465 -2.1093,-1.05465 z m 8.484,0 -2.109,1.05465 1.0545,1.05465 1.0545,-2.1093 z M 12,34 c -1.656826,0 -3,1.343176 -3,3 0,1.656824 1.343174,3 3,3 1.656824,0 3,-1.343176 3,-3 0,-1.656824 -1.34325,-3 -3,-3 z m 0,1.125 c 1.035524,0 1.875,0.839474 1.875,1.875 0,1.035524 -0.839476,1.875 -1.875,1.875 -1.035524,0 -1.875,-0.839476 -1.875,-1.875 0,-1.035526 0.839476,-1.875 1.875,-1.875 z M 8.25,36.25 6,37 l 2.25,0.75 0,-1.5 z m 7.5,0 0,1.5 L 18,37 15.75,36.25 Z M 8.81235,39.133 7.7577,41.242 9.867,40.1875 8.81235,39.133 Z m 6.375,0 -1.05465,1.05465 2.109376,1.05465 -1.054502,-2.109 z m -3.9375,1.617 0.75,2.25 0.75,-2.25 -1.5,0 z"
       style="fill:#ebebeb;fill-opacity:1"
       inkscape:connector-curvature="0" />
  </g>
  <g
     id="input-mouse-battery">
    <rect
       transform="matrix(0,1,-1,0,0,0)"
       y="6"
       x="0"
       height="24"
       width="24"
       id="rect2991-6-4"
       style="opacity:0.01000001;fill:#000000;fill-opacity:0.00392157;stroke:none" />
    <g
       transform="translate(-36,8.0000002)"
       id="layer1">
      <path
         d="M 10,6 C 9.446,6 9,6.446 9,7 l 0,2 c 0,1.108 1.338,2 3,2 l 1,0 c 1.662,0 3,-0.892 3,-2 L 16,7 C 16,6.446 15.554,6 15,6 l -5,0 z"
         style="opacity:0.3;fill-rule:evenodd"
         id="path3324-2"
         inkscape:connector-curvature="0" />
      <path
         d="m 11.5,-2.5 2,0 c 2.216,0 4,1.338 4,3 l 0,9 c 0,1.662 -1.784,3 -4,3 l -2,0 c -2.216,0 -4,-1.338 -4,-3 l 0,-9 c 0,-1.662 1.784,-3 4,-3 z m 1.0419,1e-6 0,4"
         style="opacity:0.3;fill:none;stroke:#000000;stroke-linecap:round"
         id="rect2406-4"
         inkscape:connector-curvature="0" />
      <g
         transform="translate(0,-8)"
         style="opacity:0.3;fill:none;stroke:#dfdbd2"
         id="g3195">
        <path
           d="m 12.5,5.3333 0,3.3333"
           style="fill:none;stroke:#dfdbd2;stroke-width:2;stroke-linecap:round"
           id="path3193"
           inkscape:connector-curvature="0" />
        <rect
           x="-18.75"
           y="8.25"
           width="13.5"
           height="8.5"
           ry="3.3001001"
           rx="2.3"
           transform="matrix(0,-1,1,0,0,0)"
           style="fill:none;stroke:#ebebeb;stroke-width:0.5;stroke-linecap:round;stroke-opacity:1"
           id="rect3236" />
      </g>
      <path
         d="m 11.5,-3.5 2,0 c 2.216,0 4,1.338 4,3 l 0,9 c 0,1.662 -1.784,3 -4,3 l -2,0 c -2.216,0 -4,-1.338 -4,-3 l 0,-9 c 0,-1.662 1.784,-3 4,-3 z m 1.0419,1e-6 0,4"
         style="fill:none;stroke:#ebebeb;stroke-linecap:round;stroke-opacity:1"
         id="rect2406"
         inkscape:connector-curvature="0" />
      <path
         d="M 10.563,-1.7535 C 9.6353,-1.4128 9,-0.7559 9,0 l 0,8 c 0,1.108 1.338,2 3,2 l 1,0 c 1.662,0 3,-0.892 3,-2 L 16,0 C 16,-0.75537 15.366,-1.4119 14.439,-1.7527 14.027,-1.9117 14,-1.6305 14,-1.5313 l 0,2.5312 c 0,0.554 -0.446,1 -1,1 l -1,0 c -0.554,0 -1,-0.446 -1,-1 l 0,-2.5312 c 0,-0.19923 -0.20268,-0.3112 -0.43728,-0.22222 z"
         style="fill:#ebebeb;fill-opacity:1;fill-rule:evenodd"
         id="rect3728"
         inkscape:connector-curvature="0" />
    </g>
    <path
       style="opacity:0.3;fill:#000000;fill-opacity:1;fill-rule:evenodd"
       d="m -9,5 -8,9 5,0 -3,7 8,-10 -3.75,0 L -9,5 Z"
       id="path3172-3-2-2-2"
       inkscape:connector-curvature="0" />
    <path
       style="fill:#ebebeb;fill-opacity:1;fill-rule:evenodd"
       d="m -9,4 -8,9 5,0 -3,7 8,-10 -3.75,0 L -9,4 Z"
       id="path3172-3-2-2"
       inkscape:connector-curvature="0" />
  </g>
</svg>
