<?xml version="1.0" encoding="UTF-8" standalone="no"?>
<!-- Created with Inkscape (http://www.inkscape.org/) -->

<svg
   xmlns:dc="http://purl.org/dc/elements/1.1/"
   xmlns:cc="http://creativecommons.org/ns#"
   xmlns:rdf="http://www.w3.org/1999/02/22-rdf-syntax-ns#"
   xmlns:svg="http://www.w3.org/2000/svg"
   xmlns="http://www.w3.org/2000/svg"
   xmlns:sodipodi="http://sodipodi.sourceforge.net/DTD/sodipodi-0.dtd"
   xmlns:inkscape="http://www.inkscape.org/namespaces/inkscape"
   id="svg3738"
   height="24"
   width="24"
   version="1.1"
   inkscape:version="0.91 r13725"
   sodipodi:docname="keyboard.svgz">
  <defs
     id="defs8" />
  <sodipodi:namedview
     pagecolor="#969696"
     bordercolor="#666666"
     borderopacity="1"
     objecttolerance="10"
     gridtolerance="10"
     guidetolerance="10"
     inkscape:pageopacity="0.58823529"
     inkscape:pageshadow="2"
     inkscape:window-width="1534"
     inkscape:window-height="841"
     id="namedview6"
     showgrid="false"
     inkscape:zoom="10.727273"
     inkscape:cx="11.499863"
     inkscape:cy="11.656713"
     inkscape:window-x="66"
     inkscape:window-y="30"
     inkscape:window-maximized="1"
     inkscape:current-layer="svg3738"
     inkscape:snap-grids="true"
     inkscape:snap-to-guides="true"
     showguides="false"
     inkscape:guide-bbox="true"
     inkscape:snap-bbox="true"
     inkscape:snap-smooth-nodes="true"
     inkscape:object-nodes="true">
    <inkscape:grid
       type="xygrid"
       id="grid2985"
       empspacing="5"
       visible="true"
       enabled="true"
       snapvisiblegridlinesonly="true" />
  </sodipodi:namedview>
  <metadata
     id="metadata13">
    <rdf:RDF>
      <cc:Work
         rdf:about="">
        <dc:format>image/svg+xml</dc:format>
        <dc:type
           rdf:resource="http://purl.org/dc/dcmitype/StillImage" />
        <dc:title />
      </cc:Work>
    </rdf:RDF>
  </metadata>
  <g
     id="keyboard-layout">
    <rect
       y="0"
       x="0"
       height="24"
       width="24"
       id="rect2991"
       style="opacity:0.01000001;fill:#000000;fill-opacity:0.00392157;stroke:none" />
    <g
       transform="matrix(1.000014,0,0,0.99870084,23.500161,0.02338488)"
       id="g3951">
      <path
         d="m -21,5.2331 c -1.108,0 -2,0.892 -2,2 l 0,8 c 0,1.108 0.892,2 2,2 l 19,0 c 1.108,0 2,-0.892 2,-2 L 0,7.2332 c 0,-1.108 -0.892,-2 -2,-2 z m 1.5,1.7034 1,0 c 0.27699,0 0.5,0.223 0.5,0.5 l 0,1.2966 c 0,0.277 -0.22301,0.5 -0.5,0.5 l -1,0 c -0.277,0 -0.5,-0.223 -0.5,-0.5 l 0,-1.2966 c 0,-0.277 0.223,-0.5 0.5,-0.5 z m 3,0 1,0 c 0.27699,0 0.5,0.223 0.5,0.5 l 0,1.2966 c 0,0.277 -0.22301,0.5 -0.5,0.5 l -1,0 c -0.277,0 -0.5,-0.223 -0.5,-0.5 l 0,-1.2966 c 0,-0.277 0.223,-0.5 0.5,-0.5 z m 3,0 1,0 c 0.27699,0 0.5,0.223 0.5,0.5 l 0,1.2966 c 0,0.277 -0.22301,0.5 -0.5,0.5 l -1,0 c -0.277,0 -0.5,-0.223 -0.5,-0.5 l 0,-1.2966 c 0,-0.277 0.223,-0.5 0.5,-0.5 z m 3,0 1,0 c 0.27699,0 0.5,0.223 0.5,0.5 l 0,1.2966 c 0,0.277 -0.22301,0.5 -0.5,0.5 l -1,0 c -0.27699,0 -0.5,-0.223 -0.5,-0.5 l 0,-1.2966 c 0,-0.277 0.22301,-0.5 0.5,-0.5 z m 3,0 1,0 c 0.27699,0 0.5,0.223 0.5,0.5 l 0,1.2966 c 0,0.277 -0.22301,0.5 -0.5,0.5 l -1,0 c -0.27699,0 -0.5,-0.223 -0.5,-0.5 l 0,-1.2966 c 0,-0.277 0.22301,-0.5 0.5,-0.5 z m 3,0 1,0 c 0.27699,0 0.5,0.223 0.5,0.5 l 0,1.2966 c 0,0.277 -0.22301,0.5 -0.5,0.5 l -1,0 c -0.27699,0 -0.5,-0.223 -0.5,-0.5 l 0,-1.2966 c 0,-0.277 0.22301,-0.5 0.5,-0.5 z m -15,3.0403 2,0 c 0.27699,0 0.5,0.223 0.5,0.5 l 0,1.2564 c 0,0.277 -0.22301,0.5 -0.5,0.5 l -2,0 c -0.27699,0 -0.5,-0.223 -0.5,-0.5 l 0,-1.2564 c 0,-0.277 0.22301,-0.5 0.5,-0.5 z m 4,0 1,0 c 0.27699,0 0.5,0.223 0.5,0.5 l 0,1.2564 c 0,0.277 -0.22301,0.5 -0.5,0.5 l -1,0 c -0.277,0 -0.5,-0.223 -0.5,-0.5 l 0,-1.2564 c 0,-0.277 0.223,-0.5 0.5,-0.5 z m 3,0 1,0 c 0.27699,0 0.5,0.223 0.5,0.5 l 0,1.2564 c 0,0.277 -0.22301,0.5 -0.5,0.5 l -1,0 c -0.277,0 -0.5,-0.223 -0.5,-0.5 l 0,-1.2564 c 0,-0.277 0.223,-0.5 0.5,-0.5 z m 3,0 1,0 c 0.27699,0 0.5,0.223 0.5,0.5 l 0,1.2564 c 0,0.277 -0.22301,0.5 -0.5,0.5 l -1,0 c -0.27699,0 -0.5,-0.223 -0.5,-0.5 l 0,-1.2564 c 0,-0.277 0.22301,-0.5 0.5,-0.5 z m 3,0 3,0 c 0.27699,0 0.5,0.223 0.5,0.5 l 0,1.2564 c 0,0.277 -0.22301,0.5 -0.5,0.5 l -3,0 c -0.27699,0 -0.5,-0.223 -0.5,-0.5 l 0,-1.2564 c 0,-0.277 0.22301,-0.5 0.5,-0.5 z m -13,3 1,0 c 0.27699,0 0.5,0.223 0.5,0.5 l 0,1.2564 c 0,0.277 -0.22301,0.5 -0.5,0.5 l -1,0 c -0.277,0 -0.5,-0.223 -0.5,-0.5 l 0,-1.2564 c 0,-0.277 0.223,-0.5 0.5,-0.5 z m 3,0 10,0 c 0.27699,0 0.5,0.223 0.5,0.5 l 0,1.2564 c 0,0.277 -0.22301,0.5 -0.5,0.5 l -10,0 c -0.277,0 -0.5,-0.223 -0.5,-0.5 l 0,-1.2564 c 0,-0.277 0.223,-0.5 0.5,-0.5 z m 12,0 1,0 c 0.27699,0 0.5,0.223 0.5,0.5 l 0,1.2564 c 0,0.277 -0.22301,0.5 -0.5,0.5 l -1,0 c -0.27699,0 -0.5,-0.223 -0.5,-0.5 l 0,-1.2564 c 0,-0.277 0.22301,-0.5 0.5,-0.5 z"
         style="color:#000000;opacity:0.3;fill:none;stroke:#dfdbd2;stroke-width:0.5;stroke-linecap:round"
         id="path3932"
         inkscape:connector-curvature="0" />
      <path
         d="m -21,6 c -1.108,0 -2,0.892 -2,2 l 0,8 c 0,1.108 0.892,2 2,2 l 19,0 c 1.108,0 2,-0.892 2,-2 L 0,8 C 0,6.892 -0.892,6 -2,6 Z m 1.5,0 1,0 c 0.27699,0 0.5,0.223 0.5,0.5 l 0,1 c 0,0.277 -0.22301,0.5 -0.5,0.5 l -1,0 C -19.777,8 -20,7.777 -20,7.5 l 0,-1 C -20,6.223 -19.777,6 -19.5,6 Z m 3,0 1,0 c 0.27699,0 0.5,0.223 0.5,0.5 l 0,1 c 0,0.277 -0.22301,0.5 -0.5,0.5 l -1,0 C -16.777,8 -17,7.777 -17,7.5 l 0,-1 C -17,6.223 -16.777,6 -16.5,6 Z m 3,0 1,0 c 0.27699,0 0.5,0.223 0.5,0.5 l 0,1 c 0,0.277 -0.22301,0.5 -0.5,0.5 l -1,0 C -13.777,8 -14,7.777 -14,7.5 l 0,-1 C -14,6.223 -13.777,6 -13.5,6 Z m 3,0 1,0 C -9.223,6 -9,6.223 -9,6.5 l 0,1 C -9,7.777 -9.223,8 -9.5,8 l -1,0 C -10.777,8 -11,7.777 -11,7.5 l 0,-1 C -11,6.223 -10.777,6 -10.5,6 Z m 3,0 1,0 C -6.223,6 -6,6.223 -6,6.5 l 0,1 C -6,7.777 -6.223,8 -6.5,8 l -1,0 C -7.777,8 -8,7.777 -8,7.5 l 0,-1 C -8,6.223 -7.777,6 -7.5,6 Z m 3,0 1,0 C -3.223,6 -3,6.223 -3,6.5 l 0,1 C -3,7.777 -3.223,8 -3.5,8 l -1,0 C -4.777,8 -5,7.777 -5,7.5 l 0,-1 C -5,6.223 -4.777,6 -4.5,6 Z m -15,3 2,0 c 0.27699,0 0.5,0.223 0.5,0.5 l 0,1 c 0,0.277 -0.22301,0.5 -0.5,0.5 l -2,0 c -0.27699,0 -0.5,-0.223 -0.5,-0.5 l 0,-1 C -20,9.223 -19.777,9 -19.5,9 Z m 4,0 1,0 c 0.27699,0 0.5,0.223 0.5,0.5 l 0,1 c 0,0.277 -0.22301,0.5 -0.5,0.5 l -1,0 c -0.277,0 -0.5,-0.223 -0.5,-0.5 l 0,-1 C -16,9.223 -15.777,9 -15.5,9 Z m 3,0 1,0 c 0.27699,0 0.5,0.223 0.5,0.5 l 0,1 c 0,0.277 -0.22301,0.5 -0.5,0.5 l -1,0 c -0.277,0 -0.5,-0.223 -0.5,-0.5 l 0,-1 C -13,9.223 -12.777,9 -12.5,9 Z m 3,0 1,0 C -8.223,9 -8,9.223 -8,9.5 l 0,1 c 0,0.277 -0.22301,0.5 -0.5,0.5 l -1,0 C -9.777,11 -10,10.777 -10,10.5 l 0,-1 C -10,9.223 -9.777,9 -9.5,9 Z m 3,0 3,0 C -3.223,9 -3,9.223 -3,9.5 l 0,1 c 0,0.277 -0.22301,0.5 -0.5,0.5 l -3,0 C -6.777,11 -7,10.777 -7,10.5 l 0,-1 C -7,9.223 -6.777,9 -6.5,9 Z m -13,3 1,0 c 0.27699,0 0.5,0.223 0.5,0.5 l 0,1 c 0,0.277 -0.22301,0.5 -0.5,0.5 l -1,0 c -0.277,0 -0.5,-0.223 -0.5,-0.5 l 0,-1 c 0,-0.277 0.223,-0.5 0.5,-0.5 z m 3,0 10,0 c 0.27699,0 0.5,0.223 0.5,0.5 l 0,1 c 0,0.277 -0.22301,0.5 -0.5,0.5 l -10,0 c -0.277,0 -0.5,-0.223 -0.5,-0.5 l 0,-1 c 0,-0.277 0.223,-0.5 0.5,-0.5 z m 12,0 1,0 c 0.27699,0 0.5,0.223 0.5,0.5 l 0,1 c 0,0.277 -0.22301,0.5 -0.5,0.5 l -1,0 C -4.777,14 -5,13.777 -5,13.5 l 0,-1 C -5,12.223 -4.777,12 -4.5,12 Z"
         style="color:#000000;opacity:0.3"
         id="path3101"
         inkscape:connector-curvature="0" />
      <path
         style="fill:#ebebeb;fill-opacity:1"
         d="m -21,5 c -1.108,0 -2,0.892 -2,2 l 0,8 c 0,1.108 0.892,2 2,2 l 19,0 c 1.108,0 2,-0.892 2,-2 L 0,7 C 0,5.892 -0.892,5 -2,5 l -19,0 z m 1.5,2 1,0 c 0.27699,0 0.5,0.223 0.5,0.5 l 0,1 c 0,0.277 -0.22301,0.5 -0.5,0.5 l -1,0 C -19.777,9 -20,8.777 -20,8.5 l 0,-1 C -20,7.223 -19.777,7 -19.5,7 Z m 3,0 1,0 c 0.27699,0 0.5,0.223 0.5,0.5 l 0,1 c 0,0.277 -0.22301,0.5 -0.5,0.5 l -1,0 C -16.777,9 -17,8.777 -17,8.5 l 0,-1 C -17,7.223 -16.777,7 -16.5,7 Z m 3,0 1,0 c 0.27699,0 0.5,0.223 0.5,0.5 l 0,1 c 0,0.277 -0.22301,0.5 -0.5,0.5 l -1,0 C -13.777,9 -14,8.777 -14,8.5 l 0,-1 C -14,7.223 -13.777,7 -13.5,7 Z m 3,0 1,0 C -9.223,7 -9,7.223 -9,7.5 l 0,1 C -9,8.777 -9.223,9 -9.5,9 l -1,0 C -10.777,9 -11,8.777 -11,8.5 l 0,-1 C -11,7.223 -10.777,7 -10.5,7 Z m 3,0 1,0 C -6.223,7 -6,7.223 -6,7.5 l 0,1 C -6,8.777 -6.223,9 -6.5,9 l -1,0 C -7.777,9 -8,8.777 -8,8.5 l 0,-1 C -8,7.223 -7.777,7 -7.5,7 Z m 3,0 1,0 C -3.223,7 -3,7.223 -3,7.5 l 0,1 C -3,8.777 -3.223,9 -3.5,9 l -1,0 C -4.777,9 -5,8.777 -5,8.5 l 0,-1 C -5,7.223 -4.777,7 -4.5,7 Z m -15,3 2,0 c 0.27699,0 0.5,0.223 0.5,0.5 l 0,1 c 0,0.277 -0.22301,0.5 -0.5,0.5 l -2,0 c -0.27699,0 -0.5,-0.223 -0.5,-0.5 l 0,-1 c 0,-0.277 0.22301,-0.5 0.5,-0.5 z m 4,0 1,0 c 0.27699,0 0.5,0.223 0.5,0.5 l 0,1 c 0,0.277 -0.22301,0.5 -0.5,0.5 l -1,0 c -0.277,0 -0.5,-0.223 -0.5,-0.5 l 0,-1 c 0,-0.277 0.223,-0.5 0.5,-0.5 z m 3,0 1,0 c 0.27699,0 0.5,0.223 0.5,0.5 l 0,1 c 0,0.277 -0.22301,0.5 -0.5,0.5 l -1,0 c -0.277,0 -0.5,-0.223 -0.5,-0.5 l 0,-1 c 0,-0.277 0.223,-0.5 0.5,-0.5 z m 3,0 1,0 c 0.27699,0 0.5,0.223 0.5,0.5 l 0,1 c 0,0.277 -0.22301,0.5 -0.5,0.5 l -1,0 C -9.777,12 -10,11.777 -10,11.5 l 0,-1 c 0,-0.277 0.22301,-0.5 0.5,-0.5 z m 3,0 3,0 c 0.27699,0 0.5,0.223 0.5,0.5 l 0,1 c 0,0.277 -0.22301,0.5 -0.5,0.5 l -3,0 C -6.777,12 -7,11.777 -7,11.5 l 0,-1 C -7,10.223 -6.777,10 -6.5,10 Z m -13,3 1,0 c 0.27699,0 0.5,0.223 0.5,0.5 l 0,1 c 0,0.277 -0.22301,0.5 -0.5,0.5 l -1,0 c -0.277,0 -0.5,-0.223 -0.5,-0.5 l 0,-1 c 0,-0.277 0.223,-0.5 0.5,-0.5 z m 3,0 10,0 c 0.27699,0 0.5,0.223 0.5,0.5 l 0,1 c 0,0.277 -0.22301,0.5 -0.5,0.5 l -10,0 c -0.277,0 -0.5,-0.223 -0.5,-0.5 l 0,-1 c 0,-0.277 0.223,-0.5 0.5,-0.5 z m 12,0 1,0 c 0.27699,0 0.5,0.223 0.5,0.5 l 0,1 c 0,0.277 -0.22301,0.5 -0.5,0.5 l -1,0 C -4.777,15 -5,14.777 -5,14.5 l 0,-1 C -5,13.223 -4.777,13 -4.5,13 Z"
         id="path3081"
         inkscape:connector-curvature="0" />
    </g>
  </g>
</svg>
