<?xml version="1.0" encoding="UTF-8" standalone="no"?>
<svg
   xmlns:dc="http://purl.org/dc/elements/1.1/"
   xmlns:cc="http://creativecommons.org/ns#"
   xmlns:rdf="http://www.w3.org/1999/02/22-rdf-syntax-ns#"
   xmlns:svg="http://www.w3.org/2000/svg"
   xmlns="http://www.w3.org/2000/svg"
   xmlns:sodipodi="http://sodipodi.sourceforge.net/DTD/sodipodi-0.dtd"
   xmlns:inkscape="http://www.inkscape.org/namespaces/inkscape"
   version="1.1"
   id="svg2"
   viewBox="0 0 24 24"
   inkscape:version="0.91 r13725"
   sodipodi:docname="kruler.svgz"
   width="24"
   height="24">
  <sodipodi:namedview
     pagecolor="#787878"
     bordercolor="#3c3c3c"
     borderopacity="1"
     objecttolerance="10"
     gridtolerance="10"
     guidetolerance="10"
     inkscape:pageopacity="0"
     inkscape:pageshadow="2"
     inkscape:window-width="1544"
     inkscape:window-height="847"
     id="namedview7"
     showgrid="false"
     inkscape:zoom="15.170655"
     inkscape:cx="4.9982564"
     inkscape:cy="11"
     inkscape:window-x="56"
     inkscape:window-y="24"
     inkscape:window-maximized="1"
     inkscape:current-layer="svg2"
     inkscape:snap-bbox="true"
     inkscape:snap-text-baseline="true">
    <inkscape:grid
       type="xygrid"
       id="grid4138" />
  </sodipodi:namedview>
  <metadata
     id="metadata10">
    <rdf:RDF>
      <cc:Work
         rdf:about="">
        <dc:format>image/svg+xml</dc:format>
        <dc:type
           rdf:resource="http://purl.org/dc/dcmitype/StillImage" />
        <dc:title />
      </cc:Work>
    </rdf:RDF>
  </metadata>
  <defs
     id="defs3051">
    <style
       id="current-color-scheme"
       type="text/css">
      .ColorScheme-Text {
        color:#4d4d4d;
      }
      </style>
  </defs>
  <g
     id="kruler">
    <rect
       y="-1.7404556e-05"
       x="0"
       height="24"
       width="24"
       id="rect4165"
       style="opacity:0.01000001;fill:#000000;fill-opacity:0.00392157;stroke:none" />
    <path
       d="m 3.000005,18.545131 0,-11.0902515 C 3.000005,6.648882 3.633877,6.00001 4.421242,6.00001 l 15.157516,0 c 0.787365,0 1.421237,0.648872 1.421237,1.4548695 l 0,11.0902515 C 20.999995,19.351128 20.366123,20 19.578758,20 L 4.421242,20 C 3.633877,20 3.000005,19.351128 3.000005,18.545131 Z M 4.5,7.500005 l 0,3 1,0 0,-3 -1,0 z m 2,0 0,3 1,0 0,-3 -1,0 z m 2,0 0,6 1,0 0,-6 -1,0 z m 2,0 0,3 1,0 0,-3 -1,0 z m 2,0 0,3 1,0 0,-3 -1,0 z m 2,0 0,6 1,0 0,-6 -1,0 z m 2,0 0,3 1,0 0,-3 -1,0 z m 2,0 0,3 1,0 0,-3 -1,0 z"
       style="color:#31363b;fill:#000000;fill-opacity:1;stroke:none;opacity:0.3"
       id="path6-9-5"
       inkscape:connector-curvature="0" />
    <path
       d="m 3.000005,17.545126 0,-11.0902515 c 0,-0.8059975 0.633872,-1.4548695 1.421237,-1.4548695 l 15.157516,0 c 0.787365,0 1.421237,0.648872 1.421237,1.4548695 l 0,11.0902515 c 0,0.805997 -0.633872,1.454869 -1.421237,1.454869 l -15.157516,0 c -0.787365,0 -1.421237,-0.648872 -1.421237,-1.454869 z M 4.5,6.5 l 0,3 1,0 0,-3 -1,0 z m 2,0 0,3 1,0 0,-3 -1,0 z m 2,0 0,6 1,0 0,-6 -1,0 z m 2,0 0,3 1,0 0,-3 -1,0 z m 2,0 0,3 1,0 0,-3 -1,0 z m 2,0 0,6 1,0 0,-6 -1,0 z m 2,0 0,3 1,0 0,-3 -1,0 z m 2,0 0,3 1,0 0,-3 -1,0 z"
       style="color:#31363b;fill:#ebebeb;fill-opacity:1;stroke:none"
       id="path6-9"
       inkscape:connector-curvature="0" />
  </g>
</svg>
