<?xml version="1.0" encoding="UTF-8" standalone="no"?>
<!-- Created with Inkscape (http://www.inkscape.org/) -->

<svg
   xmlns:dc="http://purl.org/dc/elements/1.1/"
   xmlns:cc="http://creativecommons.org/ns#"
   xmlns:rdf="http://www.w3.org/1999/02/22-rdf-syntax-ns#"
   xmlns:svg="http://www.w3.org/2000/svg"
   xmlns="http://www.w3.org/2000/svg"
   xmlns:sodipodi="http://sodipodi.sourceforge.net/DTD/sodipodi-0.dtd"
   xmlns:inkscape="http://www.inkscape.org/namespaces/inkscape"
   width="24"
   height="24"
   id="svg4226"
   version="1.1"
   inkscape:version="0.91 r13725"
   viewBox="0 0 24 24"
   sodipodi:docname="mail-unread-new.svgz">
  <defs
     id="defs4228" />
  <sodipodi:namedview
     id="base"
     pagecolor="#4d4d4d"
     bordercolor="#00ffff"
     borderopacity="1"
     inkscape:pageopacity="0"
     inkscape:pageshadow="2"
     inkscape:zoom="5.5494505"
     inkscape:cx="-20.29959"
     inkscape:cy="18.063943"
     inkscape:current-layer="layer1"
     showgrid="false"
     inkscape:grid-bbox="true"
     inkscape:document-units="px"
     objecttolerance="10000"
     inkscape:snap-path-clip="false"
     guidetolerance="10000"
     inkscape:window-width="1366"
     inkscape:window-height="713"
     inkscape:window-x="0"
     inkscape:window-y="-3"
     inkscape:window-maximized="1"
     fit-margin-top="0"
     fit-margin-left="0"
     fit-margin-right="0"
     fit-margin-bottom="0">
    <inkscape:grid
       type="xygrid"
       id="grid4774"
       originx="-25.993193"
       originy="0.010442734" />
  </sodipodi:namedview>
  <metadata
     id="metadata4231">
    <rdf:RDF>
      <cc:Work
         rdf:about="">
        <dc:format>image/svg+xml</dc:format>
        <dc:type
           rdf:resource="http://purl.org/dc/dcmitype/StillImage" />
        <dc:title></dc:title>
        <dc:creator>
          <cc:Agent>
            <dc:title>Malcer</dc:title>
          </cc:Agent>
        </dc:creator>
        <dc:description>Icons for Caledonia plasma theme</dc:description>
      </cc:Work>
    </rdf:RDF>
  </metadata>
  <g
     id="layer1"
     inkscape:label="Layer 1"
     inkscape:groupmode="layer"
     transform="translate(-25.993193,7.9895573)">
    <g
       id="mail-unread-new">
      <path
         id="path4857"
         transform="translate(0,-8)"
         d="m 43.996094,0.9921875 c -1.649515,0 -3.104218,0.8140043 -4.015625,2.0507813 l -1.986328,-1.3320313 -10,6.6992187 0,12.5996098 20,0 0,-12.0468754 c 0.621119,-0.8331748 1.001953,-1.854757 1.001953,-2.9707031 0,-2.7555014 -2.244499,-5 -5,-5 z m 0,1 c 2.215061,0 4,1.7849387 4,4 0,0.7479626 -0.217385,1.4374434 -0.572266,2.0351563 L 40.808594,3.5957031 c 0.728843,-0.9687628 1.87718,-1.6035156 3.1875,-1.6035156 z"
         style="color:#000000;font-style:normal;font-variant:normal;font-weight:normal;font-stretch:normal;font-size:medium;line-height:normal;font-family:sans-serif;text-indent:0;text-align:start;text-decoration:none;text-decoration-line:none;text-decoration-style:solid;text-decoration-color:#000000;letter-spacing:normal;word-spacing:normal;text-transform:none;direction:ltr;block-progression:tb;writing-mode:lr-tb;baseline-shift:baseline;text-anchor:start;white-space:normal;clip-rule:nonzero;display:inline;overflow:visible;visibility:visible;opacity:1;isolation:auto;mix-blend-mode:normal;color-interpolation:sRGB;color-interpolation-filters:linearRGB;solid-color:#000000;solid-opacity:1;fill:#000000;fill-opacity:0.39215686;fill-rule:nonzero;stroke:none;stroke-width:1;stroke-linecap:round;stroke-linejoin:round;stroke-miterlimit:4;stroke-dasharray:none;stroke-dashoffset:0.5;stroke-opacity:1;color-rendering:auto;image-rendering:auto;shape-rendering:auto;text-rendering:auto;enable-background:accumulate"
         inkscape:connector-curvature="0" />
      <rect
         y="-7.9895573"
         x="25.993193"
         height="24"
         width="24"
         id="rect3068-0"
         style="opacity:0;fill:#00ffff;fill-opacity:1;fill-rule:nonzero;stroke:none" />
      <path
         sodipodi:nodetypes="cccccccccccccccccccccccccc"
         inkscape:connector-curvature="0"
         id="path3017-7-2"
         d="m 28.993194,1.010443 0,0 8.999999,-6 8,7 0,-0.7 -8,-5.3 -7.999999,5.3 0,0.7 7.999999,6 8,-6 -8,-7 9,6 0,0 0,0 0,11 0,0 -5,-4 -1,0 5,4 -13,0 -2.999999,0 4.999999,-4 -1,0 -4.999999,4 0,0 0,-11"
         style="fill:#f2f2f2;fill-opacity:1;stroke:none" />
      <path
         inkscape:connector-curvature="0"
         id="path3851-8"
         d="m 31.993193,3.010443 0,-2 12,0 0,2 -1,0 0,-1 -10,0 0,1 -1,0"
         style="fill:#f2f2f2;fill-opacity:1;stroke:none" />
      <rect
         y="3.0104465"
         x="33.993195"
         height="1"
         width="3"
         id="rect3855-1"
         style="fill:#f2f2f2;fill-opacity:1;fill-rule:nonzero;stroke:none" />
      <rect
         y="3.0104465"
         x="37.993195"
         height="1"
         width="1"
         id="rect3857-1"
         style="fill:#f2f2f2;fill-opacity:1;fill-rule:nonzero;stroke:none" />
      <rect
         y="5.0104465"
         x="35.993195"
         height="1"
         width="2"
         id="rect3859-9"
         style="fill:#f2f2f2;fill-opacity:1;fill-rule:nonzero;stroke:none" />
      <rect
         y="5.0104465"
         x="38.993195"
         height="1"
         width="1"
         id="rect3861-4"
         style="fill:#f2f2f2;fill-opacity:1;fill-rule:nonzero;stroke:none" />
      <circle
         r="4"
         cy="-2.0014007"
         cx="43.989708"
         id="path3071-6"
         style="fill:#00a2ff;fill-opacity:1;fill-rule:nonzero;stroke:none" />
    </g>
  </g>
</svg>
