<?xml version="1.0" encoding="UTF-8" standalone="no"?>
<!-- Created with Inkscape (http://www.inkscape.org/) -->

<svg
   xmlns:dc="http://purl.org/dc/elements/1.1/"
   xmlns:cc="http://creativecommons.org/ns#"
   xmlns:rdf="http://www.w3.org/1999/02/22-rdf-syntax-ns#"
   xmlns:svg="http://www.w3.org/2000/svg"
   xmlns="http://www.w3.org/2000/svg"
   xmlns:sodipodi="http://sodipodi.sourceforge.net/DTD/sodipodi-0.dtd"
   xmlns:inkscape="http://www.inkscape.org/namespaces/inkscape"
   id="svg3229"
   height="24"
   width="24"
   version="1.0"
   inkscape:version="0.91 r13725"
   sodipodi:docname="message-indicator.svgz">
  <defs
     id="defs8" />
  <sodipodi:namedview
     pagecolor="#646464"
     bordercolor="#666666"
     borderopacity="1"
     objecttolerance="10"
     gridtolerance="10"
     guidetolerance="10"
     inkscape:pageopacity="0.58823529"
     inkscape:pageshadow="2"
     inkscape:window-width="1546"
     inkscape:window-height="841"
     id="namedview6"
     showgrid="false"
     inkscape:zoom="10.727273"
     inkscape:cx="-9.9915251"
     inkscape:cy="7.2711871"
     inkscape:window-x="54"
     inkscape:window-y="30"
     inkscape:window-maximized="1"
     inkscape:current-layer="svg3229">
    <inkscape:grid
       type="xygrid"
       id="grid2990"
       empspacing="5"
       visible="true"
       enabled="true"
       snapvisiblegridlinesonly="true" />
  </sodipodi:namedview>
  <metadata
     id="metadata9">
    <rdf:RDF>
      <cc:Work
         rdf:about="">
        <dc:format>image/svg+xml</dc:format>
        <dc:type
           rdf:resource="http://purl.org/dc/dcmitype/StillImage" />
        <dc:title />
      </cc:Work>
    </rdf:RDF>
  </metadata>
  <g
     id="normal"
     transform="translate(1,-1)">
    <rect
       y="1"
       x="-1"
       height="24"
       width="24"
       id="rect2991"
       style="opacity:0.01000001;fill:#000000;fill-opacity:0.00392157;stroke:none" />
    <path
       style="opacity:0.3"
       d="M 3.305,8.0221 C 2.6956,8.0221 2,8.7823 2,9.3363 V 18.635 C 2,19.366 2.7889,20 3.4535,20 h 15.048 c 0.798,0 1.498,-0.678 1.498,-1.376 V 9.4646 C 19.9995,8.689 19.3105,8 18.5905,8 L 3.3045,8.0221 z M 3.8438,9.1562 10.688,16 h 0.59375 l 6.875,-6.8438 0.6875,0.6875 -4.094,4.1563 3.0938,3.1562 -0.6875,0.6875 -3.156,-3.156 -2.281,2.312 h -1.438 l -2.281,-2.312 -3.1562,3.187 -0.6876,-0.719 3.125,-3.156 -4.125,-4.1562 0.6876,-0.6876 z"
       id="rect3170-2"
       inkscape:connector-curvature="0" />
    <path
       style="fill:#ebebeb;fill-opacity:1"
       d="M 3.305,7.0221 C 2.6956,7.0221 2,7.7823 2,8.3363 V 17.635 C 2,18.366 2.7889,19 3.4535,19 h 15.048 c 0.798,0 1.498,-0.678 1.498,-1.376 V 8.4646 C 19.9995,7.689 19.3105,7 18.5905,7 L 3.3045,7.0221 z M 3.8438,8.1562 10.688,15 h 0.59375 l 6.875,-6.8438 0.6875,0.6875 -4.094,4.1563 3.0938,3.1562 -0.6875,0.6875 -3.156,-3.156 -2.281,2.312 h -1.438 l -2.281,-2.312 -3.1562,3.187 -0.6876,-0.719 3.125,-3.156 -4.125,-4.1562 0.6876,-0.6876 z"
       id="rect3170"
       inkscape:connector-curvature="0" />
  </g>
  <g
     id="new"
     transform="translate(1,-1)">
    <rect
       y="1"
       x="27"
       height="24"
       width="24"
       id="rect2991-3"
       style="opacity:0.01000001;fill:#000000;fill-opacity:0.00392157;stroke:none" />
    <path
       style="opacity:0.3"
       d="M 31.305,8.0221 C 30.6956,8.0221 30,8.7823 30,9.3363 V 18.635 C 30,19.366 30.7889,20 31.4535,20 h 15.048 c 0.798,0 1.498,-0.678 1.498,-1.376 V 9.4646 C 47.9995,8.689 47.3105,8 46.5905,8 L 31.3045,8.0221 z M 31.8438,9.1562 38.688,16 h 0.59375 l 6.875,-6.8438 0.6875,0.6875 -4.094,4.1563 3.0938,3.1562 -0.6875,0.6875 -3.156,-3.156 -2.281,2.312 h -1.438 l -2.281,-2.312 -3.1562,3.187 -0.6876,-0.719 3.125,-3.156 -4.125,-4.1562 0.6876,-0.6876 z"
       id="rect3170-2-9"
       inkscape:connector-curvature="0" />
    <path
       style="fill:#19b6ee"
       d="M 31.305,7.0221 C 30.6956,7.0221 30,7.7823 30,8.3363 V 17.635 C 30,18.366 30.7889,19 31.4535,19 h 15.048 c 0.798,0 1.498,-0.678 1.498,-1.376 V 8.4646 C 47.9995,7.689 47.3105,7 46.5905,7 L 31.3045,7.0221 z M 31.8438,8.1562 38.688,15 h 0.59375 l 6.875,-6.8438 0.6875,0.6875 -4.094,4.1563 3.0938,3.1562 -0.6875,0.6875 -3.156,-3.156 -2.281,2.312 h -1.438 l -2.281,-2.312 -3.1562,3.187 -0.6876,-0.719 3.125,-3.156 -4.125,-4.1562 0.6876,-0.6876 z"
       id="rect3170-5"
       inkscape:connector-curvature="0" />
  </g>
</svg>
