<?xml version="1.0" encoding="UTF-8" standalone="no"?>
<!-- Created with Inkscape (http://www.inkscape.org/) -->

<svg
   xmlns:dc="http://purl.org/dc/elements/1.1/"
   xmlns:cc="http://creativecommons.org/ns#"
   xmlns:rdf="http://www.w3.org/1999/02/22-rdf-syntax-ns#"
   xmlns:svg="http://www.w3.org/2000/svg"
   xmlns="http://www.w3.org/2000/svg"
   xmlns:sodipodi="http://sodipodi.sourceforge.net/DTD/sodipodi-0.dtd"
   xmlns:inkscape="http://www.inkscape.org/namespaces/inkscape"
   width="24"
   height="24"
   id="svg2"
   version="1.1"
   inkscape:version="0.48.4 r9939"
   sodipodi:docname="recorditnow.svgz">
  <defs
     id="defs4" />
  <sodipodi:namedview
     id="base"
     pagecolor="#000000"
     bordercolor="#ff7900"
     borderopacity="1"
     inkscape:pageopacity="0.85490196"
     inkscape:pageshadow="2"
     inkscape:zoom="15.839192"
     inkscape:cx="4.5906112"
     inkscape:cy="12.636235"
     inkscape:document-units="px"
     inkscape:current-layer="layer1"
     showgrid="true"
     inkscape:window-width="1366"
     inkscape:window-height="713"
     inkscape:window-x="0"
     inkscape:window-y="-3"
     inkscape:window-maximized="1"
     showguides="true"
     inkscape:guide-bbox="true">
    <inkscape:grid
       type="xygrid"
       id="grid2990" />
  </sodipodi:namedview>
  <metadata
     id="metadata7">
    <rdf:RDF>
      <cc:Work
         rdf:about="">
        <dc:format>image/svg+xml</dc:format>
        <dc:type
           rdf:resource="http://purl.org/dc/dcmitype/StillImage" />
        <dc:title />
        <dc:creator>
          <cc:Agent>
            <dc:title>Malcer</dc:title>
          </cc:Agent>
        </dc:creator>
        <cc:license
           rdf:resource="http://creativecommons.org/licenses/by-sa/3.0/" />
      </cc:Work>
      <cc:License
         rdf:about="http://creativecommons.org/licenses/by-sa/3.0/">
        <cc:permits
           rdf:resource="http://creativecommons.org/ns#Reproduction" />
        <cc:permits
           rdf:resource="http://creativecommons.org/ns#Distribution" />
        <cc:requires
           rdf:resource="http://creativecommons.org/ns#Notice" />
        <cc:requires
           rdf:resource="http://creativecommons.org/ns#Attribution" />
        <cc:permits
           rdf:resource="http://creativecommons.org/ns#DerivativeWorks" />
        <cc:requires
           rdf:resource="http://creativecommons.org/ns#ShareAlike" />
      </cc:License>
    </rdf:RDF>
  </metadata>
  <g
     inkscape:label="Capa 1"
     inkscape:groupmode="layer"
     id="layer1"
     transform="translate(0,-1028.3622)">
    <g
       id="recorditnow"
       transform="translate(50,6)">
      <rect
         y="1022.3622"
         x="-50"
         height="24"
         width="24"
         id="rect2994"
         style="opacity:0;fill:#00eaff;fill-opacity:0.41206031;fill-rule:nonzero;stroke:none" />
      <g
         id="g3792">
        <g
           id="g3016"
           style="fill:#000000;stroke:#000000;stroke-opacity:0.39215687;stroke-width:2;stroke-miterlimit:4;stroke-dasharray:none;stroke-linejoin:round"
           transform="translate(5,-1)">
          <path
             style="fill:#000000;fill-opacity:1;stroke:#000000;stroke-opacity:0.39215687;stroke-width:2;stroke-miterlimit:4;stroke-dasharray:none;stroke-linejoin:round"
             d="M 6 5 C 4.3431456 5 3 6.3431458 3 8 C 3 9.6568543 4.3431456 11 6 11 C 7.6568544 11 9 9.6568543 9 8 C 9 6.3431458 7.6568544 5 6 5 z M 6 11 L 2 11 L 2 20 L 17 20 L 17 17 L 22 20 L 22 11 L 17 14 L 17 11 L 13 11 L 6 11 z M 13 11 C 14.656854 11 16 9.6568543 16 8 C 16 6.3431458 14.656854 5 13 5 C 11.343146 5 10 6.3431458 10 8 C 10 9.6568543 11.343146 11 13 11 z "
             transform="translate(-55,1023.3622)"
             id="path3766-8" />
        </g>
        <path
           id="path3766"
           style="fill:#f2f2f2;fill-opacity:1;stroke:none"
           d="m -33,1036.3622 5,-3 0,9 -5,-3 0,0 m -15,-6 15,0 0,9 -15,0 z"
           inkscape:connector-curvature="0"
           sodipodi:nodetypes="cccccccccc" />
        <path
           sodipodi:type="arc"
           style="fill:#f2f2f2;fill-opacity:1;fill-rule:nonzero;stroke:none"
           id="path3770"
           sodipodi:cx="-44.5"
           sodipodi:cy="0.5"
           sodipodi:rx="2.5"
           sodipodi:ry="2.5"
           d="M -42,0.5 C -42,1.8807119 -43.119288,3 -44.5,3 -45.880712,3 -47,1.8807119 -47,0.5 c 0,-1.38071187 1.119288,-2.5 2.5,-2.5 1.380712,0 2.5,1.11928813 2.5,2.5 z"
           transform="matrix(1.2,0,0,1.2,9.4,1029.7622)" />
        <path
           sodipodi:type="arc"
           style="fill:#f2f2f2;fill-opacity:1;fill-rule:nonzero;stroke:none"
           id="path3770-5"
           sodipodi:cx="-44.5"
           sodipodi:cy="0.5"
           sodipodi:rx="2.5"
           sodipodi:ry="2.5"
           d="M -42,0.5 C -42,1.8807119 -43.119288,3 -44.5,3 -45.880712,3 -47,1.8807119 -47,0.5 c 0,-1.38071187 1.119288,-2.5 2.5,-2.5 1.380712,0 2.5,1.11928813 2.5,2.5 z"
           transform="matrix(1.2,0,0,1.2,16.4,1029.7622)" />
      </g>
    </g>
  </g>
</svg>
