<?xml version="1.0" encoding="UTF-8" standalone="no"?>
<!-- Created with Inkscape (http://www.inkscape.org/) -->

<svg
   xmlns:dc="http://purl.org/dc/elements/1.1/"
   xmlns:cc="http://creativecommons.org/ns#"
   xmlns:rdf="http://www.w3.org/1999/02/22-rdf-syntax-ns#"
   xmlns:svg="http://www.w3.org/2000/svg"
   xmlns="http://www.w3.org/2000/svg"
   version="1.1"
   width="24"
   height="24"
   id="svg14997"
   style="display:inline">
  <metadata
     id="metadata15003">
    <rdf:RDF>
      <cc:Work
         rdf:about="">
        <dc:format>image/svg+xml</dc:format>
        <dc:type
           rdf:resource="http://purl.org/dc/dcmitype/StillImage" />
        <dc:title></dc:title>
      </cc:Work>
    </rdf:RDF>
  </metadata>
  <defs
     id="defs15001" />
  <g
     id="smb4k">
    <rect
       width="24"
       height="24"
       x="0"
       y="0"
       id="rect16227"
       style="fill:#ffffff;fill-opacity:0;stroke:none" />
    <path
       d="M 8.5927686,12.827942 C 8.2138492,12.647137 8.74989,11.290428 9.6177774,10.656203 10.485665,10.021976 11.628871,9.8160005 11.787498,10.055357 c 0.547797,0.826587 -0.388007,1.040573 -1.60417,1.751508 -1.2428825,0.726555 -1.21164,1.201882 -1.5905594,1.021077 z"
       id="path15823"
       style="fill:#d7d7d7;fill-opacity:1;stroke:none" />
    <g
       transform="matrix(1.1875,0,0,1.1270013,29.812501,0.8729987)"
       id="g3910">
      <path
         d="m 9.3066976,14.862514 a 9.8707399,9.0810814 0 1 1 -19.7414796,0 9.8707399,9.0810814 0 1 1 19.7414796,0 z"
         transform="matrix(0.72516295,0,0,0.7817728,-14.590978,-3.5197664)"
         id="path3898"
         style="fill:#f5f5f5;fill-opacity:1;stroke:#c8c8c8;stroke-opacity:1" />
      <rect
         width="1.8833865"
         height="3.8406301"
         x="-15.880601"
         y="14.775056"
         id="rect3900"
         style="fill:#c8c8c8;fill-opacity:1;stroke:none" />
      <rect
         width="16"
         height="1.6352363"
         x="-23"
         y="17.299519"
         id="rect3902"
         style="fill:#c8c8c8;fill-opacity:1;stroke:none" />
      <rect
         width="6.9562192"
         height="2.2556827"
         x="-18.476429"
         y="16.961094"
         id="rect3904"
         style="fill:#c8c8c8;fill-opacity:1;stroke:none" />
    </g>
  </g>
</svg>
