<?xml version="1.0" encoding="UTF-8" standalone="no"?>
<!-- Created with Inkscape (http://www.inkscape.org/) -->

<svg
   xmlns:dc="http://purl.org/dc/elements/1.1/"
   xmlns:cc="http://creativecommons.org/ns#"
   xmlns:rdf="http://www.w3.org/1999/02/22-rdf-syntax-ns#"
   xmlns:svg="http://www.w3.org/2000/svg"
   xmlns="http://www.w3.org/2000/svg"
   xmlns:sodipodi="http://sodipodi.sourceforge.net/DTD/sodipodi-0.dtd"
   xmlns:inkscape="http://www.inkscape.org/namespaces/inkscape"
   width="24"
   height="24"
   id="svg2"
   version="1.1"
   inkscape:version="0.91 r13725"
   sodipodi:docname="synaptiks.svgz">
  <defs
     id="defs4" />
  <sodipodi:namedview
     id="base"
     pagecolor="#969696"
     bordercolor="#666666"
     borderopacity="1.0"
     inkscape:pageopacity="1"
     inkscape:pageshadow="2"
     inkscape:zoom="7.9999996"
     inkscape:cx="1.8098841"
     inkscape:cy="16.401646"
     inkscape:document-units="px"
     inkscape:current-layer="layer1"
     showgrid="false"
     showguides="true"
     inkscape:guide-bbox="true"
     inkscape:window-width="1538"
     inkscape:window-height="837"
     inkscape:window-x="54"
     inkscape:window-y="30"
     inkscape:window-maximized="0"
     inkscape:snap-global="true">
    <inkscape:grid
       type="xygrid"
       id="grid3777"
       empspacing="5"
       visible="true"
       enabled="true"
       snapvisiblegridlinesonly="true" />
  </sodipodi:namedview>
  <metadata
     id="metadata7">
    <rdf:RDF>
      <cc:Work
         rdf:about="">
        <dc:format>image/svg+xml</dc:format>
        <dc:type
           rdf:resource="http://purl.org/dc/dcmitype/StillImage" />
        <dc:title />
      </cc:Work>
    </rdf:RDF>
  </metadata>
  <g
     inkscape:label="Layer 1"
     inkscape:groupmode="layer"
     id="layer1"
     transform="translate(0,-1028.3622)">
    <g
       id="synaptiks">
      <rect
         y="1028.3622"
         x="0"
         height="24"
         width="24"
         id="rect2991"
         style="opacity:0.01000001;fill:#000000;fill-opacity:0.00392157;stroke:none" />
      <g
         transform="translate(0,-32)"
         id="g3059">
        <path
           id="path3050-3-79-0-6-7"
           style="color:#bebebe;opacity:0.3;fill:#000000;fill-opacity:1;fill-rule:evenodd"
           d="m 5,1078.3622 c -0.554,0 -1,0 -1,0 l 0,0 c 0,0 0,1 1,1 l 14,0 c 1,0 1,-1 1,-1 l 0,0 c 0,0 -0.446,0 -1,0 z m 0,0 c -0.554,0 -1,0 -1,0 l 0,1 c 0,0.6464 0.446,1 1,1 l 14,0 c 0.554,0 1,-0.3536 1,-1 l 0,-1 c 0,0 -0.446,0 -1,0 z"
           inkscape:connector-curvature="0"
           sodipodi:nodetypes="sccssccssscsssscss" />
        <path
           inkscape:connector-curvature="0"
           id="path3050-3-79"
           style="color:#bebebe;fill:#ebebeb;fill-opacity:1"
           d="m 19,1074.3622 -14,0 0,-1 14,0 z m -7.5,4 0,-4 1,0 0,4 z m -6.5,-13 c -0.554,0 -1,0.3536 -1,1 l 0,12 c 0,0.6464 0.446,1 1,1 l 14,0 c 0.554,0 1,-0.3536 1,-1 l 0,-12 c 0,-0.6464 -0.446,-1 -1,-1 z"
           sodipodi:nodetypes="ccccccccccsssssssss" />
      </g>
    </g>
  </g>
</svg>
