<?xml version="1.0" encoding="UTF-8" standalone="no"?>
<!-- Created using Karbon14, part of koffice: http://www.koffice.org/karbon -->

<svg
   xmlns:dc="http://purl.org/dc/elements/1.1/"
   xmlns:cc="http://creativecommons.org/ns#"
   xmlns:rdf="http://www.w3.org/1999/02/22-rdf-syntax-ns#"
   xmlns:svg="http://www.w3.org/2000/svg"
   xmlns="http://www.w3.org/2000/svg"
   xmlns:sodipodi="http://sodipodi.sourceforge.net/DTD/sodipodi-0.dtd"
   xmlns:inkscape="http://www.inkscape.org/namespaces/inkscape"
   width="24.000078"
   height="24.002201"
   id="svg2"
   version="1.1"
   inkscape:version="0.48.5 r10040"
   sodipodi:docname="tomahawk.svgz">
  <metadata
     id="metadata16">
    <rdf:RDF>
      <cc:Work
         rdf:about="">
        <dc:format>image/svg+xml</dc:format>
        <dc:type
           rdf:resource="http://purl.org/dc/dcmitype/StillImage" />
        <dc:title></dc:title>
        <dc:creator>
          <cc:Agent>
            <dc:title>Malcer</dc:title>
          </cc:Agent>
        </dc:creator>
        <cc:license
           rdf:resource="http://creativecommons.org/licenses/by-sa/3.0/" />
      </cc:Work>
      <cc:License
         rdf:about="http://creativecommons.org/licenses/by-sa/3.0/">
        <cc:permits
           rdf:resource="http://creativecommons.org/ns#Reproduction" />
        <cc:permits
           rdf:resource="http://creativecommons.org/ns#Distribution" />
        <cc:requires
           rdf:resource="http://creativecommons.org/ns#Notice" />
        <cc:requires
           rdf:resource="http://creativecommons.org/ns#Attribution" />
        <cc:permits
           rdf:resource="http://creativecommons.org/ns#DerivativeWorks" />
        <cc:requires
           rdf:resource="http://creativecommons.org/ns#ShareAlike" />
      </cc:License>
    </rdf:RDF>
  </metadata>
  <sodipodi:namedview
     pagecolor="#000000"
     bordercolor="#7bff00"
     borderopacity="1"
     objecttolerance="10"
     gridtolerance="10"
     guidetolerance="10"
     inkscape:pageopacity="0.51372549"
     inkscape:pageshadow="2"
     inkscape:window-width="1366"
     inkscape:window-height="713"
     id="namedview14"
     showgrid="false"
     fit-margin-top="0"
     fit-margin-left="0"
     fit-margin-right="0"
     fit-margin-bottom="0"
     inkscape:zoom="6.952579"
     inkscape:cx="-1.8821735"
     inkscape:cy="11.643809"
     inkscape:window-x="0"
     inkscape:window-y="-3"
     inkscape:window-maximized="1"
     inkscape:current-layer="svg2">
    <inkscape:grid
       type="xygrid"
       id="grid2988" />
  </sodipodi:namedview>
  <defs
     id="defs4" />
  <g
     id="yarock"
     transform="translate(50.053368,-4.0272825)">
    <rect
       y="4.0022011"
       x="-50"
       height="24"
       width="24"
       id="rect2990"
       style="opacity:0;fill:#00dbff;fill-opacity:1;stroke:none" />
    <g
       transform="matrix(1.7849481,0,0,1.7849481,70.72066,-8.1828069)"
       id="text3760"
       style="font-size:12px;font-style:normal;font-variant:normal;font-weight:normal;font-stretch:normal;line-height:125%;letter-spacing:0px;word-spacing:0px;fill:#000000;fill-opacity:1;stroke:none;font-family:FontAwesome;-inkscape-font-specification:FontAwesome">
      <g
         transform="matrix(1.2907186,0,0,1.2907186,-4.3010634,-0.11521063)"
         id="text2987-4"
         style="font-size:12px;font-style:normal;font-variant:normal;font-weight:normal;font-stretch:normal;line-height:125%;letter-spacing:0px;word-spacing:0px;fill:none;stroke:#000000;stroke-width:0.86810619;stroke-miterlimit:4;stroke-opacity:0.39215686;stroke-dasharray:none;font-family:DejaVu Sans;-inkscape-font-specification:Sans">
        <path
           style="fill:none;stroke:#000000;stroke-width:0.86810619;stroke-miterlimit:4;stroke-opacity:0.39215686;stroke-dasharray:none"
           inkscape:connector-curvature="0"
           id="path2992-5"
           d="m -40.108234,12.084647 c -8e-6,0.765627 -0.07813,1.265627 -0.234375,1.5 -0.187507,0.265626 -0.492195,0.406251 -0.914063,0.421875 -0.968755,0.04688 -1.45313,-0.273436 -1.453125,-0.960937 -5e-6,-0.609373 0.406245,-0.929685 1.21875,-0.960938 0.140619,3e-6 0.281244,3e-6 0.421875,0 0.156243,-0.01562 0.273431,-0.02343 0.351563,-0.02344 0.09374,-0.01562 0.171868,-0.02344 0.234375,-0.02344 l 0,-3.7499998 -4.476563,0.75 0,3.7734378 c -3e-6,0.03125 -3e-6,0.07031 0,0.117187 -3e-6,0.265627 -0.0078,0.476564 -0.02344,0.632813 -0.01563,0.140626 -0.05469,0.320313 -0.117188,0.539062 -0.0625,0.218751 -0.17969,0.382813 -0.351562,0.492188 -0.171877,0.09375 -0.39844,0.148438 -0.679688,0.164062 -0.984375,0.04687 -1.476562,-0.281249 -1.476562,-0.984375 0,-0.609373 0.406249,-0.929685 1.21875,-0.960937 0.359373,-0.01562 0.703123,-0.02344 1.03125,-0.02344 l 0,-5.5546873 5.25,-0.8203125 0,5.6718748" />
      </g>
      <g
         transform="matrix(1.2907186,0,0,1.2907186,-4.3010634,-0.11521063)"
         id="text2987"
         style="font-size:12px;font-style:normal;font-variant:normal;font-weight:normal;font-stretch:normal;line-height:125%;letter-spacing:0px;word-spacing:0px;fill:#f2f2f2;fill-opacity:1;stroke:none;font-family:DejaVu Sans;-inkscape-font-specification:Sans">
        <path
           style="fill:#f2f2f2"
           inkscape:connector-curvature="0"
           id="path2992"
           d="m -40.108234,12.084647 c -8e-6,0.765627 -0.07813,1.265627 -0.234375,1.5 -0.187507,0.265626 -0.492195,0.406251 -0.914063,0.421875 -0.968755,0.04688 -1.45313,-0.273436 -1.453125,-0.960937 -5e-6,-0.609373 0.406245,-0.929685 1.21875,-0.960938 0.140619,3e-6 0.281244,3e-6 0.421875,0 0.156243,-0.01562 0.273431,-0.02343 0.351563,-0.02344 0.09374,-0.01562 0.171868,-0.02344 0.234375,-0.02344 l 0,-3.7499998 -4.476563,0.75 0,3.7734378 c -3e-6,0.03125 -3e-6,0.07031 0,0.117187 -3e-6,0.265627 -0.0078,0.476564 -0.02344,0.632813 -0.01563,0.140626 -0.05469,0.320313 -0.117188,0.539062 -0.0625,0.218751 -0.17969,0.382813 -0.351562,0.492188 -0.171877,0.09375 -0.39844,0.148438 -0.679688,0.164062 -0.984375,0.04687 -1.476562,-0.281249 -1.476562,-0.984375 0,-0.609373 0.406249,-0.929685 1.21875,-0.960937 0.359373,-0.01562 0.703123,-0.02344 1.03125,-0.02344 l 0,-5.5546873 5.25,-0.8203125 0,5.6718748" />
      </g>
    </g>
  </g>
</svg>
