<?xml version="1.0" encoding="UTF-8" standalone="no"?>
<!-- Created with Inkscape (http://www.inkscape.org/) -->

<svg
   xmlns:dc="http://purl.org/dc/elements/1.1/"
   xmlns:cc="http://creativecommons.org/ns#"
   xmlns:rdf="http://www.w3.org/1999/02/22-rdf-syntax-ns#"
   xmlns:svg="http://www.w3.org/2000/svg"
   xmlns="http://www.w3.org/2000/svg"
   xmlns:sodipodi="http://sodipodi.sourceforge.net/DTD/sodipodi-0.dtd"
   xmlns:inkscape="http://www.inkscape.org/namespaces/inkscape"
   width="22"
   height="22"
   id="svg2"
   version="1.1"
   inkscape:version="0.48.4 r9939"
   sodipodi:docname="zoom.svgz">
  <defs
     id="defs4" />
  <sodipodi:namedview
     id="base"
     pagecolor="#000000"
     bordercolor="#ff0000"
     borderopacity="1"
     inkscape:pageopacity="0.91764706"
     inkscape:pageshadow="2"
     inkscape:zoom="7.9195959"
     inkscape:cx="8.8375719"
     inkscape:cy="11.235055"
     inkscape:document-units="px"
     inkscape:current-layer="layer1"
     showgrid="false"
     inkscape:window-width="1366"
     inkscape:window-height="713"
     inkscape:window-x="0"
     inkscape:window-y="-3"
     inkscape:window-maximized="1">
    <inkscape:grid
       type="xygrid"
       id="grid2985"
       empspacing="5"
       visible="true"
       enabled="true"
       snapvisiblegridlinesonly="true" />
  </sodipodi:namedview>
  <metadata
     id="metadata7">
    <rdf:RDF>
      <cc:Work
         rdf:about="">
        <dc:format>image/svg+xml</dc:format>
        <dc:type
           rdf:resource="http://purl.org/dc/dcmitype/StillImage" />
        <dc:title />
        <dc:creator>
          <cc:Agent>
            <dc:title>Malcer</dc:title>
          </cc:Agent>
        </dc:creator>
        <dc:description>Caledonia plasma theme icon</dc:description>
      </cc:Work>
    </rdf:RDF>
  </metadata>
  <g
     inkscape:label="Capa 1"
     inkscape:groupmode="layer"
     id="layer1"
     transform="translate(0,-1030.3622)">
    <g
       id="zoom-fit-width">
      <rect
         transform="translate(0,1030.3622)"
         y="0"
         x="0"
         height="22"
         width="22"
         id="rect3006"
         style="fill:#00fffa;fill-opacity:1;fill-rule:evenodd;stroke:none;stroke-width:3;stroke-linecap:butt;stroke-linejoin:round;stroke-miterlimit:4;stroke-opacity:1;stroke-dasharray:none;stroke-dashoffset:0;opacity:0" />
      <path
         inkscape:connector-curvature="0"
         style="fill:none;stroke:#000000;stroke-width:2;stroke-miterlimit:4;stroke-opacity:0.39215686;stroke-dasharray:none"
         d="m 2.0000003,1032.3622 0,18 2,0 0,-18 -2,0 z m 15.9999997,0 0,18 2,0 0,-18 -2,0 z m -8.9999997,3 -4,6 4,6 0,-4.8125 0,-1.0937 0,-1.0938 0,-5 z m 3.9999997,0 0,12 4,-6 -4,-6 z"
         id="rect3776-6" />
      <path
         style="fill:#f2f2f2;fill-opacity:1;fill-rule:evenodd;stroke:none"
         d="M 2 2 L 2 20 L 4 20 L 4 2 L 2 2 z M 18 2 L 18 20 L 20 20 L 20 2 L 18 2 z M 9 5 L 5 11 L 9 17 L 9 12.1875 L 9 11.09375 L 9 10 L 9 5 z M 13 5 L 13 17 L 17 11 L 13 5 z "
         transform="translate(0,1030.3622)"
         id="rect3776" />
    </g>
    <g
       id="zoom-fit-height"
       transform="matrix(0,1,-1,0,1077.3622,1030.3622)">
      <rect
         transform="translate(0,1030.3622)"
         y="0"
         x="0"
         height="22"
         width="22"
         id="rect3006-8"
         style="opacity:0;fill:#00fffa;fill-opacity:1;fill-rule:evenodd;stroke:none" />
      <path
         inkscape:connector-curvature="0"
         style="fill:none;stroke:#000000;stroke-width:2;stroke-miterlimit:4;stroke-opacity:0.39215686;stroke-dasharray:none"
         d="m 2.0000003,1032.3622 0,18 2,0 0,-18 -2,0 z m 15.9999997,0 0,18 2,0 0,-18 -2,0 z m -8.9999997,3 -4,6 4,6 0,-4.8125 0,-1.0937 0,-1.0938 0,-5 z m 3.9999997,0 0,12 4,-6 -4,-6 z"
         id="rect3776-6-3" />
      <path
         inkscape:connector-curvature="0"
         style="fill:#f2f2f2;fill-opacity:1;fill-rule:evenodd;stroke:none"
         d="M 2,2 2,20 4,20 4,2 2,2 z m 16,0 0,18 2,0 0,-18 -2,0 z M 9,5 5,11 9,17 9,12.1875 9,11.09375 9,10 9,5 z m 4,0 0,12 4,-6 -4,-6 z"
         transform="translate(0,1030.3622)"
         id="rect3776-2" />
    </g>
    <g
       id="16-16-zoom-fit-width"
       transform="matrix(0.72727273,0,0,0.72727273,0.42956993,263.34607)">
      <rect
         transform="translate(0,1030.3622)"
         y="0"
         x="0"
         height="22"
         width="22"
         id="rect3006-1"
         style="opacity:0;fill:#00fffa;fill-opacity:1;fill-rule:evenodd;stroke:none" />
      <path
         inkscape:connector-curvature="0"
         style="fill:none;stroke:#000000;stroke-width:2;stroke-miterlimit:4;stroke-opacity:0.39215686;stroke-dasharray:none"
         d="m 2.0000003,1032.3622 0,18 2,0 0,-18 -2,0 z m 15.9999997,0 0,18 2,0 0,-18 -2,0 z m -8.9999997,3 -4,6 4,6 0,-4.8125 0,-1.0937 0,-1.0938 0,-5 z m 3.9999997,0 0,12 4,-6 -4,-6 z"
         id="rect3776-6-8" />
      <path
         inkscape:connector-curvature="0"
         style="fill:#f2f2f2;fill-opacity:1;fill-rule:evenodd;stroke:none"
         d="M 2,2 2,20 4,20 4,2 2,2 z m 16,0 0,18 2,0 0,-18 -2,0 z M 9,5 5,11 9,17 9,12.1875 9,11.09375 9,10 9,5 z m 4,0 0,12 4,-6 -4,-6 z"
         transform="translate(0,1030.3622)"
         id="rect3776-5" />
    </g>
    <g
       id="16-16-zoom-fit-height"
       transform="matrix(0,0.72727273,-0.72727273,0,792.93043,1012.8267)">
      <rect
         transform="translate(0,1030.3622)"
         y="0"
         x="0"
         height="22"
         width="22"
         id="rect3006-8-3"
         style="opacity:0;fill:#00fffa;fill-opacity:1;fill-rule:evenodd;stroke:none" />
      <path
         inkscape:connector-curvature="0"
         style="fill:none;stroke:#000000;stroke-width:2;stroke-miterlimit:4;stroke-opacity:0.39215686;stroke-dasharray:none"
         d="m 2.0000003,1032.3622 0,18 2,0 0,-18 -2,0 z m 15.9999997,0 0,18 2,0 0,-18 -2,0 z m -8.9999997,3 -4,6 4,6 0,-4.8125 0,-1.0937 0,-1.0938 0,-5 z m 3.9999997,0 0,12 4,-6 -4,-6 z"
         id="rect3776-6-3-4" />
      <path
         inkscape:connector-curvature="0"
         style="fill:#f2f2f2;fill-opacity:1;fill-rule:evenodd;stroke:none"
         d="M 2,2 2,20 4,20 4,2 2,2 z m 16,0 0,18 2,0 0,-18 -2,0 z M 9,5 5,11 9,17 9,12.1875 9,11.09375 9,10 9,5 z m 4,0 0,12 4,-6 -4,-6 z"
         transform="translate(0,1030.3622)"
         id="rect3776-2-4" />
    </g>
  </g>
</svg>
