<?xml version="1.0" encoding="UTF-8" standalone="no"?>
<!-- Created with Inkscape (http://www.inkscape.org/) -->
<svg
   xmlns:dc="http://purl.org/dc/elements/1.1/"
   xmlns:cc="http://web.resource.org/cc/"
   xmlns:rdf="http://www.w3.org/1999/02/22-rdf-syntax-ns#"
   xmlns:svg="http://www.w3.org/2000/svg"
   xmlns="http://www.w3.org/2000/svg"
   xmlns:xlink="http://www.w3.org/1999/xlink"
   xmlns:sodipodi="http://sodipodi.sourceforge.net/DTD/sodipodi-0.dtd"
   xmlns:inkscape="http://www.inkscape.org/namespaces/inkscape"
   version="1.0"
   width="387.89816"
   height="347.49246"
   id="svg3341"
   sodipodi:version="0.32"
   inkscape:version="0.45.1"
   sodipodi:docname="atipslogo.svg"
   sodipodi:docbase="/usr/share/kde4/apps/desktoptheme/default/widgets"
   inkscape:output_extension="org.inkscape.output.svg.inkscape">
  <metadata
     id="metadata7498">
    <rdf:RDF>
      <cc:Work
         rdf:about="">
        <dc:format>image/svg+xml</dc:format>
        <dc:type
           rdf:resource="http://purl.org/dc/dcmitype/StillImage" />
      </cc:Work>
    </rdf:RDF>
  </metadata>
  <sodipodi:namedview
     inkscape:window-height="592"
     inkscape:window-width="778"
     inkscape:pageshadow="2"
     inkscape:pageopacity="0.0"
     guidetolerance="10.0"
     gridtolerance="10.0"
     objecttolerance="10.0"
     borderopacity="1.0"
     bordercolor="#666666"
     pagecolor="#ffffff"
     id="base"
     inkscape:zoom="0.54533557"
     inkscape:cx="441.56696"
     inkscape:cy="154.8962"
     inkscape:window-x="51"
     inkscape:window-y="40"
     inkscape:current-layer="svg3341" />
  <defs
     id="defs3343">
    <linearGradient
       id="linearGradient5876">
      <stop
         id="stop5878"
         offset="0"
         style="stop-color:#070707;stop-opacity:0.55555558;" />
      <stop
         id="stop5880"
         offset="1"
         style="stop-color:#5a5a5a;stop-opacity:0;" />
    </linearGradient>
    <linearGradient
       id="linearGradient5681">
      <stop
         id="stop5683"
         offset="0"
         style="stop-color:#ffffff;stop-opacity:0.1010101;" />
      <stop
         id="stop5685"
         offset="1"
         style="stop-color:#ffffff;stop-opacity:0;" />
    </linearGradient>
    <linearGradient
       id="linearGradient63251">
      <stop
         style="stop-color:#a8a8a8;stop-opacity:1;"
         offset="0"
         id="stop63253" />
      <stop
         style="stop-color:#c1c1c1;stop-opacity:0;"
         offset="1"
         id="stop63255" />
    </linearGradient>
    <linearGradient
       id="linearGradient4554">
      <stop
         style="stop-color:#000000;stop-opacity:0.76767677;"
         offset="0"
         id="stop4556" />
      <stop
         style="stop-color:#1c1c1c;stop-opacity:0;"
         offset="1"
         id="stop4558" />
    </linearGradient>
    <linearGradient
       id="linearGradient5384">
      <stop
         style="stop-color:#373737;stop-opacity:0.15463917;"
         offset="0"
         id="stop5386" />
      <stop
         style="stop-color:#373737;stop-opacity:0;"
         offset="1"
         id="stop5388" />
    </linearGradient>
    <linearGradient
       id="linearGradient4752">
      <stop
         id="stop4754"
         offset="0"
         style="stop-color:#e6e6e6;stop-opacity:0.08080808;" />
      <stop
         id="stop4756"
         offset="1"
         style="stop-color:#ffffff;stop-opacity:0;" />
    </linearGradient>
    <linearGradient
       id="linearGradient4401">
      <stop
         id="stop4403"
         offset="0"
         style="stop-color:#d9d9d9;stop-opacity:1;" />
      <stop
         id="stop4405"
         offset="1"
         style="stop-color:#ababab;stop-opacity:0;" />
    </linearGradient>
    <linearGradient
       id="linearGradient4308">
      <stop
         id="stop4311"
         offset="0"
         style="stop-color:#ffffff;stop-opacity:0.42424244;" />
      <stop
         id="stop4313"
         offset="1"
         style="stop-color:#d0d0d0;stop-opacity:0.05050505;" />
    </linearGradient>
    <linearGradient
       id="linearGradient5113">
      <stop
         id="stop5115"
         offset="0"
         style="stop-color:#cbcbcb;stop-opacity:0.36082473;" />
      <stop
         id="stop5117"
         offset="1"
         style="stop-color:#e5e5e5;stop-opacity:0;" />
    </linearGradient>
    <linearGradient
       id="linearGradient3641">
      <stop
         style="stop-color:#ffffff;stop-opacity:0.35353535;"
         offset="0"
         id="stop3643" />
      <stop
         style="stop-color:#ffffff;stop-opacity:0;"
         offset="1"
         id="stop3645" />
    </linearGradient>
    <linearGradient
       id="linearGradient4635">
      <stop
         id="stop4637"
         style="stop-color:#020202;stop-opacity:0.34020618;"
         offset="0" />
      <stop
         offset="0.32555613"
         style="stop-color:#000000;stop-opacity:0.2371134;"
         id="stop4639" />
      <stop
         offset="0.75720018"
         style="stop-color:#000000;stop-opacity:0.2371134;"
         id="stop4641" />
      <stop
         id="stop4643"
         style="stop-color:#000000;stop-opacity:0.37113401;"
         offset="1" />
    </linearGradient>
    <linearGradient
       id="linearGradient3535">
      <stop
         style="stop-color:#2a0000;stop-opacity:1"
         offset="0"
         id="stop3537" />
      <stop
         style="stop-color:#ff0000;stop-opacity:0"
         offset="1"
         id="stop3539" />
    </linearGradient>
    <linearGradient
       x1="2887.9895"
       y1="509.48367"
       x2="2891.9851"
       y2="349.69223"
       id="linearGradient3561"
       xlink:href="#linearGradient3535"
       gradientUnits="userSpaceOnUse"
       gradientTransform="matrix(1,0,0,1.4827586,922.9443,-191.33817)" />
    <linearGradient
       id="linearGradient3521">
      <stop
         style="stop-color:#ff8686;stop-opacity:1"
         offset="0"
         id="stop3523" />
      <stop
         style="stop-color:#ff0000;stop-opacity:0"
         offset="1"
         id="stop3525" />
    </linearGradient>
    <linearGradient
       x1="2895.9802"
       y1="227.94637"
       x2="2893.9824"
       y2="435.92883"
       id="linearGradient3559"
       xlink:href="#linearGradient3521"
       gradientUnits="userSpaceOnUse"
       gradientTransform="matrix(1,0,0,1.2334452,922.9443,-136.40514)" />
    <radialGradient
       inkscape:collect="always"
       xlink:href="#linearGradient4308"
       id="radialGradient13332"
       gradientUnits="userSpaceOnUse"
       gradientTransform="matrix(1.0008259,1.3739205e-2,-4.2636648e-3,4.4313314e-2,0.4710401,117.85455)"
       cx="74.058861"
       cy="124.82391"
       fx="74.058861"
       fy="124.82391"
       r="25.159744" />
    <linearGradient
       inkscape:collect="always"
       xlink:href="#linearGradient5876"
       id="linearGradient13347"
       gradientUnits="userSpaceOnUse"
       gradientTransform="matrix(9.9657939,0,0,-2.0388064,169.56422,551.49734)"
       x1="66.730156"
       y1="82.913185"
       x2="41.784821"
       y2="94.741562" />
    <linearGradient
       inkscape:collect="always"
       xlink:href="#linearGradient5681"
       id="linearGradient13350"
       gradientUnits="userSpaceOnUse"
       gradientTransform="matrix(-8.2676271,0,0,-6.5298604,999.26883,926.19698)"
       x1="70.174522"
       y1="105.9535"
       x2="63.706566"
       y2="80.034973" />
    <radialGradient
       inkscape:collect="always"
       xlink:href="#linearGradient63251"
       id="radialGradient13353"
       gradientUnits="userSpaceOnUse"
       gradientTransform="matrix(7.358286,-7.9751173e-4,0,-0.1216688,186.15727,397.66289)"
       cx="62.647766"
       cy="124.37177"
       fx="62.647766"
       fy="124.37177"
       r="25.159744" />
    <linearGradient
       inkscape:collect="always"
       xlink:href="#linearGradient5384"
       id="linearGradient13356"
       gradientUnits="userSpaceOnUse"
       gradientTransform="matrix(8.3782046,0,0,7.5358506,288.83221,-559.17362)"
       x1="61.670273"
       y1="122.53426"
       x2="64.567534"
       y2="122.53426" />
    <radialGradient
       inkscape:collect="always"
       xlink:href="#linearGradient4752"
       id="radialGradient13359"
       gradientUnits="userSpaceOnUse"
       gradientTransform="matrix(-5.6730177,8.4515644e-3,-1.0541574e-2,-0.7754057,1004.8984,469.55875)"
       cx="62.647766"
       cy="124.37177"
       fx="62.647766"
       fy="124.37177"
       r="25.159744" />
    <radialGradient
       inkscape:collect="always"
       xlink:href="#linearGradient4401"
       id="radialGradient13362"
       gradientUnits="userSpaceOnUse"
       gradientTransform="matrix(3.9110488,2.5511096e-3,0,0.3891986,462.65545,5.2587126)"
       cx="62.647766"
       cy="124.37177"
       fx="62.647766"
       fy="124.37177"
       r="25.159744" />
    <radialGradient
       inkscape:collect="always"
       xlink:href="#linearGradient3641"
       id="radialGradient13366"
       gradientUnits="userSpaceOnUse"
       gradientTransform="matrix(6.5311059,-2.1015823e-2,1.2136072e-2,1.9281414,258.41193,-175.64796)"
       cx="62.647766"
       cy="124.37177"
       fx="62.647766"
       fy="124.37177"
       r="25.159744" />
    <radialGradient
       inkscape:collect="always"
       xlink:href="#linearGradient5113"
       id="radialGradient13369"
       gradientUnits="userSpaceOnUse"
       gradientTransform="matrix(5.2765555,-1.7181715e-2,9.8048708e-3,1.5763724,359.44129,-135.94623)"
       cx="62.647766"
       cy="124.37177"
       fx="62.647766"
       fy="124.37177"
       r="25.159744" />
    <linearGradient
       inkscape:collect="always"
       xlink:href="#linearGradient3641"
       id="linearGradient13372"
       gradientUnits="userSpaceOnUse"
       gradientTransform="matrix(10.498292,0,0,6.5298604,151.97862,-502.08166)"
       x1="71.829758"
       y1="94.741562"
       x2="63.91515"
       y2="81.090675" />
    <linearGradient
       inkscape:collect="always"
       xlink:href="#linearGradient4635"
       id="linearGradient13375"
       gradientUnits="userSpaceOnUse"
       gradientTransform="matrix(5.9798754,0,0,8.7757488,254.49869,-1050.3176)"
       x1="37.760693"
       y1="143.87057"
       x2="98.123001"
       y2="143.87057" />
  </defs>
  <g
     id="layer1"
     inkscape:label="#g13390">
    <g
       inkscape:label="#layer1"
       id="ewi"
       transform="translate(-266.05097,-195.75881)">
      <g
         id="g3334"
         transform="matrix(1.011308,0,0,0.7965334,-3399.0786,87.93306)">
        <g
           id="g3581">
          <rect
             id="rect3545"
             style="fill:#ff0000;fill-opacity:1;stroke:none;stroke-width:3;stroke-miterlimit:4;stroke-dasharray:none;stroke-opacity:1"
             y="135.36877"
             x="3625.1465"
             ry="75.216553"
             height="428.73431"
             width="381.56354" />
          <rect
             id="rect3547"
             style="fill:url(#linearGradient3559);fill-opacity:1;stroke:none;stroke-width:3;stroke-miterlimit:4;stroke-dasharray:none;stroke-opacity:1"
             y="135.36877"
             x="3626.145"
             ry="62.020664"
             height="353.51776"
             width="381.56354" />
          <rect
             id="rect3549"
             style="fill:url(#linearGradient3561);fill-opacity:1;stroke:none;stroke-width:3;stroke-miterlimit:4;stroke-dasharray:none;stroke-opacity:1"
             y="139.12961"
             x="3624.1477"
             ry="75.876343"
             height="432.49515"
             width="381.56354" />
        </g>
        <path
           id="path3551"
           style="fill:#ffffff"
           d="M 3674.4107,430.23579 C 3676.7333,429.17519 3694.1682,412.93069 3719.7286,388.01199 C 3742.5772,365.73699 3761.6643,347.3709 3762.1442,347.19845 C 3762.6266,347.02513 3763.1552,362.45345 3763.3263,381.69845 L 3763.6356,416.51199 L 3766.4409,421.28439 C 3770.4088,428.03459 3775.7918,431.33159 3783.6633,431.83289 C 3789.082,432.17789 3790.6599,431.85149 3795.0052,429.48649 C 3801.2833,426.06949 3804.8198,421.08809 3806.176,413.75139 C 3806.8534,410.08699 3807.1192,386.63028 3806.9292,347.27219 L 3806.6356,286.45524 L 3804.081,281.49277 C 3800.2983,274.14473 3794.8234,270.67273 3786.2558,270.18862 C 3780.855,269.88345 3778.6599,270.22109 3775.5489,271.83547 C 3773.2171,273.04555 3746.3432,299.25396 3709.0486,336.68909 C 3642.0743,403.91569 3644.1357,401.54289 3644.1357,411.41009 C 3644.1357,418.75759 3649.5868,426.94929 3656.5943,430.13229 C 3661.6688,432.43729 3669.4899,432.48279 3674.4107,430.23579 z M 3883.7064,430.11919 C 3888.529,427.92879 3893.7894,421.90399 3895.1506,417.01199 C 3895.7208,414.96289 3896.1268,393.33721 3896.1301,364.84378 C 3896.1331,338.07626 3896.4088,315.46376 3896.7426,314.59378 C 3897.2385,313.3016 3899.1283,313.01199 3907.0645,313.01199 C 3913.2791,313.01199 3918.4435,312.44496 3921.3982,311.43821 C 3929.3998,308.71177 3936.1106,299.45997 3936.1301,291.12801 C 3936.1471,283.85638 3930.8464,275.43555 3924.0788,271.98297 C 3920.4016,270.107 3918.0182,270.01199 3874.6356,270.01199 C 3831.4905,270.01199 3828.8527,270.11567 3825.2511,271.95308 C 3811.2767,279.08231 3809.122,296.56881 3820.9086,307.19544 C 3826.0319,311.81456 3830.2682,312.99938 3841.6856,313.00641 C 3847.3842,313.00993 3851.18,313.45638 3851.9356,314.21199 C 3852.8369,315.11322 3853.1356,327.81913 3853.1356,365.24411 C 3853.1356,419.58649 3853.094,419.15519 3858.9387,425.38809 C 3864.9003,431.74569 3875.6178,433.79299 3883.7064,430.11919 z M 3975.9409,428.75959 C 3978.1872,427.27299 3981.2875,423.90919 3982.8304,421.28439 L 3985.6356,416.51199 L 3985.6356,351.01199 L 3985.6356,285.51199 L 3983.1356,281.0564 C 3981.7606,278.60582 3978.6844,275.23082 3976.2995,273.5564 C 3972.3628,270.79244 3971.2423,270.51199 3964.1356,270.51199 C 3957.0481,270.51199 3955.9031,270.79653 3952.0264,273.52114 C 3949.4342,275.34301 3946.737,278.48859 3945.1903,281.49358 L 3942.6356,286.45687 L 3942.6356,349.48443 C 3942.6356,384.14959 3942.9986,414.22639 3943.4422,416.32169 C 3944.3786,420.74509 3949.8907,427.27599 3955.0623,430.08949 C 3960.4292,433.00929 3970.4873,432.36859 3975.9409,428.75959 z M 3957.8982,301.4466 C 3950.1363,297.235 3950.5766,284.40326 3958.614,280.58926 C 3962.836,278.58584 3965.4639,278.59939 3969.7786,280.64684 C 3975.6727,283.44378 3977.8455,290.80489 3974.6187,297.04472 C 3971.7905,302.51382 3963.761,304.6277 3957.8982,301.4466 z M 3751.0662,404.54789 C 3758.6098,400.64693 3761.6783,392.28778 3758.3382,384.73708 C 3754.7421,376.60731 3746.8733,373.31283 3738.5992,376.47275 C 3723.1904,382.35742 3727.4608,405.99389 3743.9353,406.00829 C 3746.3001,406.01029 3749.509,405.35319 3751.0662,404.54789 z " />
      </g>
    </g>
    <g
       transform="matrix(1.004761,0,0,1,-456.93737,-38.508399)"
       id="g13377">
      <rect
         style="fill:url(#linearGradient13375);fill-opacity:1;fill-rule:nonzero;stroke:none;stroke-width:0;stroke-linecap:square;stroke-linejoin:miter;stroke-miterlimit:4;stroke-dasharray:none;stroke-dashoffset:0;stroke-opacity:1"
         id="rect7657"
         width="385.15753"
         height="346.64911"
         x="456.10437"
         y="38.92997"
         rx="49.510799"
         ry="47.677067" />
      <path
         style="fill:url(#linearGradient13372);fill-opacity:1;fill-rule:nonzero;stroke:none;stroke-width:0;stroke-linecap:butt;stroke-linejoin:round;stroke-miterlimit:4;stroke-dasharray:none;stroke-dashoffset:0;stroke-opacity:1"
         d="M 839.01293,39.418529 C 839.63877,47.328644 840.56037,65.346475 832.32917,70.862784 C 825.42961,75.486899 806.98827,71.395103 791.52015,72.591573 C 769.82353,76.975645 753.77064,89.069362 714.06787,100.32048 C 666.45597,103.82364 639.16582,93.754451 610.07603,116.56759 C 557.46917,113.19905 540.29928,102.06387 544.8243,61.538735 C 546.64186,35.120644 567.86373,49.890871 565.95127,39.43705 C 584.28496,39.075026 625.23987,39.691313 668.42932,40.379083 C 710.73248,41.066818 801.32045,39.851272 839.01293,39.418529 z "
         id="path5450"
         sodipodi:nodetypes="csccccczc" />
      <path
         style="fill:url(#radialGradient13369);fill-opacity:1;fill-rule:nonzero;stroke:none;stroke-width:0;stroke-linecap:butt;stroke-linejoin:round;stroke-miterlimit:4;stroke-dasharray:none;stroke-dashoffset:0;stroke-opacity:1"
         d="M 829.44785,40.51837 C 824.55326,59.681792 826.78252,75.914787 812.26508,84.527654 C 773.18769,92.679372 750.46876,97.087758 682.68065,98.258804 C 649.14159,98.846131 584.29424,89.975012 556.08684,85.475202 C 548.91101,75.37012 532.62709,69.355136 547.17156,41.305716 C 572.28395,40.856879 626.47018,40.126796 691.22521,40.126796 C 755.98032,40.126796 804.79918,40.926663 829.44785,40.51837 z "
         id="path5109"
         sodipodi:nodetypes="ccsccsc" />
      <path
         style="fill:url(#radialGradient13366);fill-opacity:1;fill-rule:nonzero;stroke:none;stroke-width:0;stroke-linecap:butt;stroke-linejoin:round;stroke-miterlimit:4;stroke-dasharray:none;stroke-dashoffset:0;stroke-opacity:1"
         d="M 840.16686,40.194845 C 834.10856,63.634474 836.86783,83.490034 818.89876,94.024841 C 770.53034,103.99549 742.40987,109.38763 658.50454,110.81998 C 616.99114,111.53831 536.72574,100.68768 501.81156,95.18361 C 501.42614,81.450657 472.77434,75.466436 490.77688,41.15793 C 521.8599,40.60879 588.92946,39.715834 669.08051,39.715834 C 749.23174,39.715834 809.65772,40.694285 840.16686,40.194845 z "
         id="path9755"
         sodipodi:nodetypes="ccsccsc" />
      <path
         sodipodi:type="arc"
         style="fill:url(#radialGradient13332);fill-opacity:1;fill-rule:nonzero;stroke:none;stroke-width:0;stroke-linecap:butt;stroke-linejoin:round;stroke-miterlimit:4;stroke-dasharray:none;stroke-dashoffset:0;stroke-opacity:1"
         id="path4548"
         sodipodi:cx="62.647766"
         sodipodi:cy="124.37177"
         sodipodi:rx="25.159744"
         sodipodi:ry="1.7611822"
         d="M 87.80751,124.37177 A 25.159744,1.7611822 0 0 1 69.44846,126.0674 L 62.647766,124.37177 z"
         transform="matrix(-6.0692073e-3,-9.0411474,1.7140896,1.9548149,276.32352,652.97833)"
         sodipodi:start="0"
         sodipodi:end="1.2970911" />
      <path
         style="fill:url(#radialGradient13362);fill-opacity:1;fill-rule:nonzero;stroke:none;stroke-width:0;stroke-linecap:butt;stroke-linejoin:round;stroke-miterlimit:4;stroke-dasharray:none;stroke-dashoffset:0;stroke-opacity:1"
         d="M 799.96584,48.369732 C 796.03847,52.500963 800.91145,55.803992 788.80737,59.471298 C 774.43475,63.826202 731.21084,66.123624 708.54667,66.128029 C 677.87223,66.134307 638.24799,62.962138 624.20068,59.705411 C 610.15341,56.448511 621.68306,51.361998 621.49122,49.581809 C 621.10767,46.021152 661.54644,45.991706 707.67398,45.991706 C 753.80153,45.991706 792.98394,46.167447 799.96584,48.369732 z "
         id="path4397"
         sodipodi:nodetypes="cssszsc" />
      <path
         style="fill:url(#radialGradient13359);fill-opacity:1;fill-rule:nonzero;stroke:none;stroke-width:0;stroke-linecap:butt;stroke-linejoin:round;stroke-miterlimit:4;stroke-dasharray:none;stroke-dashoffset:0;stroke-opacity:1"
         d="M 499.57719,382.75715 C 504.83964,373.33089 502.44279,365.34593 518.05096,361.10943 C 560.06468,357.0995 584.49052,354.93109 657.37187,354.35517 C 693.43116,354.06623 737.29961,358.42987 767.62648,360.64333 C 767.96137,366.16612 818.69998,368.57262 803.06267,382.36978 C 776.06351,382.5907 717.80597,382.94988 648.18532,382.94988 C 578.56479,382.94988 526.07787,382.5563 499.57719,382.75715 z "
         id="path4698"
         sodipodi:nodetypes="ccsccsc" />
      <path
         style="fill:url(#linearGradient13356);fill-opacity:1;fill-rule:nonzero;stroke:none;stroke-width:0;stroke-linecap:square;stroke-linejoin:miter;stroke-miterlimit:4;stroke-dasharray:none;stroke-dashoffset:0;stroke-opacity:1"
         d="M 807.59894,369.07792 C 823.89711,359.40881 829.79229,344.12558 829.79229,344.12558 L 829.79229,382.80165 C 829.79229,382.80165 770.14784,386.23256 764.59953,382.80165 C 777.08329,368.14217 791.30088,378.74689 807.59894,369.07792 z "
         id="rect5373"
         sodipodi:nodetypes="ccccc" />
      <path
         style="fill:url(#radialGradient13353);fill-opacity:1;fill-rule:nonzero;stroke:none;stroke-width:0;stroke-linecap:butt;stroke-linejoin:miter;stroke-miterlimit:4;stroke-dasharray:none;stroke-dashoffset:0;stroke-opacity:1"
         d="M 820.77625,384.18583 C 813.38743,382.89422 822.55557,381.86163 799.78267,380.71524 C 772.74199,379.35392 691.41995,378.63573 648.77939,378.63435 C 591.06827,378.63237 516.51861,379.62397 490.09003,380.64216 C 463.66122,381.66029 485.35332,383.25035 484.99259,383.80691 C 484.27084,384.91993 560.35254,384.92919 647.1375,384.92919 C 733.92246,384.92919 807.64045,384.87426 820.77625,384.18583 z "
         id="path62192"
         sodipodi:nodetypes="cssszsc" />
      <path
         style="fill:url(#linearGradient13350);fill-opacity:1;fill-rule:nonzero;stroke:none;stroke-width:0;stroke-linecap:butt;stroke-linejoin:round;stroke-miterlimit:4;stroke-dasharray:none;stroke-dashoffset:0;stroke-opacity:1"
         d="M 458.21485,384.69667 C 457.72205,376.78666 483.43493,352.72027 495.61646,351.52381 C 512.70293,347.13949 525.34488,335.04595 556.61166,323.7949 C 583.84437,317.21498 605.33597,311.90057 638.50743,307.54772 C 679.93663,310.91616 693.45805,322.05144 689.89461,362.57671 C 688.46336,388.99467 671.75053,374.22434 673.25677,384.67822 C 658.81852,385.04014 626.56567,384.42396 592.55286,383.73623 C 559.2384,383.04842 487.8984,384.26393 458.21485,384.69667 z "
         id="path5415"
         sodipodi:nodetypes="cccccczc" />
      <path
         style="fill:url(#linearGradient13347);fill-opacity:1;fill-rule:nonzero;stroke:none;stroke-width:0;stroke-linecap:butt;stroke-linejoin:round;stroke-miterlimit:4;stroke-dasharray:none;stroke-dashoffset:0;stroke-opacity:1"
         d="M 821.75055,382.42568 C 822.34469,379.95588 823.21965,374.33022 815.40601,372.60778 C 808.85624,371.16405 791.35034,372.44172 776.66686,372.06818 C 756.07068,370.69922 740.83223,366.92326 703.14307,363.41033 C 657.94614,362.31651 632.04021,365.46038 604.42608,358.33755 C 554.48737,359.38928 538.1885,362.866 542.48397,375.51913 C 544.20932,383.76754 564.35475,379.15592 562.53931,382.41986 C 579.94323,382.53289 618.82053,382.3405 659.81958,382.12571 C 699.97688,381.91098 785.97007,382.29056 821.75055,382.42568 z "
         id="path5872"
         sodipodi:nodetypes="csccccczc" />
    </g>
  </g>
</svg>
