<?xml version="1.0" encoding="UTF-8" standalone="no"?>
<!-- Created with Inkscape (http://www.inkscape.org/) -->

<svg
   xmlns:dc="http://purl.org/dc/elements/1.1/"
   xmlns:cc="http://creativecommons.org/ns#"
   xmlns:rdf="http://www.w3.org/1999/02/22-rdf-syntax-ns#"
   xmlns:svg="http://www.w3.org/2000/svg"
   xmlns="http://www.w3.org/2000/svg"
   xmlns:sodipodi="http://sodipodi.sourceforge.net/DTD/sodipodi-0.dtd"
   xmlns:inkscape="http://www.inkscape.org/namespaces/inkscape"
   width="200"
   height="100"
   id="svg7229"
   sodipodi:version="0.32"
   inkscape:version="0.48.4 r9939"
   version="1.0"
   sodipodi:docname="media.svgz"
   inkscape:output_extension="org.inkscape.output.svgz.inkscape">
  <defs
     id="defs7231">
    <linearGradient
       id="linearGradient4158">
      <stop
         id="stop4160"
         offset="0"
         style="stop-color:#888888;stop-opacity:1;" />
      <stop
         id="stop4162"
         offset="1"
         style="stop-color:#232323;stop-opacity:1;" />
    </linearGradient>
    <radialGradient
       id="radialGradient3163-0"
       cx="53.1978"
       cy="59.1865"
       r="40.0294"
       gradientTransform="matrix(0.6667,0,0,0.7574,20.7214,14.064)"
       gradientUnits="userSpaceOnUse">
      <stop
         offset="0"
         style="stop-color:#ff1616;stop-opacity:1;"
         id="stop3165-44" />
      <stop
         id="stop4680"
         style="stop-color:#ed0003;stop-opacity:1;"
         offset="0.51351351" />
      <stop
         offset="1"
         style="stop-color:#8b0004;stop-opacity:1;"
         id="stop3175-4" />
    </radialGradient>
  </defs>
  <sodipodi:namedview
     id="base"
     pagecolor="#aaaaaa"
     bordercolor="#666666"
     borderopacity="1.0"
     inkscape:pageopacity="1"
     inkscape:pageshadow="2"
     inkscape:zoom="2.0000001"
     inkscape:cx="92.291941"
     inkscape:cy="24.277432"
     inkscape:document-units="px"
     inkscape:current-layer="layer1"
     showgrid="true"
     inkscape:window-width="1280"
     inkscape:window-height="965"
     inkscape:window-x="-4"
     inkscape:window-y="-2"
     showguides="true"
     inkscape:guide-bbox="true"
     gridtolerance="6"
     inkscape:window-maximized="1">
    <inkscape:grid
       type="xygrid"
       id="grid7245"
       visible="true"
       enabled="true"
       empspacing="5"
       snapvisiblegridlinesonly="true" />
  </sodipodi:namedview>
  <metadata
     id="metadata7234">
    <rdf:RDF>
      <cc:Work
         rdf:about="">
        <dc:format>image/svg+xml</dc:format>
        <dc:type
           rdf:resource="http://purl.org/dc/dcmitype/StillImage" />
        <dc:title />
      </cc:Work>
    </rdf:RDF>
  </metadata>
  <g
     inkscape:label="Camada 1"
     inkscape:groupmode="layer"
     id="layer1"
     transform="translate(-214.53572,-326.50504)">
    <g
       id="16-16-media-playback-start"
       transform="translate(-1,-31)">
      <circle
         transform="matrix(0.13793104,0,0,0.13793104,217.53572,358.50504)"
         sodipodi:ry="58"
         sodipodi:rx="58"
         sodipodi:cy="58"
         sodipodi:cx="58"
         style="opacity:0;fill:#ffffff;fill-opacity:0.78431373"
         id="circle19"
         r="58"
         cy="58"
         cx="58"
         d="M 116,58 C 116,90.032515 90.032515,116 58,116 25.967485,116 0,90.032515 0,58 0,25.967485 25.967485,0 58,0 c 32.032515,0 58,25.967485 58,58 z" />
      <polygon
         transform="matrix(0.16666667,0,0,0.15625,214.53572,357.44254)"
         style="fill:#ffffff;fill-opacity:0.74509805"
         id="polygon53"
         points="42,26 42,26 90,58 42,90 " />
    </g>
    <g
       id="16-16-media-playback-pause">
      <circle
         transform="matrix(0.13793104,0,0,0.13793104,233.53572,327.50504)"
         sodipodi:ry="58"
         sodipodi:rx="58"
         sodipodi:cy="58"
         sodipodi:cx="58"
         style="opacity:0;fill:#000000;fill-opacity:1"
         id="circle19-2"
         r="58"
         cy="58"
         cx="58"
         d="M 116,58 C 116,90.032515 90.032515,116 58,116 25.967485,116 0,90.032515 0,58 0,25.967485 25.967485,0 58,0 c 32.032515,0 58,25.967485 58,58 z" />
      <path
         id="path2618-0"
         transform="translate(214.53572,326.50504)"
         d="M 24,4.9375 24,13 l 2,0 0,-8 z m 4,0 0,8.0625 2,0 0,-8 z"
         style="fill:#ffffff;fill-opacity:0.74509805"
         inkscape:connector-curvature="0"
         sodipodi:nodetypes="cccccccccc" />
    </g>
    <g
       id="16-16-media-playback-stop">
      <circle
         transform="matrix(0.13793104,0,0,0.13793104,254.53572,327.50504)"
         sodipodi:ry="58"
         sodipodi:rx="58"
         sodipodi:cy="58"
         sodipodi:cx="58"
         style="opacity:0;fill:#000000;fill-opacity:1"
         id="circle19-9"
         r="58"
         cy="58"
         cx="58"
         d="M 116,58 C 116,90.032515 90.032515,116 58,116 25.967485,116 0,90.032515 0,58 0,25.967485 25.967485,0 58,0 c 32.032515,0 58,25.967485 58,58 z" />
      <path
         sodipodi:nodetypes="cccccc"
         id="path2618"
         d="m 258.4936,331.45144 8.04212,0.0536 0,8 -8,0 -0.0422,-8.05384 z"
         style="fill:#ffffff;fill-opacity:0.74509805"
         inkscape:connector-curvature="0" />
    </g>
    <g
       id="16-16-media-skip-backward">
      <circle
         transform="matrix(0.13793104,0,0,0.13793104,294.53572,327.45645)"
         sodipodi:ry="58"
         sodipodi:rx="58"
         sodipodi:cy="58"
         sodipodi:cx="58"
         style="fill:#ffffff;fill-opacity:0"
         id="circle19-29"
         r="58"
         cy="58"
         cx="58"
         d="M 116,58 C 116,90.032515 90.032515,116 58,116 25.967485,116 0,90.032515 0,58 0,25.967485 25.967485,0 58,0 c 32.032515,0 58,25.967485 58,58 z" />
      <path
         transform="translate(214.53572,326.50504)"
         sodipodi:nodetypes="cccccccccc"
         inkscape:connector-curvature="0"
         id="polygon53-17"
         d="m 94,4 -8,5 8,5 z m -8,5 0,-4 -2,0 0,8 2,0 z"
         style="fill:#ffffff;fill-opacity:0.74509805" />
    </g>
    <g
       id="16-16-media-skip-forward">
      <circle
         transform="matrix(0.13793104,0,0,0.13793104,314.53572,327.50504)"
         sodipodi:ry="58"
         sodipodi:rx="58"
         sodipodi:cy="58"
         sodipodi:cx="58"
         style="opacity:0;fill:#ffffff;fill-opacity:1"
         id="circle19-1"
         r="58"
         cy="58"
         cx="58"
         d="M 116,58 C 116,90.032515 90.032515,116 58,116 25.967485,116 0,90.032515 0,58 0,25.967485 25.967485,0 58,0 c 32.032515,0 58,25.967485 58,58 z" />
      <path
         id="polygon53-8"
         transform="translate(214.53572,326.50504)"
         d="M 103,4 103,14.0625 110,9 z m 7,5 0,4 2,0 0,-8 -2,0 z"
         style="fill:#ffffff;fill-opacity:0.74509805"
         inkscape:connector-curvature="0"
         sodipodi:nodetypes="cccccccccc" />
    </g>
    <g
       id="16-16-media-seek-backward">
      <circle
         transform="matrix(0.13793104,0,0,0.13793104,334.53572,327.50504)"
         sodipodi:ry="58"
         sodipodi:rx="58"
         sodipodi:cy="58"
         sodipodi:cx="58"
         style="opacity:0;fill:#ffffff;fill-opacity:1"
         id="circle19-0"
         r="58"
         cy="58"
         cx="58"
         d="M 116,58 C 116,90.032515 90.032515,116 58,116 25.967485,116 0,90.032515 0,58 0,25.967485 25.967485,0 58,0 c 32.032515,0 58,25.967485 58,58 z" />
      <path
         id="polygon2195"
         d="m 343.53572,330.50504 -5,5 5,5 0,-5 z m 0,5 4,4 0,-8 z"
         style="fill:#ffffff;fill-opacity:0.74509805"
         inkscape:connector-curvature="0"
         sodipodi:nodetypes="ccccccccc" />
    </g>
    <g
       id="16-16-media-seek-forward">
      <circle
         transform="matrix(0.13793104,0,0,0.13793104,354.53572,327.50504)"
         sodipodi:ry="58"
         sodipodi:rx="58"
         sodipodi:cy="58"
         sodipodi:cx="58"
         style="opacity:0;fill:#ffffff;fill-opacity:1"
         id="circle19-99"
         r="58"
         cy="58"
         cx="58"
         d="M 116,58 C 116,90.032515 90.032515,116 58,116 25.967485,116 0,90.032515 0,58 0,25.967485 25.967485,0 58,0 c 32.032515,0 58,25.967485 58,58 z" />
      <path
         id="polygon2195-6"
         d="m 361.53572,330.50504 0,5 0,5 5,-5 z m 0,5 -4,-4 0,8 z"
         style="fill:#ffffff;fill-opacity:0.74509805"
         inkscape:connector-curvature="0"
         sodipodi:nodetypes="ccccccccc" />
    </g>
    <g
       id="16-16-media-eject">
      <circle
         transform="matrix(0.13793104,0,0,0.13793104,374.53572,327.50504)"
         sodipodi:ry="58"
         sodipodi:rx="58"
         sodipodi:cy="58"
         sodipodi:cx="58"
         style="opacity:0;fill:#ffffff;fill-opacity:1"
         id="circle19-5"
         r="58"
         cy="58"
         cx="58"
         d="M 116,58 C 116,90.032515 90.032515,116 58,116 25.967485,116 0,90.032515 0,58 0,25.967485 25.967485,0 58,0 c 32.032515,0 58,25.967485 58,58 z" />
      <path
         sodipodi:nodetypes="ccccccccc"
         inkscape:connector-curvature="0"
         id="polygon53-1"
         d="m 382.53572,330.50504 -5,6 10,0 z m -4,8 0,1 8,0 0,-1 z"
         style="fill:#ffffff;fill-opacity:0.74509805" />
    </g>
    <g
       id="16-16-media-record">
      <circle
         transform="matrix(0.13793104,0,0,0.13793104,274.53572,327.50504)"
         sodipodi:ry="58"
         sodipodi:rx="58"
         sodipodi:cy="58"
         sodipodi:cx="58"
         style="opacity:0;fill:#000000;fill-opacity:1"
         id="circle19-3"
         r="58"
         cy="58"
         cx="58"
         d="M 116,58 C 116,90.032515 90.032515,116 58,116 25.967485,116 0,90.032515 0,58 0,25.967485 25.967485,0 58,0 c 32.032515,0 58,25.967485 58,58 z" />
      <path
         transform="matrix(0.16494845,0,0,0.16580311,272.02025,324.91436)"
         d="M 88,63.875 C 88,77.19887 77.142905,88 63.75,88 50.357095,88 39.5,77.19887 39.5,63.875 39.5,50.55113 50.357095,39.75 63.75,39.75 77.142905,39.75 88,50.55113 88,63.875 z"
         sodipodi:ry="24.125"
         sodipodi:rx="24.25"
         sodipodi:cy="63.875"
         sodipodi:cx="63.75"
         id="path2195-8"
         style="fill:#cb1111;fill-opacity:1;fill-rule:evenodd;stroke:none"
         sodipodi:type="arc" />
    </g>
    <g
       id="22-22-media-playback-start"
       transform="matrix(2,0,0,1.9999999,-214.53572,-364.50501)">
      <circle
         transform="matrix(0.09482759,0,0,0.09482759,220.03572,361.00504)"
         sodipodi:ry="58"
         sodipodi:rx="58"
         sodipodi:cy="58"
         sodipodi:cx="58"
         style="opacity:0;fill:#ffffff;fill-opacity:0.78431373"
         id="circle3888"
         r="58"
         cy="58"
         cx="58"
         d="M 116,58 C 116,90.032515 90.032515,116 58,116 25.967485,116 0,90.032515 0,58 0,25.967485 25.967485,0 58,0 c 32.032515,0 58,25.967485 58,58 z" />
      <polygon
         transform="matrix(0.125,0,0,0.125,217.28572,359.25504)"
         style="fill:#ffffff;fill-opacity:0.74509805"
         id="polygon3890"
         points="42,26 90,58 42,90 42,26 " />
    </g>
    <g
       transform="matrix(2,0,0,1.9999999,-212.53572,-302.50501)"
       id="22-22-media-playback-pause">
      <circle
         transform="matrix(0.09482759,0,0,0.09482759,236.03572,330.00504)"
         sodipodi:ry="58"
         sodipodi:rx="58"
         sodipodi:cy="58"
         sodipodi:cx="58"
         style="opacity:0;fill:#000000;fill-opacity:1"
         id="circle3898"
         r="58"
         cy="58"
         cx="58"
         d="M 116,58 C 116,90.032515 90.032515,116 58,116 25.967485,116 0,90.032515 0,58 0,25.967485 25.967485,0 58,0 c 32.032515,0 58,25.967485 58,58 z" />
      <path
         id="path3900"
         transform="translate(214.53572,326.50504)"
         d="m 24,6 0,6 2,0 L 26,6.0625 24,6 z m 4,0 0,6 2,0 L 30,6.0625 28,6 z"
         style="fill:#ffffff;fill-opacity:0.74509805"
         inkscape:connector-curvature="0" />
    </g>
    <g
       transform="matrix(2,0,0,1.9999999,-212.53572,-302.50501)"
       id="22-22-media-playback-stop">
      <circle
         transform="matrix(0.09482759,0,0,0.09482759,257.03572,330.00504)"
         sodipodi:ry="58"
         sodipodi:rx="58"
         sodipodi:cy="58"
         sodipodi:cx="58"
         style="opacity:0;fill:#000000;fill-opacity:1"
         id="circle3908"
         r="58"
         cy="58"
         cx="58"
         d="M 116,58 C 116,90.032515 90.032515,116 58,116 25.967485,116 0,90.032515 0,58 0,25.967485 25.967485,0 58,0 c 32.032515,0 58,25.967485 58,58 z" />
      <path
         sodipodi:nodetypes="ccccc"
         id="path3910"
         d="m 259.53572,332.50504 6,0.0486 -0.004,5.94616 -5.95788,0.005 -0.0382,-6 z"
         style="fill:#ffffff;fill-opacity:0.74509805"
         inkscape:connector-curvature="0" />
    </g>
    <g
       transform="matrix(2,0,0,1.9999999,-368.53572,-272.50501)"
       id="22-22-media-skip-backward">
      <circle
         transform="matrix(0.09482759,0,0,0.09482759,297.03572,330.00504)"
         sodipodi:ry="58"
         sodipodi:rx="58"
         sodipodi:cy="58"
         sodipodi:cx="58"
         style="fill:#ffffff;fill-opacity:0"
         id="circle3918"
         r="58"
         cy="58"
         cx="58"
         d="M 116,58 C 116,90.032515 90.032515,116 58,116 25.967485,116 0,90.032515 0,58 0,25.967485 25.967485,0 58,0 c 32.032515,0 58,25.967485 58,58 z" />
      <path
         sodipodi:nodetypes="cccccccccc"
         inkscape:connector-curvature="0"
         id="path3920"
         d="m 306.53572,331.50504 -6,4 6,4 z m -6,4 0,-3 -2,0 0,6 2,0 z"
         style="fill:#ffffff;fill-opacity:0.74509805" />
    </g>
    <g
       transform="matrix(2,0,0,1.9999999,-368.53572,-272.50501)"
       id="22-22-media-skip-forward">
      <circle
         transform="matrix(0.09482759,0,0,0.09482759,317.03572,330.00504)"
         sodipodi:ry="58"
         sodipodi:rx="58"
         sodipodi:cy="58"
         sodipodi:cx="58"
         style="opacity:0;fill:#ffffff;fill-opacity:1"
         id="circle3928"
         r="58"
         cy="58"
         cx="58"
         d="M 116,58 C 116,90.032515 90.032515,116 58,116 25.967485,116 0,90.032515 0,58 0,25.967485 25.967485,0 58,0 c 32.032515,0 58,25.967485 58,58 z" />
      <path
         inkscape:connector-curvature="0"
         id="path3930"
         transform="translate(214.53572,326.50504)"
         d="m 104,5 0,8 6,-4 -6,-4 z m 6,4 0,3 2,0 0,-5.9375 L 110,6 l 0,3 z"
         style="fill:#ffffff;fill-opacity:0.74509805" />
    </g>
    <g
       transform="matrix(2,0,0,1.9999999,-368.53572,-272.50501)"
       id="22-22-media-seek-backward">
      <circle
         transform="matrix(0.09482759,0,0,0.09482759,336.53572,330.00504)"
         sodipodi:ry="58"
         sodipodi:rx="58"
         sodipodi:cy="58"
         sodipodi:cx="58"
         style="opacity:0;fill:#ffffff;fill-opacity:1"
         id="circle3938"
         r="58"
         cy="58"
         cx="58"
         d="M 116,58 C 116,90.032515 90.032515,116 58,116 25.967485,116 0,90.032515 0,58 0,25.967485 25.967485,0 58,0 c 32.032515,0 58,25.967485 58,58 z" />
      <path
         inkscape:connector-curvature="0"
         id="path3940"
         transform="translate(214.53572,326.50504)"
         d="m 128,5 -4,4 4,4 0,-4 0,-4 z m 0,4 3,3 0,-6 -3,3 z"
         style="fill:#ffffff;fill-opacity:0.74509805" />
    </g>
    <g
       transform="matrix(2,0,0,1.9999999,-368.53572,-272.50501)"
       id="22-22-media-seek-forward">
      <circle
         transform="matrix(0.09482759,0,0,0.09482759,357.03572,330.00504)"
         sodipodi:ry="58"
         sodipodi:rx="58"
         sodipodi:cy="58"
         sodipodi:cx="58"
         style="opacity:0;fill:#ffffff;fill-opacity:1"
         id="circle3948"
         r="58"
         cy="58"
         cx="58"
         d="M 116,58 C 116,90.032515 90.032515,116 58,116 25.967485,116 0,90.032515 0,58 0,25.967485 25.967485,0 58,0 c 32.032515,0 58,25.967485 58,58 z" />
      <path
         inkscape:connector-curvature="0"
         id="path3950"
         transform="translate(214.53572,326.50504)"
         d="m 148,5 0,4 0,4 4,-4 -4,-4 z m 0,4 -3,-3 0,6 3,-3 z"
         style="fill:#ffffff;fill-opacity:0.74509805" />
    </g>
    <g
       transform="matrix(2,0,0,1.9999999,-368.53572,-272.50501)"
       id="22-22-media-eject">
      <circle
         transform="matrix(0.09482759,0,0,0.09482759,377.03572,330.00504)"
         sodipodi:ry="58"
         sodipodi:rx="58"
         sodipodi:cy="58"
         sodipodi:cx="58"
         style="opacity:0;fill:#ffffff;fill-opacity:1"
         id="circle3958"
         r="58"
         cy="58"
         cx="58"
         d="M 116,58 C 116,90.032515 90.032515,116 58,116 25.967485,116 0,90.032515 0,58 0,25.967485 25.967485,0 58,0 c 32.032515,0 58,25.967485 58,58 z" />
      <path
         sodipodi:nodetypes="ccccccccc"
         inkscape:connector-curvature="0"
         id="path3960"
         transform="translate(214.53572,326.50504)"
         d="m 168,5 -4,5 8,0 z m -3,6 0,1 6,0 0,-1 z"
         style="fill:#ffffff;fill-opacity:0.74509805" />
    </g>
    <g
       id="22-22-media-record">
      <circle
         transform="matrix(0.18965517,0,0,0.18965517,341.53572,357.50504)"
         sodipodi:ry="58"
         sodipodi:rx="58"
         sodipodi:cy="58"
         sodipodi:cx="58"
         style="opacity:0;fill:#000000;fill-opacity:1"
         id="circle3968"
         r="58"
         cy="58"
         cx="58"
         d="M 116,58 C 116,90.032515 90.032515,116 58,116 25.967485,116 0,90.032515 0,58 0,25.967485 25.967485,0 58,0 c 32.032515,0 58,25.967485 58,58 z" />
      <path
         transform="matrix(0.24742268,0,0,0.24870467,336.76252,352.61902)"
         d="M 88,63.875 C 88,77.19887 77.142905,88 63.75,88 50.357095,88 39.5,77.19887 39.5,63.875 39.5,50.55113 50.357095,39.75 63.75,39.75 77.142905,39.75 88,50.55113 88,63.875 z"
         sodipodi:ry="24.125"
         sodipodi:rx="24.25"
         sodipodi:cy="63.875"
         sodipodi:cx="63.75"
         id="path3970"
         style="fill:#cb1111;fill-opacity:1;fill-rule:evenodd;stroke:none"
         sodipodi:type="arc" />
    </g>
    <g
       transform="matrix(2.9090908,0,0,2.9090908,-420.29544,-623.1914)"
       id="media-playback-start">
      <circle
         d="M 116,58 C 116,90.032515 90.032515,116 58,116 25.967485,116 0,90.032515 0,58 0,25.967485 25.967485,0 58,0 c 32.032515,0 58,25.967485 58,58 z"
         cx="58"
         cy="58"
         r="58"
         id="circle4014"
         style="opacity:0;fill:#ffffff;fill-opacity:0.78431373000000004"
         sodipodi:cx="58"
         sodipodi:cy="58"
         sodipodi:rx="58"
         sodipodi:ry="58"
         transform="matrix(0.09482759,0,0,0.09482759,219.94197,361.17691)" />
      <polygon
         points="42,26 42,26 90,58 42,90 "
         id="polygon4016"
         style="fill:#ffffff;fill-opacity:0.74509805"
         transform="matrix(0.1217448,0,0,0.1289063,217.92244,359.20035)" />
    </g>
    <g
       id="media-playback-pause"
       transform="matrix(2.9090908,0,0,2.9090908,-427.11362,-532.50959)">
      <circle
         d="M 116,58 C 116,90.032515 90.032515,116 58,116 25.967485,116 0,90.032515 0,58 0,25.967485 25.967485,0 58,0 c 32.032515,0 58,25.967485 58,58 z"
         cx="58"
         cy="58"
         r="58"
         id="circle4024"
         style="opacity:0;fill:#000000;fill-opacity:1"
         sodipodi:cx="58"
         sodipodi:cy="58"
         sodipodi:rx="58"
         sodipodi:ry="58"
         transform="matrix(0.09482759,0,0,0.09482759,236.03572,330.00504)" />
      <path
         inkscape:connector-curvature="0"
         style="fill:#ffffff;fill-opacity:0.74509805"
         d="m 23.90625,5.9062515 0,6.1875005 2.0625,0 0,-6.1875005 z m 4.125,0 0,6.1875005 2.0625,0 0,-6.1875005 z"
         transform="translate(214.53572,326.50504)"
         id="path4026"
         sodipodi:nodetypes="cccccccccc" />
    </g>
    <g
       id="media-playback-stop"
       transform="matrix(2.9090908,0,0,2.9090908,-446.20453,-533.00959)">
      <circle
         d="M 116,58 C 116,90.032515 90.032515,116 58,116 25.967485,116 0,90.032515 0,58 0,25.967485 25.967485,0 58,0 c 32.032515,0 58,25.967485 58,58 z"
         cx="58"
         cy="58"
         r="58"
         id="circle4034"
         style="opacity:0;fill:#000000;fill-opacity:1"
         sodipodi:cx="58"
         sodipodi:cy="58"
         sodipodi:rx="58"
         sodipodi:ry="58"
         transform="matrix(0.09482759,0,0,0.09482759,257.03572,330.00504)" />
      <path
         inkscape:connector-curvature="0"
         style="fill:#ffffff;fill-opacity:0.74509805"
         d="m 265.62947,332.58317 -5e-5,5.84375 -6.1875,-2e-5 5e-5,-5.84373 z"
         id="path4036"
         sodipodi:nodetypes="ccccc" />
    </g>
    <g
       id="media-skip-backward"
       transform="matrix(2.9090908,0,0,2.9090908,-638.56816,-481.50959)">
      <circle
         d="M 116,58 C 116,90.032515 90.032515,116 58,116 25.967485,116 0,90.032515 0,58 0,25.967485 25.967485,0 58,0 c 32.032515,0 58,25.967485 58,58 z"
         cx="58"
         cy="58"
         r="58"
         id="circle4044"
         style="fill:#ffffff;fill-opacity:0"
         sodipodi:cx="58"
         sodipodi:cy="58"
         sodipodi:rx="58"
         sodipodi:ry="58"
         transform="matrix(0.09482759,0,0,0.09482759,297.03572,330.00504)" />
      <path
         style="fill:#ffffff;fill-opacity:0.74509805"
         d="m 306.66072,331.38004 -6.1875,4.125 6.1875,4.125 z m -6.1875,4.125 0,-3.09375 -2.0625,0 0,6.1875 2.0625,0 z"
         id="path4046"
         inkscape:connector-curvature="0"
         sodipodi:nodetypes="cccccccccc" />
    </g>
    <g
       id="media-skip-forward"
       transform="matrix(2.9090908,0,0,2.9090908,-656.74997,-481.50959)">
      <circle
         d="M 116,58 C 116,90.032515 90.032515,116 58,116 25.967485,116 0,90.032515 0,58 0,25.967485 25.967485,0 58,0 c 32.032515,0 58,25.967485 58,58 z"
         cx="58"
         cy="58"
         r="58"
         id="circle4054"
         style="opacity:0;fill:#ffffff;fill-opacity:1"
         sodipodi:cx="58"
         sodipodi:cy="58"
         sodipodi:rx="58"
         sodipodi:ry="58"
         transform="matrix(0.09482759,0,0,0.09482759,317.03572,330.00504)" />
      <path
         style="fill:#ffffff;fill-opacity:0.74509805"
         d="m 103.875,4.8750015 0,8.2500005 6.1875,-4.1250004 z m 6.1875,4.1250001 0,3.0937504 2.0625,0 0,-6.1875005 -2.0625,0 z"
         transform="translate(214.53572,326.50504)"
         id="path4056"
         inkscape:connector-curvature="0"
         sodipodi:nodetypes="cccccccccc" />
    </g>
    <g
       id="media-seek-backward"
       transform="matrix(2.9090908,0,0,2.9090908,-674.29525,-481.50959)">
      <circle
         d="M 116,58 C 116,90.032515 90.032515,116 58,116 25.967485,116 0,90.032515 0,58 0,25.967485 25.967485,0 58,0 c 32.032515,0 58,25.967485 58,58 z"
         cx="58"
         cy="58"
         r="58"
         id="circle4064"
         style="opacity:0;fill:#ffffff;fill-opacity:1"
         sodipodi:cx="58"
         sodipodi:cy="58"
         sodipodi:rx="58"
         sodipodi:ry="58"
         transform="matrix(0.09482759,0,0,0.09482759,336.47316,330.00504)" />
      <path
         style="fill:#ffffff;fill-opacity:0.74509805"
         d="M 128.12494,4.8750015 124,9 l 4.12494,3.781252 0,-3.7812504 z m 0,4.1250001 2.75,2.7500004 0,-5.8437505 z"
         transform="translate(214.53572,326.50504)"
         id="path4066"
         inkscape:connector-curvature="0"
         sodipodi:nodetypes="ccccccccc" />
    </g>
    <g
       id="media-seek-forward"
       transform="matrix(2.9090908,0,0,2.9090908,-693.11361,-481.50959)">
      <circle
         d="M 116,58 C 116,90.032515 90.032515,116 58,116 25.967485,116 0,90.032515 0,58 0,25.967485 25.967485,0 58,0 c 32.032515,0 58,25.967485 58,58 z"
         cx="58"
         cy="58"
         r="58"
         id="circle4074"
         style="opacity:0;fill:#ffffff;fill-opacity:1"
         sodipodi:cx="58"
         sodipodi:cy="58"
         sodipodi:rx="58"
         sodipodi:ry="58"
         transform="matrix(0.09482759,0,0,0.09482759,357.03572,330.00504)" />
      <path
         style="fill:#ffffff;fill-opacity:0.74509805"
         d="M 148,4.8750015 148,9 l 0,4.125002 4.125,-4.1250004 z M 148,9 l -3.09375,-3.0937485 0,6.1875005 z"
         transform="translate(214.53572,326.50504)"
         id="path4076"
         inkscape:connector-curvature="0"
         sodipodi:nodetypes="ccccccccc" />
    </g>
    <g
       id="media-eject"
       transform="matrix(2.9090908,0,0,2.9090908,-711.29542,-481.50959)">
      <circle
         d="M 116,58 C 116,90.032515 90.032515,116 58,116 25.967485,116 0,90.032515 0,58 0,25.967485 25.967485,0 58,0 c 32.032515,0 58,25.967485 58,58 z"
         cx="58"
         cy="58"
         r="58"
         id="circle4084"
         style="opacity:0;fill:#ffffff;fill-opacity:1"
         sodipodi:cx="58"
         sodipodi:cy="58"
         sodipodi:rx="58"
         sodipodi:ry="58"
         transform="matrix(0.09482759,0,0,0.09482759,377.03572,330.00504)" />
      <path
         style="fill:#ffffff;fill-opacity:0.74509805"
         d="m 168,5.2187515 -4.125,4.8125005 8.25,0 z m -3.09375,5.8437505 0,1.03125 6.1875,-2e-6 -5e-5,-1.03125 z"
         transform="translate(214.53572,326.50504)"
         id="path4086"
         inkscape:connector-curvature="0"
         sodipodi:nodetypes="ccccccccc" />
    </g>
    <g
       id="media-record"
       transform="matrix(1.4545455,0,0,1.4545455,-155.24352,-92.502308)">
      <circle
         d="M 116,58 C 116,90.032515 90.032515,116 58,116 25.967485,116 0,90.032515 0,58 0,25.967485 25.967485,0 58,0 c 32.032515,0 58,25.967485 58,58 z"
         cx="58"
         cy="58"
         r="58"
         id="circle4094"
         style="opacity:0;fill:#000000;fill-opacity:1"
         sodipodi:cx="58"
         sodipodi:cy="58"
         sodipodi:rx="58"
         sodipodi:ry="58"
         transform="matrix(0.18965517,0,0,0.18965517,341.53572,357.50504)" />
      <path
         sodipodi:type="arc"
         style="fill:#cb1111;fill-opacity:1;fill-rule:evenodd;stroke:none"
         id="path4096"
         sodipodi:cx="63.75"
         sodipodi:cy="63.875"
         sodipodi:rx="25.007809"
         sodipodi:ry="24.878866"
         d="m 88.757809,63.875 c 0,13.740218 -11.196378,24.878866 -25.007809,24.878866 -13.811431,0 -25.007809,-11.138648 -25.007809,-24.878866 0,-13.740218 11.196378,-24.878866 25.007809,-24.878866 13.811431,0 25.007809,11.138648 25.007809,24.878866 z"
         transform="matrix(0.24742268,0,0,0.24870467,336.76252,352.61902)" />
    </g>
  </g>
</svg>
