<?xml version="1.0" encoding="UTF-8" standalone="no"?>
<!-- Created with Inkscape (http://www.inkscape.org/) -->

<svg
   xmlns:dc="http://purl.org/dc/elements/1.1/"
   xmlns:cc="http://creativecommons.org/ns#"
   xmlns:rdf="http://www.w3.org/1999/02/22-rdf-syntax-ns#"
   xmlns:svg="http://www.w3.org/2000/svg"
   xmlns="http://www.w3.org/2000/svg"
   xmlns:sodipodi="http://sodipodi.sourceforge.net/DTD/sodipodi-0.dtd"
   xmlns:inkscape="http://www.inkscape.org/namespaces/inkscape"
   id="svg3738"
   height="24"
   width="24"
   version="1.1"
   inkscape:version="0.91 r13725"
   sodipodi:docname="akonadi.svgz">
  <defs
     id="defs8" />
  <sodipodi:namedview
     pagecolor="#969696"
     bordercolor="#666666"
     borderopacity="1"
     objecttolerance="10"
     gridtolerance="10"
     guidetolerance="10"
     inkscape:pageopacity="0.58823529"
     inkscape:pageshadow="2"
     inkscape:window-width="1546"
     inkscape:window-height="841"
     id="namedview6"
     showgrid="false"
     inkscape:zoom="15.170655"
     inkscape:cx="-8.515372"
     inkscape:cy="15.611717"
     inkscape:window-x="54"
     inkscape:window-y="30"
     inkscape:window-maximized="1"
     inkscape:current-layer="svg3738"
     inkscape:snap-grids="true"
     inkscape:snap-to-guides="true"
     showguides="true"
     inkscape:guide-bbox="true">
    <inkscape:grid
       type="xygrid"
       id="grid2985"
       empspacing="5"
       visible="true"
       enabled="true"
       snapvisiblegridlinesonly="true" />
  </sodipodi:namedview>
  <metadata
     id="metadata13">
    <rdf:RDF>
      <cc:Work
         rdf:about="">
        <dc:format>image/svg+xml</dc:format>
        <dc:type
           rdf:resource="http://purl.org/dc/dcmitype/StillImage" />
        <dc:title />
      </cc:Work>
    </rdf:RDF>
  </metadata>
  <g
     id="akonadi">
    <rect
       y="0"
       x="0"
       height="24"
       width="24"
       id="rect2991"
       style="opacity:0.01000001;fill:#000000;fill-opacity:0.00392157;stroke:none" />
    <path
       id="path3960-2"
       d="M 3.3,12.296791 C 3.3,17.103441 7.196561,21 12.003209,21 c 4.806647,0 8.703208,-3.896559 8.703208,-8.703209 l -17.406417,0 z"
       style="opacity:0.3;fill:#000000;fill-opacity:1;stroke:none"
       inkscape:connector-curvature="0" />
    <path
       sodipodi:nodetypes="csssccc"
       inkscape:connector-curvature="0"
       id="path4494-9"
       d="M 18.927,11.3 C 18.90394,8.0815047 16.260276,5.4788954 13.002668,5.4788954 c -1.318207,0 -2.535883,0.426166 -3.520066,1.1468558 C 9.1002419,6.9057429 9.1080119,6.912636 9.1080119,6.912636 13.234995,11.3 9.0957138,6.9048578 13.234995,11.3 l 0,0 z"
       style="opacity:0.3;fill:#000000;fill-opacity:1;stroke:none"
       mask="none" />
    <path
       transform="matrix(0.35836743,0,0,0.37304921,0.586646,0.4815732)"
       sodipodi:end="3.9636427"
       sodipodi:start="3.1415927"
       d="M 10,28.999999 A 20,20 0 0 1 16.385582,14.349142 L 30,29 z"
       sodipodi:ry="20"
       sodipodi:rx="20"
       sodipodi:cy="29"
       sodipodi:cx="30"
       id="path4521-2"
       style="opacity:0.3;fill:#000000;fill-opacity:1;stroke:none"
       sodipodi:type="arc" />
    <path
       id="path3960"
       d="M 3.3,11.296791 C 3.3,16.103441 7.196561,20 12.003209,20 c 4.806647,0 8.703208,-3.896559 8.703208,-8.703209 l -17.406417,0 z"
       style="fill:#ebebeb;fill-opacity:1;stroke:none"
       inkscape:connector-curvature="0" />
    <path
       sodipodi:nodetypes="csssccc"
       inkscape:connector-curvature="0"
       id="path4494"
       d="M 18.927,10.3 C 18.90394,7.0815044 16.260276,4.4788952 13.002668,4.4788952 c -1.318207,0 -2.535883,0.426166 -3.520066,1.1468557 C 9.1002419,5.9057427 9.1080119,5.9126357 9.1080119,5.9126357 13.234995,10.3 9.0957138,5.9048575 13.234995,10.3 l 0,0 z"
       style="fill:#ebebeb;fill-opacity:1;stroke:none"
       mask="none" />
    <path
       transform="matrix(0.35836743,0,0,0.37304921,0.586646,-0.5184271)"
       sodipodi:end="3.9636427"
       sodipodi:start="3.1415927"
       d="M 10,28.999999 A 20,20 0 0 1 16.385582,14.349142 L 30,29 z"
       sodipodi:ry="20"
       sodipodi:rx="20"
       sodipodi:cy="29"
       sodipodi:cx="30"
       id="path4521"
       style="fill:#ebebeb;fill-opacity:1;stroke:none"
       sodipodi:type="arc" />
  </g>
</svg>
