<?xml version="1.0" encoding="UTF-8" standalone="no"?>
<!-- Created with Inkscape (http://www.inkscape.org/) -->

<svg
   xmlns:dc="http://purl.org/dc/elements/1.1/"
   xmlns:cc="http://creativecommons.org/ns#"
   xmlns:rdf="http://www.w3.org/1999/02/22-rdf-syntax-ns#"
   xmlns:svg="http://www.w3.org/2000/svg"
   xmlns="http://www.w3.org/2000/svg"
   xmlns:sodipodi="http://sodipodi.sourceforge.net/DTD/sodipodi-0.dtd"
   xmlns:inkscape="http://www.inkscape.org/namespaces/inkscape"
   id="svg3738"
   height="24"
   width="24"
   version="1.1"
   inkscape:version="0.91 r13725"
   sodipodi:docname="akregator.svgz">
  <defs
     id="defs8" />
  <sodipodi:namedview
     pagecolor="#969696"
     bordercolor="#666666"
     borderopacity="1"
     objecttolerance="10"
     gridtolerance="10"
     guidetolerance="10"
     inkscape:pageopacity="0.58823529"
     inkscape:pageshadow="2"
     inkscape:window-width="1546"
     inkscape:window-height="841"
     id="namedview6"
     showgrid="false"
     inkscape:zoom="15.170654"
     inkscape:cx="1.4091149"
     inkscape:cy="5.1117069"
     inkscape:window-x="54"
     inkscape:window-y="30"
     inkscape:window-maximized="1"
     inkscape:current-layer="svg3738">
    <inkscape:grid
       type="xygrid"
       id="grid2985"
       empspacing="5"
       visible="true"
       enabled="true"
       snapvisiblegridlinesonly="true" />
  </sodipodi:namedview>
  <metadata
     id="metadata13">
    <rdf:RDF>
      <cc:Work
         rdf:about="">
        <dc:format>image/svg+xml</dc:format>
        <dc:type
           rdf:resource="http://purl.org/dc/dcmitype/StillImage" />
        <dc:title />
      </cc:Work>
    </rdf:RDF>
  </metadata>
  <g
     id="akregator"
     inkscape:label="#akregator"
     transform="translate(1,1)">
    <path
       inkscape:connector-curvature="0"
       id="path2993-6"
       style="opacity:0.3;color:#000000;fill:#000000;fill-opacity:1"
       d="M 4,4 C 3.446,4 3,4.446 3,5 v 14 c 0,0.554 0.446,1 1,1 h 14 c 0.554,0 1,-0.446 1,-1 V 5 C 19,4.446 18.554,4 18,4 H 4 z M 5,6 A 12,12 0 0 1 17,18 H 14.5938 A 9.6,9.6 0 0 0 4.9998,8.4 V 5.9937 z m 0,4.0313 A 7.9543,7.9543 0 0 1 12.9688,18 H 10.625 A 5.6229,5.6229 0 0 0 5,12.3 V 9.9563 z m 1.625,4.6875 c 0.9089,0 1.6562,0.7473 1.6562,1.6562 C 8.2812,17.2839 7.53385,18 6.625,18 5.7161,18 5,17.2839 5,16.375 5,15.4661 5.7161,14.7188 6.625,14.7188 z" />
    <rect
       y="-1"
       x="-1"
       height="24"
       width="24"
       id="rect2991"
       style="opacity:0.01000001;fill:#000000;fill-opacity:0.00392157;stroke:none" />
    <path
       inkscape:connector-curvature="0"
       id="path2993"
       style="color:#000000;fill:#ebebeb;fill-opacity:1"
       d="M 4,3 C 3.446,3 3,3.446 3,4 v 14 c 0,0.554 0.446,1 1,1 h 14 c 0.554,0 1,-0.446 1,-1 V 4 C 19,3.446 18.554,3 18,3 H 4 z M 5,5 A 12,12 0 0 1 17,17 H 14.5938 A 9.6,9.6 0 0 0 4.9998,7.4 V 4.9937 z M 5,9.0313 A 7.9543,7.9543 0 0 1 12.9688,17 H 10.625 A 5.6229,5.6229 0 0 0 5,11.3 V 8.9563 z m 1.625,4.6875 c 0.9089,0 1.6562,0.7473 1.6562,1.6562 C 8.2812,16.2839 7.53385,17 6.625,17 5.7161,17 5,16.2839 5,15.375 5,14.4661 5.7161,13.7188 6.625,13.7188 z" />
  </g>
</svg>
