<?xml version="1.0" encoding="UTF-8" standalone="no"?>
<!-- Created with Inkscape (http://www.inkscape.org/) -->

<svg
   xmlns:dc="http://purl.org/dc/elements/1.1/"
   xmlns:cc="http://creativecommons.org/ns#"
   xmlns:rdf="http://www.w3.org/1999/02/22-rdf-syntax-ns#"
   xmlns:svg="http://www.w3.org/2000/svg"
   xmlns="http://www.w3.org/2000/svg"
   xmlns:xlink="http://www.w3.org/1999/xlink"
   xmlns:sodipodi="http://sodipodi.sourceforge.net/DTD/sodipodi-0.dtd"
   xmlns:inkscape="http://www.inkscape.org/namespaces/inkscape"
   id="svg3215"
   height="24"
   width="24"
   version="1.0"
   inkscape:version="0.91 r13725"
   sodipodi:docname="amarok.svgz">
  <defs
     id="defs9">
    <radialGradient
       inkscape:collect="always"
       xlink:href="#linearGradient16006"
       id="radialGradient3021"
       gradientUnits="userSpaceOnUse"
       gradientTransform="matrix(1.4118279,-0.66865338,0.59646688,1.2594097,-10.697853,3.869394)"
       cx="8.0929317"
       cy="18.634663"
       fx="8.0929317"
       fy="18.634663"
       r="10" />
    <linearGradient
       id="linearGradient16006">
      <stop
         style="stop-color:#ffffff;stop-opacity:0.92086333;"
         offset="0"
         id="stop16008" />
      <stop
         id="stop16016"
         offset="0.25"
         style="stop-color:#ffffff;stop-opacity:0.88489211;" />
      <stop
         id="stop16014"
         offset="0.5"
         style="stop-color:#ffffff;stop-opacity:0.39215687;" />
      <stop
         style="stop-color:#ffffff;stop-opacity:0.89928055;"
         offset="1"
         id="stop16010" />
    </linearGradient>
    <linearGradient
       id="linearGradient16121">
      <stop
         style="stop-color:#ffffff;stop-opacity:0.74100721;"
         offset="0"
         id="stop16123" />
      <stop
         style="stop-color:#ffffff;stop-opacity:0.35251799;"
         offset="1"
         id="stop16125" />
    </linearGradient>
    <radialGradient
       inkscape:collect="always"
       xlink:href="#linearGradient16121"
       id="radialGradient3011"
       gradientUnits="userSpaceOnUse"
       gradientTransform="matrix(1.4962962,1.0267033,-0.82996344,1.2095717,31.749309,-12.763909)"
       cx="10.322598"
       cy="10.69008"
       fx="10.322598"
       fy="10.69008"
       r="7.4207759" />
    <linearGradient
       id="linearGradient3050">
      <stop
         style="stop-color:#ffffff;stop-opacity:0.74100721;"
         offset="0"
         id="stop3052" />
      <stop
         style="stop-color:#ffffff;stop-opacity:0.35251799;"
         offset="1"
         id="stop3054" />
    </linearGradient>
    <linearGradient
       id="linearGradient16018">
      <stop
         style="stop-color:#000000;stop-opacity:0.60431653;"
         offset="0"
         id="stop16020" />
      <stop
         style="stop-color:#1c1c1c;stop-opacity:0.68345326;"
         offset="1"
         id="stop16022" />
    </linearGradient>
  </defs>
  <sodipodi:namedview
     pagecolor="#969696"
     bordercolor="#666666"
     borderopacity="1"
     objecttolerance="10"
     gridtolerance="10"
     guidetolerance="10"
     inkscape:pageopacity="0.58823529"
     inkscape:pageshadow="2"
     inkscape:window-width="1309"
     inkscape:window-height="711"
     id="namedview7"
     showgrid="false"
     inkscape:zoom="8.0000001"
     inkscape:cx="-14.855155"
     inkscape:cy="18.860255"
     inkscape:window-x="54"
     inkscape:window-y="30"
     inkscape:window-maximized="0"
     inkscape:current-layer="svg3215"
     showguides="true"
     inkscape:guide-bbox="true">
    <inkscape:grid
       type="xygrid"
       id="grid2986"
       empspacing="5"
       visible="true"
       enabled="true"
       snapvisiblegridlinesonly="true" />
  </sodipodi:namedview>
  <metadata
     id="metadata12">
    <rdf:RDF>
      <cc:Work
         rdf:about="">
        <dc:format>image/svg+xml</dc:format>
        <dc:type
           rdf:resource="http://purl.org/dc/dcmitype/StillImage" />
        <dc:title />
      </cc:Work>
    </rdf:RDF>
  </metadata>
  <g
     id="amarok">
    <rect
       y="0"
       x="0"
       height="24"
       width="24"
       id="rect2991"
       style="opacity:0.01000001;fill:#000000;fill-opacity:0.00392157;stroke:none" />
    <path
       sodipodi:nodetypes="ssssscccssscssssssssscccc"
       inkscape:connector-curvature="0"
       d="m 9.580616,12.379097 c -0.395916,-0.188916 0.164169,-1.60648 1.070986,-2.269154 0.906817,-0.662676 2.101303,-0.877891 2.267045,-0.627797 0.572369,0.863664 -0.405411,1.087248 -1.676126,1.830072 -1.298633,0.759146 -1.265989,1.255794 -1.661905,1.066879 z m 3.633116,8.112003 2.955259,0.0099 -0.07305,-0.389607 c -0.258539,-1.053331 -0.800254,-3.612592 -0.245165,-5.495454 0.485513,-1.64686 1.836409,-1.812203 2.840702,-2.514184 1.072208,-0.749451 1.264308,-1.491315 0.914248,-1.861149 -0.437486,-0.462199 -0.675986,-0.02209 -1.175462,0.09796 -0.499478,0.12009 -1.352217,0.238356 -1.469329,0.130607 -0.696723,-0.64105 1.40402,-2.057093 1.40402,-3.1019486 0,-1.0448557 0.0091,-1.7243879 -0.685686,-1.8611492 -0.694744,-0.1367611 -3.338641,2.53487 -4.01616,2.9713083 C 12.771426,9.051781 13.04349,8.3074057 11.671353,8.6406422 9.999973,9.046553 9.228739,10.048385 7.981706,11.024219 c -0.623516,0.48792 -1.25098,0.473197 -2.122363,0.718339 -0.495714,0.139457 -1.563297,0.692431 -1.599935,1.110159 -0.06367,0.726002 2.099836,1.170082 2.318273,2.187667 0.154736,0.720835 -0.688384,1.200253 -1.110159,1.926452 C 4.747457,18.078598 4.25,20.497651 4.25,20.497651 l 3.739972,-0.01321 z"
       style="opacity:0.3;fill:#000000;fill-opacity:1;fill-rule:evenodd;stroke:none;display:inline"
       id="path15823-7" />
    <path
       sodipodi:nodetypes="ssssscccssscssssssssscccc"
       inkscape:connector-curvature="0"
       d="M 9.580616,11.379097 C 9.1847,11.190181 9.744785,9.7726164 10.651602,9.1099428 11.558419,8.4472671 12.752905,8.232052 12.918647,8.4821454 13.491016,9.3458095 12.513236,9.569394 11.242521,10.312218 9.943888,11.071364 9.976532,11.568012 9.580616,11.379097 z m 3.633116,8.112003 2.955259,0.0099 -0.07305,-0.389607 c -0.258539,-1.053331 -0.800254,-3.612592 -0.245165,-5.495454 0.485513,-1.64686 1.836409,-1.812203 2.840702,-2.514184 1.072208,-0.749451 1.264308,-1.4913148 0.914248,-1.8611487 -0.437486,-0.4621992 -0.675986,-0.022088 -1.175462,0.097955 -0.499478,0.1200894 -1.352217,0.2383556 -1.469329,0.1306069 -0.696723,-0.6410502 1.40402,-2.0570934 1.40402,-3.101949 0,-1.0448557 0.0091,-1.7243879 -0.685686,-1.8611492 C 16.984525,4.3693089 14.340628,7.04094 13.663109,7.4773783 12.771426,8.0517754 13.04349,7.3074005 11.671353,7.640637 9.999973,8.0465475 9.228739,9.0483798 7.981706,10.024214 7.35819,10.512134 6.730726,10.497411 5.859343,10.742553 5.363629,10.88201 4.296046,11.434984 4.259408,11.852712 4.195738,12.578714 6.359244,13.022794 6.577681,14.040379 6.732417,14.761214 5.889297,15.240632 5.467522,15.966831 4.747457,17.078593 4.25,19.497646 4.25,19.497646 l 3.739972,-0.01321 z"
       style="fill:#ebebeb;fill-opacity:1;fill-rule:evenodd;stroke:none;display:inline"
       id="path15823" />
  </g>
</svg>
