<?xml version="1.0" encoding="UTF-8" standalone="no"?>
<!-- Created with Inkscape (http://www.inkscape.org/) -->

<svg
   xmlns:dc="http://purl.org/dc/elements/1.1/"
   xmlns:cc="http://creativecommons.org/ns#"
   xmlns:rdf="http://www.w3.org/1999/02/22-rdf-syntax-ns#"
   xmlns:svg="http://www.w3.org/2000/svg"
   xmlns="http://www.w3.org/2000/svg"
   xmlns:sodipodi="http://sodipodi.sourceforge.net/DTD/sodipodi-0.dtd"
   xmlns:inkscape="http://www.inkscape.org/namespaces/inkscape"
   id="svg3738"
   height="24"
   width="24"
   version="1.1"
   inkscape:version="0.91 r13725"
   sodipodi:docname="choqok.svgz">
  <defs
     id="defs8" />
  <sodipodi:namedview
     pagecolor="#969696"
     bordercolor="#666666"
     borderopacity="1"
     objecttolerance="10"
     gridtolerance="10"
     guidetolerance="10"
     inkscape:pageopacity="0.58823529"
     inkscape:pageshadow="2"
     inkscape:window-width="1546"
     inkscape:window-height="841"
     id="namedview6"
     showgrid="false"
     inkscape:zoom="15.170654"
     inkscape:cx="-0.28927094"
     inkscape:cy="7.7483764"
     inkscape:window-x="54"
     inkscape:window-y="30"
     inkscape:window-maximized="1"
     inkscape:current-layer="svg3738">
    <inkscape:grid
       type="xygrid"
       id="grid2985"
       empspacing="5"
       visible="true"
       enabled="true"
       snapvisiblegridlinesonly="true" />
  </sodipodi:namedview>
  <metadata
     id="metadata13">
    <rdf:RDF>
      <cc:Work
         rdf:about="">
        <dc:format>image/svg+xml</dc:format>
        <dc:type
           rdf:resource="http://purl.org/dc/dcmitype/StillImage" />
        <dc:title />
      </cc:Work>
    </rdf:RDF>
  </metadata>
  <g
     id="choqok">
    <rect
       y="0"
       x="0"
       height="24"
       width="24"
       id="rect2991"
       style="opacity:0.01000001;fill:#000000;fill-opacity:0.00392157;stroke:none" />
    <path
       d="M 12,5.5 C 10.1404,5.5 8.436,6.1905 7.125,7.3125 6.5043,7.0122 5.1491,6.46 3.5,6.5 3.5,6.5 4.7426,8.9851 5.1875,9.875 5.0702,10.129 4.9637,10.388 4.875,10.656 3.9851,10.879 1.5,11.5 1.5,11.5 c 0,0 1.4673,2 3,2 0,0 0.02455,-0.0042 0.03125,0 0.2543,3.9103 3.4945,7 7.4688,7 1.9648,0 3.7561,-0.76222 5.0938,-2 h 5.406 l -3.344,-3.344 c 0.208,-0.687 0.344,-1.401 0.344,-2.156 0,-4.14 -3.36,-7.5 -7.5,-7.5 z m -3.5,3 c 0.5525,-10e-5 1,0.4478 1,1 0,0.552 -0.4477,1 -1,1 -0.5522,0 -1,-0.448 -1,-1 0,-0.5522 0.4479,-1 1,-1 z m 3.125,3 c 0.99508,-0.0042 1.9905,0.36582 2.75,1.125 1.0123,1.0124 1.3443,2.4594 1,3.75 -1.2904,0.34438 -2.7375,0.01253 -3.75,-1 -1.0124,-1.0125 -1.3443,-2.4597 -1,-3.75 0.32261,-0.08611 0.66831,-0.1236 1,-0.125 z"
       style="opacity:0.3;fill-rule:evenodd"
       id="path2396-6"
       inkscape:connector-curvature="0" />
    <path
       d="M 12,4.5 C 10.1404,4.5 8.436,5.1905 7.125,6.3125 6.5043,6.0122 5.1491,5.46 3.5,5.5 3.5,5.5 4.7426,7.9851 5.1875,8.875 5.0702,9.1291 4.9637,9.3878 4.875,9.656 3.9851,9.879 1.5,10.5 1.5,10.5 c 0,0 1.4673,2 3,2 0,0 0.02455,-0.0042 0.03125,0 0.2543,3.9103 3.4945,7 7.4688,7 1.9648,0 3.7561,-0.76222 5.0938,-2 h 5.406 l -3.344,-3.344 c 0.208,-0.687 0.344,-1.401 0.344,-2.156 0,-4.14 -3.36,-7.5 -7.5,-7.5 z m -3.5,3 c 0.5525,-10e-5 1,0.4478 1,1 0,0.5524 -0.4477,1 -1,1 -0.5522,0 -1,-0.4478 -1,-1 0,-0.5522 0.4479,-1 1,-1 z m 3.125,3 c 0.99508,-0.0042 1.9905,0.36582 2.75,1.125 1.0123,1.0124 1.3443,2.4594 1,3.75 -1.2904,0.34438 -2.7375,0.01253 -3.75,-1 -1.0124,-1.0125 -1.3443,-2.4597 -1,-3.75 0.32261,-0.08611 0.66831,-0.1236 1,-0.125 z"
       style="fill:#ebebeb;fill-rule:evenodd;fill-opacity:1"
       id="path2396"
       inkscape:connector-curvature="0" />
  </g>
</svg>
