<?xml version="1.0" encoding="UTF-8" standalone="no"?>
<!-- Created with Inkscape (http://www.inkscape.org/) -->

<svg
   xmlns:dc="http://purl.org/dc/elements/1.1/"
   xmlns:cc="http://creativecommons.org/ns#"
   xmlns:rdf="http://www.w3.org/1999/02/22-rdf-syntax-ns#"
   xmlns:svg="http://www.w3.org/2000/svg"
   xmlns="http://www.w3.org/2000/svg"
   xmlns:xlink="http://www.w3.org/1999/xlink"
   xmlns:sodipodi="http://sodipodi.sourceforge.net/DTD/sodipodi-0.dtd"
   xmlns:inkscape="http://www.inkscape.org/namespaces/inkscape"
   width="32"
   height="32"
   id="svg7229"
   sodipodi:version="0.32"
   inkscape:version="0.91 r13725"
   version="1.0"
   sodipodi:docname="configure.svgz"
   inkscape:output_extension="org.inkscape.output.svgz.inkscape">
  <defs
     id="defs7231">
    <linearGradient
       inkscape:collect="always"
       xlink:href="#linearGradient4158-2"
       id="linearGradient4048"
       gradientUnits="userSpaceOnUse"
       gradientTransform="translate(57.03125,0)"
       x1="372.53571"
       y1="360.50504"
       x2="372.53571"
       y2="347.50504" />
    <linearGradient
       id="linearGradient4158-2">
      <stop
         id="stop4160-8"
         offset="0"
         style="stop-color:#888888;stop-opacity:1;" />
      <stop
         id="stop4162-9"
         offset="1"
         style="stop-color:#232323;stop-opacity:1;" />
    </linearGradient>
    <linearGradient
       inkscape:collect="always"
       xlink:href="#linearGradient4158-2"
       id="linearGradient3559"
       gradientUnits="userSpaceOnUse"
       gradientTransform="matrix(1.3846148,0,0,1.3846105,-288.97505,-132.6492)"
       x1="372.53571"
       y1="360.50504"
       x2="372.53571"
       y2="347.50504" />
    <linearGradient
       inkscape:collect="always"
       xlink:href="#linearGradient4158-2"
       id="linearGradient4365"
       gradientUnits="userSpaceOnUse"
       gradientTransform="matrix(2,0,0,2,-513.53572,-318.49376)"
       x1="372.53571"
       y1="360.50504"
       x2="372.53571"
       y2="347.50504" />
    <linearGradient
       id="linearGradient3782">
      <stop
         style="stop-color:#ffffff;stop-opacity:1;"
         offset="0"
         id="stop3784" />
      <stop
         style="stop-color:#f2f2f2;stop-opacity:1;"
         offset="1"
         id="stop3786" />
    </linearGradient>
  </defs>
  <sodipodi:namedview
     id="base"
     pagecolor="#000000"
     bordercolor="#ff2300"
     borderopacity="1"
     inkscape:pageopacity="0.6"
     inkscape:pageshadow="2"
     inkscape:zoom="5.6568542"
     inkscape:cx="46.104593"
     inkscape:cy="14.236626"
     inkscape:document-units="px"
     inkscape:current-layer="layer1"
     showgrid="false"
     inkscape:window-width="1366"
     inkscape:window-height="713"
     inkscape:window-x="0"
     inkscape:window-y="-3"
     showguides="true"
     inkscape:guide-bbox="true"
     gridtolerance="6"
     inkscape:window-maximized="1"
     fit-margin-top="0"
     fit-margin-left="0"
     fit-margin-right="0"
     fit-margin-bottom="0">
    <inkscape:grid
       type="xygrid"
       id="grid3000" />
  </sodipodi:namedview>
  <metadata
     id="metadata7234">
    <rdf:RDF>
      <cc:Work
         rdf:about="">
        <dc:format>image/svg+xml</dc:format>
        <dc:type
           rdf:resource="http://purl.org/dc/dcmitype/StillImage" />
        <dc:title />
        <dc:rights>
          <cc:Agent>
            <dc:title />
          </cc:Agent>
        </dc:rights>
        <dc:creator>
          <cc:Agent>
            <dc:title>Malcer</dc:title>
          </cc:Agent>
        </dc:creator>
        <cc:license
           rdf:resource="http://creativecommons.org/licenses/by-sa/3.0/" />
        <dc:description>Icons for Caledonia plasma theme.</dc:description>
      </cc:Work>
      <cc:License
         rdf:about="http://creativecommons.org/licenses/by-sa/3.0/">
        <cc:permits
           rdf:resource="http://creativecommons.org/ns#Reproduction" />
        <cc:permits
           rdf:resource="http://creativecommons.org/ns#Distribution" />
        <cc:requires
           rdf:resource="http://creativecommons.org/ns#Notice" />
        <cc:requires
           rdf:resource="http://creativecommons.org/ns#Attribution" />
        <cc:permits
           rdf:resource="http://creativecommons.org/ns#DerivativeWorks" />
        <cc:requires
           rdf:resource="http://creativecommons.org/ns#ShareAlike" />
      </cc:License>
    </rdf:RDF>
  </metadata>
  <g
     inkscape:label="Camada 1"
     inkscape:groupmode="layer"
     id="layer1"
     transform="translate(-214.4798,-326.52087)">
    <g
       id="configure"
       transform="matrix(1.8823529,0,0,1.8823529,-470.7739,-324.93164)"
       style="fill:#ececec;stroke:#7f7f7f;stroke-opacity:1;stroke-width:0.99981252;stroke-miterlimit:4;stroke-dasharray:none">
      <rect
         style="opacity:0;fill:#ececec;fill-opacity:0.49803922;fill-rule:nonzero;stroke:#7f7f7f;stroke-opacity:1;stroke-width:0.99981252;stroke-miterlimit:4;stroke-dasharray:none"
         id="rect3405-6"
         width="16"
         height="16"
         x="364.53125"
         y="346.5" />
      <g
         transform="matrix(0.12,0,0,0.12125216,384.53125,351.50176)"
         style="font-style:normal;font-variant:normal;font-weight:500;font-stretch:normal;font-size:120px;line-height:125%;font-family:RichStyle;-inkscape-font-specification:'RichStyle Medium';letter-spacing:0px;word-spacing:0px;opacity:0.95;fill:none;fill-opacity:1;stroke:#000000;stroke-width:8.80833013;stroke-linecap:round;stroke-linejoin:round;stroke-miterlimit:4;stroke-dasharray:none;stroke-opacity:0.39215686"
         id="text3006-0">
        <path
           d="m -61.48,1.327272 c 1.0399,1.6000578 1.8799,3.0800564 2.52,4.44 1.119898,2.7200523 1.879897,4.84005 2.28,6.36 0.0799,0.160048 0.159897,0.480048 0.24,0.96 0.159896,0.480047 0.279896,0.840047 0.36,1.08 l 15.48,1.44 c 0.23988,1.600044 0.43988,4.040041 0.6,7.32 l 0,1.8 0,1.8 c -0.16012,3.280031 -0.36012,5.720029 -0.6,7.32 l -15.48,1.44 c -0.0801,0.240025 -0.200104,0.600025 -0.36,1.08 -0.0801,0.480024 -0.160103,0.800024 -0.24,0.96 -1.03e-4,0.08002 -0.0401,0.200023 -0.12,0.36 -1.03e-4,0.08002 -1.03e-4,0.160023 0,0.24 -0.640103,2.160021 -1.360102,4.080019 -2.16,5.76 -1.5201,2.720014 -2.280099,4.080013 -2.28,4.08 -9.9e-5,0.08001 0.0399,0.120013 0.12,0.12 l 9.84,11.88 c -1.680107,2.399999 -3.680105,4.839996 -6,7.32 -0.400102,0.479993 -1.840101,1.839992 -4.32,4.08 l -2.04,1.68 -12.12,-9.84 -0.24,-0.12 c -1.200083,0.879997 -2.800081,1.799996 -4.8,2.76 -1.840077,0.879994 -3.880075,1.639993 -6.12,2.28 -0.240073,-7e-6 -0.600072,0.03999 -1.08,0.12 -0.480072,0.159993 -0.840071,0.279992 -1.08,0.36 -7.1e-5,0.319992 -0.48007,5.519987 -1.44,15.6 -2.560067,0.319976 -5.160064,0.559976 -7.8,0.72 l -3.48,0 c -3.04006,-0.160024 -5.32005,-0.360024 -6.84,-0.6 -0.96005,-10.320013 -1.44005,-15.480008 -1.44,-15.48 -0.40005,-0.08001 -1.20005,-0.280008 -2.4,-0.6 -2.00005,-0.560007 -4.24004,-1.400006 -6.72,-2.52 -1.04004,-0.400004 -2.36004,-1.120004 -3.96,-2.16 l 0,0.12 -11.76,9.84 -0.12,0 c -4.72002,-3.280009 -8.96002,-7.480005 -12.72,-12.6 0.95999,-1.199999 4.15998,-5.199995 9.6,-12 -0.16002,-0.239988 -1.04002,-1.839986 -2.64,-4.8 -1.12002,-2.479981 -1.92002,-4.559979 -2.4,-6.24 -0.32002,-1.119976 -0.52002,-1.959975 -0.6,-2.52 -5.04001,-0.399974 -10.12001,-0.879974 -15.24,-1.44 -0.48,-2.87997 -0.8,-6.439967 -0.96,-10.68 0.08,-1.83996 0.28,-4.279958 0.6,-7.32 5.19999,-0.559954 10.39999,-1.039954 15.6,-1.44 0.08,-0.799953 0.27998,-1.639952 0.6,-2.52 -2e-5,-0.07995 0.04,-0.119951 0.12,-0.12 0.31998,-1.439949 1.07998,-3.4799474 2.28,-6.12 0.71998,-1.5199432 1.51998,-2.9999418 2.4,-4.44 -2.88002,-3.359937 -6.12002,-7.319933 -9.72,-11.88 -0.08,7.2e-5 -0.12001,-0.03993 -0.12,-0.12 2.07999,-2.799926 3.95998,-4.999923 5.64,-6.6 1.19998,-1.27992 2.59998,-2.559919 4.2,-3.84 l 2.64,-2.28 0.24,0.24 12,9.72 c 1.67996,-1.119924 3.19996,-1.919924 4.56,-2.4 1.51996,-0.879922 3.43996,-1.679921 5.76,-2.4 0.0799,7.9e-5 0.19995,7.9e-5 0.36,0 0.15995,-0.07992 0.27995,-0.119921 0.36,-0.12 0.87995,-0.31992 1.67995,-0.51992 2.4,-0.6 l 1.44,-15.48 c 1.51995,-0.239904 3.75994,-0.439904 6.72,-0.6 l 1.92,0 1.92,0 c 2.639935,0.160096 5.159933,0.400096 7.56,0.72 0.95993,10.320085 1.439929,15.48008 1.44,15.48 0.239929,0.08008 0.599928,0.20008 1.08,0.36 0.479928,0.08008 0.839927,0.160079 1.08,0.24 2.319925,0.640079 4.279923,1.440078 5.88,2.4 1.19992,0.400076 2.759918,1.200076 4.68,2.4 4.319912,-3.759922 8.279908,-7.039919 11.88,-9.84 l 0,-0.12 c 5.039899,3.760081 9.319895,7.960076 12.84,12.6 l -0.12,0.12 -9.72,12.24 m -38.16,1.2 c -6.16005,5.82e-5 -11.36005,2.1200561 -15.6,6.36 -4.32004,4.320048 -6.48004,9.520042 -6.48,15.6 -4e-5,5.92003 2.15996,11.120025 6.48,15.6 4.23995,4.240016 9.43995,6.360014 15.6,6.36 5.999934,1.4e-5 11.199928,-2.119984 15.6,-6.36 4.23992,-4.399975 6.359918,-9.59997 6.36,-15.6 -8.2e-5,-6.159958 -2.12008,-11.359952 -6.36,-15.6 -4.400072,-4.2399439 -9.600066,-6.3599418 -15.6,-6.36"
           id="path3011-3"
           inkscape:connector-curvature="0"
           style="fill:none;fill-opacity:1;stroke:#000000;stroke-width:8.80833013;stroke-linecap:round;stroke-linejoin:round;stroke-miterlimit:4;stroke-dasharray:none;stroke-opacity:0.39215686" />
      </g>
      <g
         transform="matrix(0.12,0,0,0.12125216,384.53125,351.50176)"
         style="font-style:normal;font-variant:normal;font-weight:500;font-stretch:normal;font-size:120px;line-height:125%;font-family:RichStyle;-inkscape-font-specification:'RichStyle Medium';letter-spacing:0px;word-spacing:0px;opacity:1;fill:#f2f2f2;fill-opacity:1;stroke:none;stroke-width:8.28863865;stroke-miterlimit:4;stroke-dasharray:none;stroke-opacity:1"
         id="text3006">
        <path
           d="m -61.48,1.327272 c 1.0399,1.6000578 1.8799,3.0800564 2.52,4.44 1.119898,2.7200523 1.879897,4.84005 2.28,6.36 0.0799,0.160048 0.159897,0.480048 0.24,0.96 0.159896,0.480047 0.279896,0.840047 0.36,1.08 l 15.48,1.44 c 0.23988,1.600044 0.43988,4.040041 0.6,7.32 l 0,1.8 0,1.8 c -0.16012,3.280031 -0.36012,5.720029 -0.6,7.32 l -15.48,1.44 c -0.0801,0.240025 -0.200104,0.600025 -0.36,1.08 -0.0801,0.480024 -0.160103,0.800024 -0.24,0.96 -1.03e-4,0.08002 -0.0401,0.200023 -0.12,0.36 -1.03e-4,0.08002 -1.03e-4,0.160023 0,0.24 -0.640103,2.160021 -1.360102,4.080019 -2.16,5.76 -1.5201,2.720014 -2.280099,4.080013 -2.28,4.08 -9.9e-5,0.08001 0.0399,0.120013 0.12,0.12 l 9.84,11.88 c -1.680107,2.399999 -3.680105,4.839996 -6,7.32 -0.400102,0.479993 -1.840101,1.839992 -4.32,4.08 l -2.04,1.68 -12.12,-9.84 -0.24,-0.12 c -1.200083,0.879997 -2.800081,1.799996 -4.8,2.76 -1.840077,0.879994 -3.880075,1.639993 -6.12,2.28 -0.240073,-7e-6 -0.600072,0.03999 -1.08,0.12 -0.480072,0.159993 -0.840071,0.279992 -1.08,0.36 -7.1e-5,0.319992 -0.48007,5.519987 -1.44,15.6 -2.560067,0.319976 -5.160064,0.559976 -7.8,0.72 l -3.48,0 c -3.04006,-0.160024 -5.32005,-0.360024 -6.84,-0.6 -0.96005,-10.320013 -1.44005,-15.480008 -1.44,-15.48 -0.40005,-0.08001 -1.20005,-0.280008 -2.4,-0.6 -2.00005,-0.560007 -4.24004,-1.400006 -6.72,-2.52 -1.04004,-0.400004 -2.36004,-1.120004 -3.96,-2.16 l 0,0.12 -11.76,9.84 -0.12,0 c -4.72002,-3.280009 -8.96002,-7.480005 -12.72,-12.6 0.95999,-1.199999 4.15998,-5.199995 9.6,-12 -0.16002,-0.239988 -1.04002,-1.839986 -2.64,-4.8 -1.12002,-2.479981 -1.92002,-4.559979 -2.4,-6.24 -0.32002,-1.119976 -0.52002,-1.959975 -0.6,-2.52 -5.04001,-0.399974 -10.12001,-0.879974 -15.24,-1.44 -0.48,-2.87997 -0.8,-6.439967 -0.96,-10.68 0.08,-1.83996 0.28,-4.279958 0.6,-7.32 5.19999,-0.559954 10.39999,-1.039954 15.6,-1.44 0.08,-0.799953 0.27998,-1.639952 0.6,-2.52 -2e-5,-0.07995 0.04,-0.119951 0.12,-0.12 0.31998,-1.439949 1.07998,-3.4799474 2.28,-6.12 0.71998,-1.5199432 1.51998,-2.9999418 2.4,-4.44 -2.88002,-3.359937 -6.12002,-7.319933 -9.72,-11.88 -0.08,7.2e-5 -0.12001,-0.03993 -0.12,-0.12 2.07999,-2.799926 3.95998,-4.999923 5.64,-6.6 1.19998,-1.27992 2.59998,-2.559919 4.2,-3.84 l 2.64,-2.28 0.24,0.24 12,9.72 c 1.67996,-1.119924 3.19996,-1.919924 4.56,-2.4 1.51996,-0.879922 3.43996,-1.679921 5.76,-2.4 0.0799,7.9e-5 0.19995,7.9e-5 0.36,0 0.15995,-0.07992 0.27995,-0.119921 0.36,-0.12 0.87995,-0.31992 1.67995,-0.51992 2.4,-0.6 l 1.44,-15.48 c 1.51995,-0.239904 3.75994,-0.439904 6.72,-0.6 l 1.92,0 1.92,0 c 2.639935,0.160096 5.159933,0.400096 7.56,0.72 0.95993,10.320085 1.439929,15.48008 1.44,15.48 0.239929,0.08008 0.599928,0.20008 1.08,0.36 0.479928,0.08008 0.839927,0.160079 1.08,0.24 2.319925,0.640079 4.279923,1.440078 5.88,2.4 1.19992,0.400076 2.759918,1.200076 4.68,2.4 4.319912,-3.759922 8.279908,-7.039919 11.88,-9.84 l 0,-0.12 c 5.039899,3.760081 9.319895,7.960076 12.84,12.6 l -0.12,0.12 -9.72,12.24 m -38.16,1.2 c -6.16005,5.82e-5 -11.36005,2.1200561 -15.6,6.36 -4.32004,4.320048 -6.48004,9.520042 -6.48,15.6 -4e-5,5.92003 2.15996,11.120025 6.48,15.6 4.23995,4.240016 9.43995,6.360014 15.6,6.36 5.999934,1.4e-5 11.199928,-2.119984 15.6,-6.36 4.23992,-4.399975 6.359918,-9.59997 6.36,-15.6 -8.2e-5,-6.159958 -2.12008,-11.359952 -6.36,-15.6 -4.400072,-4.2399439 -9.600066,-6.3599418 -15.6,-6.36"
           id="path3011"
           inkscape:connector-curvature="0"
           style="fill:#f2f2f2;fill-opacity:1;stroke:none;stroke-width:8.28863865;stroke-miterlimit:4;stroke-dasharray:none;stroke-opacity:1" />
      </g>
    </g>
    <g
       id="22-22-configure"
       transform="matrix(1.2941319,0,0,1.2941319,-219.76837,-114.87128)"
       style="fill:#ececec;stroke:#7f7f7f;stroke-width:0.99981254;stroke-miterlimit:4;stroke-dasharray:none;stroke-opacity:1">
      <rect
         style="opacity:0;fill:#ececec;fill-opacity:0.49803922;fill-rule:nonzero;stroke:#7f7f7f;stroke-width:0.99981254;stroke-miterlimit:4;stroke-dasharray:none;stroke-opacity:1"
         id="rect3405-6-2"
         width="16"
         height="16"
         x="364.53125"
         y="346.5" />
      <g
         transform="matrix(0.12,0,0,0.12125216,384.53125,351.50176)"
         style="font-style:normal;font-variant:normal;font-weight:500;font-stretch:normal;font-size:120px;line-height:125%;font-family:RichStyle;-inkscape-font-specification:'RichStyle Medium';letter-spacing:0px;word-spacing:0px;opacity:0.95;fill:none;fill-opacity:1;stroke:#000000;stroke-width:10.89017868;stroke-linecap:round;stroke-linejoin:round;stroke-miterlimit:4;stroke-dasharray:none;stroke-opacity:0.39215686"
         id="text3006-0-0">
        <path
           d="m -61.48,1.327272 c 1.0399,1.6000578 1.8799,3.0800564 2.52,4.44 1.119898,2.7200523 1.879897,4.84005 2.28,6.36 0.0799,0.160048 0.159897,0.480048 0.24,0.96 0.159896,0.480047 0.279896,0.840047 0.36,1.08 l 15.48,1.44 c 0.23988,1.600044 0.43988,4.040041 0.6,7.32 l 0,1.8 0,1.8 c -0.16012,3.280031 -0.36012,5.720029 -0.6,7.32 l -15.48,1.44 c -0.0801,0.240025 -0.200104,0.600025 -0.36,1.08 -0.0801,0.480024 -0.160103,0.800024 -0.24,0.96 -1.03e-4,0.08002 -0.0401,0.200023 -0.12,0.36 -1.03e-4,0.08002 -1.03e-4,0.160023 0,0.24 -0.640103,2.160021 -1.360102,4.080019 -2.16,5.76 -1.5201,2.720014 -2.280099,4.080013 -2.28,4.08 -9.9e-5,0.08001 0.0399,0.120013 0.12,0.12 l 9.84,11.88 c -1.680107,2.399999 -3.680105,4.839996 -6,7.32 -0.400102,0.479993 -1.840101,1.839992 -4.32,4.08 l -2.04,1.68 -12.12,-9.84 -0.24,-0.12 c -1.200083,0.879997 -2.800081,1.799996 -4.8,2.76 -1.840077,0.879994 -3.880075,1.639993 -6.12,2.28 -0.240073,-7e-6 -0.600072,0.03999 -1.08,0.12 -0.480072,0.159993 -0.840071,0.279992 -1.08,0.36 -7.1e-5,0.319992 -0.48007,5.519987 -1.44,15.6 -2.560067,0.319976 -5.160064,0.559976 -7.8,0.72 l -3.48,0 c -3.04006,-0.160024 -5.32005,-0.360024 -6.84,-0.6 -0.96005,-10.320013 -1.44005,-15.480008 -1.44,-15.48 -0.40005,-0.08001 -1.20005,-0.280008 -2.4,-0.6 -2.00005,-0.560007 -4.24004,-1.400006 -6.72,-2.52 -1.04004,-0.400004 -2.36004,-1.120004 -3.96,-2.16 l 0,0.12 -11.76,9.84 -0.12,0 c -4.72002,-3.280009 -8.96002,-7.480005 -12.72,-12.6 0.95999,-1.199999 4.15998,-5.199995 9.6,-12 -0.16002,-0.239988 -1.04002,-1.839986 -2.64,-4.8 -1.12002,-2.479981 -1.92002,-4.559979 -2.4,-6.24 -0.32002,-1.119976 -0.52002,-1.959975 -0.6,-2.52 -5.04001,-0.399974 -10.12001,-0.879974 -15.24,-1.44 -0.48,-2.87997 -0.8,-6.439967 -0.96,-10.68 0.08,-1.83996 0.28,-4.279958 0.6,-7.32 5.19999,-0.559954 10.39999,-1.039954 15.6,-1.44 0.08,-0.799953 0.27998,-1.639952 0.6,-2.52 -2e-5,-0.07995 0.04,-0.119951 0.12,-0.12 0.31998,-1.439949 1.07998,-3.4799474 2.28,-6.12 0.71998,-1.5199432 1.51998,-2.9999418 2.4,-4.44 -2.88002,-3.359937 -6.12002,-7.319933 -9.72,-11.88 -0.08,7.2e-5 -0.12001,-0.03993 -0.12,-0.12 2.07999,-2.799926 3.95998,-4.999923 5.64,-6.6 1.19998,-1.27992 2.59998,-2.559919 4.2,-3.84 l 2.64,-2.28 0.24,0.24 12,9.72 c 1.67996,-1.119924 3.19996,-1.919924 4.56,-2.4 1.51996,-0.879922 3.43996,-1.679921 5.76,-2.4 0.0799,7.9e-5 0.19995,7.9e-5 0.36,0 0.15995,-0.07992 0.27995,-0.119921 0.36,-0.12 0.87995,-0.31992 1.67995,-0.51992 2.4,-0.6 l 1.44,-15.48 c 1.51995,-0.239904 3.75994,-0.439904 6.72,-0.6 l 1.92,0 1.92,0 c 2.639935,0.160096 5.159933,0.400096 7.56,0.72 0.95993,10.320085 1.439929,15.48008 1.44,15.48 0.239929,0.08008 0.599928,0.20008 1.08,0.36 0.479928,0.08008 0.839927,0.160079 1.08,0.24 2.319925,0.640079 4.279923,1.440078 5.88,2.4 1.19992,0.400076 2.759918,1.200076 4.68,2.4 4.319912,-3.759922 8.279908,-7.039919 11.88,-9.84 l 0,-0.12 c 5.039899,3.760081 9.319895,7.960076 12.84,12.6 l -0.12,0.12 -9.72,12.24 m -38.16,1.2 c -6.16005,5.82e-5 -11.36005,2.1200561 -15.6,6.36 -4.32004,4.320048 -6.48004,9.520042 -6.48,15.6 -4e-5,5.92003 2.15996,11.120025 6.48,15.6 4.23995,4.240016 9.43995,6.360014 15.6,6.36 5.999934,1.4e-5 11.199928,-2.119984 15.6,-6.36 4.23992,-4.399975 6.359918,-9.59997 6.36,-15.6 -8.2e-5,-6.159958 -2.12008,-11.359952 -6.36,-15.6 -4.400072,-4.2399439 -9.600066,-6.3599418 -15.6,-6.36"
           id="path3011-3-4"
           inkscape:connector-curvature="0"
           style="fill:none;fill-opacity:1;stroke:#000000;stroke-width:10.89017868;stroke-linecap:round;stroke-linejoin:round;stroke-miterlimit:4;stroke-dasharray:none;stroke-opacity:0.39215686" />
      </g>
      <g
         transform="matrix(0.12,0,0,0.12125216,384.53125,351.50176)"
         style="font-style:normal;font-variant:normal;font-weight:500;font-stretch:normal;font-size:120px;line-height:125%;font-family:RichStyle;-inkscape-font-specification:'RichStyle Medium';letter-spacing:0px;word-spacing:0px;opacity:1;fill:#f2f2f2;fill-opacity:1;stroke:none;stroke-width:8.28863907;stroke-miterlimit:4;stroke-dasharray:none;stroke-opacity:1"
         id="text3006-1">
        <path
           d="m -61.48,1.327272 c 1.0399,1.6000578 1.8799,3.0800564 2.52,4.44 1.119898,2.7200523 1.879897,4.84005 2.28,6.36 0.0799,0.160048 0.159897,0.480048 0.24,0.96 0.159896,0.480047 0.279896,0.840047 0.36,1.08 l 15.48,1.44 c 0.23988,1.600044 0.43988,4.040041 0.6,7.32 l 0,1.8 0,1.8 c -0.16012,3.280031 -0.36012,5.720029 -0.6,7.32 l -15.48,1.44 c -0.0801,0.240025 -0.200104,0.600025 -0.36,1.08 -0.0801,0.480024 -0.160103,0.800024 -0.24,0.96 -1.03e-4,0.08002 -0.0401,0.200023 -0.12,0.36 -1.03e-4,0.08002 -1.03e-4,0.160023 0,0.24 -0.640103,2.160021 -1.360102,4.080019 -2.16,5.76 -1.5201,2.720014 -2.280099,4.080013 -2.28,4.08 -9.9e-5,0.08001 0.0399,0.120013 0.12,0.12 l 9.84,11.88 c -1.680107,2.399999 -3.680105,4.839996 -6,7.32 -0.400102,0.479993 -1.840101,1.839992 -4.32,4.08 l -2.04,1.68 -12.12,-9.84 -0.24,-0.12 c -1.200083,0.879997 -2.800081,1.799996 -4.8,2.76 -1.840077,0.879994 -3.880075,1.639993 -6.12,2.28 -0.240073,-7e-6 -0.600072,0.03999 -1.08,0.12 -0.480072,0.159993 -0.840071,0.279992 -1.08,0.36 -7.1e-5,0.319992 -0.48007,5.519987 -1.44,15.6 -2.560067,0.319976 -5.160064,0.559976 -7.8,0.72 l -3.48,0 c -3.04006,-0.160024 -5.32005,-0.360024 -6.84,-0.6 -0.96005,-10.320013 -1.44005,-15.480008 -1.44,-15.48 -0.40005,-0.08001 -1.20005,-0.280008 -2.4,-0.6 -2.00005,-0.560007 -4.24004,-1.400006 -6.72,-2.52 -1.04004,-0.400004 -2.36004,-1.120004 -3.96,-2.16 l 0,0.12 -11.76,9.84 -0.12,0 c -4.72002,-3.280009 -8.96002,-7.480005 -12.72,-12.6 0.95999,-1.199999 4.15998,-5.199995 9.6,-12 -0.16002,-0.239988 -1.04002,-1.839986 -2.64,-4.8 -1.12002,-2.479981 -1.92002,-4.559979 -2.4,-6.24 -0.32002,-1.119976 -0.52002,-1.959975 -0.6,-2.52 -5.04001,-0.399974 -10.12001,-0.879974 -15.24,-1.44 -0.48,-2.87997 -0.8,-6.439967 -0.96,-10.68 0.08,-1.83996 0.28,-4.279958 0.6,-7.32 5.19999,-0.559954 10.39999,-1.039954 15.6,-1.44 0.08,-0.799953 0.27998,-1.639952 0.6,-2.52 -2e-5,-0.07995 0.04,-0.119951 0.12,-0.12 0.31998,-1.439949 1.07998,-3.4799474 2.28,-6.12 0.71998,-1.5199432 1.51998,-2.9999418 2.4,-4.44 -2.88002,-3.359937 -6.12002,-7.319933 -9.72,-11.88 -0.08,7.2e-5 -0.12001,-0.03993 -0.12,-0.12 2.07999,-2.799926 3.95998,-4.999923 5.64,-6.6 1.19998,-1.27992 2.59998,-2.559919 4.2,-3.84 l 2.64,-2.28 0.24,0.24 12,9.72 c 1.67996,-1.119924 3.19996,-1.919924 4.56,-2.4 1.51996,-0.879922 3.43996,-1.679921 5.76,-2.4 0.0799,7.9e-5 0.19995,7.9e-5 0.36,0 0.15995,-0.07992 0.27995,-0.119921 0.36,-0.12 0.87995,-0.31992 1.67995,-0.51992 2.4,-0.6 l 1.44,-15.48 c 1.51995,-0.239904 3.75994,-0.439904 6.72,-0.6 l 1.92,0 1.92,0 c 2.639935,0.160096 5.159933,0.400096 7.56,0.72 0.95993,10.320085 1.439929,15.48008 1.44,15.48 0.239929,0.08008 0.599928,0.20008 1.08,0.36 0.479928,0.08008 0.839927,0.160079 1.08,0.24 2.319925,0.640079 4.279923,1.440078 5.88,2.4 1.19992,0.400076 2.759918,1.200076 4.68,2.4 4.319912,-3.759922 8.279908,-7.039919 11.88,-9.84 l 0,-0.12 c 5.039899,3.760081 9.319895,7.960076 12.84,12.6 l -0.12,0.12 -9.72,12.24 m -38.16,1.2 c -6.16005,5.82e-5 -11.36005,2.1200561 -15.6,6.36 -4.32004,4.320048 -6.48004,9.520042 -6.48,15.6 -4e-5,5.92003 2.15996,11.120025 6.48,15.6 4.23995,4.240016 9.43995,6.360014 15.6,6.36 5.999934,1.4e-5 11.199928,-2.119984 15.6,-6.36 4.23992,-4.399975 6.359918,-9.59997 6.36,-15.6 -8.2e-5,-6.159958 -2.12008,-11.359952 -6.36,-15.6 -4.400072,-4.2399439 -9.600066,-6.3599418 -15.6,-6.36"
           id="path3011-7"
           inkscape:connector-curvature="0"
           style="fill:#f2f2f2;fill-opacity:1;stroke:none;stroke-width:8.28863907;stroke-miterlimit:4;stroke-dasharray:none;stroke-opacity:1" />
      </g>
    </g>
    <g
       id="16-16-configure"
       transform="matrix(0.94118685,0,0,0.94118685,-64.895502,11.606675)"
       style="fill:#ececec;stroke:#7f7f7f;stroke-width:0.99981254;stroke-miterlimit:4;stroke-dasharray:none;stroke-opacity:1">
      <rect
         style="opacity:0;fill:#ececec;fill-opacity:0.49803922;fill-rule:nonzero;stroke:#7f7f7f;stroke-width:0.99981254;stroke-miterlimit:4;stroke-dasharray:none;stroke-opacity:1"
         id="rect3405-6-2-5"
         width="16"
         height="16"
         x="364.53125"
         y="346.5" />
      <g
         transform="matrix(0.12,0,0,0.12125216,384.53125,351.50176)"
         style="font-style:normal;font-variant:normal;font-weight:500;font-stretch:normal;font-size:120px;line-height:125%;font-family:RichStyle;-inkscape-font-specification:'RichStyle Medium';letter-spacing:0px;word-spacing:0px;opacity:0.95;fill:none;fill-opacity:1;stroke:#000000;stroke-width:13.21234894;stroke-linecap:round;stroke-linejoin:round;stroke-miterlimit:4;stroke-dasharray:none;stroke-opacity:0.39215686"
         id="text3006-0-0-9">
        <path
           d="m -61.48,1.327272 c 1.0399,1.6000578 1.8799,3.0800564 2.52,4.44 1.119898,2.7200523 1.879897,4.84005 2.28,6.36 0.0799,0.160048 0.159897,0.480048 0.24,0.96 0.159896,0.480047 0.279896,0.840047 0.36,1.08 l 15.48,1.44 c 0.23988,1.600044 0.43988,4.040041 0.6,7.32 l 0,1.8 0,1.8 c -0.16012,3.280031 -0.36012,5.720029 -0.6,7.32 l -15.48,1.44 c -0.0801,0.240025 -0.200104,0.600025 -0.36,1.08 -0.0801,0.480024 -0.160103,0.800024 -0.24,0.96 -1.03e-4,0.08002 -0.0401,0.200023 -0.12,0.36 -1.03e-4,0.08002 -1.03e-4,0.160023 0,0.24 -0.640103,2.160021 -1.360102,4.080019 -2.16,5.76 -1.5201,2.720014 -2.280099,4.080013 -2.28,4.08 -9.9e-5,0.08001 0.0399,0.120013 0.12,0.12 l 9.84,11.88 c -1.680107,2.399999 -3.680105,4.839996 -6,7.32 -0.400102,0.479993 -1.840101,1.839992 -4.32,4.08 l -2.04,1.68 -12.12,-9.84 -0.24,-0.12 c -1.200083,0.879997 -2.800081,1.799996 -4.8,2.76 -1.840077,0.879994 -3.880075,1.639993 -6.12,2.28 -0.240073,-7e-6 -0.600072,0.03999 -1.08,0.12 -0.480072,0.159993 -0.840071,0.279992 -1.08,0.36 -7.1e-5,0.319992 -0.48007,5.519987 -1.44,15.6 -2.560067,0.319976 -5.160064,0.559976 -7.8,0.72 l -3.48,0 c -3.04006,-0.160024 -5.32005,-0.360024 -6.84,-0.6 -0.96005,-10.320013 -1.44005,-15.480008 -1.44,-15.48 -0.40005,-0.08001 -1.20005,-0.280008 -2.4,-0.6 -2.00005,-0.560007 -4.24004,-1.400006 -6.72,-2.52 -1.04004,-0.400004 -2.36004,-1.120004 -3.96,-2.16 l 0,0.12 -11.76,9.84 -0.12,0 c -4.72002,-3.280009 -8.96002,-7.480005 -12.72,-12.6 0.95999,-1.199999 4.15998,-5.199995 9.6,-12 -0.16002,-0.239988 -1.04002,-1.839986 -2.64,-4.8 -1.12002,-2.479981 -1.92002,-4.559979 -2.4,-6.24 -0.32002,-1.119976 -0.52002,-1.959975 -0.6,-2.52 -5.04001,-0.399974 -10.12001,-0.879974 -15.24,-1.44 -0.48,-2.87997 -0.8,-6.439967 -0.96,-10.68 0.08,-1.83996 0.28,-4.279958 0.6,-7.32 5.19999,-0.559954 10.39999,-1.039954 15.6,-1.44 0.08,-0.799953 0.27998,-1.639952 0.6,-2.52 -2e-5,-0.07995 0.04,-0.119951 0.12,-0.12 0.31998,-1.439949 1.07998,-3.4799474 2.28,-6.12 0.71998,-1.5199432 1.51998,-2.9999418 2.4,-4.44 -2.88002,-3.359937 -6.12002,-7.319933 -9.72,-11.88 -0.08,7.2e-5 -0.12001,-0.03993 -0.12,-0.12 2.07999,-2.799926 3.95998,-4.999923 5.64,-6.6 1.19998,-1.27992 2.59998,-2.559919 4.2,-3.84 l 2.64,-2.28 0.24,0.24 12,9.72 c 1.67996,-1.119924 3.19996,-1.919924 4.56,-2.4 1.51996,-0.879922 3.43996,-1.679921 5.76,-2.4 0.0799,7.9e-5 0.19995,7.9e-5 0.36,0 0.15995,-0.07992 0.27995,-0.119921 0.36,-0.12 0.87995,-0.31992 1.67995,-0.51992 2.4,-0.6 l 1.44,-15.48 c 1.51995,-0.239904 3.75994,-0.439904 6.72,-0.6 l 1.92,0 1.92,0 c 2.639935,0.160096 5.159933,0.400096 7.56,0.72 0.95993,10.320085 1.439929,15.48008 1.44,15.48 0.239929,0.08008 0.599928,0.20008 1.08,0.36 0.479928,0.08008 0.839927,0.160079 1.08,0.24 2.319925,0.640079 4.279923,1.440078 5.88,2.4 1.19992,0.400076 2.759918,1.200076 4.68,2.4 4.319912,-3.759922 8.279908,-7.039919 11.88,-9.84 l 0,-0.12 c 5.039899,3.760081 9.319895,7.960076 12.84,12.6 l -0.12,0.12 -9.72,12.24 m -38.16,1.2 c -6.16005,5.82e-5 -11.36005,2.1200561 -15.6,6.36 -4.32004,4.320048 -6.48004,9.520042 -6.48,15.6 -4e-5,5.92003 2.15996,11.120025 6.48,15.6 4.23995,4.240016 9.43995,6.360014 15.6,6.36 5.999934,1.4e-5 11.199928,-2.119984 15.6,-6.36 4.23992,-4.399975 6.359918,-9.59997 6.36,-15.6 -8.2e-5,-6.159958 -2.12008,-11.359952 -6.36,-15.6 -4.400072,-4.2399439 -9.600066,-6.3599418 -15.6,-6.36"
           id="path3011-3-4-0"
           inkscape:connector-curvature="0"
           style="fill:none;fill-opacity:1;stroke:#000000;stroke-width:13.21234894;stroke-linecap:round;stroke-linejoin:round;stroke-miterlimit:4;stroke-dasharray:none;stroke-opacity:0.39215686" />
      </g>
      <g
         transform="matrix(0.12,0,0,0.12125216,384.53125,351.50176)"
         style="font-style:normal;font-variant:normal;font-weight:500;font-stretch:normal;font-size:120px;line-height:125%;font-family:RichStyle;-inkscape-font-specification:'RichStyle Medium';letter-spacing:0px;word-spacing:0px;opacity:1;fill:#f2f2f2;fill-opacity:1;stroke:none;stroke-width:8.28863907;stroke-miterlimit:4;stroke-dasharray:none;stroke-opacity:1"
         id="text3006-1-5">
        <path
           d="m -61.48,1.327272 c 1.0399,1.6000578 1.8799,3.0800564 2.52,4.44 1.119898,2.7200523 1.879897,4.84005 2.28,6.36 0.0799,0.160048 0.159897,0.480048 0.24,0.96 0.159896,0.480047 0.279896,0.840047 0.36,1.08 l 15.48,1.44 c 0.23988,1.600044 0.43988,4.040041 0.6,7.32 l 0,1.8 0,1.8 c -0.16012,3.280031 -0.36012,5.720029 -0.6,7.32 l -15.48,1.44 c -0.0801,0.240025 -0.200104,0.600025 -0.36,1.08 -0.0801,0.480024 -0.160103,0.800024 -0.24,0.96 -1.03e-4,0.08002 -0.0401,0.200023 -0.12,0.36 -1.03e-4,0.08002 -1.03e-4,0.160023 0,0.24 -0.640103,2.160021 -1.360102,4.080019 -2.16,5.76 -1.5201,2.720014 -2.280099,4.080013 -2.28,4.08 -9.9e-5,0.08001 0.0399,0.120013 0.12,0.12 l 9.84,11.88 c -1.680107,2.399999 -3.680105,4.839996 -6,7.32 -0.400102,0.479993 -1.840101,1.839992 -4.32,4.08 l -2.04,1.68 -12.12,-9.84 -0.24,-0.12 c -1.200083,0.879997 -2.800081,1.799996 -4.8,2.76 -1.840077,0.879994 -3.880075,1.639993 -6.12,2.28 -0.240073,-7e-6 -0.600072,0.03999 -1.08,0.12 -0.480072,0.159993 -0.840071,0.279992 -1.08,0.36 -7.1e-5,0.319992 -0.48007,5.519987 -1.44,15.6 -2.560067,0.319976 -5.160064,0.559976 -7.8,0.72 l -3.48,0 c -3.04006,-0.160024 -5.32005,-0.360024 -6.84,-0.6 -0.96005,-10.320013 -1.44005,-15.480008 -1.44,-15.48 -0.40005,-0.08001 -1.20005,-0.280008 -2.4,-0.6 -2.00005,-0.560007 -4.24004,-1.400006 -6.72,-2.52 -1.04004,-0.400004 -2.36004,-1.120004 -3.96,-2.16 l 0,0.12 -11.76,9.84 -0.12,0 c -4.72002,-3.280009 -8.96002,-7.480005 -12.72,-12.6 0.95999,-1.199999 4.15998,-5.199995 9.6,-12 -0.16002,-0.239988 -1.04002,-1.839986 -2.64,-4.8 -1.12002,-2.479981 -1.92002,-4.559979 -2.4,-6.24 -0.32002,-1.119976 -0.52002,-1.959975 -0.6,-2.52 -5.04001,-0.399974 -10.12001,-0.879974 -15.24,-1.44 -0.48,-2.87997 -0.8,-6.439967 -0.96,-10.68 0.08,-1.83996 0.28,-4.279958 0.6,-7.32 5.19999,-0.559954 10.39999,-1.039954 15.6,-1.44 0.08,-0.799953 0.27998,-1.639952 0.6,-2.52 -2e-5,-0.07995 0.04,-0.119951 0.12,-0.12 0.31998,-1.439949 1.07998,-3.4799474 2.28,-6.12 0.71998,-1.5199432 1.51998,-2.9999418 2.4,-4.44 -2.88002,-3.359937 -6.12002,-7.319933 -9.72,-11.88 -0.08,7.2e-5 -0.12001,-0.03993 -0.12,-0.12 2.07999,-2.799926 3.95998,-4.999923 5.64,-6.6 1.19998,-1.27992 2.59998,-2.559919 4.2,-3.84 l 2.64,-2.28 0.24,0.24 12,9.72 c 1.67996,-1.119924 3.19996,-1.919924 4.56,-2.4 1.51996,-0.879922 3.43996,-1.679921 5.76,-2.4 0.0799,7.9e-5 0.19995,7.9e-5 0.36,0 0.15995,-0.07992 0.27995,-0.119921 0.36,-0.12 0.87995,-0.31992 1.67995,-0.51992 2.4,-0.6 l 1.44,-15.48 c 1.51995,-0.239904 3.75994,-0.439904 6.72,-0.6 l 1.92,0 1.92,0 c 2.639935,0.160096 5.159933,0.400096 7.56,0.72 0.95993,10.320085 1.439929,15.48008 1.44,15.48 0.239929,0.08008 0.599928,0.20008 1.08,0.36 0.479928,0.08008 0.839927,0.160079 1.08,0.24 2.319925,0.640079 4.279923,1.440078 5.88,2.4 1.19992,0.400076 2.759918,1.200076 4.68,2.4 4.319912,-3.759922 8.279908,-7.039919 11.88,-9.84 l 0,-0.12 c 5.039899,3.760081 9.319895,7.960076 12.84,12.6 l -0.12,0.12 -9.72,12.24 m -38.16,1.2 c -6.16005,5.82e-5 -11.36005,2.1200561 -15.6,6.36 -4.32004,4.320048 -6.48004,9.520042 -6.48,15.6 -4e-5,5.92003 2.15996,11.120025 6.48,15.6 4.23995,4.240016 9.43995,6.360014 15.6,6.36 5.999934,1.4e-5 11.199928,-2.119984 15.6,-6.36 4.23992,-4.399975 6.359918,-9.59997 6.36,-15.6 -8.2e-5,-6.159958 -2.12008,-11.359952 -6.36,-15.6 -4.400072,-4.2399439 -9.600066,-6.3599418 -15.6,-6.36"
           id="path3011-7-1"
           inkscape:connector-curvature="0"
           style="fill:#f2f2f2;fill-opacity:1;stroke:none;stroke-width:8.28863907;stroke-miterlimit:4;stroke-dasharray:none;stroke-opacity:1" />
      </g>
    </g>
    <g
       id="8-8-configure"
       transform="matrix(0.47059342,0,0,0.47059342,126.38585,181.55333)"
       style="fill:#ececec;stroke:#7f7f7f;stroke-width:0.99981254;stroke-miterlimit:4;stroke-dasharray:none;stroke-opacity:1">
      <rect
         style="opacity:0;fill:#ececec;fill-opacity:0.49803922;fill-rule:nonzero;stroke:#7f7f7f;stroke-width:0.99981254;stroke-miterlimit:4;stroke-dasharray:none;stroke-opacity:1"
         id="rect3405-6-2-5-8"
         width="16"
         height="16"
         x="364.53125"
         y="346.5" />
      <g
         transform="matrix(0.12,0,0,0.12125216,384.53125,351.50176)"
         style="font-style:normal;font-variant:normal;font-weight:500;font-stretch:normal;font-size:120px;line-height:125%;font-family:RichStyle;-inkscape-font-specification:'RichStyle Medium';letter-spacing:0px;word-spacing:0px;opacity:0.95;fill:none;fill-opacity:1;stroke:#000000;stroke-width:13.21234894;stroke-linecap:round;stroke-linejoin:round;stroke-miterlimit:4;stroke-dasharray:none;stroke-opacity:0.39215686"
         id="text3006-0-0-9-3">
        <path
           d="m -61.48,1.327272 c 1.0399,1.6000578 1.8799,3.0800564 2.52,4.44 1.119898,2.7200523 1.879897,4.84005 2.28,6.36 0.0799,0.160048 0.159897,0.480048 0.24,0.96 0.159896,0.480047 0.279896,0.840047 0.36,1.08 l 15.48,1.44 c 0.23988,1.600044 0.43988,4.040041 0.6,7.32 l 0,1.8 0,1.8 c -0.16012,3.280031 -0.36012,5.720029 -0.6,7.32 l -15.48,1.44 c -0.0801,0.240025 -0.200104,0.600025 -0.36,1.08 -0.0801,0.480024 -0.160103,0.800024 -0.24,0.96 -1.03e-4,0.08002 -0.0401,0.200023 -0.12,0.36 -1.03e-4,0.08002 -1.03e-4,0.160023 0,0.24 -0.640103,2.160021 -1.360102,4.080019 -2.16,5.76 -1.5201,2.720014 -2.280099,4.080013 -2.28,4.08 -9.9e-5,0.08001 0.0399,0.120013 0.12,0.12 l 9.84,11.88 c -1.680107,2.399999 -3.680105,4.839996 -6,7.32 -0.400102,0.479993 -1.840101,1.839992 -4.32,4.08 l -2.04,1.68 -12.12,-9.84 -0.24,-0.12 c -1.200083,0.879997 -2.800081,1.799996 -4.8,2.76 -1.840077,0.879994 -3.880075,1.639993 -6.12,2.28 -0.240073,-7e-6 -0.600072,0.03999 -1.08,0.12 -0.480072,0.159993 -0.840071,0.279992 -1.08,0.36 -7.1e-5,0.319992 -0.48007,5.519987 -1.44,15.6 -2.560067,0.319976 -5.160064,0.559976 -7.8,0.72 l -3.48,0 c -3.04006,-0.160024 -5.32005,-0.360024 -6.84,-0.6 -0.96005,-10.320013 -1.44005,-15.480008 -1.44,-15.48 -0.40005,-0.08001 -1.20005,-0.280008 -2.4,-0.6 -2.00005,-0.560007 -4.24004,-1.400006 -6.72,-2.52 -1.04004,-0.400004 -2.36004,-1.120004 -3.96,-2.16 l 0,0.12 -11.76,9.84 -0.12,0 c -4.72002,-3.280009 -8.96002,-7.480005 -12.72,-12.6 0.95999,-1.199999 4.15998,-5.199995 9.6,-12 -0.16002,-0.239988 -1.04002,-1.839986 -2.64,-4.8 -1.12002,-2.479981 -1.92002,-4.559979 -2.4,-6.24 -0.32002,-1.119976 -0.52002,-1.959975 -0.6,-2.52 -5.04001,-0.399974 -10.12001,-0.879974 -15.24,-1.44 -0.48,-2.87997 -0.8,-6.439967 -0.96,-10.68 0.08,-1.83996 0.28,-4.279958 0.6,-7.32 5.19999,-0.559954 10.39999,-1.039954 15.6,-1.44 0.08,-0.799953 0.27998,-1.639952 0.6,-2.52 -2e-5,-0.07995 0.04,-0.119951 0.12,-0.12 0.31998,-1.439949 1.07998,-3.4799474 2.28,-6.12 0.71998,-1.5199432 1.51998,-2.9999418 2.4,-4.44 -2.88002,-3.359937 -6.12002,-7.319933 -9.72,-11.88 -0.08,7.2e-5 -0.12001,-0.03993 -0.12,-0.12 2.07999,-2.799926 3.95998,-4.999923 5.64,-6.6 1.19998,-1.27992 2.59998,-2.559919 4.2,-3.84 l 2.64,-2.28 0.24,0.24 12,9.72 c 1.67996,-1.119924 3.19996,-1.919924 4.56,-2.4 1.51996,-0.879922 3.43996,-1.679921 5.76,-2.4 0.0799,7.9e-5 0.19995,7.9e-5 0.36,0 0.15995,-0.07992 0.27995,-0.119921 0.36,-0.12 0.87995,-0.31992 1.67995,-0.51992 2.4,-0.6 l 1.44,-15.48 c 1.51995,-0.239904 3.75994,-0.439904 6.72,-0.6 l 1.92,0 1.92,0 c 2.639935,0.160096 5.159933,0.400096 7.56,0.72 0.95993,10.320085 1.439929,15.48008 1.44,15.48 0.239929,0.08008 0.599928,0.20008 1.08,0.36 0.479928,0.08008 0.839927,0.160079 1.08,0.24 2.319925,0.640079 4.279923,1.440078 5.88,2.4 1.19992,0.400076 2.759918,1.200076 4.68,2.4 4.319912,-3.759922 8.279908,-7.039919 11.88,-9.84 l 0,-0.12 c 5.039899,3.760081 9.319895,7.960076 12.84,12.6 l -0.12,0.12 -9.72,12.24 m -38.16,1.2 c -6.16005,5.82e-5 -11.36005,2.1200561 -15.6,6.36 -4.32004,4.320048 -6.48004,9.520042 -6.48,15.6 -4e-5,5.92003 2.15996,11.120025 6.48,15.6 4.23995,4.240016 9.43995,6.360014 15.6,6.36 5.999934,1.4e-5 11.199928,-2.119984 15.6,-6.36 4.23992,-4.399975 6.359918,-9.59997 6.36,-15.6 -8.2e-5,-6.159958 -2.12008,-11.359952 -6.36,-15.6 -4.400072,-4.2399439 -9.600066,-6.3599418 -15.6,-6.36"
           id="path3011-3-4-0-9"
           inkscape:connector-curvature="0"
           style="fill:none;fill-opacity:1;stroke:#000000;stroke-width:13.21234894;stroke-linecap:round;stroke-linejoin:round;stroke-miterlimit:4;stroke-dasharray:none;stroke-opacity:0.39215686" />
      </g>
      <g
         transform="matrix(0.12,0,0,0.12125216,384.53125,351.50176)"
         style="font-style:normal;font-variant:normal;font-weight:500;font-stretch:normal;font-size:120px;line-height:125%;font-family:RichStyle;-inkscape-font-specification:'RichStyle Medium';letter-spacing:0px;word-spacing:0px;opacity:1;fill:#f2f2f2;fill-opacity:1;stroke:none;stroke-width:8.28863907;stroke-miterlimit:4;stroke-dasharray:none;stroke-opacity:1"
         id="text3006-1-5-5">
        <path
           d="m -61.48,1.327272 c 1.0399,1.6000578 1.8799,3.0800564 2.52,4.44 1.119898,2.7200523 1.879897,4.84005 2.28,6.36 0.0799,0.160048 0.159897,0.480048 0.24,0.96 0.159896,0.480047 0.279896,0.840047 0.36,1.08 l 15.48,1.44 c 0.23988,1.600044 0.43988,4.040041 0.6,7.32 l 0,1.8 0,1.8 c -0.16012,3.280031 -0.36012,5.720029 -0.6,7.32 l -15.48,1.44 c -0.0801,0.240025 -0.200104,0.600025 -0.36,1.08 -0.0801,0.480024 -0.160103,0.800024 -0.24,0.96 -1.03e-4,0.08002 -0.0401,0.200023 -0.12,0.36 -1.03e-4,0.08002 -1.03e-4,0.160023 0,0.24 -0.640103,2.160021 -1.360102,4.080019 -2.16,5.76 -1.5201,2.720014 -2.280099,4.080013 -2.28,4.08 -9.9e-5,0.08001 0.0399,0.120013 0.12,0.12 l 9.84,11.88 c -1.680107,2.399999 -3.680105,4.839996 -6,7.32 -0.400102,0.479993 -1.840101,1.839992 -4.32,4.08 l -2.04,1.68 -12.12,-9.84 -0.24,-0.12 c -1.200083,0.879997 -2.800081,1.799996 -4.8,2.76 -1.840077,0.879994 -3.880075,1.639993 -6.12,2.28 -0.240073,-7e-6 -0.600072,0.03999 -1.08,0.12 -0.480072,0.159993 -0.840071,0.279992 -1.08,0.36 -7.1e-5,0.319992 -0.48007,5.519987 -1.44,15.6 -2.560067,0.319976 -5.160064,0.559976 -7.8,0.72 l -3.48,0 c -3.04006,-0.160024 -5.32005,-0.360024 -6.84,-0.6 -0.96005,-10.320013 -1.44005,-15.480008 -1.44,-15.48 -0.40005,-0.08001 -1.20005,-0.280008 -2.4,-0.6 -2.00005,-0.560007 -4.24004,-1.400006 -6.72,-2.52 -1.04004,-0.400004 -2.36004,-1.120004 -3.96,-2.16 l 0,0.12 -11.76,9.84 -0.12,0 c -4.72002,-3.280009 -8.96002,-7.480005 -12.72,-12.6 0.95999,-1.199999 4.15998,-5.199995 9.6,-12 -0.16002,-0.239988 -1.04002,-1.839986 -2.64,-4.8 -1.12002,-2.479981 -1.92002,-4.559979 -2.4,-6.24 -0.32002,-1.119976 -0.52002,-1.959975 -0.6,-2.52 -5.04001,-0.399974 -10.12001,-0.879974 -15.24,-1.44 -0.48,-2.87997 -0.8,-6.439967 -0.96,-10.68 0.08,-1.83996 0.28,-4.279958 0.6,-7.32 5.19999,-0.559954 10.39999,-1.039954 15.6,-1.44 0.08,-0.799953 0.27998,-1.639952 0.6,-2.52 -2e-5,-0.07995 0.04,-0.119951 0.12,-0.12 0.31998,-1.439949 1.07998,-3.4799474 2.28,-6.12 0.71998,-1.5199432 1.51998,-2.9999418 2.4,-4.44 -2.88002,-3.359937 -6.12002,-7.319933 -9.72,-11.88 -0.08,7.2e-5 -0.12001,-0.03993 -0.12,-0.12 2.07999,-2.799926 3.95998,-4.999923 5.64,-6.6 1.19998,-1.27992 2.59998,-2.559919 4.2,-3.84 l 2.64,-2.28 0.24,0.24 12,9.72 c 1.67996,-1.119924 3.19996,-1.919924 4.56,-2.4 1.51996,-0.879922 3.43996,-1.679921 5.76,-2.4 0.0799,7.9e-5 0.19995,7.9e-5 0.36,0 0.15995,-0.07992 0.27995,-0.119921 0.36,-0.12 0.87995,-0.31992 1.67995,-0.51992 2.4,-0.6 l 1.44,-15.48 c 1.51995,-0.239904 3.75994,-0.439904 6.72,-0.6 l 1.92,0 1.92,0 c 2.639935,0.160096 5.159933,0.400096 7.56,0.72 0.95993,10.320085 1.439929,15.48008 1.44,15.48 0.239929,0.08008 0.599928,0.20008 1.08,0.36 0.479928,0.08008 0.839927,0.160079 1.08,0.24 2.319925,0.640079 4.279923,1.440078 5.88,2.4 1.19992,0.400076 2.759918,1.200076 4.68,2.4 4.319912,-3.759922 8.279908,-7.039919 11.88,-9.84 l 0,-0.12 c 5.039899,3.760081 9.319895,7.960076 12.84,12.6 l -0.12,0.12 -9.72,12.24 m -38.16,1.2 c -6.16005,5.82e-5 -11.36005,2.1200561 -15.6,6.36 -4.32004,4.320048 -6.48004,9.520042 -6.48,15.6 -4e-5,5.92003 2.15996,11.120025 6.48,15.6 4.23995,4.240016 9.43995,6.360014 15.6,6.36 5.999934,1.4e-5 11.199928,-2.119984 15.6,-6.36 4.23992,-4.399975 6.359918,-9.59997 6.36,-15.6 -8.2e-5,-6.159958 -2.12008,-11.359952 -6.36,-15.6 -4.400072,-4.2399439 -9.600066,-6.3599418 -15.6,-6.36"
           id="path3011-7-1-0"
           inkscape:connector-curvature="0"
           style="fill:#f2f2f2;fill-opacity:1;stroke:none;stroke-width:8.28863907;stroke-miterlimit:4;stroke-dasharray:none;stroke-opacity:1" />
      </g>
    </g>
  </g>
</svg>
