<?xml version="1.0" encoding="UTF-8" standalone="no"?>
<!-- Created with Inkscape (http://www.inkscape.org/) -->

<svg
   xmlns:dc="http://purl.org/dc/elements/1.1/"
   xmlns:cc="http://creativecommons.org/ns#"
   xmlns:rdf="http://www.w3.org/1999/02/22-rdf-syntax-ns#"
   xmlns:svg="http://www.w3.org/2000/svg"
   xmlns="http://www.w3.org/2000/svg"
   xmlns:sodipodi="http://sodipodi.sourceforge.net/DTD/sodipodi-0.dtd"
   xmlns:inkscape="http://www.inkscape.org/namespaces/inkscape"
   id="svg3738"
   height="24"
   width="24"
   version="1.1"
   inkscape:version="0.91 r13725"
   sodipodi:docname="ktorrent.svgz">
  <defs
     id="defs8" />
  <sodipodi:namedview
     pagecolor="#646464"
     bordercolor="#666666"
     borderopacity="1"
     objecttolerance="10"
     gridtolerance="10"
     guidetolerance="10"
     inkscape:pageopacity="0.58823529"
     inkscape:pageshadow="2"
     inkscape:window-width="1534"
     inkscape:window-height="841"
     id="namedview6"
     showgrid="false"
     inkscape:zoom="5.3636363"
     inkscape:cx="3.5807945"
     inkscape:cy="11.788337"
     inkscape:window-x="66"
     inkscape:window-y="30"
     inkscape:window-maximized="1"
     inkscape:current-layer="svg3738"
     inkscape:snap-intersection-paths="true"
     inkscape:object-nodes="true"
     inkscape:object-paths="true"
     inkscape:snap-smooth-nodes="true">
    <inkscape:grid
       type="xygrid"
       id="grid2985"
       empspacing="5"
       visible="true"
       enabled="true"
       snapvisiblegridlinesonly="true" />
  </sodipodi:namedview>
  <metadata
     id="metadata13">
    <rdf:RDF>
      <cc:Work
         rdf:about="">
        <dc:format>image/svg+xml</dc:format>
        <dc:type
           rdf:resource="http://purl.org/dc/dcmitype/StillImage" />
        <dc:title />
      </cc:Work>
    </rdf:RDF>
  </metadata>
  <g
     id="ktorrent">
    <rect
       y="0"
       x="0"
       height="24"
       width="24"
       id="rect2991"
       style="opacity:0.01000001;fill:#000000;fill-opacity:0.00392157;stroke:none" />
    <g
       transform="translate(17,0)"
       id="g4242">
      <path
         sodipodi:nodetypes="csscccccccccccccccccsssc"
         inkscape:connector-curvature="0"
         id="path3712-5-6-9"
         d="m -9.9470915,3 c -1.9911815,0 -1.9911815,0.446 -1.9911815,1 0,0.554 0,1 1.9911815,1 l 2.9867729,0 0,4 C -8.2701495,9 -10.340681,9 -12,9 l 0,9 0.06173,4 L 2,22 2,18.0625 1.938273,9 l -4.9162278,0 0,4 1.9911818,0 -3.9823637,7 -3.9823638,-7 1.9911819,0 0,-4 3.9823638,0 0,-4 2.9867728,0 C 2,5 2,4.554 2,4 2,3.446 2,3 0.008818,3 Z"
         style="color:#000000;opacity:0.3;fill:#000000;fill-opacity:1;fill-rule:evenodd" />
      <path
         sodipodi:nodetypes="csscccccccccccccccccsssc"
         inkscape:connector-curvature="0"
         id="path3712-5-6"
         d="m -9.9470915,2 c -1.9911815,0 -1.9911815,0.446 -1.9911815,1 0,0.554 0,1 1.9911815,1 l 2.9867729,0 0,4 C -8.2701495,8 -10.340681,8 -12,8 l 0,9 0.06173,4 L 2,21 2,17.0625 1.9382734,8 l -4.9162282,0 0,4 1.99118194,0 -3.98236384,7 -3.9823638,-7 1.9911819,0 0,-4 3.9823638,0 0,-4 2.98677289,0 C 2,4 2,3.554 2,3 2,2.446 2,2 0.00881809,2 Z"
         style="color:#000000;fill:#ebebeb;fill-opacity:1;fill-rule:evenodd" />
    </g>
  </g>
</svg>
