<?xml version="1.0" encoding="UTF-8" standalone="no"?>
<!-- Created with Inkscape (http://www.inkscape.org/) -->

<svg
   xmlns:dc="http://purl.org/dc/elements/1.1/"
   xmlns:cc="http://creativecommons.org/ns#"
   xmlns:rdf="http://www.w3.org/1999/02/22-rdf-syntax-ns#"
   xmlns:svg="http://www.w3.org/2000/svg"
   xmlns="http://www.w3.org/2000/svg"
   xmlns:sodipodi="http://sodipodi.sourceforge.net/DTD/sodipodi-0.dtd"
   xmlns:inkscape="http://www.inkscape.org/namespaces/inkscape"
   width="24"
   height="24"
   id="svg3055"
   version="1.1"
   inkscape:version="0.48.4 r9939"
   sodipodi:docname="location.svgz">
  <defs
     id="defs3057" />
  <sodipodi:namedview
     id="base"
     pagecolor="#000000"
     bordercolor="#00ff93"
     borderopacity="1"
     inkscape:pageopacity="0.40784314"
     inkscape:pageshadow="2"
     inkscape:zoom="5.598901"
     inkscape:cx="6.5785084"
     inkscape:cy="-2.7536806"
     inkscape:current-layer="location-unknown"
     showgrid="false"
     inkscape:grid-bbox="true"
     inkscape:document-units="px"
     inkscape:window-width="1366"
     inkscape:window-height="713"
     inkscape:window-x="0"
     inkscape:window-y="-3"
     inkscape:window-maximized="1">
    <inkscape:grid
       type="xygrid"
       id="grid3063"
       empspacing="5"
       visible="true"
       enabled="true"
       snapvisiblegridlinesonly="true" />
  </sodipodi:namedview>
  <metadata
     id="metadata3060">
    <rdf:RDF>
      <cc:Work
         rdf:about="">
        <dc:format>image/svg+xml</dc:format>
        <dc:type
           rdf:resource="http://purl.org/dc/dcmitype/StillImage" />
        <dc:title />
      </cc:Work>
    </rdf:RDF>
  </metadata>
  <g
     id="layer1"
     inkscape:label="Layer 1"
     inkscape:groupmode="layer"
     transform="translate(0,-8)">
    <g
       id="location">
      <path
         style="font-size:12px;font-style:normal;font-variant:normal;font-weight:normal;font-stretch:normal;line-height:125%;letter-spacing:0px;word-spacing:0px;fill:#000000;fill-opacity:0.39215686;stroke:none;font-family:arial;-inkscape-font-specification:arial"
         inkscape:connector-curvature="0"
         id="path3859-7"
         d="m 20.036,16.425921 c 0,-4.431819 -3.586183,-8.0179991 -8.018001,-8.0179991 C 7.5861778,8.4079219 4,11.994102 4,16.425921 c 0,0.955268 0.1094005,1.641417 0.5165694,2.502724 l 5.7159566,11.919484 c 0.313205,0.689046 1.033571,1.111871 1.785257,1.111871 0.751687,0 1.472056,-0.422825 1.800921,-1.111871 L 19.519,18.928645 c 0.407162,-0.861307 0.517,-1.547456 0.517,-2.502724"
         sodipodi:nodetypes="cssccsccc" />
      <rect
         transform="translate(0,8)"
         y="0"
         x="0"
         height="24"
         width="24"
         id="rect3084"
         style="fill:#00f1ff;fill-opacity:1;stroke:none;opacity:0" />
      <g
         id="text3854-64"
         style="font-size:12px;font-style:normal;font-variant:normal;font-weight:normal;font-stretch:normal;line-height:125%;letter-spacing:0px;word-spacing:0px;fill:#000000;fill-opacity:0.39215686;stroke:none;font-family:arial;-inkscape-font-specification:arial"
         transform="matrix(2.3370679,0,0,2.3370679,72.457122,8.7701234)" />
      <g
         id="text3854"
         style="font-size:12px;font-style:normal;font-variant:normal;font-weight:normal;font-stretch:normal;line-height:125%;letter-spacing:0px;word-spacing:0px;fill:#f2f2f2;fill-opacity:1;stroke:none;font-family:arial;-inkscape-font-specification:arial"
         transform="matrix(2.1286937,0,0,2.1286937,67.085627,9.815105)">
        <path
           style="fill:#f2f2f2"
           inkscape:connector-curvature="0"
           id="path3859"
           d="m -24.148607,3.086359 c 0,0.9441955 -0.77009,1.7142857 -1.714285,1.7142857 -0.944196,0 -1.714286,-0.7700902 -1.714286,-1.7142857 0,-0.9441955 0.77009,-1.7142857 1.714286,-1.7142857 0.944195,0 1.714285,0.7700902 1.714285,1.7142857 m 1.714286,0 c 0,-1.8950874 -1.533484,-3.4285714 -3.428571,-3.4285714 -1.895088,0 -3.428572,1.533484 -3.428572,3.4285714 0,0.4084818 0.04687,0.8303575 0.220982,1.1986607 l 2.444197,5.1830358 c 0.133928,0.2946425 0.441964,0.4754464 0.763393,0.4754464 0.321428,0 0.629464,-0.1808039 0.770089,-0.4754464 l 2.4375,-5.1830358 c 0.174107,-0.3683032 0.220982,-0.7901789 0.220982,-1.1986607" />
      </g>
    </g>
    <g
       id="location-changed"
       transform="translate(25,0)">
      <path
         style="font-size:12px;font-style:normal;font-variant:normal;font-weight:normal;font-stretch:normal;line-height:125%;letter-spacing:0px;word-spacing:0px;fill:#000000;fill-opacity:0.39215686;stroke:none;font-family:arial;-inkscape-font-specification:arial"
         inkscape:connector-curvature="0"
         id="path3859-7-4"
         d="m 20.036,16.425921 c 0,-4.431819 -3.586183,-8.0179991 -8.018001,-8.0179991 C 7.5861778,8.4079219 4,11.994102 4,16.425921 c 0,0.955268 0.1094005,1.641417 0.5165694,2.502724 l 5.7159566,11.919484 c 0.313205,0.689046 1.033571,1.111871 1.785257,1.111871 0.751687,0 1.472056,-0.422825 1.800921,-1.111871 L 19.519,18.928645 c 0.407162,-0.861307 0.517,-1.547456 0.517,-2.502724"
         sodipodi:nodetypes="cssccsccc" />
      <rect
         transform="translate(0,8)"
         y="0"
         x="0"
         height="24"
         width="24"
         id="rect3084-4"
         style="opacity:0;fill:#00f1ff;fill-opacity:1;stroke:none" />
      <g
         id="text3854-64-1"
         style="font-size:12px;font-style:normal;font-variant:normal;font-weight:normal;font-stretch:normal;line-height:125%;letter-spacing:0px;word-spacing:0px;fill:#000000;fill-opacity:0.39215686;stroke:none;font-family:arial;-inkscape-font-specification:arial"
         transform="matrix(2.3370679,0,0,2.3370679,72.457122,8.7701234)" />
      <g
         id="text3854-0"
         style="font-size:12px;font-style:normal;font-variant:normal;font-weight:normal;font-stretch:normal;line-height:125%;letter-spacing:0px;word-spacing:0px;fill:#f2f2f2;fill-opacity:1;stroke:none;font-family:arial;-inkscape-font-specification:arial"
         transform="matrix(2.1286937,0,0,2.1286937,67.085627,9.815105)">
        <path
           sodipodi:type="arc"
           style="fill:#00a2ff;fill-opacity:1;stroke:none"
           id="path3906-9"
           sodipodi:cx="36.5"
           sodipodi:cy="8"
           sodipodi:rx="4.5"
           sodipodi:ry="5"
           d="m 41,8 c 0,2.761424 -2.014719,5 -4.5,5 C 34.014719,13 32,10.761424 32,8 32,5.2385763 34.014719,3 36.5,3 38.985281,3 41,5.2385763 41,8 z"
           transform="matrix(0.52196852,0,0,0.46977167,-44.983918,-0.78952645)" />
        <path
           style="fill:#f2f2f2"
           inkscape:connector-curvature="0"
           id="path3859-3"
           d="m -24.148607,3.086359 c 0,0.9441955 -0.77009,1.7142857 -1.714285,1.7142857 -0.944196,0 -1.714286,-0.7700902 -1.714286,-1.7142857 0,-0.9441955 0.77009,-1.7142857 1.714286,-1.7142857 0.944195,0 1.714285,0.7700902 1.714285,1.7142857 m 1.714286,0 c 0,-1.8950874 -1.533484,-3.4285714 -3.428571,-3.4285714 -1.895088,0 -3.428572,1.533484 -3.428572,3.4285714 0,0.4084818 0.04687,0.8303575 0.220982,1.1986607 l 2.444197,5.1830358 c 0.133928,0.2946425 0.441964,0.4754464 0.763393,0.4754464 0.321428,0 0.629464,-0.1808039 0.770089,-0.4754464 l 2.4375,-5.1830358 c 0.174107,-0.3683032 0.220982,-0.7901789 0.220982,-1.1986607" />
      </g>
    </g>
    <g
       id="location-unknown"
       transform="translate(49.494825,0.02801519)">
      <path
         style="font-size:12px;font-style:normal;font-variant:normal;font-weight:normal;font-stretch:normal;line-height:125%;letter-spacing:0px;word-spacing:0px;fill:#000000;fill-opacity:0.39215686;stroke:none;font-family:arial;-inkscape-font-specification:arial"
         inkscape:connector-curvature="0"
         id="path3859-7-49"
         d="m 20.041175,16.431036 c 0,-4.459456 -3.608546,-8.0679997 -8.068001,-8.0679997 -4.4594579,0 -8.067999,3.6085437 -8.067999,8.0679997 0,0.961225 0.1100827,1.651653 0.5197907,2.518331 L 10.176567,30.94318 c 0.315158,0.693343 1.040016,1.118805 1.79639,1.118805 0.756374,0 1.481235,-0.425462 1.812151,-1.118805 l 5.735843,-11.993813 c 0.409701,-0.866678 0.520224,-1.557106 0.520224,-2.518331"
         sodipodi:nodetypes="cssccsccc" />
      <rect
         transform="translate(0,8)"
         y="0"
         x="0"
         height="24"
         width="24"
         id="rect3084-88"
         style="opacity:0;fill:#00f1ff;fill-opacity:1;stroke:none" />
      <g
         id="text3854-64-7"
         style="font-size:12px;font-style:normal;font-variant:normal;font-weight:normal;font-stretch:normal;line-height:125%;letter-spacing:0px;word-spacing:0px;fill:#000000;fill-opacity:0.39215686;stroke:none;font-family:arial;-inkscape-font-specification:arial"
         transform="matrix(2.3370679,0,0,2.3370679,72.457122,8.7701234)" />
      <g
         id="text3854-1"
         style="font-size:12px;font-style:normal;font-variant:normal;font-weight:normal;font-stretch:normal;line-height:125%;letter-spacing:0px;word-spacing:0px;fill:#f2f2f2;fill-opacity:1;stroke:none;font-family:arial;-inkscape-font-specification:arial"
         transform="matrix(2.1286937,0,0,2.1286937,67.085627,9.815105)">
        <path
           transform="matrix(0.52196852,0,0,0.46977167,-44.879729,-0.77846201)"
           d="m 41,8 c 0,2.761424 -2.014719,5 -4.5,5 C 34.014719,13 32,10.761424 32,8 32,5.2385763 34.014719,3 36.5,3 38.985281,3 41,5.2385763 41,8 z"
           sodipodi:ry="5"
           sodipodi:rx="4.5"
           sodipodi:cy="8"
           sodipodi:cx="36.5"
           id="path3906-2-5"
           style="fill:#df0f1a;fill-opacity:1;stroke:none"
           sodipodi:type="arc" />
        <path
           style="fill:#f2f2f2"
           inkscape:connector-curvature="0"
           id="path3859-92"
           d="m -24.148607,3.086359 c 0,0.9441955 -0.77009,1.7142857 -1.714285,1.7142857 -0.944196,0 -1.714286,-0.7700902 -1.714286,-1.7142857 0,-0.9441955 0.77009,-1.7142857 1.714286,-1.7142857 0.944195,0 1.714285,0.7700902 1.714285,1.7142857 m 1.714286,0 c 0,-1.8950874 -1.533484,-3.4285714 -3.428571,-3.4285714 -1.895088,0 -3.428572,1.533484 -3.428572,3.4285714 0,0.4084818 0.04687,0.8303575 0.220982,1.1986607 l 2.444197,5.1830358 c 0.133928,0.2946425 0.441964,0.4754464 0.763393,0.4754464 0.321428,0 0.629464,-0.1808039 0.770089,-0.4754464 l 2.4375,-5.1830358 c 0.174107,-0.3683032 0.220982,-0.7901789 0.220982,-1.1986607" />
      </g>
    </g>
  </g>
</svg>
