<?xml version="1.0" encoding="UTF-8" standalone="no"?>
<!-- Created with Inkscape (http://www.inkscape.org/) -->

<svg
   xmlns:dc="http://purl.org/dc/elements/1.1/"
   xmlns:cc="http://creativecommons.org/ns#"
   xmlns:rdf="http://www.w3.org/1999/02/22-rdf-syntax-ns#"
   xmlns:svg="http://www.w3.org/2000/svg"
   xmlns="http://www.w3.org/2000/svg"
   xmlns:sodipodi="http://sodipodi.sourceforge.net/DTD/sodipodi-0.dtd"
   xmlns:inkscape="http://www.inkscape.org/namespaces/inkscape"
   id="svg3229"
   height="24"
   width="24"
   version="1.0"
   inkscape:version="0.91 r13725"
   sodipodi:docname="printer.svgz">
  <defs
     id="defs8" />
  <sodipodi:namedview
     pagecolor="#969696"
     bordercolor="#666666"
     borderopacity="1"
     objecttolerance="10"
     gridtolerance="10"
     guidetolerance="10"
     inkscape:pageopacity="0.58823529"
     inkscape:pageshadow="2"
     inkscape:window-width="1546"
     inkscape:window-height="841"
     id="namedview6"
     showgrid="false"
     showguides="false"
     inkscape:zoom="15.170655"
     inkscape:cx="-3.5918822"
     inkscape:cy="10.531359"
     inkscape:window-x="54"
     inkscape:window-y="30"
     inkscape:window-maximized="1"
     inkscape:current-layer="svg3229">
    <inkscape:grid
       type="xygrid"
       id="grid2985"
       empspacing="5"
       visible="true"
       enabled="true"
       snapvisiblegridlinesonly="true" />
  </sodipodi:namedview>
  <metadata
     id="metadata9">
    <rdf:RDF>
      <cc:Work
         rdf:about="">
        <dc:format>image/svg+xml</dc:format>
        <dc:type
           rdf:resource="http://purl.org/dc/dcmitype/StillImage" />
        <dc:title />
      </cc:Work>
    </rdf:RDF>
  </metadata>
  <g
     id="printer"
     transform="translate(1,-1)">
    <rect
       y="1"
       x="-1"
       height="24"
       width="24"
       id="rect2991"
       style="opacity:0.01000001;fill:#000000;fill-opacity:0.00392157;stroke:none" />
    <g
       transform="translate(-1,1)"
       id="g2995">
      <path
         inkscape:connector-curvature="0"
         style="opacity:0.3;fill:#000000;fill-opacity:1;stroke:none"
         d="M 8,5 C 7.446,5 7,6.446 7,7 L 7,9 4.75,9 C 4.3345,9 4,9.3345 4,9.75 l 0,5.5 C 4,15.6655 4.3345,16 4.75,16 L 7,16 7,20 c 0,0.554 0.446,1 1,1 l 8,0 c 0.554,0 1,-0.446 1,-1 l 0,-4 2.25,0 C 19.6655,16 20,15.6655 20,15.25 l 0,-5.5 C 20,9.3345 19.6655,9 19.25,9 L 17,9 17,7 C 17,6.446 16.554,5 16,5 z m 0.75,2 6.5,0 C 15.6655,7 16,7.3345 16,7.75 L 16,10 8,10 8,7.75 C 8,7.3345 8.3345,7 8.75,7 z M 8,14 l 8,0 0,5 -8,0 z"
         id="rect3001-6-6"
         sodipodi:nodetypes="sscsssscsssscsssscssssssccssccccc" />
      <path
         style="fill:#ebebeb;fill-opacity:1;stroke:none"
         d="M 8,5 C 7.446,5 7,5.446 7,6 L 7,8 5,8 C 4.5845,8 4,8.5845 4,9 l 0,5 c 0,0.4155 0.5845,1 1,1 l 2,0 0,4 c 0,0.554 0.446,1 1,1 l 8,0 c 0.554,0 1,-0.446 1,-1 l 0,-4 2,0 c 0.4155,0 1,-0.5845 1,-1 L 20,9 C 20,8.5845 19.4155,8 19,8 L 17,8 17,6 C 17,5.446 16.554,5 16,5 z m 0.75,1 6.5,0 C 15.6655,6 16,6.3345 16,6.75 L 16,9 8,9 8,6.75 C 8,6.3345 8.3345,6 8.75,6 z m 4.25,4 1,0 0,1 -1,0 z m 2,0 1,0 0,1 -1,0 z m 2,0 1,0 0,1 -1,0 z m -9,3 8,0 0,6 -8,0 z m 1,2 0,1 6,0 0,-1 z m 0,2 0,1 4,0 0,-1 z"
         id="rect3001-8"
         inkscape:connector-curvature="0"
         sodipodi:nodetypes="sscsssscsssscsssscssssssccsscccccccccccccccccccccccccccccc" />
    </g>
  </g>
</svg>
