<?xml version="1.0" encoding="UTF-8" standalone="no"?>
<!-- Created with Inkscape (http://www.inkscape.org/) -->

<svg
   xmlns:dc="http://purl.org/dc/elements/1.1/"
   xmlns:cc="http://creativecommons.org/ns#"
   xmlns:rdf="http://www.w3.org/1999/02/22-rdf-syntax-ns#"
   xmlns:svg="http://www.w3.org/2000/svg"
   xmlns="http://www.w3.org/2000/svg"
   xmlns:xlink="http://www.w3.org/1999/xlink"
   xmlns:sodipodi="http://sodipodi.sourceforge.net/DTD/sodipodi-0.dtd"
   xmlns:inkscape="http://www.inkscape.org/namespaces/inkscape"
   inkscape:export-ydpi="90"
   inkscape:export-xdpi="90"
   inkscape:export-filename="/home/anton/Teman/mockups/gree-hey.png"
   sodipodi:docname="shutdowndialog.svgz"
   inkscape:version="0.48.2 r9819"
   version="1.1"
   id="svg2"
   height="150"
   width="100">
  <sodipodi:namedview
     id="base"
     pagecolor="#ffffff"
     bordercolor="#666666"
     borderopacity="1.0"
     inkscape:pageopacity="0.0"
     inkscape:pageshadow="2"
     inkscape:zoom="1.4142136"
     inkscape:cx="63.68181"
     inkscape:cy="42.70211"
     inkscape:document-units="px"
     inkscape:current-layer="layer1"
     showgrid="false"
     inkscape:window-width="1280"
     inkscape:window-height="954"
     inkscape:window-x="0"
     inkscape:window-y="0"
     inkscape:window-maximized="1"
     showguides="true"
     inkscape:guide-bbox="true">
    <inkscape:grid
       type="xygrid"
       id="grid2816"
       empspacing="5"
       visible="true"
       enabled="true"
       snapvisiblegridlinesonly="true" />
  </sodipodi:namedview>
  <defs
     id="defs4">
    <linearGradient
       inkscape:collect="always"
       id="linearGradient3957">
      <stop
         style="stop-color:#1a1a1a;stop-opacity:1"
         offset="0"
         id="stop3960" />
      <stop
         style="stop-color:#000000;stop-opacity:0.60344828"
         offset="1"
         id="stop3962" />
    </linearGradient>
    <linearGradient
       id="linearGradient3951">
      <stop
         style="stop-color:#808080;stop-opacity:0.56896552"
         offset="0"
         id="stop3953" />
      <stop
         style="stop-color:#202020;stop-opacity:0.20689655"
         offset="1"
         id="stop3955" />
    </linearGradient>
    <linearGradient
       id="linearGradient3947">
      <stop
         style="stop-color:#008000;stop-opacity:1"
         offset="0"
         id="stop3949" />
      <stop
         style="stop-color:#00ff00;stop-opacity:1"
         offset="1"
         id="stop3951" />
    </linearGradient>
    <linearGradient
       id="linearGradient7843">
      <stop
         id="stop7845"
         offset="0"
         style="stop-color:#626262;stop-opacity:0.03311258;" />
      <stop
         id="stop7847"
         offset="1"
         style="stop-color:#808080;stop-opacity:0.00392157;" />
    </linearGradient>
    <linearGradient
       id="linearGradient5432">
      <stop
         style="stop-color:#4c4c4c;stop-opacity:1;"
         offset="0"
         id="stop5434" />
      <stop
         style="stop-color:#222222;stop-opacity:1;"
         offset="1"
         id="stop5436" />
    </linearGradient>
    <linearGradient
       id="linearGradient4833">
      <stop
         style="stop-color:#1d1d1d;stop-opacity:1;"
         offset="0"
         id="stop4835" />
      <stop
         id="stop4841"
         offset="0.5"
         style="stop-color:#1a1a1a;stop-opacity:0.49803922;" />
      <stop
         style="stop-color:#1a1a1a;stop-opacity:0.24705882;"
         offset="0.75"
         id="stop4843" />
      <stop
         style="stop-color:#292929;stop-opacity:0.47058824;"
         offset="1"
         id="stop4837" />
    </linearGradient>
    <linearGradient
       id="linearGradient4783">
      <stop
         id="stop4785"
         offset="0"
         style="stop-color:#ffffff;stop-opacity:0;" />
      <stop
         style="stop-color:#ffffff;stop-opacity:0.39072847;"
         offset="0.5"
         id="stop4787" />
      <stop
         id="stop4789"
         offset="1"
         style="stop-color:#ffffff;stop-opacity:0;" />
    </linearGradient>
    <linearGradient
       id="linearGradient4769">
      <stop
         style="stop-color:#000000;stop-opacity:0;"
         offset="0"
         id="stop4771" />
      <stop
         id="stop4777"
         offset="0.5"
         style="stop-color:#000000;stop-opacity:0.29139072;" />
      <stop
         style="stop-color:#000000;stop-opacity:0;"
         offset="1"
         id="stop4773" />
    </linearGradient>
    <linearGradient
       id="linearGradient4459">
      <stop
         style="stop-color:#1e1e1e;stop-opacity:1;"
         offset="0"
         id="stop4461" />
      <stop
         style="stop-color:#1e1e1e;stop-opacity:1;"
         offset="1"
         id="stop4463" />
    </linearGradient>
    <linearGradient
       id="linearGradient4018">
      <stop
         style="stop-color:#000000;stop-opacity:0.64912283;"
         offset="0"
         id="stop4020" />
      <stop
         id="stop4377"
         offset="0.5"
         style="stop-color:#000000;stop-opacity:0.377193;" />
      <stop
         style="stop-color:#000000;stop-opacity:0.0877193;"
         offset="0.75"
         id="stop4379" />
      <stop
         style="stop-color:#000000;stop-opacity:0;"
         offset="1"
         id="stop4022" />
    </linearGradient>
    <linearGradient
       id="linearGradient3955">
      <stop
         id="stop3957"
         offset="0"
         style="stop-color:#1d1d1d;stop-opacity:1;" />
      <stop
         id="stop3959"
         offset="1"
         style="stop-color:#070707;stop-opacity:0.32941177;" />
    </linearGradient>
    <linearGradient
       id="linearGradient3928">
      <stop
         style="stop-color:#ffffff;stop-opacity:0.01960784;"
         offset="0"
         id="stop3930" />
      <stop
         style="stop-color:#ffffff;stop-opacity:0.01960784;"
         offset="1"
         id="stop3932" />
    </linearGradient>
    <linearGradient
       id="linearGradient3913">
      <stop
         style="stop-color:#161616;stop-opacity:1;"
         offset="0"
         id="stop3915" />
      <stop
         style="stop-color:#0c0c0c;stop-opacity:1;"
         offset="1"
         id="stop3917" />
    </linearGradient>
    <linearGradient
       id="linearGradient3836">
      <stop
         style="stop-color:#292929;stop-opacity:1;"
         offset="0"
         id="stop3838" />
      <stop
         style="stop-color:#292929;stop-opacity:1;"
         offset="1"
         id="stop3840" />
    </linearGradient>
    <linearGradient
       id="linearGradient3799">
      <stop
         id="stop3801"
         offset="0"
         style="stop-color:#2a2a2a;stop-opacity:1;" />
      <stop
         id="stop3803"
         offset="1"
         style="stop-color:#202020;stop-opacity:1;" />
    </linearGradient>
    <linearGradient
       id="linearGradient3738">
      <stop
         style="stop-color:#000000;stop-opacity:0.25827813;"
         offset="0"
         id="stop3740" />
      <stop
         id="stop3746"
         offset="0.5"
         style="stop-color:#000000;stop-opacity:0.08609272;" />
      <stop
         style="stop-color:#000000;stop-opacity:0;"
         offset="1"
         id="stop3742" />
    </linearGradient>
    <linearGradient
       id="linearGradient3730">
      <stop
         style="stop-color:#565656;stop-opacity:0.36423841;"
         offset="0"
         id="stop3732" />
      <stop
         style="stop-color:#3d3d3d;stop-opacity:0;"
         offset="1"
         id="stop3734" />
    </linearGradient>
    <linearGradient
       id="linearGradient3720">
      <stop
         id="stop3722"
         offset="0"
         style="stop-color:#3d3d3d;stop-opacity:0.20529801;" />
      <stop
         id="stop3724"
         offset="1"
         style="stop-color:#3d3d3d;stop-opacity:0;" />
    </linearGradient>
    <linearGradient
       id="linearGradient3704">
      <stop
         style="stop-color:#919191;stop-opacity:0.23137255;"
         offset="0"
         id="stop3706" />
      <stop
         style="stop-color:#828282;stop-opacity:0.0397351;"
         offset="1"
         id="stop3708" />
    </linearGradient>
    <linearGradient
       id="linearGradient3684">
      <stop
         style="stop-color:#3f3f3f;stop-opacity:0.10596026;"
         offset="0"
         id="stop3686" />
      <stop
         style="stop-color:#3f3f3f;stop-opacity:0;"
         offset="1"
         id="stop3688" />
    </linearGradient>
    <linearGradient
       id="linearGradient3666">
      <stop
         style="stop-color:#1e1e1e;stop-opacity:1;"
         offset="0"
         id="stop3668" />
      <stop
         style="stop-color:#161616;stop-opacity:1;"
         offset="1"
         id="stop3670" />
    </linearGradient>
    <linearGradient
       id="linearGradient3631">
      <stop
         style="stop-color:#2a2a2a;stop-opacity:1;"
         offset="0"
         id="stop3633" />
      <stop
         style="stop-color:#202020;stop-opacity:1;"
         offset="1"
         id="stop3635" />
    </linearGradient>
    <linearGradient
       id="linearGradient3616">
      <stop
         id="stop3618"
         offset="0"
         style="stop-color:#2e2e2e;stop-opacity:1;" />
      <stop
         id="stop3620"
         offset="1"
         style="stop-color:#181818;stop-opacity:1;" />
    </linearGradient>
    <linearGradient
       id="linearGradient3594">
      <stop
         style="stop-color:#0f0f0f;stop-opacity:1;"
         offset="0"
         id="stop3596" />
      <stop
         style="stop-color:#161616;stop-opacity:1;"
         offset="1"
         id="stop3598" />
    </linearGradient>
    <inkscape:perspective
       sodipodi:type="inkscape:persp3d"
       inkscape:vp_x="0 : 526.18109 : 1"
       inkscape:vp_y="0 : 1000 : 0"
       inkscape:vp_z="744.09448 : 526.18109 : 1"
       inkscape:persp3d-origin="372.04724 : 350.78739 : 1"
       id="perspective10" />
    <linearGradient
       inkscape:collect="always"
       xlink:href="#linearGradient3684"
       id="linearGradient3991"
       gradientUnits="userSpaceOnUse"
       gradientTransform="matrix(1,0,0,-1,-43,1171)"
       x1="256.5"
       y1="575"
       x2="256.5"
       y2="594" />
    <radialGradient
       inkscape:collect="always"
       xlink:href="#linearGradient4018"
       id="radialGradient4024"
       cx="585"
       cy="485"
       fx="585"
       fy="485"
       r="5"
       gradientUnits="userSpaceOnUse"
       gradientTransform="matrix(-2,0,0,-2,1205,1010)" />
    <radialGradient
       inkscape:collect="always"
       xlink:href="#linearGradient4018"
       id="radialGradient4028"
       gradientUnits="userSpaceOnUse"
       gradientTransform="matrix(-2,0,0,2,1205,-860.00001)"
       cx="585"
       cy="485"
       fx="585"
       fy="485"
       r="5" />
    <linearGradient
       inkscape:collect="always"
       xlink:href="#linearGradient4018"
       id="linearGradient4034"
       x1="575"
       y1="972.36218"
       x2="585"
       y2="972.36218"
       gradientUnits="userSpaceOnUse"
       gradientTransform="matrix(-1,0,0,1,610,-897.36218)" />
    <linearGradient
       inkscape:collect="always"
       xlink:href="#linearGradient4018"
       id="linearGradient4044"
       gradientUnits="userSpaceOnUse"
       gradientTransform="translate(-505,-897.36218)"
       x1="575"
       y1="972.36218"
       x2="585"
       y2="972.36218" />
    <radialGradient
       inkscape:collect="always"
       xlink:href="#linearGradient4018"
       id="radialGradient4046"
       gradientUnits="userSpaceOnUse"
       gradientTransform="matrix(2,0,0,2,-1100,-860.00002)"
       cx="585"
       cy="485"
       fx="585"
       fy="485"
       r="5" />
    <linearGradient
       inkscape:collect="always"
       xlink:href="#linearGradient4018"
       id="linearGradient4050"
       gradientUnits="userSpaceOnUse"
       gradientTransform="matrix(0,-1,-0.49999999,0,538.68108,615.00002)"
       x1="575"
       y1="972.36218"
       x2="585"
       y2="972.36218" />
    <linearGradient
       inkscape:collect="always"
       xlink:href="#linearGradient4018"
       id="linearGradient4054"
       gradientUnits="userSpaceOnUse"
       gradientTransform="matrix(0,1,-0.49999999,0,538.68108,-465.00001)"
       x1="575"
       y1="972.36218"
       x2="585"
       y2="972.36218" />
    <linearGradient
       y2="480"
       x2="770"
       y1="560"
       x1="770"
       gradientTransform="matrix(0.19444444,0,0,-1,-438.75,1442.3622)"
       gradientUnits="userSpaceOnUse"
       id="linearGradient4680"
       xlink:href="#linearGradient3616"
       inkscape:collect="always" />
    <radialGradient
       r="5"
       fy="485"
       fx="585"
       cy="485"
       cx="585"
       gradientTransform="matrix(-2,0,0,-2,405,-37.362162)"
       gradientUnits="userSpaceOnUse"
       id="radialGradient4682"
       xlink:href="#linearGradient4018"
       inkscape:collect="always" />
    <linearGradient
       y2="480"
       x2="770"
       y1="560"
       x1="770"
       gradientTransform="matrix(1,0,0,-1,0,1040)"
       gradientUnits="userSpaceOnUse"
       id="linearGradient4684"
       xlink:href="#linearGradient3616"
       inkscape:collect="always" />
    <linearGradient
       y2="556.875"
       x2="581"
       y1="557.9375"
       x1="581"
       gradientUnits="userSpaceOnUse"
       id="linearGradient4686"
       xlink:href="#linearGradient3720"
       inkscape:collect="always" />
    <linearGradient
       y2="555"
       x2="770"
       y1="490"
       x1="770"
       gradientUnits="userSpaceOnUse"
       id="linearGradient4688"
       xlink:href="#linearGradient3704"
       inkscape:collect="always" />
    <linearGradient
       y2="972.36218"
       x2="585"
       y1="972.36218"
       x1="575"
       gradientTransform="translate(190,-2.6171874e-6)"
       gradientUnits="userSpaceOnUse"
       id="linearGradient4690"
       xlink:href="#linearGradient4018"
       inkscape:collect="always" />
    <linearGradient
       y2="480"
       x2="770"
       y1="560"
       x1="770"
       gradientTransform="matrix(1,0,0,-1,0,1040)"
       gradientUnits="userSpaceOnUse"
       id="linearGradient4692"
       xlink:href="#linearGradient3616"
       inkscape:collect="always" />
    <linearGradient
       y2="555"
       x2="770"
       y1="490"
       x1="770"
       gradientUnits="userSpaceOnUse"
       id="linearGradient4694"
       xlink:href="#linearGradient3704"
       inkscape:collect="always" />
    <radialGradient
       r="5"
       fy="485"
       fx="585"
       cy="485"
       cx="585"
       gradientTransform="matrix(-2,0,0,-2,405,1907.3622)"
       gradientUnits="userSpaceOnUse"
       id="radialGradient4696"
       xlink:href="#linearGradient4018"
       inkscape:collect="always" />
    <linearGradient
       y2="480"
       x2="770"
       y1="560"
       x1="770"
       gradientTransform="matrix(1,0,0,-1,0,1040)"
       gradientUnits="userSpaceOnUse"
       id="linearGradient4698"
       xlink:href="#linearGradient3616"
       inkscape:collect="always" />
    <linearGradient
       y2="555"
       x2="770"
       y1="490"
       x1="770"
       gradientUnits="userSpaceOnUse"
       id="linearGradient4700"
       xlink:href="#linearGradient3704"
       inkscape:collect="always" />
    <linearGradient
       y2="972.36218"
       x2="585"
       y1="972.36218"
       x1="575"
       gradientTransform="matrix(1,0,0,2.5714286,432.36217,-3175.3599)"
       gradientUnits="userSpaceOnUse"
       id="linearGradient4702"
       xlink:href="#linearGradient4018"
       inkscape:collect="always" />
    <linearGradient
       y2="480"
       x2="770"
       y1="560"
       x1="770"
       gradientTransform="matrix(1,0,0,-1,0,1040)"
       gradientUnits="userSpaceOnUse"
       id="linearGradient4704"
       xlink:href="#linearGradient3616"
       inkscape:collect="always" />
    <linearGradient
       y2="556.875"
       x2="581"
       y1="557.9375"
       x1="581"
       gradientUnits="userSpaceOnUse"
       id="linearGradient4706"
       xlink:href="#linearGradient3720"
       inkscape:collect="always" />
    <radialGradient
       r="5"
       fy="485"
       fx="585"
       cy="485"
       cx="585"
       gradientTransform="matrix(-2,0,0,-2,1755,-37.362165)"
       gradientUnits="userSpaceOnUse"
       id="radialGradient4708"
       xlink:href="#linearGradient4018"
       inkscape:collect="always" />
    <linearGradient
       y2="480"
       x2="770"
       y1="560"
       x1="770"
       gradientTransform="matrix(1,0,0,-1,0,1040)"
       gradientUnits="userSpaceOnUse"
       id="linearGradient4710"
       xlink:href="#linearGradient3616"
       inkscape:collect="always" />
    <linearGradient
       y2="556.875"
       x2="581"
       y1="557.9375"
       x1="581"
       gradientUnits="userSpaceOnUse"
       id="linearGradient4712"
       xlink:href="#linearGradient3720"
       inkscape:collect="always" />
    <linearGradient
       y2="555"
       x2="770"
       y1="490"
       x1="770"
       gradientUnits="userSpaceOnUse"
       id="linearGradient4714"
       xlink:href="#linearGradient3704"
       inkscape:collect="always" />
    <linearGradient
       y2="972.36218"
       x2="585"
       y1="972.36218"
       x1="575"
       gradientTransform="translate(-1160,0)"
       gradientUnits="userSpaceOnUse"
       id="linearGradient4716"
       xlink:href="#linearGradient4018"
       inkscape:collect="always" />
    <linearGradient
       y2="480"
       x2="770"
       y1="560"
       x1="770"
       gradientTransform="matrix(1,0,0,-1,0,1040)"
       gradientUnits="userSpaceOnUse"
       id="linearGradient4718"
       xlink:href="#linearGradient3616"
       inkscape:collect="always" />
    <linearGradient
       y2="555"
       x2="770"
       y1="490"
       x1="770"
       gradientUnits="userSpaceOnUse"
       id="linearGradient4720"
       xlink:href="#linearGradient3704"
       inkscape:collect="always" />
    <radialGradient
       r="5"
       fy="485"
       fx="585"
       cy="485"
       cx="585"
       gradientTransform="matrix(-2,0,0,-2,1755,1455)"
       gradientUnits="userSpaceOnUse"
       id="radialGradient4722"
       xlink:href="#linearGradient4018"
       inkscape:collect="always" />
    <linearGradient
       y2="480"
       x2="770"
       y1="560"
       x1="770"
       gradientTransform="matrix(1,0,0,-1,0,1040)"
       gradientUnits="userSpaceOnUse"
       id="linearGradient4724"
       xlink:href="#linearGradient3616"
       inkscape:collect="always" />
    <linearGradient
       y2="555"
       x2="770"
       y1="490"
       x1="770"
       gradientUnits="userSpaceOnUse"
       id="linearGradient4726"
       xlink:href="#linearGradient3704"
       inkscape:collect="always" />
    <linearGradient
       y2="972.36218"
       x2="585"
       y1="972.36218"
       x1="575"
       gradientTransform="matrix(1,0,0,2.5714286,-1512.3622,-3175.3599)"
       gradientUnits="userSpaceOnUse"
       id="linearGradient4728"
       xlink:href="#linearGradient4018"
       inkscape:collect="always" />
    <linearGradient
       y2="480"
       x2="770"
       y1="560"
       x1="770"
       gradientTransform="matrix(1,0,0,-1,0,1040)"
       gradientUnits="userSpaceOnUse"
       id="linearGradient4730"
       xlink:href="#linearGradient3616"
       inkscape:collect="always" />
    <linearGradient
       y2="555"
       x2="770"
       y1="490"
       x1="770"
       gradientUnits="userSpaceOnUse"
       id="linearGradient4732"
       xlink:href="#linearGradient3704"
       inkscape:collect="always" />
    <inkscape:perspective
       sodipodi:type="inkscape:persp3d"
       inkscape:vp_x="0 : 0.5 : 1"
       inkscape:vp_y="0 : 1000 : 0"
       inkscape:vp_z="1 : 0.5 : 1"
       inkscape:persp3d-origin="0.5 : 0.33333333 : 1"
       id="perspective7925" />
    <radialGradient
       inkscape:collect="always"
       xlink:href="#linearGradient4018"
       id="radialGradient3939"
       gradientUnits="userSpaceOnUse"
       gradientTransform="matrix(2,0,0,-2,-1100,1010)"
       cx="585"
       cy="485"
       fx="585"
       fy="485"
       r="5" />
    <linearGradient
       y2="972.36218"
       x2="585"
       y1="972.36218"
       x1="575"
       gradientTransform="matrix(0,-1,-0.49999999,0,538.68108,615.00002)"
       gradientUnits="userSpaceOnUse"
       id="linearGradient3942"
       xlink:href="#linearGradient4018"
       inkscape:collect="always" />
    <linearGradient
       y2="-100.00002"
       x2="-20"
       y1="-65.000015"
       x1="-20"
       gradientTransform="translate(1.0000305,7.6293945e-6)"
       gradientUnits="userSpaceOnUse"
       id="linearGradient4831"
       xlink:href="#linearGradient4775"
       inkscape:collect="always" />
    <linearGradient
       id="linearGradient4775">
      <stop
         id="stop4777-6"
         offset="0"
         style="stop-color:#505050;stop-opacity:1;" />
      <stop
         style="stop-color:#505050;stop-opacity:1;"
         offset="0.32857147"
         id="stop4785-1" />
      <stop
         style="stop-color:#555555;stop-opacity:0.96078432;"
         offset="0.58571428"
         id="stop4783" />
      <stop
         id="stop4779"
         offset="1"
         style="stop-color:#646464;stop-opacity:0.92156863;" />
    </linearGradient>
    <linearGradient
       y2="-100.00002"
       x2="-20"
       y1="-65.000015"
       x1="-20"
       gradientTransform="translate(-177.57704,-77.999988)"
       gradientUnits="userSpaceOnUse"
       id="linearGradient4831-809"
       xlink:href="#linearGradient4775-125"
       inkscape:collect="always" />
    <linearGradient
       id="linearGradient4775-125">
      <stop
         id="stop4065"
         offset="0"
         style="stop-color:#434343;stop-opacity:1;" />
      <stop
         style="stop-color:#434343;stop-opacity:1;"
         offset="0.32857147"
         id="stop4067" />
      <stop
         style="stop-color:#484848;stop-opacity:0.96078432;"
         offset="0.58571428"
         id="stop4069" />
      <stop
         id="stop4071"
         offset="1"
         style="stop-color:#575757;stop-opacity:0.92156863;" />
    </linearGradient>
    <radialGradient
       inkscape:collect="always"
       xlink:href="#linearGradient3616"
       id="radialGradient3954"
       cx="156.46748"
       cy="850.37793"
       fx="156.46748"
       fy="850.37793"
       r="91.573105"
       gradientTransform="matrix(1,0,0,0.19765628,0,682.29539)"
       gradientUnits="userSpaceOnUse" />
    <radialGradient
       inkscape:collect="always"
       xlink:href="#linearGradient3799"
       id="radialGradient3962"
       cx="254.51573"
       cy="872.87793"
       fx="254.51573"
       fy="872.87793"
       r="42.599998"
       gradientTransform="matrix(1,0,0,0.2370892,-0.24999999,613.428)"
       gradientUnits="userSpaceOnUse" />
    <radialGradient
       inkscape:collect="always"
       xlink:href="#linearGradient3951"
       id="radialGradient4360"
       gradientUnits="userSpaceOnUse"
       gradientTransform="matrix(1.0981488,-0.01652271,0.00579133,0.38490928,-218.04216,495.2174)"
       cx="160.28941"
       cy="877.71375"
       fx="160.28941"
       fy="877.71375"
       r="91.573105" />
    <linearGradient
       inkscape:collect="always"
       xlink:href="#linearGradient3947"
       id="linearGradient3953"
       x1="238.11761"
       y1="866.51361"
       x2="232.3774"
       y2="830.78302"
       gradientUnits="userSpaceOnUse" />
    <radialGradient
       inkscape:collect="always"
       xlink:href="#linearGradient3957"
       id="radialGradient3964"
       cx="53.560665"
       cy="994.50952"
       fx="53.560665"
       fy="994.50952"
       r="17.5"
       gradientTransform="matrix(1,0,0,2.0000006,0,-977.36275)"
       gradientUnits="userSpaceOnUse" />
  </defs>
  <metadata
     id="metadata7">
    <rdf:RDF>
      <cc:Work
         rdf:about="">
        <dc:format>image/svg+xml</dc:format>
        <dc:type
           rdf:resource="http://purl.org/dc/dcmitype/StillImage" />
        <dc:title />
      </cc:Work>
    </rdf:RDF>
  </metadata>
  <g
     inkscape:label="Layer 1"
     inkscape:groupmode="layer"
     id="layer1"
     transform="translate(0,-902.36218)">
    <rect
       style="fill:#008000;fill-opacity:1;stroke:none"
       id="hint-stretch-borders"
       width="5"
       height="5.000001"
       x="5"
       y="907.36218" />
    <path
       style="fill:url(#radialGradient3964);fill-opacity:1;stroke:none;opacity:0.88500000000000001;stroke-width:0.40000000000000002;stroke-miterlimit:4;stroke-dasharray:none"
       d="m 70.000003,942.36218 -35,0 0,70.00002 35,0 0,-70.00002 z"
       id="center" />
    <g
       id="bottomright"
       transform="translate(-695,5)">
      <path
         id="rect4040"
         transform="translate(695,897.36218)"
         d="M 75 110 L 75 112 C 75 113.662 73.662 115 72 115 L 70 115 L 70 120 L 80 120 L 80 110 L 75 110 z M 73.25 113.53125 C 72.700924 113.88886 71.902913 114 71 114 L 72 114 C 72.480452 114 72.905892 113.81157 73.25 113.53125 z "
         style="fill:url(#radialGradient4046);fill-opacity:1;stroke:none" />
      <path
         style="fill:#000000;fill-opacity:0.00392157;stroke:none;opacity:0.50000000000000000"
         d="M 70 110 L 70 113 L 70 114 L 71.53125 114 L 72 114 C 72.456572 114 72.882831 113.84938 73.21875 113.59375 C 73.230697 113.58466 73.238268 113.57185 73.25 113.5625 C 73.309619 113.52159 73.352529 113.45379 73.40625 113.40625 C 73.498589 113.32454 73.583671 113.22746 73.65625 113.125 C 73.732351 113.01756 73.7927 112.91318 73.84375 112.78125 C 73.877816 112.70044 73.914134 112.61714 73.9375 112.53125 C 73.945726 112.49359 73.962402 112.44561 73.96875 112.40625 C 73.995305 112.27582 74 112.1385 74 112 L 74 110 L 73 110 L 70 110 z "
         transform="translate(695,897.36218)"
         id="path4148" />
      <path
         transform="translate(0,452.36218)"
         id="path4135"
         d="m 770,555 -1,0 0,1 0,1 c 0,1.108 -0.892,2 -2,2 l -1,0 -1,0 0,1 2,0 c 1.662,0 3,-1.338 3,-3 l 0,-2 z"
         style="fill:#e6e6e6;fill-opacity:0.18309858000000001;stroke:none" />
    </g>
    <g
       id="right"
       transform="translate(-695,5)">
      <path
         id="rect4038"
         transform="translate(695,897.36218)"
         d="M 75 40 L 75 110 L 80 110 L 80 40 L 75 40 z "
         style="fill:url(#linearGradient4044);fill-opacity:1;stroke:none" />
      <path
         style="fill:#000000;fill-opacity:0.00392157;stroke:none;opacity:0.50000000000000000"
         d="M 70 40 L 70 110 L 73 110 L 74 110 L 74 40 L 73 40 L 70 40 z "
         transform="translate(695,897.36218)"
         id="path4146" />
      <path
         transform="translate(0,452.36218)"
         id="path4133"
         d="m 770,485 -1,0 0,70 1,0 0,-70 z"
         style="fill:#e6e6e6;fill-opacity:0.18309858000000001;stroke:none" />
    </g>
    <g
       id="topright"
       transform="translate(-695,5)">
      <path
         id="rect4036"
         transform="translate(695,897.36218)"
         d="M 70 30 L 70 35 L 72 35 C 73.662 35 75 36.338 75 38 L 75 40 L 80 40 L 80 30 L 70 30 z M 71 36 C 71.902913 36 72.700924 36.111138 73.25 36.46875 C 72.905892 36.188426 72.480452 36 72 36 L 71 36 z "
         style="fill:url(#radialGradient3939);fill-opacity:1;stroke:none" />
      <path
         style="fill:#000000;fill-opacity:0.00392157;stroke:none;opacity:0.50000000000000000"
         d="M 70 36 L 70 37 L 70 40 L 73 40 L 74 40 L 74 38 C 74 37.86735 73.992257 37.725439 73.96875 37.59375 C 73.942195 37.46332 73.894219 37.338469 73.84375 37.21875 C 73.797027 37.098314 73.726928 36.984606 73.65625 36.875 C 73.520406 36.664337 73.35508 36.48854 73.125 36.34375 C 73.037603 36.284803 72.94032 36.232244 72.84375 36.1875 C 72.823567 36.179173 72.802006 36.164026 72.78125 36.15625 C 72.541813 36.055312 72.277 36 72 36 L 70 36 z "
         transform="translate(695,897.36218)"
         id="path4076" />
      <path
         transform="translate(0,452.36218)"
         id="path4083"
         d="m 765,480 0,1 1,0 1,0 c 1.108,0 2,0.892 2,2 l 0,1 0,1 1,0 0,-2 c 0,-1.662 -1.338,-3 -3,-3 l -2,0 z"
         style="fill:#e6e6e6;fill-opacity:0.18309858000000001;stroke:none" />
    </g>
    <g
       id="bottom"
       transform="matrix(0.19444444,0,0,1,-78.749997,5)">
      <path
         id="rect4052"
         transform="matrix(5.1428573,0,0,1,404.99999,897.36218)"
         d="M 35 115 L 35 120 L 70 120 L 70 115 L 35 115 z "
         style="fill:url(#linearGradient4054);fill-opacity:1;stroke:none" />
      <path
         style="fill:#000000;fill-opacity:0.00392157;stroke:none;opacity:0.50000000000000000"
         d="M 35 110 L 35 113 L 35 114 L 70 114 L 70 113 L 70 110 L 35 110 z "
         transform="matrix(5.1428573,0,0,1,404.99999,897.36218)"
         id="path4130" />
      <path
         transform="translate(0,452.36218)"
         id="path4081"
         d="m 585,559 0,1 180,0 0,-1 -180,0 z"
         style="fill:#e6e6e6;fill-opacity:0.18309858000000001;stroke:none" />
    </g>
    <g
       id="bottomleft"
       transform="translate(-550,5)">
      <path
         id="rect4026"
         transform="translate(550,897.36218)"
         d="M 25 110 L 25 120 L 35 120 L 35 115 L 33 115 C 31.338 115 30 113.662 30 112 L 30 110 L 25 110 z M 31.75 113.53125 C 32.094108 113.81157 32.519548 114 33 114 L 34 114 C 33.097087 114 32.299076 113.88886 31.75 113.53125 z "
         style="fill:url(#radialGradient4028);fill-opacity:1;stroke:none" />
      <path
         style="fill:#000000;fill-opacity:0.00392157;stroke:none;opacity:0.50000000000000000"
         d="M 31 110 L 31 111.875 L 31 112 C 31 112.17312 31.022432 112.33864 31.0625 112.5 C 31.095728 112.63382 31.160998 112.7529 31.21875 112.875 C 31.233633 112.90539 31.233665 112.93973 31.25 112.96875 C 31.278357 113.02204 31.310993 113.07471 31.34375 113.125 C 31.374072 113.16761 31.4041 113.21082 31.4375 113.25 C 31.797133 113.71804 32.332989 114.03819 32.96875 114.03125 L 35 114 L 35 113 L 35 110 L 32 110 L 31 110 z "
         transform="translate(550,897.36218)"
         id="path4162" />
      <path
         transform="translate(0,452.36218)"
         id="path4167"
         d="m 581,555 -1,0 0,2 c 0,1.662 1.338,3 3,3 l 2,0 0,-1 -1,0 -1,0 c -1.108,0 -2,-0.892 -2,-2 l 0,-1 0,-1 z"
         style="fill:#e6e6e6;fill-opacity:0.18309858000000001;stroke:none" />
    </g>
    <g
       id="left"
       transform="translate(-550,5)">
      <path
         id="rect4030"
         transform="translate(550,897.36218)"
         d="M 25 40 L 25 110 L 30 110 L 30 40 L 25 40 z "
         style="fill:url(#linearGradient4034);fill-opacity:1;stroke:none" />
      <path
         style="fill:#000000;fill-opacity:0.00392157;stroke:none;opacity:0.50000000000000000"
         d="M 31 40 L 31 110 L 32 110 L 35 110 L 35 40 L 32 40 L 31 40 z "
         transform="translate(550,897.36218)"
         id="path4160" />
      <path
         transform="translate(0,452.36218)"
         id="path4165"
         d="m 581,485 -1,0 0,70 1,0 0,-70 z"
         style="fill:#e6e6e6;fill-opacity:0.18309858000000001;stroke:none" />
    </g>
    <g
       id="topleft"
       transform="translate(-550,5)">
      <path
         id="rect4016"
         transform="translate(550,897.36218)"
         d="M 25 30 L 25 40 L 30 40 L 30 38 C 30 36.338 31.338 35 33 35 L 35 35 L 35 30 L 25 30 z M 33 36 C 32.519548 36 32.094108 36.188426 31.75 36.46875 C 32.299076 36.111138 33.097087 36 34 36 L 33 36 z "
         style="fill:url(#radialGradient4024);fill-opacity:1;stroke:none" />
      <path
         style="fill:#000000;fill-opacity:0.00392157;stroke:none;opacity:0.50000000000000000"
         d="M 32.84375 36 C 32.788092 36.000204 32.678814 36.014325 32.59375 36.03125 C 32.541578 36.041872 32.488085 36.047925 32.4375 36.0625 C 32.381441 36.079152 32.341771 36.101465 32.28125 36.125 C 32.238218 36.141421 32.197779 36.168258 32.15625 36.1875 C 32.120832 36.203988 32.098323 36.231022 32.0625 36.25 C 31.961552 36.303816 31.870851 36.367804 31.78125 36.4375 C 31.715746 36.488452 31.652338 36.535162 31.59375 36.59375 C 31.504364 36.677735 31.418877 36.768198 31.34375 36.875 C 31.270612 36.978973 31.208911 37.091257 31.15625 37.21875 C 31.115638 37.317074 31.087315 37.417952 31.0625 37.53125 C 31.026157 37.682526 31 37.837263 31 38 L 31 40 L 32 40 L 35 40 L 35 37 L 35 36 L 32.84375 36 z "
         transform="translate(550,897.36218)"
         id="path4074" />
      <path
         transform="translate(0,452.36218)"
         id="path4079"
         d="m 583,480 c -1.662,0 -3,1.338 -3,3 l 0,2 1,0 0,-1 0,-1 c 0,-1.108 0.892,-2 2,-2 l 1,0 1,0 0,-1 -2,0 z"
         style="fill:#e6e6e6;fill-opacity:0.18309858000000001;stroke:none" />
    </g>
    <g
       id="top"
       transform="matrix(0.19444444,0,0,1,-78.749997,5)">
      <path
         id="rect4048"
         transform="matrix(5.1428573,0,0,1,404.99999,897.36218)"
         d="M 35 30 L 35 35 L 70 35 L 70 30 L 35 30 z "
         style="fill:url(#linearGradient3942);fill-opacity:1;stroke:none" />
      <path
         style="fill:#000000;fill-opacity:0.00392157;stroke:none;opacity:0.50000000000000000"
         d="M 35 36 L 35 37 L 35 40 L 70 40 L 70 37 L 70 36 L 35 36 z "
         transform="matrix(5.1428573,0,0,1,404.99999,897.36218)"
         id="rect3606" />
      <path
         transform="translate(0,452.36218)"
         id="rect3645"
         d="m 585,480 0,1 180,0 0,-1 -180,0 z"
         style="fill:#e6e6e6;fill-opacity:0.18309858000000001;stroke:none" />
    </g>
    <rect
       style="fill:#008000;fill-opacity:1;stroke:none"
       id="shadow-hint-right-margin"
       width="5"
       height="2"
       x="75"
       y="78"
       transform="translate(0,902.36218)" />
    <rect
       y="53"
       x="-937.36218"
       height="2"
       width="5"
       id="shadow-hint-top-margin"
       style="fill:#008000;fill-opacity:1;stroke:none"
       transform="matrix(0,-1,1,0,0,0)" />
    <rect
       transform="scale(-1,-1)"
       style="fill:#008000;fill-opacity:1;stroke:none"
       id="shadow-hint-left-margin"
       width="5"
       height="2"
       x="-30"
       y="-982.36218" />
    <rect
       y="53"
       x="-1022.3622"
       height="2"
       width="5"
       id="shadow-hint-bottom-margin"
       style="fill:#008000;fill-opacity:1;stroke:none"
       transform="matrix(0,-1,1,0,0,0)" />
    <path
       id="mask-center"
       d="m -57,1012.3622 0,32 31.999999,0 0,-32 -31.999999,0 z"
       style="fill:#000000;fill-opacity:1;stroke:none"
       inkscape:connector-curvature="0" />
    <g
       transform="matrix(-0.55545944,0,0,0.99999997,-78.879314,950.36218)"
       id="mask-right">
      <path
         style="fill:#000000;fill-opacity:0;fill-rule:nonzero;stroke:none"
         d="M -96.999554,61.999999 -96.999554,94 -115,94 c -0.006,-0.05339 0,-0.100037 0,-0.153846 l 0,-31.692308 c 0,-0.05381 -0.006,-0.100456 0,-0.153847 l 18.000446,0 z"
         id="path3487"
         inkscape:connector-curvature="0" />
      <path
         sodipodi:nodetypes="cccsscc"
         id="path3489"
         d="m -96.999552,61.999999 0,32.000001 -9.000218,3e-6 c -0.003,-0.05339 0,-0.100037 0,-0.153846 l 0,-31.692308 c 0,-0.05381 -0.003,-0.100456 0,-0.153847 z"
         style="fill:#000000;fill-opacity:1;fill-rule:nonzero;stroke:none"
         inkscape:connector-curvature="0" />
    </g>
    <g
       id="mask-top"
       transform="matrix(0,0.55554117,0.99999988,0,-118.99999,1066.2494)">
      <path
         id="path3493"
         d="m -97,62 0,32 -18,0 c 0,0 0,0 0,0 l 0,-32 c 0,0 0,0 0,0 l 18,0 z"
         style="fill:#000000;fill-opacity:0;fill-rule:nonzero;stroke:none"
         inkscape:connector-curvature="0" />
      <path
         sodipodi:nodetypes="ccccc"
         style="fill:#000000;fill-opacity:1;fill-rule:nonzero;stroke:none"
         d="m -97,62 0,32 -8.99974,-4e-6 0,-32 z"
         id="path3495"
         inkscape:connector-curvature="0" />
    </g>
    <g
       id="mask-topright"
       transform="matrix(1,0,0,0.99994123,-100.98718,83.054623)">
      <g
         id="g3956">
        <path
           inkscape:connector-curvature="0"
           style="opacity:0;fill:#000000;fill-opacity:1;fill-rule:nonzero;stroke:none"
           d="m 75.987184,929.36218 10,0 0,-9.99881 c -0.01667,-0.004 -0.03127,0 -0.04807,0 l -9.903853,0 c -0.0168,0 -0.0314,-0.004 -0.04807,0 l 0,9.99881 z"
           id="path3505" />
        <path
           inkscape:connector-curvature="0"
           id="path3507"
           d="m 80.98718,927.36218 c 0.01657,-1.27069 -1,-3 -3,-3 l -2,0 0,5 5,0 z"
           style="fill:#000000;fill-opacity:1;fill-rule:nonzero;stroke:none"
           sodipodi:nodetypes="cccccc" />
      </g>
    </g>
    <g
       transform="matrix(-1,0,0,0.99994123,18.987184,83.054623)"
       id="mask-topleft">
      <g
         id="g3967">
        <path
           id="path3969"
           d="m 75.987184,929.36218 10,0 0,-9.99881 c -0.01667,-0.004 -0.03127,0 -0.04807,0 l -9.903853,0 c -0.0168,0 -0.0314,-0.004 -0.04807,0 l 0,9.99881 z"
           style="opacity:0;fill:#000000;fill-opacity:1;fill-rule:nonzero;stroke:none"
           inkscape:connector-curvature="0" />
        <path
           sodipodi:nodetypes="cccccc"
           style="fill:#000000;fill-opacity:1;fill-rule:nonzero;stroke:none"
           d="m 80.987184,927.36214 c 0.01657,-1.27069 -1,-3 -3,-3 l -2,0 0,5 5,0 z"
           id="path3971"
           inkscape:connector-curvature="0" />
      </g>
    </g>
    <g
       transform="matrix(0,-0.55554117,0.99999988,0,-118.99999,990.47493)"
       id="mask-bottom">
      <path
         inkscape:connector-curvature="0"
         style="fill:#000000;fill-opacity:0;fill-rule:nonzero;stroke:none"
         d="m -97,62 0,32 -18,0 c 0,0 0,0 0,0 l 0,-32 c 0,0 0,0 0,0 l 18,0 z"
         id="path3975" />
      <path
         inkscape:connector-curvature="0"
         id="path3977"
         d="m -97,62 0,32 -8.99974,-4e-6 0,-32 z"
         style="fill:#000000;fill-opacity:1;fill-rule:nonzero;stroke:none"
         sodipodi:nodetypes="ccccc" />
    </g>
    <g
       transform="matrix(1,0,0,-0.99993723,-100.98718,1973.6667)"
       id="mask-bottomright">
      <g
         id="g3981">
        <path
           id="path3983"
           d="m 75.987184,929.36218 10,0 0,-9.99881 c -0.01667,-0.004 -0.03127,0 -0.04807,0 l -9.903853,0 c -0.0168,0 -0.0314,-0.004 -0.04807,0 l 0,9.99881 z"
           style="opacity:0;fill:#000000;fill-opacity:1;fill-rule:nonzero;stroke:none"
           inkscape:connector-curvature="0" />
        <path
           sodipodi:nodetypes="cccccc"
           style="fill:#000000;fill-opacity:1;fill-rule:nonzero;stroke:none"
           d="m 80.98718,927.36222 c 0.01657,-1.27069 -1,-3 -3,-3 l -2,0 0,5 5,0 z"
           id="path3985"
           inkscape:connector-curvature="0" />
      </g>
    </g>
    <g
       id="mask-bottomleft"
       transform="matrix(-1,0,0,-0.99993723,18.987184,1973.6661)">
      <g
         id="g3989">
        <path
           inkscape:connector-curvature="0"
           style="opacity:0;fill:#000000;fill-opacity:1;fill-rule:nonzero;stroke:none"
           d="m 75.987184,929.36218 10,0 0,-9.99881 c -0.01667,-0.004 -0.03127,0 -0.04807,0 l -9.903853,0 c -0.0168,0 -0.0314,-0.004 -0.04807,0 l 0,9.99881 z"
           id="path3991" />
        <path
           inkscape:connector-curvature="0"
           id="path3993"
           d="m 80.987184,927.36222 c 0.01657,-1.27069 -1,-3 -3,-3 l -2,0 0,5 5,0 z"
           style="fill:#000000;fill-opacity:1;fill-rule:nonzero;stroke:none"
           sodipodi:nodetypes="cccccc" />
      </g>
    </g>
    <g
       id="mask-left"
       transform="matrix(0.55545944,0,0,0.99999997,-3.1206832,950.36218)">
      <path
         inkscape:connector-curvature="0"
         id="path3997"
         d="M -96.999554,61.999999 -96.999554,94 -115,94 c -0.006,-0.05339 0,-0.100037 0,-0.153846 l 0,-31.692308 c 0,-0.05381 -0.006,-0.100456 0,-0.153847 l 18.000446,0 z"
         style="fill:#000000;fill-opacity:0;fill-rule:nonzero;stroke:none" />
      <path
         inkscape:connector-curvature="0"
         style="fill:#000000;fill-opacity:1;fill-rule:nonzero;stroke:none"
         d="m -96.999552,61.999999 0,32.000001 -9.000218,3e-6 c -0.003,-0.05339 0,-0.100037 0,-0.153846 l 0,-31.692308 c 0,-0.05381 -0.003,-0.100456 0,-0.153847 z"
         id="path3999"
         sodipodi:nodetypes="cccsscc" />
    </g>
    <rect
       y="907.36218"
       x="15"
       height="5.0000005"
       width="5"
       id="hint-compose-over-border"
       style="fill:#008000;fill-opacity:1;stroke:none"
       inkscape:export-filename="/home/diau/svn/playground-plasma/desktoptheme/air/widgets/image2579.png"
       inkscape:export-xdpi="90"
       inkscape:export-ydpi="90" />
    <rect
       style="fill:#111111;fill-opacity:0.47058824;stroke:#000000;stroke-width:0.21000451;stroke-miterlimit:4;stroke-opacity:1;stroke-dasharray:none;enable-background:new"
       width="201.60678"
       rx="3.6782942"
       transform="scale(-1,1)"
       y="832.87793"
       ry="3.0104074"
       x="-142.12251"
       height="36"
       id="button-normal" />
    <rect
       style="fill:url(#linearGradient3953);fill-opacity:1;stroke:#000000;stroke-width:0.20000000000000001;stroke-linecap:round;stroke-linejoin:round;stroke-miterlimit:4;stroke-opacity:1;stroke-dasharray:none;stroke-dashoffset:4.15000000000000036;enable-background:new"
       id="button-small-hover"
       width="85"
       rx="2.9077799"
       ry="2.7367342"
       y="832.87793"
       x="212.01573"
       height="20" />
    <rect
       style="fill:url(#radialGradient3962);fill-opacity:1;stroke:#000000;stroke-width:0.2;stroke-linecap:round;stroke-linejoin:round;stroke-miterlimit:4;stroke-opacity:1;stroke-dasharray:none;stroke-dashoffset:4.15;enable-background:new"
       id="button-small-normal"
       width="85"
       rx="2.9077799"
       ry="2.7367342"
       y="810.37793"
       x="211.76573"
       height="20" />
    <rect
       style="fill:url(#radialGradient4360);fill-opacity:1;stroke:#f7f7f7;stroke-width:0.20999999999999999;stroke-miterlimit:4;stroke-opacity:1;stroke-dasharray:none;enable-background:new"
       id="button-hover"
       width="200.9249"
       rx="3.6658533"
       transform="scale(-1,1)"
       y="794.37793"
       ry="3.0104074"
       x="-141.81926"
       height="36" />
  </g>
</svg>
