<?xml version="1.0" encoding="UTF-8" standalone="no"?>
<!-- Created with Inkscape (http://www.inkscape.org/) -->

<svg
   xmlns:dc="http://purl.org/dc/elements/1.1/"
   xmlns:cc="http://creativecommons.org/ns#"
   xmlns:rdf="http://www.w3.org/1999/02/22-rdf-syntax-ns#"
   xmlns:svg="http://www.w3.org/2000/svg"
   xmlns="http://www.w3.org/2000/svg"
   xmlns:sodipodi="http://sodipodi.sourceforge.net/DTD/sodipodi-0.dtd"
   xmlns:inkscape="http://www.inkscape.org/namespaces/inkscape"
   id="svg3738"
   height="24"
   width="24"
   version="1.1"
   inkscape:version="0.91 r13725"
   sodipodi:docname="fcitx.svgz">
  <defs
     id="defs8" />
  <sodipodi:namedview
     pagecolor="#969696"
     bordercolor="#666666"
     borderopacity="1"
     objecttolerance="10"
     gridtolerance="10"
     guidetolerance="10"
     inkscape:pageopacity="0.58823529"
     inkscape:pageshadow="2"
     inkscape:window-width="1548"
     inkscape:window-height="841"
     id="namedview6"
     showgrid="false"
     inkscape:zoom="7.5853275"
     inkscape:cx="-28.07571"
     inkscape:cy="-1.5266334"
     inkscape:window-x="52"
     inkscape:window-y="30"
     inkscape:window-maximized="1"
     inkscape:current-layer="svg3738"
     inkscape:snap-grids="true"
     inkscape:snap-to-guides="true"
     showguides="false"
     inkscape:guide-bbox="true"
     inkscape:snap-bbox="true"
     inkscape:snap-smooth-nodes="true"
     inkscape:object-nodes="true">
    <inkscape:grid
       type="xygrid"
       id="grid2985"
       empspacing="5"
       visible="true"
       enabled="true"
       snapvisiblegridlinesonly="true" />
  </sodipodi:namedview>
  <metadata
     id="metadata13">
    <rdf:RDF>
      <cc:Work
         rdf:about="">
        <dc:format>image/svg+xml</dc:format>
        <dc:type
           rdf:resource="http://purl.org/dc/dcmitype/StillImage" />
        <dc:title></dc:title>
      </cc:Work>
    </rdf:RDF>
  </metadata>
  <g
     transform="translate(28,0)"
     id="fcitx"
     inkscape:label="#fcitx">
    <rect
       y="0"
       x="-28"
       height="24"
       width="24"
       id="rect2991-8-0"
       style="opacity:0.01000001;fill:#000000;fill-opacity:0.00392157;stroke:none" />
    <g
       transform="translate(0,-2)"
       id="g4939">
      <path
         inkscape:connector-curvature="0"
         d="m -23,9 c -0.554,0 -1,0.446 -1,1 l 0,10 c 0,0.554 0.446,1 1,1 l 14,0 c 0.554,0 1,-0.446 1,-1 L -8,10 C -8,9.446 -8.446,9 -9,9 Z m 1.0002,2 2,0 0,2 -2,0 z m 3,0 2,0 0,2 -2,0 z m 3,0 2,0 0,2 -2,0 z m 3,0 2,0 0,2 -2,0 z m -8,3 2,0 0,2 -2,0 z m 3,0 2,0 0,2 -2,0 z m 3,0 2,0 0,2 -2,0 z m 3,0 2,0 0,2 -2,0 z m -10,3 2,0 0,2 -2,0 z m 3,0 6,0 0,2 -6,0 z m 7,0 3,0 0,2 -3,0 z"
         id="rect4890-1"
         sodipodi:nodetypes="sssssssssccccccccccccccccccccccccccccccccccccccccccccccccccccccc"
         style="color:#bebebe;display:inline;overflow:visible;visibility:visible;opacity:0.3;fill:#000000;fill-opacity:1;fill-rule:nonzero;stroke:none;stroke-width:3;marker:none;enable-background:accumulate" />
      <path
         inkscape:connector-curvature="0"
         d="m -23,8 c -0.554,0 -1,0.446 -1,1 l 0,10 c 0,0.554 0.446,1 1,1 l 14,0 c 0.554,0 1,-0.446 1,-1 L -8,9 C -8,8.446 -8.446,8 -9,8 Z m 1.0002,2 2,0 0,2 -2,0 z m 3,0 2,0 0,2 -2,0 z m 3,0 2,0 0,2 -2,0 z m 3,0 2,0 0,2 -2,0 z m -8,3 2,0 0,2 -2,0 z m 3,0 2,0 0,2 -2,0 z m 3,0 2,0 0,2 -2,0 z m 3,0 2,0 0,2 -2,0 z m -10,3 2,0 0,2 -2,0 z m 3,0 6,0 0,2 -6,0 z m 7,0 3,0 0,2 -3,0 z"
         id="rect4890"
         sodipodi:nodetypes="sssssssssccccccccccccccccccccccccccccccccccccccccccccccccccccccc"
         style="color:#bebebe;display:inline;overflow:visible;visibility:visible;fill:#ebebeb;fill-opacity:1;fill-rule:nonzero;stroke:none;stroke-width:3;marker:none;enable-background:accumulate" />
    </g>
  </g>
</svg>
