<?xml version="1.0" encoding="UTF-8" standalone="no"?>
<!-- Created with Inkscape (http://www.inkscape.org/) -->

<svg
   xmlns:dc="http://purl.org/dc/elements/1.1/"
   xmlns:cc="http://creativecommons.org/ns#"
   xmlns:rdf="http://www.w3.org/1999/02/22-rdf-syntax-ns#"
   xmlns:svg="http://www.w3.org/2000/svg"
   xmlns="http://www.w3.org/2000/svg"
   xmlns:xlink="http://www.w3.org/1999/xlink"
   xmlns:sodipodi="http://sodipodi.sourceforge.net/DTD/sodipodi-0.dtd"
   xmlns:inkscape="http://www.inkscape.org/namespaces/inkscape"
   id="svg3215"
   height="24"
   width="24"
   version="1.0"
   inkscape:version="0.91 r13725"
   sodipodi:docname="kaffeine.svgz">
  <defs
     id="defs9">
    <radialGradient
       inkscape:collect="always"
       xlink:href="#linearGradient16006"
       id="radialGradient3021"
       gradientUnits="userSpaceOnUse"
       gradientTransform="matrix(1.4118279,-0.66865338,0.59646688,1.2594097,-10.697853,3.869394)"
       cx="8.0929317"
       cy="18.634663"
       fx="8.0929317"
       fy="18.634663"
       r="10" />
    <linearGradient
       id="linearGradient16006">
      <stop
         style="stop-color:#ffffff;stop-opacity:0.92086333;"
         offset="0"
         id="stop16008" />
      <stop
         id="stop16016"
         offset="0.25"
         style="stop-color:#ffffff;stop-opacity:0.88489211;" />
      <stop
         id="stop16014"
         offset="0.5"
         style="stop-color:#ffffff;stop-opacity:0.39215687;" />
      <stop
         style="stop-color:#ffffff;stop-opacity:0.89928055;"
         offset="1"
         id="stop16010" />
    </linearGradient>
    <linearGradient
       id="linearGradient16121">
      <stop
         style="stop-color:#ffffff;stop-opacity:0.74100721;"
         offset="0"
         id="stop16123" />
      <stop
         style="stop-color:#ffffff;stop-opacity:0.35251799;"
         offset="1"
         id="stop16125" />
    </linearGradient>
    <radialGradient
       inkscape:collect="always"
       xlink:href="#linearGradient16121"
       id="radialGradient3011"
       gradientUnits="userSpaceOnUse"
       gradientTransform="matrix(1.4962962,1.0267033,-0.82996344,1.2095717,31.749309,-12.763909)"
       cx="10.322598"
       cy="10.69008"
       fx="10.322598"
       fy="10.69008"
       r="7.4207759" />
    <linearGradient
       id="linearGradient3050">
      <stop
         style="stop-color:#ffffff;stop-opacity:0.74100721;"
         offset="0"
         id="stop3052" />
      <stop
         style="stop-color:#ffffff;stop-opacity:0.35251799;"
         offset="1"
         id="stop3054" />
    </linearGradient>
  </defs>
  <sodipodi:namedview
     pagecolor="#969696"
     bordercolor="#666666"
     borderopacity="1"
     objecttolerance="10"
     gridtolerance="10"
     guidetolerance="10"
     inkscape:pageopacity="0.58823529"
     inkscape:pageshadow="2"
     inkscape:window-width="1309"
     inkscape:window-height="711"
     id="namedview7"
     showgrid="false"
     inkscape:zoom="15.170655"
     inkscape:cx="2.1515536"
     inkscape:cy="10.163417"
     inkscape:window-x="54"
     inkscape:window-y="30"
     inkscape:window-maximized="0"
     inkscape:current-layer="svg3215">
    <inkscape:grid
       type="xygrid"
       id="grid2986"
       empspacing="5"
       visible="true"
       enabled="true"
       snapvisiblegridlinesonly="true" />
  </sodipodi:namedview>
  <metadata
     id="metadata12">
    <rdf:RDF>
      <cc:Work
         rdf:about="">
        <dc:format>image/svg+xml</dc:format>
        <dc:type
           rdf:resource="http://purl.org/dc/dcmitype/StillImage" />
        <dc:title />
      </cc:Work>
    </rdf:RDF>
  </metadata>
  <g
     id="kaffeine">
    <rect
       y="0"
       x="0"
       height="24"
       width="24"
       id="rect2991"
       style="opacity:0.01000001;fill:#000000;fill-opacity:0.00392157;stroke:none" />
    <path
       id="path3-6"
       d="M 20,5.5 H 4 c -0.532,0 -1,0.467 -1,1 v 13 c 0,0.533 0.468,1 1,1 h 16 c 0.533,0 1,-0.467 1,-1 v -13 c 0,-0.533 -0.467,-1 -1,-1 z m -14.5,14 h -1 v -1 h 1 v 1 z m 0,-2 h -1 v -1 h 1 v 1 z m 0,-2 h -1 v -1 h 1 v 1 z m 0,-2 h -1 v -1 h 1 v 1 z m 0,-2 h -1 v -1 h 1 v 1 z m 0,-2 h -1 v -1 h 1 v 1 z m 0,-2 h -1 v -1 h 1 v 1 z m 8.767,6.741 c -0.61,0.431 -1.226,0.85 -1.849,1.259 -0.621,0.408 -1.226,0.785 -1.815,1.129 C 10.015,16.973 9.479,17.263 9,17.5 v -9 c 0.458,0.236 0.981,0.527 1.57,0.871 0.588,0.343 1.194,0.715 1.816,1.113 0.62,0.398 1.242,0.812 1.863,1.242 0.622,0.429 1.205,0.849 1.75,1.257 -0.544,0.41 -1.122,0.829 -1.732,1.258 z M 19.5,19.5 h -1 v -1 h 1 v 1 z m 0,-2 h -1 v -1 h 1 v 1 z m 0,-2 h -1 v -1 h 1 v 1 z m 0,-2 h -1 v -1 h 1 v 1 z m 0,-2 h -1 v -1 h 1 v 1 z m 0,-2 h -1 v -1 h 1 v 1 z m 0,-2 h -1 v -1 h 1 v 1 z"
       inkscape:connector-curvature="0"
       style="opacity:0.3;fill:#000000;fill-opacity:1" />
    <path
       id="path3"
       d="M 20,4.5 H 4 c -0.532,0 -1,0.467 -1,1 v 13 c 0,0.533 0.468,1 1,1 h 16 c 0.533,0 1,-0.467 1,-1 v -13 c 0,-0.533 -0.467,-1 -1,-1 z m -14.5,14 h -1 v -1 h 1 v 1 z m 0,-2 h -1 v -1 h 1 v 1 z m 0,-2 h -1 v -1 h 1 v 1 z m 0,-2 h -1 v -1 h 1 v 1 z m 0,-2 h -1 v -1 h 1 v 1 z m 0,-2 h -1 v -1 h 1 v 1 z m 0,-2 h -1 v -1 h 1 v 1 z m 8.767,6.741 c -0.61,0.431 -1.226,0.85 -1.849,1.259 -0.621,0.408 -1.226,0.785 -1.815,1.129 C 10.015,15.973 9.479,16.263 9,16.5 v -9 c 0.458,0.236 0.981,0.527 1.57,0.871 0.588,0.343 1.194,0.715 1.816,1.113 0.62,0.398 1.242,0.812 1.863,1.242 0.622,0.429 1.205,0.849 1.75,1.257 -0.544,0.41 -1.122,0.829 -1.732,1.258 z M 19.5,18.5 h -1 v -1 h 1 v 1 z m 0,-2 h -1 v -1 h 1 v 1 z m 0,-2 h -1 v -1 h 1 v 1 z m 0,-2 h -1 v -1 h 1 v 1 z m 0,-2 h -1 v -1 h 1 v 1 z m 0,-2 h -1 v -1 h 1 v 1 z m 0,-2 h -1 v -1 h 1 v 1 z"
       inkscape:connector-curvature="0"
       style="fill:#ebebeb;fill-opacity:1" />
  </g>
</svg>
