<?xml version="1.0" encoding="UTF-8" standalone="no"?>
<!-- Created with Inkscape (http://www.inkscape.org/) -->

<svg
   xmlns:dc="http://purl.org/dc/elements/1.1/"
   xmlns:cc="http://creativecommons.org/ns#"
   xmlns:rdf="http://www.w3.org/1999/02/22-rdf-syntax-ns#"
   xmlns:svg="http://www.w3.org/2000/svg"
   xmlns="http://www.w3.org/2000/svg"
   xmlns:xlink="http://www.w3.org/1999/xlink"
   xmlns:sodipodi="http://sodipodi.sourceforge.net/DTD/sodipodi-0.dtd"
   xmlns:inkscape="http://www.inkscape.org/namespaces/inkscape"
   id="svg3738"
   height="24"
   width="24"
   version="1.1"
   inkscape:version="0.91 r13725"
   sodipodi:docname="kmess.svgz">
  <defs
     id="defs8">
    <linearGradient
       id="linearGradient4082-8">
      <stop
         style="stop-color:#282828;stop-opacity:0.60217983;"
         offset="0"
         id="stop4084-8" />
      <stop
         id="stop3846"
         offset="0.64731497"
         style="stop-color:#1e1e1e;stop-opacity:0.78610355;" />
      <stop
         style="stop-color:#141414;stop-opacity:0.68627453;"
         offset="1"
         id="stop4090-8" />
    </linearGradient>
    <radialGradient
       inkscape:collect="always"
       xlink:href="#linearGradient3952-0"
       id="radialGradient3958-3"
       cx="8.9466743"
       cy="110.68961"
       fx="8.9466743"
       fy="110.68961"
       r="10"
       gradientTransform="matrix(1.643958,0,0,1.1982826,-5.761283,-21.3134)"
       gradientUnits="userSpaceOnUse" />
    <linearGradient
       id="linearGradient3952-0">
      <stop
         style="stop-color:#ffffff;stop-opacity:0.91366905;"
         offset="0"
         id="stop3954-20" />
      <stop
         id="stop3960-7"
         offset="0.5"
         style="stop-color:#ffffff;stop-opacity:0.84892088;" />
      <stop
         style="stop-color:#ffffff;stop-opacity:0.3543956;"
         offset="0.75"
         id="stop3962-4" />
      <stop
         style="stop-color:#ffffff;stop-opacity:0.84892088;"
         offset="1"
         id="stop3956-7" />
    </linearGradient>
  </defs>
  <sodipodi:namedview
     pagecolor="#969696"
     bordercolor="#666666"
     borderopacity="1"
     objecttolerance="10"
     gridtolerance="10"
     guidetolerance="10"
     inkscape:pageopacity="0.58823529"
     inkscape:pageshadow="2"
     inkscape:window-width="1546"
     inkscape:window-height="841"
     id="namedview6"
     showgrid="false"
     inkscape:zoom="10.727272"
     inkscape:cx="3.2848989"
     inkscape:cy="9.1219874"
     inkscape:window-x="54"
     inkscape:window-y="30"
     inkscape:window-maximized="1"
     inkscape:current-layer="svg3738">
    <inkscape:grid
       type="xygrid"
       id="grid2985"
       empspacing="5"
       visible="true"
       enabled="true"
       snapvisiblegridlinesonly="true" />
  </sodipodi:namedview>
  <metadata
     id="metadata13">
    <rdf:RDF>
      <cc:Work
         rdf:about="">
        <dc:format>image/svg+xml</dc:format>
        <dc:type
           rdf:resource="http://purl.org/dc/dcmitype/StillImage" />
        <dc:title />
      </cc:Work>
    </rdf:RDF>
  </metadata>
  <g
     id="kmess"
     transform="matrix(-1,0,0,1,24,0)">
    <rect
       y="0"
       x="0"
       height="24"
       width="24"
       id="rect2991"
       style="opacity:0.01000001;fill:#000000;fill-opacity:0.00392157;stroke:none" />
    <g
       id="g3007">
      <path
         style="opacity:0.3;fill:#000000;fill-opacity:1;fill-rule:evenodd;stroke:none"
         d="m 12.050966,5.0103658 c -0.224224,0.01119 -0.447811,0.0308 -0.674606,0.0578 C 6.538068,5.6437898 2.969655,9.628659 3.421629,13.969095 3.601608,15.697484 4.395869,17.246819 5.58599,18.419559 5.105493,19.580376 4.257022,20.421253 3,20.58699 c 1.987218,0.76217 4.276526,0.328655 5.930912,-0.173394 1.254711,0.40837 2.638464,0.546688 4.075746,0.375688 4.83829,-0.575615 8.406704,-4.560502 7.954731,-8.900928 -0.36723,-3.5265992 -3.271858,-6.1907462 -6.942822,-6.7623942 -0.635359,-0.09894 -1.29493,-0.14911 -1.967601,-0.115596 z"
         id="rect2909-5-3"
         inkscape:connector-curvature="0" />
      <path
         style="fill:#ebebeb;fill-opacity:1;fill-rule:evenodd;stroke:none"
         d="m 12.050966,4.0103658 c -0.224224,0.01119 -0.447811,0.030795 -0.674606,0.057798 C 6.538068,4.6437882 2.969655,8.6286575 3.421629,12.969093 3.601608,14.697482 4.395869,16.246817 5.58599,17.419557 5.105493,18.580376 4.257022,19.421253 3,19.58699 c 1.987218,0.76217 4.276526,0.328655 5.930912,-0.173394 1.254711,0.40837 2.638464,0.546688 4.075746,0.375688 4.83829,-0.575615 8.406704,-4.560502 7.954731,-8.900928 C 20.594159,7.3617572 17.689531,4.69761 14.018567,4.1259623 13.383208,4.027021 12.723637,3.9768521 12.050966,4.0103658 z"
         id="rect2909-5"
         inkscape:connector-curvature="0" />
    </g>
  </g>
</svg>
