<?xml version="1.0" encoding="UTF-8" standalone="no"?>
<!-- Created with Inkscape (http://www.inkscape.org/) -->

<svg
   xmlns:dc="http://purl.org/dc/elements/1.1/"
   xmlns:cc="http://creativecommons.org/ns#"
   xmlns:rdf="http://www.w3.org/1999/02/22-rdf-syntax-ns#"
   xmlns:svg="http://www.w3.org/2000/svg"
   xmlns="http://www.w3.org/2000/svg"
   xmlns:xlink="http://www.w3.org/1999/xlink"
   xmlns:sodipodi="http://sodipodi.sourceforge.net/DTD/sodipodi-0.dtd"
   xmlns:inkscape="http://www.inkscape.org/namespaces/inkscape"
   id="svg3738"
   height="24"
   width="24"
   version="1.1"
   inkscape:version="0.91 r13725"
   sodipodi:docname="konversation.svgz">
  <defs
     id="defs8">
    <linearGradient
       id="linearGradient4082-8">
      <stop
         style="stop-color:#282828;stop-opacity:0.60217983;"
         offset="0"
         id="stop4084-8" />
      <stop
         id="stop3846"
         offset="0.64731497"
         style="stop-color:#1e1e1e;stop-opacity:0.78610355;" />
      <stop
         style="stop-color:#141414;stop-opacity:0.68627453;"
         offset="1"
         id="stop4090-8" />
    </linearGradient>
    <radialGradient
       inkscape:collect="always"
       xlink:href="#linearGradient3952-0"
       id="radialGradient3958-3"
       cx="8.9466743"
       cy="110.68961"
       fx="8.9466743"
       fy="110.68961"
       r="10"
       gradientTransform="matrix(1.643958,0,0,1.1982826,-5.761283,-21.3134)"
       gradientUnits="userSpaceOnUse" />
    <linearGradient
       id="linearGradient3952-0">
      <stop
         style="stop-color:#ffffff;stop-opacity:0.91366905;"
         offset="0"
         id="stop3954-20" />
      <stop
         id="stop3960-7"
         offset="0.5"
         style="stop-color:#ffffff;stop-opacity:0.84892088;" />
      <stop
         style="stop-color:#ffffff;stop-opacity:0.3543956;"
         offset="0.75"
         id="stop3962-4" />
      <stop
         style="stop-color:#ffffff;stop-opacity:0.84892088;"
         offset="1"
         id="stop3956-7" />
    </linearGradient>
  </defs>
  <sodipodi:namedview
     pagecolor="#969696"
     bordercolor="#666666"
     borderopacity="1"
     objecttolerance="10"
     gridtolerance="10"
     guidetolerance="10"
     inkscape:pageopacity="0.58823529"
     inkscape:pageshadow="2"
     inkscape:window-width="1546"
     inkscape:window-height="841"
     id="namedview6"
     showgrid="false"
     inkscape:zoom="10.727272"
     inkscape:cx="3.2848989"
     inkscape:cy="6.4853179"
     inkscape:window-x="54"
     inkscape:window-y="30"
     inkscape:window-maximized="1"
     inkscape:current-layer="svg3738">
    <inkscape:grid
       type="xygrid"
       id="grid2985"
       empspacing="5"
       visible="true"
       enabled="true"
       snapvisiblegridlinesonly="true" />
  </sodipodi:namedview>
  <metadata
     id="metadata13">
    <rdf:RDF>
      <cc:Work
         rdf:about="">
        <dc:format>image/svg+xml</dc:format>
        <dc:type
           rdf:resource="http://purl.org/dc/dcmitype/StillImage" />
        <dc:title />
      </cc:Work>
    </rdf:RDF>
  </metadata>
  <g
     id="konversation"
     transform="translate(1,-1)">
    <rect
       y="1"
       x="-1"
       height="24"
       width="24"
       id="rect2991"
       style="opacity:0.01000001;fill:#000000;fill-opacity:0.00392157;stroke:none" />
    <path
       d="M 14.895833,9.6440248 9.8195436,11.643317 c -0.03022,0.01202 -0.057944,0.02691 -0.090047,0.04254 l -3.2748555,-1.76e-4 c -0.2641622,-9e-6 -0.4935715,0.167291 -0.613521,0.437408 -0.3589336,0.04013 -0.6416377,0.408666 -0.6418302,0.871329 l -6.548e-4,1.572704 c -1.907e-4,0.462663 0.2822022,0.831231 0.6411034,0.871394 0.1197255,0.270135 0.3489809,0.453416 0.6131442,0.453425 l 0.9509464,5.5e-5 -7.269e-4,1.742733 c -2.032e-4,0.489611 0.3141003,0.885552 0.7029946,0.88557 l 0.3802728,10e-6 c 0.3888915,1.8e-5 0.7035269,-0.395877 0.7037302,-0.885497 l 7.268e-4,-1.742723 0.6302119,2.8e-5 c 0.019424,0.01119 0.036805,0.02432 0.056258,0.03542 L 14.892302,18.131 c 0.37916,2.8e-5 0.686641,-0.383577 0.686842,-0.864245 l 0.0011,-1.598847 0.02275,0 c 0.785917,3.7e-5 1.421762,-0.800039 1.422179,-1.789508 l 6.4e-5,-0.0028 c 3.5e-4,-0.989469 -0.634835,-1.789628 -1.420751,-1.789665 l -0.02274,0 2.94e-4,-1.57042 C 15.582214,10.03488 15.275053,9.6441638 14.895893,9.6441458 z m -3.844867,-3.633659 c -0.224224,0.01119 -0.447811,0.0308 -0.674606,0.0578 C 5.5380682,6.6437898 1.9696553,10.628659 2.4216289,14.969095 2.6016083,16.697484 3.395869,18.246819 4.5859902,19.419559 4.1054926,20.580376 3.2570224,21.421253 2,21.58699 c 1.9872179,0.76217 4.2765263,0.328655 5.9309124,-0.173394 1.2547107,0.40837 2.6384636,0.546688 4.0757456,0.375688 4.83829,-0.575615 8.406704,-4.560502 7.954731,-8.900928 -0.36723,-3.5265992 -3.271858,-6.1907462 -6.942822,-6.7623942 -0.635359,-0.09894 -1.29493,-0.14911 -1.967601,-0.115596 z"
       style="opacity:0.3;fill:#000000;fill-opacity:1;fill-rule:evenodd;stroke:none"
       id="rect2909-5-3"
       inkscape:connector-curvature="0" />
    <path
       inkscape:connector-curvature="0"
       d="M 14.895833,8.6440253 9.8195436,10.643317 c -0.03022,0.01202 -0.057944,0.02691 -0.090047,0.04254 l -3.2748555,-1.76e-4 c -0.2641622,-9e-6 -0.4935715,0.167291 -0.613521,0.437408 -0.3589336,0.04013 -0.6416377,0.408666 -0.6418302,0.871329 l -6.548e-4,1.572704 c -1.907e-4,0.462663 0.2822022,0.831231 0.6411034,0.871394 0.1197255,0.270135 0.3489809,0.453416 0.6131442,0.453425 l 0.9509464,5.5e-5 -7.269e-4,1.742733 c -2.032e-4,0.489611 0.3141003,0.885552 0.7029946,0.88557 l 0.3802728,10e-6 c 0.3888915,1.8e-5 0.7035269,-0.395877 0.7037302,-0.885497 l 7.268e-4,-1.742723 0.6302119,2.8e-5 c 0.019424,0.01119 0.036805,0.02432 0.056258,0.03542 L 14.892302,17.131 c 0.37916,2.8e-5 0.686641,-0.383577 0.686842,-0.864245 l 0.0011,-1.598847 0.02275,0 c 0.785917,3.7e-5 1.421762,-0.800039 1.422179,-1.789508 l 6.4e-5,-0.0028 c 3.5e-4,-0.989469 -0.634835,-1.789628 -1.420751,-1.789665 l -0.02274,0 2.94e-4,-1.5704196 C 15.582214,9.03488 15.275053,8.644164 14.895893,8.6441455 z M 11.050966,5.0103658 c -0.224224,0.01119 -0.447811,0.030795 -0.674606,0.057798 C 5.5380682,5.6437882 1.9696553,9.6286575 2.4216289,13.969093 2.6016083,15.697482 3.395869,17.246817 4.5859902,18.419557 4.1054926,19.580376 3.2570224,20.421253 2,20.58699 c 1.9872179,0.76217 4.2765263,0.328655 5.9309124,-0.173394 1.2547107,0.40837 2.6384636,0.546688 4.0757456,0.375688 4.83829,-0.575615 8.406704,-4.560502 7.954731,-8.900928 C 19.594159,8.3617572 16.689531,5.69761 13.018567,5.1259623 12.383208,5.027021 11.723637,4.9768521 11.050966,5.0103658 z"
       style="fill:#ebebeb;fill-opacity:1;fill-rule:evenodd;stroke:none"
       id="rect2909-5" />
  </g>
</svg>
