<?xml version="1.0" encoding="UTF-8" standalone="no"?>
<!-- Created with Inkscape (http://www.inkscape.org/) -->

<svg
   xmlns:dc="http://purl.org/dc/elements/1.1/"
   xmlns:cc="http://creativecommons.org/ns#"
   xmlns:rdf="http://www.w3.org/1999/02/22-rdf-syntax-ns#"
   xmlns:svg="http://www.w3.org/2000/svg"
   xmlns="http://www.w3.org/2000/svg"
   xmlns:sodipodi="http://sodipodi.sourceforge.net/DTD/sodipodi-0.dtd"
   xmlns:inkscape="http://www.inkscape.org/namespaces/inkscape"
   id="svg3795"
   height="24"
   width="24"
   version="1.1"
   inkscape:version="0.91 r13725"
   sodipodi:docname="kopete.svgz">
  <defs
     id="defs9" />
  <sodipodi:namedview
     pagecolor="#969696"
     bordercolor="#666666"
     borderopacity="1"
     objecttolerance="10"
     gridtolerance="10"
     guidetolerance="10"
     inkscape:pageopacity="0.58823529"
     inkscape:pageshadow="2"
     inkscape:window-width="1546"
     inkscape:window-height="841"
     id="namedview7"
     showgrid="false"
     inkscape:zoom="8.0000001"
     inkscape:cx="21.151876"
     inkscape:cy="0.86415139"
     inkscape:window-x="54"
     inkscape:window-y="30"
     inkscape:window-maximized="1"
     inkscape:current-layer="svg3795"
     showguides="true"
     inkscape:guide-bbox="true">
    <inkscape:grid
       type="xygrid"
       id="grid2984"
       empspacing="5"
       visible="true"
       enabled="true"
       snapvisiblegridlinesonly="true" />
  </sodipodi:namedview>
  <metadata
     id="metadata3800">
    <rdf:RDF>
      <cc:Work
         rdf:about="">
        <dc:format>image/svg+xml</dc:format>
        <dc:type
           rdf:resource="http://purl.org/dc/dcmitype/StillImage" />
        <dc:title />
      </cc:Work>
    </rdf:RDF>
  </metadata>
  <g
     id="kopete">
    <rect
       y="0"
       x="0"
       height="24"
       width="24"
       id="rect2991"
       style="opacity:0.01000001;fill:#000000;fill-opacity:0.00392157;stroke:none" />
    <path
       sodipodi:nodetypes="ssscccss"
       inkscape:connector-curvature="0"
       id="path2892-7"
       d="M 12.115385,5.5 C 7.357239,5.5 3.5,8.4663372 3.5,12.884615 c 0,4.418279 3.857239,7.384616 8.615385,7.384616 1.310716,0 2.541653,-0.283034 3.653846,-0.769231 l 4.961538,2 -1.76923,-4.384615 c 1.111596,-1.347325 1.76923,-2.402382 1.76923,-4.23077 C 20.730769,8.4663372 16.87353,5.5 12.115385,5.5 z"
       style="opacity:0.3;fill:#000000;fill-opacity:1;stroke:none;display:inline" />
    <path
       sodipodi:nodetypes="ssscccss"
       inkscape:connector-curvature="0"
       id="path2892"
       d="M 12.115385,4.5 C 7.357239,4.5 3.5,7.4663372 3.5,11.884615 c 0,4.418279 3.857239,7.384616 8.615385,7.384616 1.310716,0 2.541653,-0.283034 3.653846,-0.769231 l 4.961538,2 -1.76923,-4.384615 c 1.111596,-1.347325 1.76923,-2.402382 1.76923,-4.23077 C 20.730769,7.4663372 16.87353,4.5 12.115385,4.5 z"
       style="fill:#ebebeb;fill-opacity:1;stroke:none;display:inline" />
  </g>
  <g
     id="kopete-offline">
    <rect
       y="0"
       x="28"
       height="24"
       width="24"
       id="rect2991-7"
       style="opacity:0.01000001;fill:#000000;fill-opacity:0.00392157;stroke:none" />
    <path
       id="path2892-1-8"
       d="M 40.115385,5.5 C 35.357239,5.5 31.5,8.4663372 31.5,12.884615 c 0,4.418279 3.857239,7.384616 8.615385,7.384616 1.310716,0 2.541653,-0.283034 3.653846,-0.769231 l 4.961538,2 -1.769231,-4.384615 c 1.111597,-1.347325 1.769231,-2.402382 1.769231,-4.23077 C 48.730769,8.4663372 44.87353,5.5 40.115385,5.5 z m -2.461539,2.4615385 2.461539,2.4615385 2.461538,-2.4615385 2.461539,2.4615385 -2.461539,2.461538 2.461539,2.461539 -2.461539,2.461538 -2.461538,-2.461538 -2.461539,2.461538 -2.461538,-2.461538 2.461538,-2.461539 -2.461538,-2.461538 2.461538,-2.4615385 z"
       style="opacity:0.3;fill:#000000;fill-opacity:1;stroke:none;display:inline"
       inkscape:connector-curvature="0" />
    <path
       id="path2892-1"
       d="M 40.115385,4.5 C 35.357239,4.5 31.5,7.4663372 31.5,11.884615 c 0,4.418279 3.857239,7.384616 8.615385,7.384616 1.310716,0 2.541653,-0.283034 3.653846,-0.769231 l 4.961538,2 -1.769231,-4.384615 c 1.111597,-1.347325 1.769231,-2.402382 1.769231,-4.23077 C 48.730769,7.4663372 44.87353,4.5 40.115385,4.5 z m -2.461539,2.4615385 2.461539,2.4615385 2.461538,-2.4615385 2.461539,2.4615385 -2.461539,2.461538 2.461539,2.461539 -2.461539,2.461538 -2.461538,-2.461538 -2.461539,2.461538 -2.461538,-2.461538 2.461538,-2.461539 -2.461538,-2.461538 2.461538,-2.4615385 z"
       style="fill:#ebebeb;fill-opacity:1;stroke:none;display:inline"
       inkscape:connector-curvature="0" />
  </g>
</svg>
