<?xml version="1.0" encoding="UTF-8" standalone="no"?>
<!-- Created with Inkscape (http://www.inkscape.org/) -->

<svg
   xmlns:dc="http://purl.org/dc/elements/1.1/"
   xmlns:cc="http://creativecommons.org/ns#"
   xmlns:rdf="http://www.w3.org/1999/02/22-rdf-syntax-ns#"
   xmlns:svg="http://www.w3.org/2000/svg"
   xmlns="http://www.w3.org/2000/svg"
   xmlns:sodipodi="http://sodipodi.sourceforge.net/DTD/sodipodi-0.dtd"
   xmlns:inkscape="http://www.inkscape.org/namespaces/inkscape"
   id="svg3239"
   height="24"
   width="24"
   version="1.0"
   inkscape:version="0.91 r13725"
   sodipodi:docname="kpackagekit.svgz">
  <sodipodi:namedview
     pagecolor="#969696"
     bordercolor="#666666"
     borderopacity="1"
     objecttolerance="10"
     gridtolerance="10"
     guidetolerance="10"
     inkscape:pageopacity="0.58823529"
     inkscape:pageshadow="2"
     inkscape:window-width="1546"
     inkscape:window-height="841"
     id="namedview6"
     showgrid="false"
     inkscape:zoom="5.3636364"
     inkscape:cx="35.113652"
     inkscape:cy="0.46790403"
     inkscape:window-x="54"
     inkscape:window-y="30"
     inkscape:window-maximized="1"
     inkscape:current-layer="svg3239">
    <inkscape:grid
       type="xygrid"
       id="grid3073"
       empspacing="5"
       visible="true"
       enabled="true"
       snapvisiblegridlinesonly="true" />
  </sodipodi:namedview>
  <defs
     id="defs8" />
  <metadata
     id="metadata13">
    <rdf:RDF>
      <cc:Work
         rdf:about="">
        <dc:format>image/svg+xml</dc:format>
        <dc:type
           rdf:resource="http://purl.org/dc/dcmitype/StillImage" />
        <dc:title />
      </cc:Work>
    </rdf:RDF>
  </metadata>
  <g
     id="kpackagekit-inactive"
     transform="scale(1.0909091,1.0909091)">
    <rect
       style="opacity:0.01000001;fill:#000000;fill-opacity:0.00392157;stroke:none"
       id="rect2991-1"
       width="22"
       height="22"
       x="0"
       y="0" />
    <path
       inkscape:connector-curvature="0"
       id="path3235"
       d="m 5,4.999999 c -1.108,0 -2,0.892 -2,2 v 10 c 0,1.108 0.892,2 2,2 h 12 c 1.108,0 2,-0.892 2,-2 v -10 c 0,-1.108 -0.892,-2 -2,-2 H 5 z m 6.5625,2 c 0.13425,0.023366 0.21875,0.11347 0.21875,0.34375 v 1.4688 c 0.29992,0.07742 0.64526,0.22389 0.90625,0.375 l 1.063,-0.9688 c 0.33598,-0.41907 0.58588,-0.12279 0.90625,0.25 0.30016,0.34927 0.4506,0.45558 0.125,0.78125 l -0.9375,1.0625 c 0.15847,0.26282 0.29527,0.63367 0.375,0.9375 h 1.4062 c 0.46047,0 0.375,0.28944 0.375,0.75 0,0.46057 0.02297,0.78125 -0.4375,0.78125 h -1.3438 c -0.07988,0.30582 -0.21604,0.64262 -0.375,0.90625 l 1,1.0625 c 0.37128,0.32567 0.06958,0.5289 -0.25,0.875 -0.32584,0.35288 -0.57162,0.52705 -0.90625,0.15625 l -1,-0.9375 c -0.26099,0.15111 -0.60633,0.26633 -0.90625,0.34375 l 0.031,1.437 c 0,0.461 -0.352,0.375 -0.812,0.375 -0.46,0 -0.75,0.054 -0.75,-0.406 l 0.031,-1.406 c -0.2997,-0.078 -0.6763,-0.193 -0.9372,-0.344 l -1,0.96875 c -0.3256,0.32567 -0.52411,0.07949 -0.875,-0.21875 -0.3489,-0.29654 -0.61531,-0.53094 -0.25,-0.90625 l 0.9375,-1 c -0.1585,-0.263 -0.2953,-0.603 -0.3751,-0.907 h -1.4062 c -0.46047,0 -0.34375,-0.32068 -0.34375,-0.78125 0,-0.46056 -0.14797,-0.75 0.3125,-0.75 h 1.4375 c 0.079884,-0.30583 0.21604,-0.67387 0.375,-0.9375 l -0.9375,-1.0308 c -0.27091,-0.26572 -0.16645,-0.41113 0.25,-0.8125 0.18428,-0.17761 0.28754,-0.3125 0.5,-0.3125 0.21246,0 0.24345,-0.037836 0.40625,0.125 l 0.9688,0.9063 c 0.2609,-0.1511 0.6063,-0.2976 0.9062,-0.375 v -1.4375 c 0,-0.46057 0.28953,-0.34375 0.75,-0.34375 0.23024,0 0.42825,-0.054616 0.5625,-0.03125 z m -0.562,3.469 c -0.84703,0 -1.5312,0.68404 -1.5312,1.5312 0,0.84721 0.68422,1.5312 1.5312,1.5312 0.84703,0 1.5312,-0.68404 1.5312,-1.5312 0,-0.84721 -0.68422,-1.5312 -1.5312,-1.5312 z"
       style="opacity:0.3" />
    <path
       inkscape:connector-curvature="0"
       id="rect2386"
       d="m 5,3.999999 c -1.108,0 -2,0.892 -2,2 v 10 c 0,1.108 0.892,2 2,2 h 12 c 1.108,0 2,-0.892 2,-2 v -10 c 0,-1.108 -0.892,-2 -2,-2 H 5 z m 6.5625,2 c 0.13425,0.023366 0.21875,0.11347 0.21875,0.34375 v 1.4688 c 0.29992,0.077419 0.64526,0.22389 0.90625,0.375 l 1.063,-0.9688 c 0.33598,-0.41907 0.58588,-0.12279 0.90625,0.25 0.30016,0.34927 0.4506,0.45558 0.125,0.78125 l -0.9375,1.0625 c 0.15847,0.26282 0.29527,0.63367 0.375,0.9375 h 1.4062 c 0.46047,0 0.375,0.28944 0.375,0.75 0,0.46057 0.02297,0.78125 -0.4375,0.78125 h -1.3438 c -0.07988,0.30582 -0.21604,0.64262 -0.375,0.90625 l 1,1.0625 c 0.37128,0.32567 0.06958,0.5289 -0.25,0.875 -0.32584,0.35288 -0.57162,0.52705 -0.90625,0.15625 l -1,-0.9375 c -0.26099,0.15111 -0.60633,0.26633 -0.90625,0.34375 l 0.031,1.437 c 0,0.461 -0.352,0.375 -0.812,0.375 -0.46,0 -0.75,0.054 -0.75,-0.406 l 0.031,-1.406 c -0.2997,-0.078 -0.6763,-0.193 -0.9372,-0.344 l -1,0.96875 c -0.3256,0.32567 -0.52411,0.07949 -0.875,-0.21875 -0.3489,-0.29654 -0.61531,-0.53094 -0.25,-0.90625 l 0.9375,-1 c -0.1585,-0.263 -0.2953,-0.603 -0.3751,-0.907 h -1.4062 c -0.46047,0 -0.34375,-0.32068 -0.34375,-0.78125 0,-0.46056 -0.14797,-0.75 0.3125,-0.75 h 1.4375 c 0.0798,-0.3058 0.216,-0.6739 0.3749,-0.9375 l -0.9374,-1.0313 c -0.27091,-0.26572 -0.16645,-0.41113 0.25,-0.8125 0.18428,-0.17761 0.28754,-0.3125 0.5,-0.3125 0.21246,0 0.24345,-0.037836 0.40625,0.125 l 0.9688,0.9063 c 0.2609,-0.1511 0.6063,-0.2976 0.9062,-0.375 v -1.4375 c 0,-0.46057 0.28953,-0.34375 0.75,-0.34375 0.23024,0 0.42825,-0.054616 0.5625,-0.03125 z m -0.562,3.4688 c -0.84703,0 -1.5312,0.68404 -1.5312,1.5312 0,0.84721 0.68422,1.5312 1.5312,1.5312 0.84703,0 1.5312,-0.68404 1.5312,-1.5312 0,-0.84721 -0.68422,-1.5312 -1.5312,-1.5312 z"
       style="fill:#ebebeb;fill-opacity:1" />
  </g>
  <g
     id="kpackagekit-important">
    <rect
       style="opacity:0.01000001;fill:#000000;fill-opacity:0.00392157;stroke:none"
       id="rect2991-0-8"
       width="24"
       height="24"
       x="57"
       y="0" />
    <path
       inkscape:connector-curvature="0"
       d="m 73.363637,13.81818 -4.363636,4.727274 -4.363637,-4.727274 h 2.618182 V 7.199999 h 3.490909 v 6.618181 h 2.618182 z M 62.454546,5.4545444 c -1.208727,0 -2.181818,0.9730909 -2.181818,2.1818182 V 18.545454 c 0,1.208727 0.973091,2.181818 2.181818,2.181818 h 13.090909 c 1.208727,0 2.181818,-0.973091 2.181818,-2.181818 V 7.6363626 c 0,-1.2087273 -0.973091,-2.1818182 -2.181818,-2.1818182 H 62.454546 z"
       style="opacity:0.3;fill-rule:evenodd"
       id="path3006-4" />
    <path
       inkscape:connector-curvature="0"
       d="m 73.363637,12.945453 -4.363636,4.727273 -4.363637,-4.727273 h 2.618182 V 6.3272717 h 3.490909 v 6.6181813 h 2.618182 z M 62.454546,4.3636353 c -1.208727,0 -2.181818,0.9730909 -2.181818,2.1818182 V 17.454545 c 0,1.208727 0.973091,2.181818 2.181818,2.181818 h 13.090909 c 1.208727,0 2.181818,-0.973091 2.181818,-2.181818 V 6.5454535 c 0,-1.2087273 -0.973091,-2.1818182 -2.181818,-2.1818182 H 62.454546 z"
       style="fill:#dd4814;fill-opacity:1;fill-rule:evenodd"
       id="path2987-6" />
  </g>
  <g
     id="kpackagekit-security"
     transform="matrix(1.0909091,0,0,1.0909091,-7.7272727,0)">
    <rect
       style="opacity:0.01000001;fill:#000000;fill-opacity:0.00392157;stroke:none"
       id="rect2991-0-8-1"
       width="22"
       height="22"
       x="85"
       y="0" />
    <g
       style="opacity:0.3;fill:#000000;fill-opacity:1;fill-rule:evenodd"
       transform="matrix(0.66666667,0,0,0.73433363,18.669167,-10.905635)"
       id="g3824">
      <path
         d="m 113,26.99975 v 4 c 0,0.35738 0.75517,1.6414 1.8438,2.625 0.57529,0.51983 0.73637,0.58052 1.1562,0.875 0.41988,-0.29448 0.58096,-0.35517 1.1562,-0.875 1.0886,-0.98364 1.8438,-2.2676 1.8438,-2.625 v -4 h -6 z m -3,-3 v 1 6 c 0,2.0717 1.5096,3.681 2.8438,4.875 1.3342,1.194 2.6562,2 2.6562,2 l 0.5,0.28125 0.53125,-0.3125 c 0,0 1.2943,-0.79757 2.625,-2 1.33,-1.21 2.84,-2.81 2.84,-4.85 v -6 -1 h -1 -10 -1 z m 2,2 h 8 v 5 c 0,0.91968 -0.98696,2.3184 -2.1562,3.375 -0.90589,0.81857 -1.4789,1.139 -1.8438,1.375 -0.35377,-0.22243 -0.92859,-0.52475 -1.8438,-1.3438 -1.17,-1.05 -2.16,-2.43 -2.16,-3.41 v -5 z m -5.00375,-4.339793 c -1.662,0 -3,1.214706 -3,2.723557 v 13.617789 c 0,1.508851 1.338,2.723558 3,2.723558 h 18 c 1.662,0 3,-1.214707 3,-2.723558 V 24.383514 c 0,-1.508851 -1.338,-2.723557 -3,-2.723557 h -18 z"
         style="color:#bebebe;fill:#000000;fill-opacity:1;fill-rule:evenodd"
         id="rect4034-7-1-6-0"
         inkscape:connector-curvature="0" />
    </g>
    <g
       transform="matrix(0.8,0,0,0.85650128,5.6,-19.773392)"
       style="fill:#dfdbd2;fill-opacity:1;fill-rule:evenodd"
       id="g3846">
      <path
         inkscape:connector-curvature="0"
         d="m 110.50313,32.43503 v 3.429457 c 0,0.306404 0.6293,1.407277 1.5365,2.250581 0.4794,0.445683 0.61364,0.497717 0.9635,0.750194 0.3499,-0.252477 0.48413,-0.304511 0.9635,-0.750194 0.90716,-0.843338 1.5365,-1.944159 1.5365,-2.250581 V 32.43503 h -5 z m -2.5,-2.572093 v 0.857364 5.144186 c 0,1.776201 1.258,3.155957 2.36983,4.17965 1.11183,1.023693 2.2135,1.714729 2.2135,1.714729 L 113.00313,42 l 0.4427,-0.267927 c 0,0 1.07859,-0.683808 2.1875,-1.714728 C 116.74167,38.979934 118,37.608151 118,35.859128 V 30.714943 29.857578 H 117.16667 108.83333 108 z m 1.66666,1.714728 h 6.66667 v 4.286822 c 0,0.7885 -0.82247,1.987713 -1.79683,2.893604 -0.75491,0.701813 -1.23242,0.976538 -1.5365,1.178876 -0.29481,-0.190704 -0.77383,-0.449902 -1.5365,-1.152126 -0.975,-0.900233 -1.8,-2.083395 -1.8,-2.923612 V 31.574407 z M 105.5,27.756399 c -1.385,0 -2.5,1.041446 -2.5,2.335081 v 11.675406 c 0,1.293635 1.115,2.335081 2.5,2.335081 h 15 c 1.385,0 2.5,-1.041446 2.5,-2.335081 V 30.09148 c 0,-1.293635 -1.115,-2.335081 -2.5,-2.335081 h -15 z"
         style="color:#bebebe;fill:#ebebeb;fill-opacity:1;fill-rule:evenodd"
         id="rect4034-7-1-6" />
    </g>
  </g>
  <g
     id="kpackagekit-updates"
     transform="matrix(1.0909091,0,0,1.0909091,-2.6363634,1.8e-7)">
    <rect
       style="opacity:0.01000001;fill:#000000;fill-opacity:0.00392157;stroke:none"
       id="rect2991-0"
       width="22"
       height="22"
       x="29"
       y="0" />
    <path
       inkscape:connector-curvature="0"
       d="m 44,12.666665 -4,4.333334 -4,-4.333334 h 2.4 V 6.599999 h 3.2 v 6.066666 H 44 z M 34,4.999999 c -1.108,0 -2,0.892 -2,2 v 10 c 0,1.108 0.892,2 2,2 h 12 c 1.108,0 2,-0.892 2,-2 v -10 c 0,-1.108 -0.892,-2 -2,-2 H 34 z"
       style="opacity:0.3;fill-rule:evenodd"
       id="path3006-4-2" />
    <path
       inkscape:connector-curvature="0"
       d="m 44,11.866665 -4,4.333334 -4,-4.333334 h 2.4 V 5.799999 h 3.2 v 6.066666 H 44 z M 34,3.999999 c -1.108,0 -2,0.892 -2,2 v 10 c 0,1.108 0.892,2 2,2 h 12 c 1.108,0 2,-0.892 2,-2 v -10 c 0,-1.108 -0.892,-2 -2,-2 H 34 z"
       style="fill:#ebebeb;fill-opacity:1;fill-rule:evenodd"
       id="path2987-6-7" />
  </g>
</svg>
