<?xml version="1.0" encoding="UTF-8" standalone="no"?>
<!-- Created with Inkscape (http://www.inkscape.org/) -->

<svg
   xmlns:dc="http://purl.org/dc/elements/1.1/"
   xmlns:cc="http://creativecommons.org/ns#"
   xmlns:rdf="http://www.w3.org/1999/02/22-rdf-syntax-ns#"
   xmlns:svg="http://www.w3.org/2000/svg"
   xmlns="http://www.w3.org/2000/svg"
   xmlns:sodipodi="http://sodipodi.sourceforge.net/DTD/sodipodi-0.dtd"
   xmlns:inkscape="http://www.inkscape.org/namespaces/inkscape"
   id="svg3215"
   height="24"
   width="24"
   version="1.0"
   inkscape:version="0.91 r13725"
   sodipodi:docname="quassel.svgz">
  <defs
     id="defs9" />
  <sodipodi:namedview
     pagecolor="#969696"
     bordercolor="#666666"
     borderopacity="1"
     objecttolerance="10"
     gridtolerance="10"
     guidetolerance="10"
     inkscape:pageopacity="0.58823529"
     inkscape:pageshadow="2"
     inkscape:window-width="1546"
     inkscape:window-height="841"
     id="namedview7"
     showgrid="false"
     inkscape:zoom="7.5853275"
     inkscape:cx="25.772561"
     inkscape:cy="9.1529001"
     inkscape:window-x="54"
     inkscape:window-y="30"
     inkscape:window-maximized="1"
     inkscape:current-layer="svg3215">
    <inkscape:grid
       type="xygrid"
       id="grid2986"
       empspacing="5"
       visible="true"
       enabled="true"
       snapvisiblegridlinesonly="true" />
  </sodipodi:namedview>
  <metadata
     id="metadata12">
    <rdf:RDF>
      <cc:Work
         rdf:about="">
        <dc:format>image/svg+xml</dc:format>
        <dc:type
           rdf:resource="http://purl.org/dc/dcmitype/StillImage" />
        <dc:title />
      </cc:Work>
    </rdf:RDF>
  </metadata>
  <g
     id="quassel"
     transform="translate(1,-1)">
    <rect
       y="1"
       x="-1"
       height="24"
       width="24"
       id="rect2991"
       style="opacity:0.01000001;fill:#000000;fill-opacity:0.00392157;stroke:none" />
    <path
       style="opacity:0.3;fill:#000200;fill-opacity:1;fill-rule:evenodd;stroke:none;display:inline"
       d="M 11.1,5.8 C 6.626493,5.8 3,9.426493 3,13.9 c 0,4.473507 3.626493,8.1 8.1,8.1 4.473507,0 8.1,-3.626493 8.1,-8.1 0,-4.473507 -3.626493,-8.1 -8.1,-8.1 z m 0,1.8 c 3.479394,0 6.3,2.820606 6.3,6.3 0,3.479394 -2.820606,6.3 -6.3,6.3 -3.479394,0 -6.3,-2.820606 -6.3,-6.3 0,-3.479394 2.820606,-6.3 6.3,-6.3 z"
       id="path3916-0-9"
       inkscape:connector-curvature="0" />
    <path
       sodipodi:type="arc"
       style="opacity:0.3;fill:#000000;fill-opacity:1;stroke:none"
       id="path5275-5"
       sodipodi:cx="13.151117"
       sodipodi:cy="14.160316"
       sodipodi:rx="4.1314058"
       sodipodi:ry="4.1314058"
       d="m 17.282523,14.160316 a 4.1314058,4.1314058 0 0 1 -4.131406,4.131406 4.1314058,4.1314058 0 0 1 -4.1314055,-4.131406 4.1314058,4.1314058 0 0 1 4.1314055,-4.131405 4.1314058,4.1314058 0 0 1 4.131406,4.131405 z"
       transform="matrix(0.76946564,0,0,0.76946564,2.186975,4.531148)" />
    <path
       style="fill:#ebebeb;fill-opacity:1;fill-rule:evenodd;stroke:none;display:inline"
       d="M 11.1,4.8 C 6.626493,4.8 3,8.426493 3,12.9 c 0,4.473507 3.626493,8.1 8.1,8.1 4.473507,0 8.1,-3.626493 8.1,-8.1 0,-4.473507 -3.626493,-8.1 -8.1,-8.1 z m 0,1.8 c 3.479394,0 6.3,2.820606 6.3,6.3 0,3.479394 -2.820606,6.3 -6.3,6.3 -3.479394,0 -6.3,-2.820606 -6.3,-6.3 0,-3.479394 2.820606,-6.3 6.3,-6.3 z"
       id="path3916-0"
       inkscape:connector-curvature="0" />
    <path
       sodipodi:type="arc"
       style="fill:#ebebeb;fill-opacity:1;stroke:none"
       id="path5275"
       sodipodi:cx="13.151117"
       sodipodi:cy="14.160316"
       sodipodi:rx="4.1314058"
       sodipodi:ry="4.1314058"
       d="m 17.282523,14.160316 a 4.1314058,4.1314058 0 0 1 -4.131406,4.131406 4.1314058,4.1314058 0 0 1 -4.1314055,-4.131406 4.1314058,4.1314058 0 0 1 4.1314055,-4.131405 4.1314058,4.1314058 0 0 1 4.131406,4.131405 z"
       transform="matrix(0.76946564,0,0,0.76946564,2.186975,3.530931)" />
  </g>
  <g
     id="quassel-message"
     transform="translate(1,-1)">
    <rect
       y="1"
       x="25"
       height="24"
       width="24"
       id="rect2991-9"
       style="opacity:0.01000001;fill:#000000;fill-opacity:0.00392157;stroke:none" />
    <path
       style="opacity:0.3;fill:#000200;fill-opacity:1;fill-rule:evenodd;stroke:none;display:inline"
       d="m 37.1,5.8 c -4.473507,0 -8.1,3.626493 -8.1,8.1 0,4.473507 3.626493,8.1 8.1,8.1 4.473507,0 8.1,-3.626493 8.1,-8.1 0,-4.473507 -3.626493,-8.1 -8.1,-8.1 z m 0,1.8 c 3.479394,0 6.3,2.820606 6.3,6.3 0,3.479394 -2.820606,6.3 -6.3,6.3 -3.479394,0 -6.3,-2.820606 -6.3,-6.3 0,-3.479394 2.820606,-6.3 6.3,-6.3 z"
       id="path3916-0-9-2"
       inkscape:connector-curvature="0" />
    <path
       sodipodi:type="arc"
       style="opacity:0.3;fill:#000000;fill-opacity:1;stroke:none"
       id="path5275-5-3"
       sodipodi:cx="13.151117"
       sodipodi:cy="14.160316"
       sodipodi:rx="4.1314058"
       sodipodi:ry="4.1314058"
       d="m 17.282523,14.160316 a 4.1314058,4.1314058 0 0 1 -4.131406,4.131406 4.1314058,4.1314058 0 0 1 -4.1314055,-4.131406 4.1314058,4.1314058 0 0 1 4.1314055,-4.131405 4.1314058,4.1314058 0 0 1 4.131406,4.131405 z"
       transform="matrix(0.76946564,0,0,0.76946564,28.186975,4.531148)" />
    <path
       style="fill:#ebebeb;fill-opacity:1;fill-rule:evenodd;stroke:none;display:inline"
       d="m 37.1,4.8 c -4.473507,0 -8.1,3.626493 -8.1,8.1 0,4.473507 3.626493,8.1 8.1,8.1 4.473507,0 8.1,-3.626493 8.1,-8.1 0,-4.473507 -3.626493,-8.1 -8.1,-8.1 z m 0,1.8 c 3.479394,0 6.3,2.820606 6.3,6.3 0,3.479394 -2.820606,6.3 -6.3,6.3 -3.479394,0 -6.3,-2.820606 -6.3,-6.3 0,-3.479394 2.820606,-6.3 6.3,-6.3 z"
       id="path3916-0-8"
       inkscape:connector-curvature="0" />
    <path
       sodipodi:type="arc"
       style="fill:#19b6ee;fill-opacity:1;stroke:none"
       id="path5275-7"
       sodipodi:cx="13.151117"
       sodipodi:cy="14.160316"
       sodipodi:rx="4.1314058"
       sodipodi:ry="4.1314058"
       d="m 17.282523,14.160316 a 4.1314058,4.1314058 0 0 1 -4.131406,4.131406 4.1314058,4.1314058 0 0 1 -4.1314055,-4.131406 4.1314058,4.1314058 0 0 1 4.1314055,-4.131405 4.1314058,4.1314058 0 0 1 4.131406,4.131405 z"
       transform="matrix(0.76946564,0,0,0.76946564,28.186975,3.530931)" />
  </g>
  <g
     id="quassel-inactive"
     transform="translate(1,-1)">
    <rect
       y="1"
       x="51"
       height="24"
       width="24"
       id="rect2991-8"
       style="opacity:0.01000001;fill:#000000;fill-opacity:0.00392157;stroke:none" />
    <path
       style="opacity:0.3;fill:#000200;fill-opacity:1;fill-rule:evenodd;stroke:none;display:inline"
       d="m 63.1,5.8 c -4.473507,0 -8.1,3.626493 -8.1,8.1 0,4.473507 3.626493,8.1 8.1,8.1 4.473507,0 8.1,-3.626493 8.1,-8.1 0,-4.473507 -3.626493,-8.1 -8.1,-8.1 z m 0,1.8 c 3.479394,0 6.3,2.820606 6.3,6.3 0,3.479394 -2.820606,6.3 -6.3,6.3 -3.479394,0 -6.3,-2.820606 -6.3,-6.3 0,-3.479394 2.820606,-6.3 6.3,-6.3 z"
       id="path3916-0-9-9"
       inkscape:connector-curvature="0" />
    <path
       style="fill:#ebebeb;fill-opacity:1;fill-rule:evenodd;stroke:none;display:inline"
       d="m 63.1,4.8 c -4.473507,0 -8.1,3.626493 -8.1,8.1 0,4.473507 3.626493,8.1 8.1,8.1 4.473507,0 8.1,-3.626493 8.1,-8.1 0,-4.473507 -3.626493,-8.1 -8.1,-8.1 z m 0,1.8 c 3.479394,0 6.3,2.820606 6.3,6.3 0,3.479394 -2.820606,6.3 -6.3,6.3 -3.479394,0 -6.3,-2.820606 -6.3,-6.3 0,-3.479394 2.820606,-6.3 6.3,-6.3 z"
       id="path3916-0-5"
       inkscape:connector-curvature="0" />
  </g>
</svg>
