<?xml version="1.0" encoding="UTF-8" standalone="no"?>
<!-- Created with Inkscape (http://www.inkscape.org/) -->

<svg
   xmlns:dc="http://purl.org/dc/elements/1.1/"
   xmlns:cc="http://creativecommons.org/ns#"
   xmlns:rdf="http://www.w3.org/1999/02/22-rdf-syntax-ns#"
   xmlns:svg="http://www.w3.org/2000/svg"
   xmlns="http://www.w3.org/2000/svg"
   xmlns:sodipodi="http://sodipodi.sourceforge.net/DTD/sodipodi-0.dtd"
   xmlns:inkscape="http://www.inkscape.org/namespaces/inkscape"
   width="24"
   height="24"
   id="svg3045"
   version="1.1"
   inkscape:version="0.48.4 r9939"
   sodipodi:docname="smartphone.svgz">
  <defs
     id="defs3047" />
  <sodipodi:namedview
     id="base"
     pagecolor="#555555"
     bordercolor="#00ff8a"
     borderopacity="1"
     inkscape:pageopacity="0.6"
     inkscape:pageshadow="2"
     inkscape:zoom="7.9180417"
     inkscape:cx="13.989289"
     inkscape:cy="18.562895"
     inkscape:current-layer="layer1"
     showgrid="false"
     inkscape:grid-bbox="true"
     inkscape:document-units="px"
     inkscape:window-width="1366"
     inkscape:window-height="713"
     inkscape:window-x="0"
     inkscape:window-y="-3"
     inkscape:window-maximized="1">
    <inkscape:grid
       type="xygrid"
       id="grid2986" />
  </sodipodi:namedview>
  <metadata
     id="metadata3050">
    <rdf:RDF>
      <cc:Work
         rdf:about="">
        <dc:format>image/svg+xml</dc:format>
        <dc:type
           rdf:resource="http://purl.org/dc/dcmitype/StillImage" />
        <dc:title />
        <dc:creator>
          <cc:Agent>
            <dc:title>Malcer</dc:title>
          </cc:Agent>
        </dc:creator>
        <cc:license
           rdf:resource="http://creativecommons.org/licenses/by-sa/3.0/" />
      </cc:Work>
      <cc:License
         rdf:about="http://creativecommons.org/licenses/by-sa/3.0/">
        <cc:permits
           rdf:resource="http://creativecommons.org/ns#Reproduction" />
        <cc:permits
           rdf:resource="http://creativecommons.org/ns#Distribution" />
        <cc:requires
           rdf:resource="http://creativecommons.org/ns#Notice" />
        <cc:requires
           rdf:resource="http://creativecommons.org/ns#Attribution" />
        <cc:permits
           rdf:resource="http://creativecommons.org/ns#DerivativeWorks" />
        <cc:requires
           rdf:resource="http://creativecommons.org/ns#ShareAlike" />
      </cc:License>
    </rdf:RDF>
  </metadata>
  <g
     id="layer1"
     inkscape:label="Layer 1"
     inkscape:groupmode="layer"
     transform="translate(0,-8)">
    <g
       id="smartphone">
      <rect
         rx="2"
         ry="2"
         transform="translate(0,8)"
         y="0"
         x="5"
         height="24"
         width="15"
         id="rect3055"
         style="fill:#000000;fill-opacity:0.39215686;fill-rule:nonzero;stroke:none" />
      <path
         sodipodi:nodetypes="sssssssscccccccscccccsssss"
         inkscape:connector-curvature="0"
         id="rect3055-9"
         transform="translate(0,8)"
         d="M 7,1 C 6.446,1 6,1.446 6,2 l 0,20 c 0,0.554 0.446,1 1,1 l 11,0 c 0.554,0 1,-0.446 1,-1 L 19,2 C 19,1.446 18.554,1 18,1 l -9,0 0,0.8 7,0 0,0.7 -7,0 L 9,1.856443 9,1 z m 1,2.5 9,0 0,15.5 -9,0 z m 4.5,16.6 c 0.552285,0 1,0.447715 1,1 0,0.552285 -0.447715,1 -1,1 -0.552285,0 -1,-0.447715 -1,-1 0,-0.552285 0.447715,-1 1,-1 z"
         style="fill:#f2f2f2;fill-opacity:1;fill-rule:nonzero;stroke:none" />
      <rect
         transform="translate(0,8)"
         y="0"
         x="0"
         height="24"
         width="24"
         id="rect3848"
         style="fill:#00adff;fill-opacity:0.37185928000000001;fill-rule:nonzero;stroke:none;opacity:0" />
    </g>
  </g>
</svg>
