<?xml version="1.0" encoding="UTF-8" standalone="no"?>
<!-- Created with Inkscape (http://www.inkscape.org/) -->

<svg
   xmlns:dc="http://purl.org/dc/elements/1.1/"
   xmlns:cc="http://creativecommons.org/ns#"
   xmlns:rdf="http://www.w3.org/1999/02/22-rdf-syntax-ns#"
   xmlns:svg="http://www.w3.org/2000/svg"
   xmlns="http://www.w3.org/2000/svg"
   xmlns:sodipodi="http://sodipodi.sourceforge.net/DTD/sodipodi-0.dtd"
   xmlns:inkscape="http://www.inkscape.org/namespaces/inkscape"
   width="22"
   height="22"
   id="svg3108"
   version="1.1"
   inkscape:version="0.48.5 r10040"
   sodipodi:docname="video-display.svgz">
  <defs
     id="defs3110" />
  <sodipodi:namedview
     id="base"
     pagecolor="#333333"
     bordercolor="#ff1900"
     borderopacity="1"
     inkscape:pageopacity="0.8"
     inkscape:pageshadow="2"
     inkscape:zoom="2.7994505"
     inkscape:cx="-56.364575"
     inkscape:cy="10.523552"
     inkscape:current-layer="layer1"
     showgrid="false"
     inkscape:grid-bbox="true"
     inkscape:document-units="px"
     fit-margin-top="0"
     fit-margin-left="0"
     fit-margin-right="0"
     fit-margin-bottom="0"
     inkscape:window-width="1366"
     inkscape:window-height="713"
     inkscape:window-x="0"
     inkscape:window-y="-3"
     inkscape:window-maximized="1">
    <inkscape:grid
       type="xygrid"
       id="grid2991" />
  </sodipodi:namedview>
  <metadata
     id="metadata3113">
    <rdf:RDF>
      <cc:Work
         rdf:about="">
        <dc:format>image/svg+xml</dc:format>
        <dc:type
           rdf:resource="http://purl.org/dc/dcmitype/StillImage" />
        <dc:title></dc:title>
        <dc:creator>
          <cc:Agent>
            <dc:title>Malcer</dc:title>
          </cc:Agent>
        </dc:creator>
        <dc:description>Icons for Caledonia plasma theme.</dc:description>
      </cc:Work>
    </rdf:RDF>
  </metadata>
  <g
     id="layer1"
     inkscape:label="Layer 1"
     inkscape:groupmode="layer"
     transform="translate(4.0343473,-4.3002941)">
    <g
       transform="translate(-4.0343473,5.3002941)"
       id="video-display">
      <rect
         y="-1"
         x="0"
         height="22"
         width="22"
         id="rect3081"
         style="opacity:0;fill:#00d0ff;fill-opacity:0.41206031;fill-rule:nonzero;stroke:none" />
      <path
         sodipodi:nodetypes="ccscsscsc"
         inkscape:connector-curvature="0"
         id="rect3895"
         d="m 1,3 20,0 c 0,0 0,0.832533 0,1.866667 L 21,17 c 0,0 -2,1e-6 -1.818182,1e-6 l -16.363636,0 C 3,17.000001 1,17 1,17 L 1,4.866667 C 1,3.832533 1,3 1,3 z"
         style="fill:#000000;fill-opacity:0.39215686;fill-rule:nonzero;stroke:none" />
      <path
         sodipodi:nodetypes="csccccsccccsccccsc"
         inkscape:connector-curvature="0"
         id="rect3851"
         d="m 2,4 c 0,0 0,0.497445 0,1 l 0,11 1,0 16,0 1,0 0,-11 c 0,-0.502555 0,-1 0,-1 z m 1,1 16,0 c 0,0 0,0 0,1 l 0,8 0,1 L 3,15 3,14 3,6 C 3,4.9735984 3,5 3,5 z"
         style="fill:#f2f2f2;fill-opacity:1;fill-rule:nonzero;stroke:none" />
      <rect
         ry="0"
         rx="0"
         y="6"
         x="4"
         height="8.0000019"
         width="14"
         id="rect3891"
         style="fill:#f2f2f2;fill-opacity:1;fill-rule:nonzero;stroke:none" />
      <path
         inkscape:connector-curvature="0"
         id="rect4137"
         d="m 1,17 20,0 c 0.554,0 1,0.446 1,1 l 0,1 c 0,1 -1,2 -2,2 L 2,21 C 1,21 0,20 0,19 l 0,-1 c 0,-0.554 0.446,-1 1,-1 z"
         style="opacity:0.96999996;fill:#000000;fill-opacity:0.39215686;stroke:none"
         sodipodi:nodetypes="sssssssss" />
      <path
         sodipodi:nodetypes="ccczzcc"
         inkscape:connector-curvature="0"
         id="rect3891-6"
         d="m 1,18 20,0 0,1.031248 C 21,19.031248 21,20 19,20 17,20 5,20 3,20 1,20 1,19.062498 1,19.062498 z"
         style="fill:#f2f2f2;fill-opacity:1;fill-rule:nonzero;stroke:none" />
      <rect
         y="18"
         x="16"
         height="1"
         width="1"
         id="rect4160"
         style="fill:#000000;fill-opacity:0.78431373;fill-rule:nonzero;stroke:none" />
      <rect
         y="18"
         x="18"
         height="1"
         width="1"
         id="rect4160-2"
         style="fill:#000000;fill-opacity:0.78431373;fill-rule:nonzero;stroke:none" />
    </g>
  </g>
</svg>
