<?xml version="1.0" encoding="UTF-8" standalone="no"?>
<!-- Created with Inkscape (http://www.inkscape.org/) -->

<svg
   xmlns:dc="http://purl.org/dc/elements/1.1/"
   xmlns:cc="http://creativecommons.org/ns#"
   xmlns:rdf="http://www.w3.org/1999/02/22-rdf-syntax-ns#"
   xmlns:svg="http://www.w3.org/2000/svg"
   xmlns="http://www.w3.org/2000/svg"
   xmlns:xlink="http://www.w3.org/1999/xlink"
   xmlns:sodipodi="http://sodipodi.sourceforge.net/DTD/sodipodi-0.dtd"
   xmlns:inkscape="http://www.inkscape.org/namespaces/inkscape"
   width="32"
   height="32"
   id="svg7229"
   sodipodi:version="0.32"
   inkscape:version="0.48.5 r10040"
   version="1.0"
   sodipodi:docname="window.svgz"
   inkscape:output_extension="org.inkscape.output.svgz.inkscape">
  <defs
     id="defs7231">
    <linearGradient
       id="linearGradient4158">
      <stop
         id="stop4160"
         offset="0"
         style="stop-color:#888888;stop-opacity:1;" />
      <stop
         id="stop4162"
         offset="1"
         style="stop-color:#232323;stop-opacity:1;" />
    </linearGradient>
    <linearGradient
       inkscape:collect="always"
       xlink:href="#linearGradient4158"
       id="linearGradient3005"
       gradientUnits="userSpaceOnUse"
       x1="419.53571"
       y1="380.50504"
       x2="419.53571"
       y2="368.50504" />
    <linearGradient
       inkscape:collect="always"
       xlink:href="#linearGradient4158"
       id="linearGradient3026"
       gradientUnits="userSpaceOnUse"
       x1="419.53571"
       y1="380.50504"
       x2="419.53571"
       y2="368.50504"
       gradientTransform="matrix(0.85714286,0,0,0.85714286,-134.06633,17.500724)" />
    <linearGradient
       inkscape:collect="always"
       xlink:href="#linearGradient4158"
       id="linearGradient3832"
       gradientUnits="userSpaceOnUse"
       x1="419.53571"
       y1="380.50504"
       x2="419.53571"
       y2="368.50504" />
    <linearGradient
       inkscape:collect="always"
       xlink:href="#linearGradient4158"
       id="linearGradient3839"
       gradientUnits="userSpaceOnUse"
       x1="419.53571"
       y1="380.50504"
       x2="419.53571"
       y2="368.50504" />
  </defs>
  <sodipodi:namedview
     id="base"
     pagecolor="#000000"
     bordercolor="#ff7900"
     borderopacity="1"
     inkscape:pageopacity="0.68627451"
     inkscape:pageshadow="2"
     inkscape:zoom="3.9999998"
     inkscape:cx="16.594932"
     inkscape:cy="10.913564"
     inkscape:document-units="px"
     inkscape:current-layer="layer1"
     showgrid="false"
     inkscape:window-width="1366"
     inkscape:window-height="713"
     inkscape:window-x="0"
     inkscape:window-y="-3"
     showguides="true"
     inkscape:guide-bbox="true"
     gridtolerance="6"
     inkscape:window-maximized="1"
     fit-margin-top="0"
     fit-margin-left="0"
     fit-margin-right="0"
     fit-margin-bottom="0">
    <inkscape:grid
       type="xygrid"
       id="grid3001" />
  </sodipodi:namedview>
  <metadata
     id="metadata7234">
    <rdf:RDF>
      <cc:Work
         rdf:about="">
        <dc:format>image/svg+xml</dc:format>
        <dc:type
           rdf:resource="http://purl.org/dc/dcmitype/StillImage" />
        <dc:title></dc:title>
        <dc:description>Icons for Caledonia plasma theme.</dc:description>
        <dc:creator>
          <cc:Agent>
            <dc:title>Malcer</dc:title>
          </cc:Agent>
        </dc:creator>
      </cc:Work>
    </rdf:RDF>
  </metadata>
  <g
     inkscape:label="Camada 1"
     inkscape:groupmode="layer"
     id="layer1"
     transform="translate(-214.38775,-291.6078)">
    <g
       id="window-unpin"
       transform="translate(-5.6568543,21.213204)">
      <path
         d="m 228.86177,262.79662 c 0,1.06197 -0.8609,1.92287 -1.92288,1.92287 -1.06197,0 -1.92287,-0.8609 -1.92287,-1.92287 0,-1.06198 0.8609,-1.92288 1.92287,-1.92288 1.06198,0 1.92288,0.8609 1.92288,1.92288 z m -1.92288,-4 c -2.20914,0 -4,1.79086 -4,4 0,2.20914 1.79086,4 4,4 2.20914,0 4,-1.79086 4,-4 0,-2.20914 -1.79086,-4 -4,-4 z m 0,1.15625 c 1.57454,0 2.84375,1.26921 2.84375,2.84375 0,1.57453 -1.26921,2.84375 -2.84375,2.84375 -1.57453,0 -2.84375,-1.26922 -2.84375,-2.84375 0,-1.57454 1.26922,-2.84375 2.84375,-2.84375 z"
         style="fill:none;stroke:#000000;stroke-width:2;stroke-miterlimit:4;stroke-opacity:0.39215686;stroke-dasharray:none"
         id="path3778-5-2"
         inkscape:connector-curvature="0" />
      <path
         inkscape:connector-curvature="0"
         d="m 228.86177,262.79662 c 0,1.06197 -0.8609,1.92287 -1.92288,1.92287 -1.06197,0 -1.92287,-0.8609 -1.92287,-1.92287 0,-1.06198 0.8609,-1.92288 1.92287,-1.92288 1.06198,0 1.92288,0.8609 1.92288,1.92288 z m -1.92288,-4 c -2.20914,0 -4,1.79086 -4,4 0,2.20914 1.79086,4 4,4 2.20914,0 4,-1.79086 4,-4 0,-2.20914 -1.79086,-4 -4,-4 z m 0,1.15625 c 1.57454,0 2.84375,1.26921 2.84375,2.84375 0,1.57453 -1.26921,2.84375 -2.84375,2.84375 -1.57453,0 -2.84375,-1.26922 -2.84375,-2.84375 0,-1.57454 1.26922,-2.84375 2.84375,-2.84375 z"
         style="fill:#f2f2f2;fill-opacity:1;fill-rule:evenodd;stroke:none"
         id="path3778-5" />
    </g>
    <g
       id="window-pin"
       transform="translate(7.0710734,21.036423)"
       inkscape:label="#window-pin">
      <path
         d="m 228.86177,262.79662 c 0,1.06197 -0.8609,1.92287 -1.92288,1.92287 -1.06197,0 -1.92287,-0.8609 -1.92287,-1.92287 0,-1.06198 0.8609,-1.92288 1.92287,-1.92288 1.06198,0 1.92288,0.8609 1.92288,1.92288 z m -1.92288,-4 c -2.20914,0 -4,1.79086 -4,4 0,2.20914 1.79086,4 4,4 2.20914,0 4,-1.79086 4,-4 0,-2.20914 -1.79086,-4 -4,-4 z m 0,1.15625 c 1.57454,0 2.84375,1.26921 2.84375,2.84375 0,1.57453 -1.26921,2.84375 -2.84375,2.84375 -1.57453,0 -2.84375,-1.26922 -2.84375,-2.84375 0,-1.57454 1.26922,-2.84375 2.84375,-2.84375 z"
         style="fill:none;stroke:#000000;stroke-width:2;stroke-miterlimit:4;stroke-opacity:0.39215686;stroke-dasharray:none"
         id="path3778-5-2-8"
         inkscape:connector-curvature="0" />
      <path
         inkscape:connector-curvature="0"
         d="m 226.93889,258.79662 c -2.20914,0 -4,1.79086 -4,4 0,2.20914 1.79086,4 4,4 2.20914,0 4,-1.79086 4,-4 0,-2.20914 -1.79086,-4 -4,-4 z m 0,1.15625 c 1.57454,0 2.84375,1.26921 2.84375,2.84375 0,1.57453 -1.26921,2.84375 -2.84375,2.84375 -1.57453,0 -2.84375,-1.26922 -2.84375,-2.84375 0,-1.57454 1.26922,-2.84375 2.84375,-2.84375 z"
         style="fill:#f2f2f2;fill-opacity:1;fill-rule:evenodd;stroke:none"
         id="path3778-5-9"
         sodipodi:nodetypes="ssssssssss" />
    </g>
    <rect
       y="80.165649"
       x="311.47324"
       height="31.999989"
       width="31.999989"
       id="rect3117"
       style="fill:#ffffff;fill-opacity:0;fill-rule:nonzero;stroke:none"
       transform="matrix(0.7058277,0.70838355,-0.70838355,0.7058277,0,0)" />
    <g
       id="window-close">
      <rect
         transform="translate(214.38775,291.6078)"
         y="0"
         x="0"
         height="32"
         width="32"
         id="rect3040"
         style="opacity:0;fill:#00ffff;stroke:none;stroke-width:1.70000005000000010;stroke-linecap:round;stroke-linejoin:round;stroke-miterlimit:4;stroke-opacity:0.39215686000000000;stroke-dasharray:none;stroke-dashoffset:0" />
      <path
         inkscape:connector-curvature="0"
         sodipodi:nodetypes="ccccccccccccc"
         style="fill:none;stroke:#000000;stroke-width:3;stroke-miterlimit:4;stroke-opacity:0.39215686000000000;stroke-dasharray:none"
         d="m 238.77971,295.90384 -8.38591,8.35565 -8.35566,-8.38591 -3.35436,3.34226 8.35565,8.38591 -8.38591,8.35566 3.34226,3.35436 8.38591,-8.35566 8.35566,8.38592 3.35437,-3.34226 -8.35565,-8.38592 8.38591,-8.35566 -3.34227,-3.35435 z"
         id="path3119-2" />
      <path
         inkscape:connector-curvature="0"
         sodipodi:nodetypes="ccccccccccccc"
         style="fill:#f2f2f2;fill-opacity:1;fill-rule:nonzero;stroke:none"
         d="m 238.77971,295.90384 -8.38591,8.35565 -8.35566,-8.38591 -3.35436,3.34226 8.35565,8.38591 -8.38591,8.35566 3.34226,3.35436 8.38591,-8.35566 8.35566,8.38592 3.35437,-3.34226 -8.35565,-8.38592 8.38591,-8.35566 -3.34227,-3.35435 z"
         id="path3119" />
    </g>
    <g
       id="22-22-window-close"
       transform="matrix(0.6875,0,0,0.6875,101.99617,98.127437)">
      <rect
         transform="translate(214.38775,291.6078)"
         y="0"
         x="0"
         height="32"
         width="32"
         id="rect3040-6"
         style="opacity:0;fill:#00ffff;stroke:none" />
      <path
         inkscape:connector-curvature="0"
         sodipodi:nodetypes="ccccccccccccc"
         style="fill:none;stroke:#000000;stroke-width:3.2;stroke-miterlimit:4;stroke-opacity:0.39215686000000000;stroke-dasharray:none"
         d="m 238.77971,295.90384 -8.38591,8.35565 -8.35566,-8.38591 -3.35436,3.34226 8.35565,8.38591 -8.38591,8.35566 3.34226,3.35436 8.38591,-8.35566 8.35566,8.38592 3.35437,-3.34226 -8.35565,-8.38592 8.38591,-8.35566 -3.34227,-3.35435 z"
         id="path3119-2-9" />
      <path
         inkscape:connector-curvature="0"
         sodipodi:nodetypes="ccccccccccccc"
         style="fill:#f2f2f2;fill-opacity:1;fill-rule:nonzero;stroke:none"
         d="m 238.77971,295.90384 -8.38591,8.35565 -8.35566,-8.38591 -3.35436,3.34226 8.35565,8.38591 -8.38591,8.35566 3.34226,3.35436 8.38591,-8.35566 8.35566,8.38592 3.35437,-3.34226 -8.35565,-8.38592 8.38591,-8.35566 -3.34227,-3.35435 z"
         id="path3119-3" />
    </g>
    <g
       id="16-16-window-close"
       transform="matrix(0.5,0,0,0.5,167.19387,156.8039)">
      <rect
         transform="translate(214.38775,291.6078)"
         y="0"
         x="0"
         height="32"
         width="32"
         id="rect3040-1"
         style="opacity:0;fill:#00ffff;stroke:none" />
      <path
         inkscape:connector-curvature="0"
         sodipodi:nodetypes="ccccccccccccc"
         style="fill:none;stroke:#000000;stroke-width:3.4;stroke-miterlimit:4;stroke-opacity:0.39215686000000000;stroke-dasharray:none"
         d="m 238.77971,295.90384 -8.38591,8.35565 -8.35566,-8.38591 -3.35436,3.34226 8.35565,8.38591 -8.38591,8.35566 3.34226,3.35436 8.38591,-8.35566 8.35566,8.38592 3.35437,-3.34226 -8.35565,-8.38592 8.38591,-8.35566 -3.34227,-3.35435 z"
         id="path3119-2-5" />
      <path
         inkscape:connector-curvature="0"
         sodipodi:nodetypes="ccccccccccccc"
         style="fill:#f2f2f2;fill-opacity:1;fill-rule:nonzero;stroke:none"
         d="m 238.77971,295.90384 -8.38591,8.35565 -8.35566,-8.38591 -3.35436,3.34226 8.35565,8.38591 -8.38591,8.35566 3.34226,3.35436 8.38591,-8.35566 8.35566,8.38592 3.35437,-3.34226 -8.35565,-8.38592 8.38591,-8.35566 -3.34227,-3.35435 z"
         id="path3119-9" />
    </g>
  </g>
</svg>
