<?xml version="1.0" encoding="UTF-8" standalone="no"?>
<!-- Created with Inkscape (http://www.inkscape.org/) -->
<svg
   xmlns:dc="http://purl.org/dc/elements/1.1/"
   xmlns:cc="http://creativecommons.org/ns#"
   xmlns:rdf="http://www.w3.org/1999/02/22-rdf-syntax-ns#"
   xmlns:svg="http://www.w3.org/2000/svg"
   xmlns="http://www.w3.org/2000/svg"
   xmlns:xlink="http://www.w3.org/1999/xlink"
   xmlns:sodipodi="http://sodipodi.sourceforge.net/DTD/sodipodi-0.dtd"
   xmlns:inkscape="http://www.inkscape.org/namespaces/inkscape"
   version="1.0"
   width="100"
   height="100"
   id="svg2"
   sodipodi:version="0.32"
   inkscape:version="0.46"
   sodipodi:docname="busywidget.svgz"
   inkscape:output_extension="org.inkscape.output.svgz.inkscape">
  <metadata
     id="metadata25">
    <rdf:RDF>
      <cc:Work
         rdf:about="">
        <dc:format>image/svg+xml</dc:format>
        <dc:type
           rdf:resource="http://purl.org/dc/dcmitype/StillImage" />
      </cc:Work>
    </rdf:RDF>
  </metadata>
  <sodipodi:namedview
     inkscape:window-height="952"
     inkscape:window-width="1280"
     inkscape:pageshadow="2"
     inkscape:pageopacity="0.0"
     guidetolerance="10.0"
     gridtolerance="10.0"
     objecttolerance="10.0"
     borderopacity="1.0"
     bordercolor="#666666"
     pagecolor="#ffffff"
     id="base"
     showgrid="false"
     inkscape:zoom="2.77"
     inkscape:cx="-53.898044"
     inkscape:cy="50.470915"
     inkscape:window-x="-4"
     inkscape:window-y="-3"
     inkscape:current-layer="busywidget" />
  <defs
     id="defs4">
    <linearGradient
       id="linearGradient3167">
      <stop
         style="stop-color:#00ffaa;stop-opacity:1;"
         offset="0"
         id="stop3169" />
      <stop
         style="stop-color:#00fff9;stop-opacity:0;"
         offset="1"
         id="stop3171" />
    </linearGradient>
    <inkscape:perspective
       sodipodi:type="inkscape:persp3d"
       inkscape:vp_x="0 : 50 : 1"
       inkscape:vp_y="0 : 1000 : 0"
       inkscape:vp_z="100 : 50 : 1"
       inkscape:persp3d-origin="50 : 33.333333 : 1"
       id="perspective27" />
    <radialGradient
       inkscape:collect="always"
       xlink:href="#linearGradient3167"
       id="radialGradient3173"
       cx="50.180504"
       cy="49.819496"
       fx="50.180504"
       fy="49.819496"
       r="49.819496"
       gradientUnits="userSpaceOnUse" />
  </defs>
  <g
     id="layer1">
    <rect
       width="45"
       height="8.5051775"
       x="13.061523"
       y="110.07188"
       id="hint-rotation-angle"
       style="opacity:1;fill:#60a500;fill-opacity:1;fill-rule:nonzero;stroke:none;stroke-width:6.69999981;stroke-linecap:round;stroke-linejoin:round;stroke-miterlimit:4;stroke-dasharray:none;stroke-dashoffset:0;stroke-opacity:1" />
    <g
       id="busywidget">
      <path
         sodipodi:type="arc"
         style="opacity:0.79384615;fill:url(#radialGradient3173);fill-opacity:1;stroke:none;stroke-width:15;stroke-linecap:square;stroke-linejoin:round;stroke-miterlimit:4;stroke-dasharray:15, 45;stroke-dashoffset:73.49999772999998982;stroke-opacity:1"
         id="path2395"
         sodipodi:cx="50.180504"
         sodipodi:cy="49.819496"
         sodipodi:rx="49.819496"
         sodipodi:ry="49.819496"
         d="M 100,49.819496 A 49.819496,49.819496 0 1 1 0.36100769,49.819496 A 49.819496,49.819496 0 1 1 100,49.819496 z" />
      <path
         id="path3236"
         d="M 49.916117,1.4580325 C 46.266056,1.4580325 42.710919,1.8588945 39.289303,2.6217758 C 40.2016,4.7602942 41.197299,7.2156243 42.290536,9.8492342 C 44.893347,9.3322145 47.590954,9.0529888 50.344865,9.0529888 C 57.194791,9.0529887 63.649585,10.741641 69.332255,13.707962 C 70.984783,11.55693 72.499117,9.5832462 73.895354,7.797371 C 66.816176,3.7741449 58.638278,1.4580325 49.916117,1.4580325 z"
         style="opacity:0.28307692;fill:#000000;fill-opacity:1;stroke:none;stroke-width:15;stroke-linecap:square;stroke-linejoin:round;stroke-miterlimit:4;stroke-dasharray:15, 45;stroke-dashoffset:73.49999772999998982;stroke-opacity:1" />
      <path
         id="path3238"
         d="M 36.594319,3.3261468 C 24.710931,6.7060932 14.661869,14.484625 8.3582308,24.794148 C 10.561072,25.678182 13.112589,26.702559 15.830688,27.826005 C 20.908628,20.006127 28.571793,14.019092 37.604938,11.074227 C 37.235455,8.250699 36.87292,5.6302194 36.594319,3.3261468 z"
         style="opacity:0.28307692;fill:#000000;fill-opacity:1;stroke:none;stroke-width:15;stroke-linecap:square;stroke-linejoin:round;stroke-miterlimit:4;stroke-dasharray:15, 45;stroke-dashoffset:73.49999772999998982;stroke-opacity:1" />
      <path
         id="path3240"
         d="M 7.0413634,27.121634 C 3.3616051,33.964227 1.2532717,41.781257 1.2532717,50.090252 C 1.2532717,54.275631 1.7882898,58.342047 2.7845129,62.217682 C 4.991617,61.277263 7.4872765,60.217526 10.19572,59.09395 C 9.5620429,56.226529 9.2157259,53.239167 9.2157259,50.182127 C 9.215726,43.674697 10.747307,37.523752 13.441952,32.052231 C 11.106745,30.257618 8.9125589,28.590404 7.0413634,27.121634 z"
         style="opacity:0.28307692;fill:#000000;fill-opacity:1;stroke:none;stroke-width:15;stroke-linecap:square;stroke-linejoin:round;stroke-miterlimit:4;stroke-dasharray:15, 45;stroke-dashoffset:73.49999772999998982;stroke-opacity:1" />
      <path
         id="path3242"
         d="M 97.476468,39.953436 C 95.41506,40.825214 93.20959,41.741587 90.800257,42.740295 C 91.24221,45.154644 91.474003,47.640762 91.474003,50.182127 C 91.474003,56.860806 89.862499,63.162476 87.033404,68.74077 C 89.078759,70.310495 90.962748,71.745604 92.729621,73.12012 C 96.425365,66.263301 98.548336,58.423498 98.548337,50.090252 C 98.548337,46.612771 98.170716,43.224477 97.476468,39.953436 z"
         style="opacity:0.05538462;fill:#000000;fill-opacity:1;stroke:none;stroke-width:15;stroke-linecap:square;stroke-linejoin:round;stroke-miterlimit:4;stroke-dasharray:15, 45;stroke-dashoffset:73.49999772999998982;stroke-opacity:1" />
      <path
         id="path3244"
         d="M 11.573838,63.902048 C 8.6724874,64.282551 5.964272,64.622847 3.5807583,64.912667 C 7.2522413,76.373587 15.043934,85.97577 25.232509,91.985011 C 26.118244,89.795368 27.100128,87.409593 28.172492,84.818802 C 20.543806,79.922972 14.647268,72.584678 11.573838,63.902048 z"
         style="opacity:0.28307692;fill:#000000;fill-opacity:1;stroke:none;stroke-width:15;stroke-linecap:square;stroke-linejoin:round;stroke-miterlimit:4;stroke-dasharray:15, 45;stroke-dashoffset:73.49999772999998982;stroke-opacity:1" />
      <path
         id="path3246"
         d="M 84.399669,73.242619 C 79.447744,80.537503 72.214845,86.153973 63.727913,89.075653 C 64.076784,91.72697 64.392513,94.169683 64.677282,96.456235 C 75.706108,92.944572 85.020987,85.574068 91.07588,75.968228 C 88.993339,75.121828 86.793257,74.233869 84.399669,73.242619 z"
         style="opacity:0.10461538;fill:#000000;fill-opacity:1;stroke:none;stroke-width:15;stroke-linecap:square;stroke-linejoin:round;stroke-miterlimit:4;stroke-dasharray:15, 45;stroke-dashoffset:73.49999772999998982;stroke-opacity:1" />
      <path
         id="path3248"
         d="M 32.674341,87.299413 C 30.959666,89.533037 29.358101,91.582685 27.896869,93.455003 C 34.509536,96.815875 41.995842,98.722473 49.916117,98.722472 C 53.926501,98.722472 57.825121,98.229665 61.55355,97.313731 C 60.660324,95.199326 59.694328,92.945137 58.674817,90.484395 C 55.989174,91.036495 53.193055,91.311265 50.344865,91.311265 C 44.018567,91.311265 38.030363,89.854902 32.674341,87.299413 z"
         style="opacity:0.13846154;fill:#000000;fill-opacity:1;stroke:none;stroke-width:15;stroke-linecap:square;stroke-linejoin:round;stroke-miterlimit:4;stroke-dasharray:15, 45;stroke-dashoffset:73.49999772999998982;stroke-opacity:1" />
      <path
         style="opacity:0.93538465000000004;fill:#ffffff;fill-opacity:1;stroke:none;stroke-width:15;stroke-linecap:square;stroke-linejoin:round;stroke-miterlimit:4;stroke-dasharray:15, 45;stroke-dashoffset:73.49999772999998982;stroke-opacity:1"
         d="M 49.194095,0.375 C 45.544034,0.375 41.988897,0.77586205 38.567281,1.5387433 C 39.479578,3.6772617 40.475277,6.1325918 41.568514,8.7662017 C 44.171325,8.249182 46.868932,7.9699563 49.622843,7.9699563 C 56.472769,7.9699562 62.927563,9.6586087 68.610233,12.62493 C 70.262761,10.473898 71.777095,8.5002137 73.173332,6.7143385 C 66.094154,2.6911124 57.916256,0.375 49.194095,0.375 z"
         id="path3234" />
      <path
         style="opacity:0.93538465000000004;fill:#ffffff;fill-opacity:0.91558444;stroke:none;stroke-width:15;stroke-linecap:square;stroke-linejoin:round;stroke-miterlimit:4;stroke-dasharray:15, 45;stroke-dashoffset:73.49999772999998982;stroke-opacity:1"
         d="M 35.872297,2.2431143 C 23.988909,5.6230607 13.939847,13.401593 7.6362091,23.711116 C 9.8390503,24.59515 12.390567,25.619527 15.108666,26.742973 C 20.186606,18.923095 27.849771,12.93606 36.882916,9.9911947 C 36.513433,7.1676665 36.150898,4.5471869 35.872297,2.2431143 z"
         id="path3232" />
      <path
         style="opacity:0.93538465000000004;fill:#ffffff;fill-opacity:0.77272725;stroke:none;stroke-width:15;stroke-linecap:square;stroke-linejoin:round;stroke-miterlimit:4;stroke-dasharray:15, 45;stroke-dashoffset:73.49999772999998982;stroke-opacity:1"
         d="M 6.3193417,26.038602 C 2.6395834,32.881195 0.53125001,40.698225 0.53125,49.00722 C 0.53125,53.192599 1.0662681,57.259015 2.0624912,61.13465 C 4.2695953,60.194231 6.7652548,59.134494 9.4736986,58.010918 C 8.8400212,55.143497 8.4937042,52.156135 8.4937042,49.099095 C 8.4937043,42.591665 10.025285,36.44072 12.71993,30.969199 C 10.384723,29.174586 8.1905372,27.507372 6.3193417,26.038602 z"
         id="path3228" />
      <path
         style="opacity:0.93538465000000004;fill:#ffffff;fill-opacity:0.15909089;stroke:none;stroke-width:15;stroke-linecap:square;stroke-linejoin:round;stroke-miterlimit:4;stroke-dasharray:15, 45;stroke-dashoffset:73.49999772999998982;stroke-opacity:1"
         d="M 96.754446,38.870404 C 94.693038,39.742182 92.487568,40.658555 90.078235,41.657263 C 90.520188,44.071612 90.751981,46.55773 90.751981,49.099095 C 90.751981,55.777774 89.140477,62.079444 86.311382,67.657738 C 88.356737,69.227463 90.240726,70.662572 92.007599,72.037088 C 95.703343,65.180269 97.826314,57.340466 97.826315,49.00722 C 97.826315,45.529739 97.448694,42.141445 96.754446,38.870404 z"
         id="path3226" />
      <path
         style="opacity:0.93538465000000004;fill:#ffffff;fill-opacity:0.57792211;stroke:none;stroke-width:15;stroke-linecap:square;stroke-linejoin:round;stroke-miterlimit:4;stroke-dasharray:15, 45;stroke-dashoffset:73.49999772999998982;stroke-opacity:1"
         d="M 10.851816,62.819016 C 7.9504657,63.199519 5.2422503,63.539815 2.8587366,63.829635 C 6.5302196,75.290555 14.321912,84.892738 24.510487,90.901979 C 25.396222,88.712336 26.378106,86.326561 27.45047,83.73577 C 19.821784,78.83994 13.925246,71.501646 10.851816,62.819016 z"
         id="path3224" />
      <path
         style="opacity:0.93538465000000004;fill:#ffffff;fill-opacity:0.27922082;stroke:none;stroke-width:15;stroke-linecap:square;stroke-linejoin:round;stroke-miterlimit:4;stroke-dasharray:15, 45;stroke-dashoffset:73.49999772999998982;stroke-opacity:1"
         d="M 83.677647,72.159587 C 78.725722,79.454471 71.492823,85.070941 63.005891,87.992621 C 63.354762,90.643938 63.670491,93.086651 63.95526,95.373203 C 74.984086,91.86154 84.298965,84.491036 90.353858,74.885196 C 88.271317,74.038796 86.071235,73.150837 83.677647,72.159587 z"
         id="path3222" />
      <path
         style="opacity:0.93538465000000004;fill:#ffffff;fill-opacity:0.39610392;stroke:none;stroke-width:15;stroke-linecap:square;stroke-linejoin:round;stroke-miterlimit:4;stroke-dasharray:15, 45;stroke-dashoffset:73.49999772999998982;stroke-opacity:1"
         d="M 31.952319,86.216381 C 30.237644,88.450005 28.636079,90.499653 27.174847,92.371971 C 33.787514,95.732843 41.27382,97.639441 49.194095,97.63944 C 53.204479,97.63944 57.103099,97.146633 60.831528,96.230699 C 59.938302,94.116294 58.972306,91.862105 57.952795,89.401363 C 55.267152,89.953463 52.471033,90.228233 49.622843,90.228233 C 43.296545,90.228233 37.308341,88.77187 31.952319,86.216381 z"
         id="path3212" />
    </g>
  </g>
</svg>
